<svg xmlns="http://www.w3.org/2000/svg" width="17.6" height="17.665" viewBox="0 0 17.6 17.665">
  <g id="Group_115" data-name="Group 115" transform="translate(-61.2 -258.635)">
    <path id="home" d="M17.774,8.954,16.228,7.408,10.046,1.226a.773.773,0,0,0-1.093,0L2.772,7.408,1.226,8.954a.773.773,0,1,0,1.093,1.093l.226-.226v7.407A.773.773,0,0,0,3.318,18H15.682a.773.773,0,0,0,.773-.773V9.82l.226.226a.773.773,0,1,0,1.093-1.093Zm-2.864,7.5H4.091V8.274L9.5,2.865l5.409,5.409Z" transform="translate(60.5 258)" fill="#bb2a22" stroke="#fff" stroke-width="0.6"/>
    <path id="walk" d="M13.964,9.048a.675.675,0,0,1-.674-.674V6.652a.089.089,0,0,0-.028-.065l-.513-.478-.319.677a.394.394,0,0,1-.04.067l-1.2,1.6a.679.679,0,0,1-.449.306.688.688,0,0,1-.711-1.046l1.105-1.578a.086.086,0,0,0,.013-.027l.725-2.562a.087.087,0,0,0-.02-.084.1.1,0,0,0-.016-.014l-.523,1.173a.594.594,0,1,1-1.089-.474l.692-1.54a.622.622,0,0,1,.254-.263l.019-.009,1.43-.539a.388.388,0,0,1,.3.008L13.8,2.2a.391.391,0,0,1,.187.174l.251.474a.09.09,0,0,0,.037.037l1.37.721a.618.618,0,1,1-.573,1.1l-1.287-.686a.088.088,0,0,0-.126.053l-.17.58a.089.089,0,0,0,.013.077L14.549,6.16a.457.457,0,0,1,.088.271V8.374a.675.675,0,0,1-.674.674ZM12.7,5.708a.151.151,0,0,1,.1.04l.664.618a.391.391,0,0,1,.124.285V8.374a.373.373,0,1,0,.745,0V6.43a.157.157,0,0,0-.03-.093L13.26,4.9a.392.392,0,0,1-.059-.339l.17-.58a.39.39,0,0,1,.558-.234l1.286.685a.317.317,0,0,0,.293-.562h0l-1.37-.721a.389.389,0,0,1-.163-.162l-.251-.474a.088.088,0,0,0-.042-.039l-.885-.392a.088.088,0,0,0-.067,0l-1.419.535a.315.315,0,0,0-.12.125L10.5,4.274a.292.292,0,0,0,.537.231l.568-1.275a.151.151,0,0,1,.11-.087.39.39,0,0,1,.448.489L11.44,6.195a.388.388,0,0,1-.056.117l-1.1,1.573a.387.387,0,1,0,.66.4l1.205-1.614a.086.086,0,0,0,.009-.015l.407-.864a.15.15,0,0,1,.108-.084l.029,0Zm1.005-3.874a.917.917,0,1,1,.917-.917.917.917,0,0,1-.917.917Zm0-1.533a.616.616,0,1,0,.616.616A.616.616,0,0,0,13.705.3Z" transform="translate(56.771 264.198)" fill="#bb2a22" stroke="#bb2a22" stroke-width="0.4"/>
  </g>
</svg>
