<svg xmlns="http://www.w3.org/2000/svg" width="17.1" height="17.1" viewBox="0 0 17.1 17.1">
  <g id="hospital" transform="translate(-3.95 -3.95)">
    <path id="Path_21644" data-name="Path 21644" d="M4.425,21h16.15A.425.425,0,0,0,21,20.575v-10.2a.425.425,0,0,0-.425-.425H18.45V6.125a.425.425,0,0,0-.425-.425H15.9V5.275A1.275,1.275,0,0,0,14.625,4h-4.25A1.275,1.275,0,0,0,9.1,5.275V5.7H6.975a.425.425,0,0,0-.425.425V9.95H4.425A.425.425,0,0,0,4,10.375v10.2A.425.425,0,0,0,4.425,21ZM18.45,10.8h1.7v9.35h-1.7Zm-4.675,9.35h-2.55V17.175h2.55ZM9.95,5.275a.425.425,0,0,1,.425-.425h4.25a.425.425,0,0,1,.425.425v4.25a.425.425,0,0,1-.425.425h-4.25a.425.425,0,0,1-.425-.425ZM7.4,6.55H9.1V9.525A1.275,1.275,0,0,0,10.375,10.8h4.25A1.275,1.275,0,0,0,15.9,9.525V6.55h1.7v13.6H14.625v-3.4a.425.425,0,0,0-.425-.425H10.8a.425.425,0,0,0-.425.425v3.4H7.4ZM4.85,10.8h1.7v9.35H4.85Z" fill="#bb2a22" stroke="#bb2a22" stroke-width="0.1"/>
    <path id="Path_21645" data-name="Path 21645" d="M20.425,10.125h.85v.85a.425.425,0,0,0,.85,0v-.85h.85a.425.425,0,1,0,0-.85h-.85v-.85a.425.425,0,1,0-.85,0v.85h-.85a.425.425,0,0,0,0,.85Z" transform="translate(-9.2 -2.3)" fill="#bb2a22" stroke="#bb2a22" stroke-width="0.1"/>
  </g>
</svg>
