<svg xmlns="http://www.w3.org/2000/svg" width="18.777" height="18.822" viewBox="0 0 18.777 18.822">
  <g id="Search" transform="translate(0.15 0.15)">
    <g id="_x34__4_" transform="translate(0)">
      <g id="Group_37" data-name="Group 37">
        <path id="Path_109" data-name="Path 109" d="M18.308,17.472l-4.771-4.694A7.546,7.546,0,0,0,15.554,7.65,7.714,7.714,0,0,0,7.78,0,7.713,7.713,0,0,0,.006,7.65,7.713,7.713,0,0,0,7.78,15.3a7.818,7.818,0,0,0,4.893-1.708l4.789,4.713a.6.6,0,0,0,.846,0A.582.582,0,0,0,18.308,17.472ZM7.78,14.124A6.526,6.526,0,0,1,1.2,7.65,6.526,6.526,0,0,1,7.78,1.177,6.526,6.526,0,0,1,14.358,7.65,6.526,6.526,0,0,1,7.78,14.124Z" transform="translate(-0.006)" fill="#bb2a22" stroke="#ed1c24" stroke-width="0.3"/>
      </g>
    </g>
  </g>
</svg>
