<svg xmlns="http://www.w3.org/2000/svg" width="25.3" height="25.357" viewBox="0 0 25.3 25.357">
  <g id="Search" transform="translate(0.15 0.15)">
    <g id="_x34__4_" transform="translate(0)">
      <g id="Group_37" data-name="Group 37">
        <path id="Path_109" data-name="Path 109" d="M24.769,23.64l-6.455-6.351a10.209,10.209,0,0,0,2.729-6.938A10.436,10.436,0,0,0,10.524,0,10.435,10.435,0,0,0,.006,10.351,10.435,10.435,0,0,0,10.524,20.7a10.578,10.578,0,0,0,6.62-2.311l6.48,6.376a.818.818,0,0,0,1.144,0A.788.788,0,0,0,24.769,23.64ZM10.524,19.109a8.83,8.83,0,0,1-8.9-8.758,8.83,8.83,0,0,1,8.9-8.758,8.83,8.83,0,0,1,8.9,8.758A8.83,8.83,0,0,1,10.524,19.109Z" transform="translate(-0.006)" fill="#fff" stroke="#fff" stroke-width="0.3"/>
      </g>
    </g>
  </g>
</svg>
