<svg xmlns="http://www.w3.org/2000/svg" width="24" height="24.34" viewBox="0 0 24 24.34">
  <g id="order-icon" transform="translate(2587 -4313.898)">
    <rect id="Rectangle_3" data-name="Rectangle 3" width="24" height="24" transform="translate(-2587 4314)" fill="#fff"/>
    <g id="clipboard_2_" data-name="clipboard (2)" transform="translate(-2631.516 4314.003)">
      <g id="Group_2107" data-name="Group 2107" transform="translate(47.037)">
        <g id="Group_2106" data-name="Group 2106">
          <path id="Path_21702" data-name="Path 21702" d="M63.582,3.162H61.4V2.185c0-.316-.345-.46-.661-.46h-1.7A2.569,2.569,0,0,0,56.487,0a2.614,2.614,0,0,0-2.556,1.723H52.265c-.316,0-.632.144-.632.46V3.16H49.45a2.442,2.442,0,0,0-2.413,2.327v16.46A2.311,2.311,0,0,0,49.45,24.13H63.582A2.311,2.311,0,0,0,66,21.947V5.488a2.442,2.442,0,0,0-2.413-2.326Zm-10.8-.287h1.58a.632.632,0,0,0,.546-.517,1.666,1.666,0,0,1,1.58-1.293,1.637,1.637,0,0,1,1.551,1.293.632.632,0,0,0,.574.517H60.25v2.3H52.782ZM64.846,21.947a1.165,1.165,0,0,1-1.264,1.034H49.45a1.165,1.165,0,0,1-1.264-1.034V5.488A1.293,1.293,0,0,1,49.45,4.311h2.183V5.776a.6.6,0,0,0,.632.546h8.474a.632.632,0,0,0,.661-.546V4.311h2.183a1.293,1.293,0,0,1,1.264,1.178V21.947Z" transform="translate(-47.037)" fill="#bb2a22" stroke="#bb2a22" stroke-width="0.2"/>
          <path id="Path_21703" data-name="Path 21703" d="M103.77,230.491a.574.574,0,0,0-.8-.029l-1.838,1.752-.776-.8a.575.575,0,0,0-.8-.029.6.6,0,0,0,0,.833l1.178,1.206a.517.517,0,0,0,.4.172.574.574,0,0,0,.4-.172l2.24-2.126a.546.546,0,0,0,.033-.771Q103.787,230.506,103.77,230.491Z" transform="translate(-96.503 -217.649)" fill="#bb2a22" stroke="#bb2a22" stroke-width="0.2"/>
          <path id="Path_21704" data-name="Path 21704" d="M205.729,256.034h-6.607a.574.574,0,1,0,0,1.149h6.607a.574.574,0,1,0,0-1.149Z" transform="translate(-190.218 -241.957)" fill="#bb2a22" stroke="#bb2a22" stroke-width="0.2"/>
          <path id="Path_21705" data-name="Path 21705" d="M103.77,146.9a.574.574,0,0,0-.8-.029l-1.838,1.752-.776-.8a.574.574,0,0,0-.8-.029.6.6,0,0,0,0,.833l1.178,1.206a.517.517,0,0,0,.4.172.574.574,0,0,0,.4-.172l2.24-2.126a.546.546,0,0,0,.033-.771A.366.366,0,0,0,103.77,146.9Z" transform="translate(-96.503 -138.653)" fill="#bb2a22" stroke="#bb2a22" stroke-width="0.2"/>
          <path id="Path_21706" data-name="Path 21706" d="M205.729,172.442h-6.607a.575.575,0,0,0,0,1.149h6.607a.574.574,0,1,0,0-1.149Z" transform="translate(-190.218 -162.961)" fill="#bb2a22" stroke="#bb2a22" stroke-width="0.2"/>
          <path id="Path_21707" data-name="Path 21707" d="M103.77,314.082a.574.574,0,0,0-.8-.029l-1.838,1.752-.776-.8a.575.575,0,0,0-.8-.029.6.6,0,0,0,0,.833l1.178,1.206a.517.517,0,0,0,.4.172.574.574,0,0,0,.4-.172l2.24-2.126a.546.546,0,0,0,.033-.771Z" transform="translate(-96.503 -296.645)" fill="#bb2a22" stroke="#bb2a22" stroke-width="0.2"/>
          <path id="Path_21708" data-name="Path 21708" d="M205.729,339.626h-6.607a.574.574,0,0,0,0,1.149h6.607a.574.574,0,1,0,0-1.149Z" transform="translate(-190.218 -320.953)" fill="#bb2a22" stroke="#bb2a22" stroke-width="0.2"/>
        </g>
      </g>
    </g>
  </g>
</svg>
