<svg xmlns="http://www.w3.org/2000/svg" width="23" height="24.334" viewBox="0 0 23 24.334">
  <g id="order-icon" transform="translate(2586.793 -4313.898)">
    <rect id="Rectangle_3" data-name="Rectangle 3" width="23" height="24" transform="translate(-2586.793 4314)" fill="#f5f5f5"/>
    <g id="clipboard_2_" data-name="clipboard (2)" transform="translate(-2631.83 4314.003)">
      <g id="Group_2107" data-name="Group 2107" transform="translate(47.037 -0.003)">
        <g id="Group_2106" data-name="Group 2106" transform="translate(0)">
          <path id="Path_21702" data-name="Path 21702" d="M63.578,3.161H61.4V2.184c0-.316-.345-.46-.661-.46h-1.7A2.568,2.568,0,0,0,56.485,0a2.613,2.613,0,0,0-2.555,1.723H52.264c-.316,0-.632.144-.632.46v.977H49.449a2.441,2.441,0,0,0-2.412,2.326V21.942a2.31,2.31,0,0,0,2.412,2.182H63.578A2.31,2.31,0,0,0,66,21.942V5.487a2.441,2.441,0,0,0-2.412-2.325Zm-10.8-.287h1.58a.632.632,0,0,0,.546-.517,1.666,1.666,0,0,1,1.58-1.293,1.637,1.637,0,0,1,1.551,1.293.632.632,0,0,0,.574.517h1.637v2.3H52.781ZM64.842,21.942a1.165,1.165,0,0,1-1.264,1.034H49.449a1.165,1.165,0,0,1-1.264-1.034V5.487A1.293,1.293,0,0,1,49.449,4.31h2.182V5.775a.6.6,0,0,0,.632.546h8.472a.632.632,0,0,0,.661-.546V4.31h2.182a1.293,1.293,0,0,1,1.264,1.178V21.942Z" transform="translate(-47.037 0.003)" fill="#bb2a22" stroke="#bb2a22" stroke-width="0.2"/>
          <path id="Path_21703" data-name="Path 21703" d="M103.769,230.491a.574.574,0,0,0-.8-.029l-1.838,1.752-.776-.8a.575.575,0,0,0-.8-.029.6.6,0,0,0,0,.833l1.178,1.206a.517.517,0,0,0,.4.172.574.574,0,0,0,.4-.172l2.239-2.125a.546.546,0,0,0,.033-.771Q103.786,230.506,103.769,230.491Z" transform="translate(-96.504 -217.649)" fill="#bb2a22" stroke="#bb2a22" stroke-width="0.2"/>
          <path id="Path_21704" data-name="Path 21704" d="M205.727,256.034h-6.605a.574.574,0,1,0,0,1.149h6.605a.574.574,0,1,0,0-1.149Z" transform="translate(-190.22 -241.957)" fill="#bb2a22" stroke="#bb2a22" stroke-width="0.2"/>
          <path id="Path_21705" data-name="Path 21705" d="M103.769,146.9a.574.574,0,0,0-.8-.029l-1.838,1.752-.776-.8a.574.574,0,0,0-.8-.029.6.6,0,0,0,0,.833l1.178,1.206a.517.517,0,0,0,.4.172.574.574,0,0,0,.4-.172l2.239-2.126a.546.546,0,0,0,.033-.771.366.366,0,0,0-.037-.036Z" transform="translate(-96.504 -138.652)" fill="#bb2a22" stroke="#bb2a22" stroke-width="0.2"/>
          <path id="Path_21706" data-name="Path 21706" d="M205.727,172.442h-6.605a.575.575,0,0,0,0,1.149h6.605a.574.574,0,1,0,0-1.149Z" transform="translate(-190.22 -162.96)" fill="#bb2a22" stroke="#bb2a22" stroke-width="0.2"/>
          <path id="Path_21707" data-name="Path 21707" d="M103.769,314.082a.574.574,0,0,0-.8-.029l-1.838,1.752-.776-.8a.575.575,0,0,0-.8-.029.6.6,0,0,0,0,.833l1.178,1.206a.517.517,0,0,0,.4.172.574.574,0,0,0,.4-.172l2.239-2.126a.546.546,0,0,0,.033-.771Z" transform="translate(-96.504 -296.646)" fill="#bb2a22" stroke="#bb2a22" stroke-width="0.2"/>
          <path id="Path_21708" data-name="Path 21708" d="M205.727,339.626h-6.605a.574.574,0,1,0,0,1.149h6.605a.574.574,0,1,0,0-1.149Z" transform="translate(-190.22 -320.954)" fill="#bb2a22" stroke="#bb2a22" stroke-width="0.2"/>
        </g>
      </g>
    </g>
  </g>
</svg>
