<svg xmlns="http://www.w3.org/2000/svg" width="26.154" height="25.2" viewBox="0 0 26.154 25.2">
  <g id="shopping-cart" transform="translate(0.1 -8.231)">
    <g id="Group_2037" data-name="Group 2037" transform="translate(0 8.331)">
      <path id="Path_21665" data-name="Path 21665" d="M20.962,26.255a2.4,2.4,0,0,0,2.3-1.785l2.66-9.905a.605.605,0,0,0-.424-.74.711.711,0,0,0-.152-.023H5.337L3.976,8.777A.6.6,0,0,0,3.4,8.331H0v1.2H2.925l1.316,4.913a.417.417,0,0,0,0,.119L6.952,24.5a1.986,1.986,0,0,0,.073.243l.915,3.332A2.789,2.789,0,1,0,11.7,29.209c-.051-.09-.1-.181-.164-.271h7.1a2.789,2.789,0,1,0,4.337-.282,2.71,2.71,0,0,0-2.022-.92H9.143l-.424-1.553a2.29,2.29,0,0,0,.553.073Zm-.04,2.682a1.6,1.6,0,1,1-1.6,1.6A1.6,1.6,0,0,1,20.923,28.937Zm-11.673,0a1.6,1.6,0,1,1-1.6,1.6A1.6,1.6,0,0,1,9.25,28.937ZM8.177,24.29l-1.35-4.936-1.2-4.337H24.537L22.092,24.2a1.207,1.207,0,0,1-1.146.9H9.261A1.218,1.218,0,0,1,8.177,24.29Z" transform="translate(0 -8.331)" fill="#fff" stroke="#fff" stroke-width="0.2"/>
    </g>
  </g>
</svg>
