<svg xmlns="http://www.w3.org/2000/svg" width="22.116" height="22.137" viewBox="0 0 22.116 22.137">
  <g id="Group_25" data-name="Group 25" transform="translate(0)">
    <g id="WhatsApp_" data-name="WhatsApp+">
      <path id="Path_490" data-name="Path 490" d="M18.848,3.215a11.064,11.064,0,0,0-15.592,0A10.86,10.86,0,0,0,0,10.966v.005a10.916,10.916,0,0,0,1.347,5.181L.03,22.137,6.084,20.76a11.08,11.08,0,0,0,4.969,1.181h0a11.028,11.028,0,0,0,7.8-3.212,10.853,10.853,0,0,0-.011-15.514Zm-7.79,17h0a9.339,9.339,0,0,1-4.439-1.125l-.286-.155L2.3,19.848l.874-3.974-.169-.291A9.235,9.235,0,0,1,1.728,10.97a9.327,9.327,0,0,1,15.9-6.531,9.184,9.184,0,0,1,2.76,6.535,9.3,9.3,0,0,1-9.33,9.239Zm0,0" transform="translate(0)" fill="#fff"/>
      <path id="Path_491" data-name="Path 491" d="M140.911,141.863h-.485a.931.931,0,0,0-.674.315,2.823,2.823,0,0,0-.885,2.1,4.9,4.9,0,0,0,1.033,2.607,10.368,10.368,0,0,0,4.321,3.805c2.137.84,2.572.673,3.035.631a2.554,2.554,0,0,0,1.707-1.2,2.1,2.1,0,0,0,.148-1.2c-.063-.105-.232-.168-.485-.294s-1.493-.746-1.725-.831-.4-.126-.569.127-.665.835-.813,1-.3.189-.548.063a6.993,6.993,0,0,1-2.026-1.256,7.751,7.751,0,0,1-1.422-1.773c-.147-.252-.016-.389.111-.514s.267-.267.394-.414a1.705,1.705,0,0,0,.247-.421.463.463,0,0,0-.021-.441c-.063-.126-.549-1.373-.774-1.871h0C141.291,141.885,141.091,141.87,140.911,141.863Zm0,0" transform="translate(-132.863 -135.729)" fill="#fff"/>
    </g>
  </g>
</svg>
