<svg xmlns="http://www.w3.org/2000/svg" width="15.11" height="16.752" viewBox="0 0 15.11 16.752">
  <g id="g3222" transform="translate(-1.287 682.701)">
    <g id="g3224" transform="translate(1.762 -682.299)">
      <g id="Group_1914" data-name="Group 1914" transform="translate(0 0)">
        <g id="g3232" transform="translate(4.371)">
          <path id="path3234" d="M-218.946-94.607l-2.176-2.135a.794.794,0,0,0-1.066,0l-2.175,2.135" transform="translate(224.364 96.947)" fill="none" stroke="#bb2a22" stroke-linecap="round" stroke-linejoin="round" stroke-width="0.7"/>
        </g>
        <g id="g3236" transform="translate(12.897 6.394)">
          <path id="path3238" d="M-41.277,0-42.3,1.019" transform="translate(42.299)" fill="none" stroke="#bb2a22" stroke-linecap="round" stroke-linejoin="round" stroke-width="0.7"/>
        </g>
        <g id="g3240" transform="translate(8.311 11.992)">
          <path id="path3242" d="M0,0,5.849,3.214" fill="none" stroke="#bb2a22" stroke-linecap="round" stroke-linejoin="round" stroke-width="0.7"/>
        </g>
        <g id="g3244" transform="translate(0.241 6.394)">
          <path id="path3246" d="M-41.277-41.2-42.3-42.224" transform="translate(42.299 42.224)" fill="none" stroke="#bb2a22" stroke-linecap="round" stroke-linejoin="round" stroke-width="0.7"/>
        </g>
        <g id="g3248" transform="translate(0 11.992)">
          <path id="path3250" d="M-236.381,0l-5.849,3.214" transform="translate(242.23)" fill="none" stroke="#bb2a22" stroke-linecap="round" stroke-linejoin="round" stroke-width="0.7"/>
        </g>
        <g id="g3252" transform="translate(10.76 5.392)">
          <path id="path3254" d="M0-428.739H2.605a.794.794,0,0,0,.794-.794v-8.237a.8.8,0,0,0-.241-.574l-1.021-1" transform="translate(0 439.347)" fill="none" stroke="#bb2a22" stroke-linecap="round" stroke-linejoin="round" stroke-width="0.7"/>
        </g>
        <g id="g3256" transform="translate(0 10.776)">
          <path id="path3258" d="M0,0V4.43a.794.794,0,0,0,.794.794H9.708" fill="none" stroke="#bb2a22" stroke-linecap="round" stroke-linejoin="round" stroke-width="0.7"/>
        </g>
        <g id="g3260" transform="translate(0 5.392)">
          <path id="path3262" d="M-51.02,0l-1.021,1a.8.8,0,0,0-.241.574V4.332" transform="translate(52.283)" fill="none" stroke="#bb2a22" stroke-linecap="round" stroke-linejoin="round" stroke-width="0.7"/>
        </g>
        <g id="g3264" transform="translate(1.262 2.341)">
          <path id="path3266" d="M-470.239-55.674v-.573a.8.8,0,0,0-.8-.8h-10.025a.8.8,0,0,0-.805.8v4.268l4.586,4.578.849-.466a.794.794,0,0,1,.765,0l.849.466,4.586-4.578v-2.668" transform="translate(481.874 57.052)" fill="none" stroke="#bb2a22" stroke-linecap="round" stroke-linejoin="round" stroke-width="0.7"/>
        </g>
        <g id="g3268" transform="translate(6.075 5.296)">
          <path id="path3270" d="M-71.306-43.2a1.016,1.016,0,0,1-.87,1.129A1.025,1.025,0,0,1-73.07-43.2a1,1,0,0,1,.917-1.076C-71.679-44.272-71.306-43.849-71.306-43.2Z" transform="translate(73.07 44.272)" fill="none" stroke="#bb2a22" stroke-linecap="round" stroke-linejoin="round" stroke-width="0.7"/>
        </g>
        <g id="g3272" transform="translate(4.904 4.204)">
          <path id="path3274" d="M-86.1-177.161a2.193,2.193,0,0,1-2.059-1.636,2.2,2.2,0,0,1,1.455-2.643,2.191,2.191,0,0,1,2.764,1.455,1.961,1.961,0,0,1-.114,1.291.831.831,0,0,1-.764.551.521.521,0,0,1-.48-.542l.01-1.922" transform="translate(88.235 181.544)" fill="none" stroke="#bb2a22" stroke-linecap="round" stroke-linejoin="round" stroke-width="0.7"/>
        </g>
        <g id="g3276" transform="translate(9.079 5.763)">
          <path id="path3278" d="M-4.587,0A1.961,1.961,0,0,1-4.7,1.291" transform="translate(4.7)" fill="none" stroke="#bb2a22" stroke-linecap="round" stroke-linejoin="round" stroke-width="0.7"/>
        </g>
      </g>
    </g>
  </g>
</svg>
