<svg xmlns="http://www.w3.org/2000/svg" width="75.2" height="75.2" viewBox="0 0 75.2 75.2">
  <g id="user_4_" data-name="user (4)" transform="translate(5.6 1.6)">
    <g id="Group_1947" data-name="Group 1947" transform="translate(0)">
      <path id="Path_21614" data-name="Path 21614" d="M61.456,46.544a35.862,35.862,0,0,0-13.68-8.581,20.813,20.813,0,1,0-23.551,0A36.057,36.057,0,0,0,0,72H5.625a30.375,30.375,0,1,1,60.75,0H72A35.765,35.765,0,0,0,61.456,46.544ZM36,36A15.188,15.188,0,1,1,51.187,20.813,15.2,15.2,0,0,1,36,36Z" transform="translate(-4)" fill="#bb2a22" stroke="#fff" stroke-width="3.2"/>
    </g>
  </g>
</svg>
