<svg xmlns="http://www.w3.org/2000/svg" width="71.297" height="72.201" viewBox="0 0 71.297 72.201">
  <g id="Group_2207" data-name="Group 2207" transform="translate(-40.9 -457.899)">
    <g id="medical_1_" data-name="medical (1)" transform="translate(19 439)">
      <path id="Path_21738" data-name="Path 21738" d="M74.835,54.568a18.207,18.207,0,0,0-14.947,7.818q-.43-.132-.813-.257L58.043,59.2a11.868,11.868,0,0,0,4.3-7.929c2.145-.582,4.115-3.1,4.9-6.442a3.607,3.607,0,0,0-1.55-4.186,2.652,2.652,0,0,0-1.212-.294c.07-.524.143-1.165.218-1.953.177-1.842.289-3.7.289-4.174,0-.334.007-.679.014-1.043.056-2.909.126-6.528-3.082-9.774h0a15.32,15.32,0,0,0-22.015.528l-.25.28c-1.613,1.8-3.822,4.27-3.663,10.591a40.942,40.942,0,0,0,1.221,5.615,2.678,2.678,0,0,0-1.02.315,3.573,3.573,0,0,0-1.482,4.094c.79,3.346,2.766,5.869,4.916,6.445A12.184,12.184,0,0,0,43.9,59.134l-1.361,2.8c-.972.3-2.068.607-3.2.923C32.029,64.906,22,67.712,22,76.826v9.53C22,88.607,23.2,91,25.365,91H74.9l.029,0a18.215,18.215,0,1,0-.093-36.43ZM41.246,25.633l.257-.289a12.882,12.882,0,0,1,9.3-4.214,13.017,13.017,0,0,1,9.612,3.77c2.577,2.606,2.519,5.6,2.468,8.237-.007.375-.014.73-.014,1.085,0,.225-.023.693-.062,1.288a12.187,12.187,0,0,0-2.223-4.837l-.079-.157a1.063,1.063,0,0,0-1.919.035c-1.713,3.768-3.41,3.617-6.222,3.366-.326-.029-.658-.059-1-.082a1.449,1.449,0,0,0-1.574.82c-.347.805.135,1.674,1.017,2.705-2.807-.335-3.518-2.388-4.159-4.24-.445-1.285-.949-2.742-2.415-2.742A4.953,4.953,0,0,0,40.473,32a9.389,9.389,0,0,0-2.045,4.471,13.457,13.457,0,0,1-.3-1.719C37.986,29.275,39.717,27.34,41.246,25.633Zm.417,24.66a1.071,1.071,0,0,0-1.063-1.02h-.046c-1.557,0-3.2-2.54-3.767-4.931-.216-.917.068-1.542.423-1.735.4-.217.831.165,1,.34a1.349,1.349,0,0,0,1.965-1.207c-.113-1.631,0-6.3,1.859-8.291a2.846,2.846,0,0,1,2.078-.94,7.55,7.55,0,0,1,.533,1.309C45.429,36.094,46.9,40.33,53.4,39.4a1.063,1.063,0,0,0,.569-1.836,19.3,19.3,0,0,1-1.466-1.5c2.5.217,5.05.3,7.157-3.017,1.332,2.5,2.025,7.465,2.2,9.437a1.063,1.063,0,0,0,1.058.972c.03,0,.061,0,.092,0a1.062,1.062,0,0,0,.888-.645c.21-.207.53-.431.835-.274.39.2.671.886.455,1.808-.565,2.391-2.209,4.932-3.767,4.932h-.027a1.072,1.072,0,0,0-.585.162,1.06,1.06,0,0,0-.5.871c-.046.869-.457,5.315-4.08,7.567l-.017.011A9.813,9.813,0,0,1,50.983,59.2a9.607,9.607,0,0,1-5.212-1.342c-3.571-2.255-4.049-6.693-4.109-7.56ZM44.25,63.274l1.473-3.029a12.3,12.3,0,0,0,5.26,1.077A12.577,12.577,0,0,0,56.175,60.3l1.067,3.027a1.063,1.063,0,0,0,.66.653q.4.135.841.277a18.091,18.091,0,0,0-1.285,3.06,8.511,8.511,0,0,1-12.632.277,7.953,7.953,0,0,1-1.97-3.532q.391-.12.766-.241a1.063,1.063,0,0,0,.627-.546ZM24.127,86.356v-9.53c0-7.5,8.761-9.952,15.785-11.921.3-.083.6-.166.889-.247a10.66,10.66,0,0,0,15.93,6.093A18.22,18.22,0,0,0,66.3,88.873H25.365C24.689,88.873,24.127,87.52,24.127,86.356Zm50.708,2.517A16.089,16.089,0,1,1,90.924,72.784,16.089,16.089,0,0,1,74.835,88.873Z" transform="translate(0 0)" fill="#bb2a22" stroke="#fff" stroke-width="0.2"/>
    </g>
    <text id="new" transform="translate(81 515)" fill="#bb2a22" stroke="rgba(0,0,0,0)" stroke-width="1" font-size="12" font-family="Poppins-Bold, Poppins" font-weight="700"><tspan x="0" y="0">New</tspan></text>
  </g>
</svg>
