<svg xmlns="http://www.w3.org/2000/svg" width="25.419" height="25.479" viewBox="0 0 25.419 25.479">
  <g id="_24_7_" data-name="24/7 " transform="translate(0.163 0.15)">
    <path id="Path_488" data-name="Path 488" d="M21.4,3.649a12.56,12.56,0,0,0-17.7,0,12.328,12.328,0,0,0-3.7,8.8v.006a12.392,12.392,0,0,0,1.529,5.881L.034,25.13l6.872-1.563a12.578,12.578,0,0,0,5.641,1.34h0a12.519,12.519,0,0,0,8.856-3.647A12.32,12.32,0,0,0,21.4,3.649Zm-8.844,19.3h0a10.6,10.6,0,0,1-5.039-1.277l-.325-.176-4.57,1.039.993-4.511-.191-.33a10.484,10.484,0,0,1-1.454-5.238,10.588,10.588,0,0,1,18.05-7.414,10.426,10.426,0,0,1,3.133,7.419A10.555,10.555,0,0,1,12.552,22.946Zm0,0" transform="translate(0)" fill="#fff" stroke="#bb2a22" stroke-width="0.3"/>
    <path id="Path_489" data-name="Path 489" d="M141.188,141.863h-.55a1.057,1.057,0,0,0-.766.358,3.2,3.2,0,0,0-1.005,2.387,5.558,5.558,0,0,0,1.172,2.96,11.77,11.77,0,0,0,4.9,4.32c2.426.953,2.919.764,3.446.716a2.9,2.9,0,0,0,1.938-1.36,2.385,2.385,0,0,0,.168-1.361c-.072-.119-.263-.191-.55-.334s-1.694-.847-1.958-.943-.455-.143-.646.144-.755.948-.923,1.139-.335.215-.622.072a7.938,7.938,0,0,1-2.3-1.426,8.8,8.8,0,0,1-1.614-2.013c-.167-.286-.018-.441.126-.584s.3-.3.447-.47a1.935,1.935,0,0,0,.28-.477.525.525,0,0,0-.024-.5c-.072-.143-.623-1.558-.878-2.124h0C141.619,141.888,141.392,141.871,141.188,141.863Zm0,0" transform="translate(-132.051 -134.9)" fill="#fff" stroke="#bb2a22" stroke-width="0.3"/>
  </g>
</svg>
