<svg xmlns="http://www.w3.org/2000/svg" width="16.484" height="16.574" viewBox="0 0 16.484 16.574">
  <g id="whatsapp_1_" data-name="whatsapp (1)" transform="translate(0.285 0.294)">
    <path id="Path_21594" data-name="Path 21594" d="M13.663,11.655l-.006.05c-1.466-.731-1.619-.828-1.809-.544-.131.2-.514.643-.629.775s-.233.14-.431.05a5.411,5.411,0,0,1-1.6-.99A6.048,6.048,0,0,1,8.08,9.616c-.2-.337.213-.385.585-1.089a.366.366,0,0,0-.017-.349c-.05-.1-.448-1.08-.615-1.471s-.325-.34-.448-.34a.992.992,0,0,0-.912.229C5.6,7.779,5.869,9,6.79,10.3c1.809,2.368,2.773,2.8,4.536,3.409a2.758,2.758,0,0,0,1.253.081,2.052,2.052,0,0,0,1.344-.951,1.65,1.65,0,0,0,.12-.95C13.994,11.8,13.863,11.745,13.663,11.655Z" transform="translate(-1.992 -2.118)" fill="#bb2a22" stroke="#fff" stroke-width="0.4"/>
    <path id="Path_21595" data-name="Path 21595" d="M13.68,2.3A8,8,0,0,0,.067,7.928a7.89,7.89,0,0,0,1.063,3.963L0,16l4.223-1.1A7.98,7.98,0,0,0,16,7.932a7.863,7.863,0,0,0-2.33-5.607Zm.988,5.611A6.637,6.637,0,0,1,4.66,13.58l-.24-.143-2.5.65.67-2.43-.159-.25a6.612,6.612,0,0,1,10.3-8.157,6.525,6.525,0,0,1,1.939,4.66Z" transform="translate(0 0)" fill="#bb2a22" stroke="#fff" stroke-width="0.4"/>
  </g>
</svg>
