<svg xmlns="http://www.w3.org/2000/svg" width="23.1" height="23.1" viewBox="0 0 23.1 23.1">
  <g id="gallery_1_" data-name="gallery(1)" transform="translate(0.05 0.05)">
    <g id="Group_48" data-name="Group 48" transform="translate(0 0)">
      <g id="Group_47" data-name="Group 47" transform="translate(0)">
        <g id="gallery_2_" data-name="gallery(2)" transform="translate(0 0)">
          <path id="Path_119" data-name="Path 119" d="M20.747,2H6.253A4.257,4.257,0,0,0,2,6.253V20.747A4.257,4.257,0,0,0,6.253,25H20.747c.033,0,.063-.009.1-.01l.049.01a.868.868,0,0,0,.157-.03A4.245,4.245,0,0,0,25,20.747V6.253A4.257,4.257,0,0,0,20.747,2ZM6.253,3.643H20.747a2.612,2.612,0,0,1,2.61,2.61V17.431l-3.691-3.691a.821.821,0,0,0-1.161,0l-3.444,3.444L7.92,10.044a.821.821,0,0,0-1.161,0L3.643,13.16V6.253a2.612,2.612,0,0,1,2.61-2.61Zm-2.61,17.1V15.483l3.7-3.7L18.91,23.357H6.253a2.612,2.612,0,0,1-2.61-2.61Zm17.546,2.565-4.966-4.966,2.863-2.864,4.271,4.271v.993a2.61,2.61,0,0,1-2.169,2.565Z" transform="translate(-2 -2)" fill="#343434" stroke="#fff" stroke-width="0.1"/>
          <path id="Path_120" data-name="Path 120" d="M21.875,11.75A2.875,2.875,0,1,0,19,8.875,2.875,2.875,0,0,0,21.875,11.75Zm0-4.107a1.232,1.232,0,1,1-1.232,1.232A1.232,1.232,0,0,1,21.875,7.643Z" transform="translate(-5.036 -2.714)" fill="#343434" stroke="#fff" stroke-width="0.1"/>
        </g>
      </g>
    </g>
  </g>
</svg>
