<svg xmlns="http://www.w3.org/2000/svg" width="15.974" height="23.7" viewBox="0 0 15.974 23.7">
  <g id="placeholder_4_" data-name="placeholder(4)" transform="translate(0.35 0.35)">
    <g id="Group_42" data-name="Group 42" transform="translate(4.893 5.299)">
      <g id="Group_41" data-name="Group 41" transform="translate(0 0)">
        <path id="Path_114" data-name="Path 114" d="M188.763,100a2.744,2.744,0,0,0-.041,5.487h.021a2.744,2.744,0,0,0,.02-5.487Zm-.02,4.7h-.015a1.96,1.96,0,0,1,.014-3.92h.015a1.96,1.96,0,0,1-.014,3.92Z" transform="translate(-185.999 -100.002)" fill="#343434" stroke="#343434" stroke-width="0.7"/>
      </g>
    </g>
    <g id="Group_46" data-name="Group 46" transform="translate(0)">
      <g id="Group_45" data-name="Group 45" transform="translate(0)">
        <path id="Path_116" data-name="Path 116" d="M96.389,16.911c2.988-3.846,4.855-5.852,4.88-9.216A7.637,7.637,0,1,0,86,7.58c-.026,3.456,1.876,5.459,4.885,9.33C87.888,17.357,86,18.481,86,19.856c0,.921.851,1.747,2.4,2.327a17.193,17.193,0,0,0,10.48,0c1.545-.58,2.4-1.406,2.4-2.327C101.27,18.482,99.38,17.358,96.389,16.911ZM86.895,7.586a6.738,6.738,0,1,1,13.477.1c-.024,3.2-2,5.165-5.166,9.286-.564.735-1.082,1.429-1.572,2.109-.489-.68-1-1.362-1.569-2.109C88.773,12.679,86.871,10.859,86.895,7.586ZM93.633,22.1c-3.857,0-6.738-1.186-6.738-2.246,0-.786,1.723-1.78,4.619-2.124.64.84,1.2,1.6,1.752,2.383a.449.449,0,0,0,.367.19h0A.449.449,0,0,0,94,20.115c.545-.769,1.122-1.551,1.757-2.383,2.894.344,4.615,1.337,4.615,2.123C100.371,20.916,97.49,22.1,93.633,22.1Z" transform="translate(-85.996)" fill="#343434" stroke="#343434" stroke-width="0.7"/>
      </g>
    </g>
  </g>
</svg>
