<svg xmlns="http://www.w3.org/2000/svg" width="23.3" height="23.353" viewBox="0 0 23.3 23.353">
  <g id="Search" transform="translate(0.15 0.15)">
    <g id="_x34__4_">
      <g id="Group_37" data-name="Group 37" transform="translate(0)">
        <path id="Path_109" data-name="Path 109" d="M22.788,21.749,16.85,15.905a9.392,9.392,0,0,0,2.51-6.383A9.6,9.6,0,0,0,9.683,0,9.6,9.6,0,0,0,.006,9.523a9.6,9.6,0,0,0,9.677,9.523,9.732,9.732,0,0,0,6.091-2.127l5.961,5.866a.753.753,0,0,0,1.052,0A.725.725,0,0,0,22.788,21.749ZM9.683,17.58A8.123,8.123,0,0,1,1.495,9.523,8.123,8.123,0,0,1,9.683,1.465,8.123,8.123,0,0,1,17.87,9.523,8.123,8.123,0,0,1,9.683,17.58Z" transform="translate(-0.006)" fill="#343434" stroke="#707070" stroke-width="0.3"/>
      </g>
    </g>
  </g>
</svg>
