<svg xmlns="http://www.w3.org/2000/svg" width="24.28" height="23.4" viewBox="0 0 24.28 23.4">
  <g id="shopping-cart_1_" data-name="shopping-cart (1)" transform="translate(0.2 -8.131)">
    <g id="Group_2112" data-name="Group 2112" transform="translate(0 8.331)">
      <path id="Path_21711" data-name="Path 21711" d="M19.285,24.821A2.211,2.211,0,0,0,21.4,23.179l2.447-9.113a.557.557,0,0,0-.39-.681.654.654,0,0,0-.14-.021H4.91L3.658,8.741a.55.55,0,0,0-.53-.41H0V9.438H2.691L3.9,13.958a.384.384,0,0,0,0,.109L6.4,23.211a1.827,1.827,0,0,0,.068.223L7.3,26.5a2.566,2.566,0,1,0,3.46,1.039c-.047-.083-.094-.166-.151-.249h6.531a2.566,2.566,0,1,0,3.99-.26,2.493,2.493,0,0,0-1.86-.847H8.411l-.39-1.429a2.107,2.107,0,0,0,.509.068Zm-.036,2.468a1.475,1.475,0,1,1-1.475,1.475A1.474,1.474,0,0,1,19.249,27.289Zm-10.739,0a1.475,1.475,0,1,1-1.475,1.475A1.473,1.473,0,0,1,8.51,27.289Zm-.987-4.276L6.281,18.472l-1.107-3.99h17.4l-2.25,8.448a1.11,1.11,0,0,1-1.055.831H8.52A1.121,1.121,0,0,1,7.523,23.013Z" transform="translate(0 -8.331)" fill="#343434" stroke="#343434" stroke-width="0.4"/>
    </g>
  </g>
</svg>
