<svg xmlns="http://www.w3.org/2000/svg" width="23" height="24" viewBox="0 0 23 24">
  <g id="dashboard-icon" transform="translate(2345 325.563)">
    <g id="dashboard-icon-2" data-name="dashboard-icon" transform="translate(242 -4701.563)">
      <g id="Group_4" data-name="Group 4" transform="translate(0 62)">
        <rect id="Rectangle_3" data-name="Rectangle 3" width="23" height="24" transform="translate(-2587 4314)" fill="rgba(255,255,255,0)"/>
      </g>
    </g>
    <g id="dashboard" transform="translate(-2345.183 -325.654)">
      <path id="Path_21741" data-name="Path 21741" d="M7.746,10.638H3.891A2.891,2.891,0,0,1,1,7.746V3.891A2.891,2.891,0,0,1,3.891,1H7.746a2.891,2.891,0,0,1,2.891,2.891V7.746A2.891,2.891,0,0,1,7.746,10.638ZM3.891,2.928a.964.964,0,0,0-.964.964V7.746a.964.964,0,0,0,.964.964H7.746a.964.964,0,0,0,.964-.964V3.891a.964.964,0,0,0-.964-.964Zm15.42,7.71H15.456a2.891,2.891,0,0,1-2.891-2.891V3.891A2.891,2.891,0,0,1,15.456,1h3.855A2.891,2.891,0,0,1,22.2,3.891V7.746A2.891,2.891,0,0,1,19.311,10.638Zm-3.855-7.71a.964.964,0,0,0-.964.964V7.746a.964.964,0,0,0,.964.964h3.855a.964.964,0,0,0,.964-.964V3.891a.964.964,0,0,0-.964-.964ZM7.746,22.2H3.891A2.891,2.891,0,0,1,1,19.311V15.456a2.891,2.891,0,0,1,2.891-2.891H7.746a2.891,2.891,0,0,1,2.891,2.891v3.855A2.891,2.891,0,0,1,7.746,22.2Zm-3.855-7.71a.964.964,0,0,0-.964.964v3.855a.964.964,0,0,0,.964.964H7.746a.964.964,0,0,0,.964-.964V15.456a.964.964,0,0,0-.964-.964Zm15.42,7.71H15.456a2.891,2.891,0,0,1-2.891-2.891V15.456a2.891,2.891,0,0,1,2.891-2.891h3.855A2.891,2.891,0,0,1,22.2,15.456v3.855A2.891,2.891,0,0,1,19.311,22.2Zm-3.855-7.71a.964.964,0,0,0-.964.964v3.855a.964.964,0,0,0,.964.964h3.855a.964.964,0,0,0,.964-.964V15.456a.964.964,0,0,0-.964-.964Z" transform="translate(0 1)" fill="#fff" stroke="#fff" stroke-width="0"/>
    </g>
  </g>
</svg>