<svg xmlns="http://www.w3.org/2000/svg" width="22.851" height="26" viewBox="0 0 22.851 26">
  <g id="Group_53" data-name="Group 53" transform="translate(-30 -580)">
    <g id="Group_52" data-name="Group 52" transform="translate(35.367 600.46)">
      <g id="Group_51" data-name="Group 51" transform="translate(0)">
        <path id="Path_134" data-name="Path 134" d="M29.253,50.931H18.866a.866.866,0,1,1,0-1.731H29.253a.866.866,0,1,1,0,1.731Z" transform="translate(-18 -49.2)" fill="#fff"/>
      </g>
    </g>
    <g id="Group_50" data-name="Group 50" transform="translate(30 580)">
      <g id="Group_49" data-name="Group 49">
        <path id="Path_133" data-name="Path 133" d="M25.508,27.925H8.543A2.946,2.946,0,0,1,5.6,24.982V11.868A2.893,2.893,0,0,1,6.682,9.618l8.483-7.011a2.881,2.881,0,0,1,3.722,0l8.483,6.968a2.893,2.893,0,0,1,1.082,2.251V24.939a2.956,2.956,0,0,1-2.943,2.986ZM17.026,3.689a1.3,1.3,0,0,0-.779.26L7.764,10.96a1.218,1.218,0,0,0-.433.909V24.982a1.21,1.21,0,0,0,1.212,1.212H25.508a1.21,1.21,0,0,0,1.212-1.212V11.868a1.218,1.218,0,0,0-.433-.909L17.8,3.948A1.3,1.3,0,0,0,17.026,3.689Z" transform="translate(-5.6 -1.925)" fill="#fff"/>
      </g>
    </g>
  </g>
</svg>
