<svg xmlns="http://www.w3.org/2000/svg" width="26" height="26" viewBox="0 0 26 26">
  <g id="income_2_" data-name="income(2)" transform="translate(0)">
    <path id="Path_136" data-name="Path 136" d="M211.614,12.864a6.432,6.432,0,1,0-6.433-6.432A6.44,6.44,0,0,0,211.614,12.864Zm0-11.34a4.908,4.908,0,1,1-4.91,4.908A4.915,4.915,0,0,1,211.614,1.523Z" transform="translate(-194.762 0)" fill="#fff"/>
    <path id="Path_137" data-name="Path 137" d="M25.476,261.5a2.485,2.485,0,0,0-3.382-.517l-2.9,1.939a2.388,2.388,0,0,0-2.1-1.261H15.025a5.658,5.658,0,0,0-8.851,1.431l-.388.237-.1-.294a.762.762,0,0,0-.967-.474L.516,264a.762.762,0,0,0-.474.967L2.584,272.4a.762.762,0,0,0,.967.474l4.2-1.436a.762.762,0,0,0,.466-.992l6.669-.206a8.66,8.66,0,0,0,5.037-1.613l5.029-3.577a2.484,2.484,0,0,0,.522-3.551Zm-21.7,9.687-2.05-6,2.761-.943,2.05,6Zm20.292-7.378-5.029,3.577a7.145,7.145,0,0,1-4.166,1.331h-.024l-7.149.221-1.413-4.134.859-.525h0a.77.77,0,0,0,.286-.314,4.137,4.137,0,0,1,6.722-1.021.774.774,0,0,0,.554.239h2.381a.863.863,0,1,1,0,1.725h-4.3a.762.762,0,0,0,0,1.523h4.3a2.389,2.389,0,0,0,2.319-1.822l3.535-2.365.013-.009a.963.963,0,0,1,1.111,1.573Z" transform="translate(0 -246.918)" fill="#fff"/>
    <g id="rupee_7_" data-name="rupee(7)" transform="translate(14.653 3.467)">
      <path id="Path_138" data-name="Path 138" d="M97.925,0h-4.4V.874h1.552a1.314,1.314,0,0,1,1.236.874H93.525v.874h2.788a1.314,1.314,0,0,1-1.236.874H93.525v.874l2.562,2.562.618-.618L94.761,4.371h.315a2.189,2.189,0,0,0,2.142-1.748h.707V1.748h-.707a2.176,2.176,0,0,0-.394-.874h1.1Z" transform="translate(-93.525)" fill="#fff" stroke="#fff" stroke-width="0.5"/>
    </g>
  </g>
</svg>
