<svg id="medical-records" xmlns="http://www.w3.org/2000/svg" width="26" height="26" viewBox="0 0 26 26">
  <path id="Path_139" data-name="Path 139" d="M68.027,81.631h-.867v-.867a.765.765,0,0,0-1.529,0v.867h-.867a.765.765,0,0,0,0,1.529h.867v.867a.765.765,0,1,0,1.529,0v-.867h.867a.765.765,0,0,0,0-1.529Z" transform="translate(-60.737 -75.922)" fill="#fff"/>
  <path id="Path_140" data-name="Path 140" d="M304.765,185.529h5.71a.765.765,0,0,0,0-1.529h-5.71a.765.765,0,0,0,0,1.529Z" transform="translate(-288.502 -174.62)" fill="#fff"/>
  <path id="Path_141" data-name="Path 141" d="M304.765,249.529h5.71a.765.765,0,1,0,0-1.529h-5.71a.765.765,0,1,0,0,1.529Z" transform="translate(-288.502 -235.357)" fill="#fff"/>
  <path id="Path_142" data-name="Path 142" d="M25.235,1.631H10.48L9.544.32A.765.765,0,0,0,8.922,0H.765A.765.765,0,0,0,0,.765V25.235A.765.765,0,0,0,.765,26H25.235A.765.765,0,0,0,26,25.235V2.4A.765.765,0,0,0,25.235,1.631ZM14.76,24.471H4.792v-1.6a4.984,4.984,0,1,1,9.968,0v1.6ZM7.666,14.243a2.11,2.11,0,1,1,2.11,2.11A2.112,2.112,0,0,1,7.666,14.243Zm16.8,10.228H16.289v-1.6A6.514,6.514,0,0,0,12.3,16.859a3.637,3.637,0,1,0-5.05,0,6.523,6.523,0,0,0-3.99,6v1.6H1.529V1.529h7l3.85,5.39a.765.765,0,0,0,.622.32H24.471Zm0-18.761H13.394L11.573,3.161h12.9Z" fill="#fff"/>
</svg>
