<svg xmlns="http://www.w3.org/2000/svg" width="16.724" height="24.83" viewBox="0 0 16.724 24.83">
  <g id="placeholder_4_" data-name="placeholder(4)" transform="translate(0.35 0.35)">
    <g id="Group_42" data-name="Group 42" transform="translate(5.134 5.559)">
      <g id="Group_41" data-name="Group 41" transform="translate(0 0)">
        <path id="Path_114" data-name="Path 114" d="M188.9,100a2.879,2.879,0,0,0-.043,5.757h.022A2.879,2.879,0,0,0,188.9,100Zm-.021,4.935h-.016a2.056,2.056,0,0,1,.015-4.112h.016a2.056,2.056,0,0,1-.015,4.112Z" transform="translate(-185.999 -100.002)" fill="#bb2a22" stroke="#bb2a22" stroke-width="0.7"/>
      </g>
    </g>
    <g id="Group_46" data-name="Group 46" transform="translate(0)">
      <g id="Group_45" data-name="Group 45" transform="translate(0)">
        <path id="Path_116" data-name="Path 116" d="M96.9,17.741c3.135-4.035,5.094-6.139,5.12-9.669A8.012,8.012,0,1,0,86,7.952c-.027,3.626,1.968,5.727,5.125,9.789C87.981,18.21,86,19.389,86,20.831c0,.966.893,1.833,2.514,2.441a18.038,18.038,0,0,0,11,0c1.621-.608,2.514-1.475,2.514-2.441C102.02,19.39,100.037,18.211,96.9,17.741ZM86.939,7.959a7.07,7.07,0,1,1,14.139.106c-.025,3.352-2.1,5.418-5.419,9.742-.592.771-1.135,1.5-1.649,2.213-.513-.713-1.045-1.429-1.646-2.213C88.909,13.3,86.914,11.392,86.939,7.959Zm7.069,15.228c-4.046,0-7.069-1.244-7.069-2.356,0-.825,1.807-1.867,4.846-2.228.672.881,1.261,1.682,1.838,2.5a.471.471,0,0,0,.385.2h0a.471.471,0,0,0,.384-.2c.572-.807,1.177-1.628,1.843-2.5,3.036.361,4.842,1.4,4.842,2.227C101.078,21.943,98.054,23.187,94.008,23.187Z" transform="translate(-85.996)" fill="#bb2a22" stroke="#bb2a22" stroke-width="0.7"/>
      </g>
    </g>
  </g>
</svg>
