<svg xmlns="http://www.w3.org/2000/svg" width="36.52" height="36.44" viewBox="0 0 36.52 36.44">
  <g id="platinum" transform="translate(0.178 0.327)">
    <g id="Group_136" data-name="Group 136" transform="translate(0 0.013)">
      <path id="Path_251" data-name="Path 251" d="M33.978,14.349A1.563,1.563,0,0,1,33.67,13.2l.257-2.016.957-.957a3.828,3.828,0,0,0,0-5.407L31.2,1.131a3.828,3.828,0,0,0-5.407,0l-.957.957-2.016.257a1.564,1.564,0,0,1-1.151-.308L19.805.621a2.987,2.987,0,0,0-3.607,0L14.338,2.036a1.563,1.563,0,0,1-1.151.308l-2.319-.3a2.988,2.988,0,0,0-3.124,1.8l-.9,2.156A1.564,1.564,0,0,1,6,6.851l-2.156.9a2.987,2.987,0,0,0-1.8,3.124l.3,2.319a1.564,1.564,0,0,1-.308,1.151L.61,16.209a2.988,2.988,0,0,0,0,3.607l1.415,1.861a1.564,1.564,0,0,1,.308,1.151l-.257,2.017L1.12,25.8a3.824,3.824,0,0,0,0,5.407l3.686,3.686a3.828,3.828,0,0,0,5.408,0l.957-.957,2.016-.257a1.563,1.563,0,0,1,1.151.308L16.2,35.4a2.987,2.987,0,0,0,3.607,0l1.861-1.415a1.563,1.563,0,0,1,1.151-.308l2.319.3a2.988,2.988,0,0,0,3.124-1.8l.9-2.156a1.563,1.563,0,0,1,.842-.842l2.156-.9a2.987,2.987,0,0,0,1.8-3.124l-.3-2.319a1.564,1.564,0,0,1,.308-1.151l1.415-1.861a2.988,2.988,0,0,0,0-3.607ZM3.145,20.826,1.729,18.965a1.577,1.577,0,0,1,0-1.9L3.145,15.2a2.962,2.962,0,0,0,.584-2.18l-.3-2.319a1.577,1.577,0,0,1,.952-1.649l2.156-.9a2.962,2.962,0,0,0,1.6-1.6l.9-2.156a1.578,1.578,0,0,1,1.649-.952l2.319.3a2.963,2.963,0,0,0,2.18-.584L17.05,1.74a1.577,1.577,0,0,1,1.9,0l1.861,1.415a2.962,2.962,0,0,0,2.18.584l.214-.027L20.667,6.254A12.091,12.091,0,0,0,12.16,7.466a.7.7,0,1,0,.682,1.23A10.655,10.655,0,0,1,18,7.364a10.764,10.764,0,0,1,1.455.1l-12,12a10.665,10.665,0,0,1,1.231-6.615.7.7,0,0,0-1.23-.682,12.1,12.1,0,0,0-1.212,8.507L3.7,23.22l.027-.214a2.962,2.962,0,0,0-.584-2.18ZM5.8,33.9,2.114,30.214a2.418,2.418,0,0,1,0-3.419l24.67-24.67a2.42,2.42,0,0,1,3.419,0l3.686,3.686a2.42,2.42,0,0,1,0,3.419L9.219,33.9a2.42,2.42,0,0,1-3.419,0ZM28.65,18.013a10.649,10.649,0,0,1-12.1,10.549l12-12A10.764,10.764,0,0,1,28.65,18.013Zm5.624.952-1.415,1.861a2.962,2.962,0,0,0-.584,2.18l.3,2.319a1.577,1.577,0,0,1-.952,1.649l-2.156.9a2.962,2.962,0,0,0-1.6,1.6l-.9,2.156a1.577,1.577,0,0,1-1.649.952l-2.319-.3a2.962,2.962,0,0,0-2.18.584l-1.861,1.415a1.577,1.577,0,0,1-1.9,0L15.189,32.87a2.962,2.962,0,0,0-2.18-.584l-.214.027,2.542-2.542A12.063,12.063,0,0,0,29.76,15.348L32.3,12.806l-.027.214a2.961,2.961,0,0,0,.584,2.18l1.415,1.861a1.577,1.577,0,0,1,0,1.9Z" transform="translate(0 -0.013)" fill="#bb2a22" stroke="#bb2a22" stroke-width="0.2"/>
      <path id="Path_252" data-name="Path 252" d="M179.509,237.209l.3-.3a.7.7,0,0,0-.994-.994l-1.591,1.591a.7.7,0,1,0,.994.994l.3-.3,3.48,3.48a.7.7,0,0,0,.994-.994Z" transform="translate(-164.573 -219.135)" fill="#bb2a22" stroke="#bb2a22" stroke-width="0.2"/>
      <path id="Path_253" data-name="Path 253" d="M221.566,213.6a.7.7,0,0,0-.994.994l3.977,3.977a.7.7,0,0,0,.994-.994Z" transform="translate(-204.872 -198.392)" fill="#bb2a22" stroke="#bb2a22" stroke-width="0.2"/>
      <path id="Path_254" data-name="Path 254" d="M246.907,159.433a.7.7,0,1,0-.994.994L248,162.51l-3.566-1.059a.7.7,0,0,0-.7,1.171l3.97,3.97a.7.7,0,1,0,.994-.994l-2.009-2.009,3.336.991a.761.761,0,0,0,.889-.324.79.79,0,0,0-.162-.979Z" transform="translate(-226.404 -148.033)" fill="#bb2a22" stroke="#bb2a22" stroke-width="0.2"/>
      <path id="Path_255" data-name="Path 255" d="M44.111,382.48l.36-.363a2.291,2.291,0,1,0-3.239-3.239l-.859.859a.7.7,0,0,0,0,1l3.976,3.976a.7.7,0,0,0,.994-.994Zm-1.884-2.608a.885.885,0,1,1,1.25,1.251l-.355.358c-.231-.229-1.014-1.009-1.255-1.248Z" transform="translate(-37.343 -351.603)" fill="#bb2a22" stroke="#bb2a22" stroke-width="0.2"/>
      <path id="Path_256" data-name="Path 256" d="M94.281,351.473l-.49.5-3.48-3.48a.7.7,0,1,0-.994.994l3.974,3.974a.7.7,0,0,0,.862.1,9.108,9.108,0,0,0,1.131-1.1.7.7,0,0,0-1-.986Z" transform="translate(-82.845 -323.796)" fill="#bb2a22" stroke="#bb2a22" stroke-width="0.2"/>
      <path id="Path_257" data-name="Path 257" d="M151.043,294.36l-5.4-2.442-.019-.008A.831.831,0,0,0,144.536,293l.007.016,2.428,5.415a.7.7,0,1,0,1.283-.575l-.406-.906,1.713-1.713.9.408a.7.7,0,0,0,.579-1.281Zm-3.81,1.214-.783-1.747,1.743.788Z" transform="translate(-134.313 -271.326)" fill="#bb2a22" stroke="#bb2a22" stroke-width="0.2"/>
      <path id="Path_258" data-name="Path 258" d="M298.719,110.686a.7.7,0,0,0-.994.994l2.985,2.985c.131.131.246.323.1.753a.918.918,0,0,1-.233.367.812.812,0,0,1-.407.229c-.368.081-.525.012-.672-.135l-2.987-2.987a.7.7,0,1,0-.994.994l2.987,2.987a1.909,1.909,0,0,0,1.4.58,2.66,2.66,0,0,0,.572-.066,2.208,2.208,0,0,0,1.1-.606,2.324,2.324,0,0,0,.576-.922,2.045,2.045,0,0,0-.445-2.188Z" transform="translate(-274.55 -102.713)" fill="#bb2a22" stroke="#bb2a22" stroke-width="0.2"/>
      <path id="Path_259" data-name="Path 259" d="M361.68,48.936l-4.589-3.222-.007,0a.818.818,0,0,0-1.186,1.064l.012.021,1.733,2.972-3-1.715-.021-.012a.818.818,0,0,0-1.053,1.2l0,.007,3.259,4.55a.7.7,0,1,0,1.143-.819l-1.695-2.366,2.569,1.469.021.012a.818.818,0,0,0,1.1-1.114l-.012-.021-1.486-2.548,2.4,1.681a.7.7,0,0,0,.808-1.151Z" transform="translate(-328.568 -42.361)" fill="#bb2a22" stroke="#bb2a22" stroke-width="0.2"/>
      <circle id="Ellipse_10" data-name="Ellipse 10" cx="0.703" cy="0.703" r="0.703" transform="translate(9.272 9.27)" fill="#bb2a22" stroke="#bb2a22" stroke-width="0.2"/>
    </g>
  </g>
</svg>
