<svg xmlns="http://www.w3.org/2000/svg" width="24.102" height="36.6" viewBox="0 0 24.102 36.6">
  <path id="cancer" d="M112.52,28.822c-2.473-2.69-4.635-5.113-6.514-7.3,3.145-4.265,4.589-7.03,4.543-8.7a17.064,17.064,0,0,0-3.512-9.943q-.014-.02-.03-.038a7.894,7.894,0,0,0-12.131,0c-.011.012-.021.025-.03.038a17.063,17.063,0,0,0-3.512,9.943c-.05,1.814,1.738,4.882,4.422,8.533l-.836,1.019c-1.931,2.355-2.995,3.652-5.557,6.448a.563.563,0,0,0-.055.69l4.11,6.235a.563.563,0,0,0,.448.252h.022a.563.563,0,0,0,.444-.217c.6-.772,1.647-2,2.974-3.556,1.1-1.3,2.347-2.753,3.64-4.309,1.179,1.421,2.4,2.867,3.633,4.309,1.326,1.556,2.374,2.784,2.974,3.556A.563.563,0,0,0,108,36h.022a.563.563,0,0,0,.448-.252l4.11-6.235a.563.563,0,0,0-.055-.69ZM107.266,5.24a15.931,15.931,0,0,1,2.159,7.613c.025.926-.685,3.028-4.169,7.787-1.45-1.71-2.718-3.272-3.82-4.7a47.068,47.068,0,0,0,4.893-7.866,11.8,11.8,0,0,0,.936-2.832ZM100.727,15c-1.038-1.386-1.91-2.643-2.628-3.786q-.574-.914-1.016-1.732a6.761,6.761,0,0,1,7.384-.217A55.032,55.032,0,0,1,100.727,15Zm-4.939-11.5a6.768,6.768,0,0,1,10.307,0c.286.77.181,2.182-1.1,4.767a7.856,7.856,0,0,0-4.049-1.119,7.935,7.935,0,0,0-4.373,1.323c-1.013-2.141-1.261-3.754-.781-4.969Zm.661,27.99c-1.031,1.209-1.894,2.222-2.518,2.985l-3.443-5.224c2.372-2.6,3.434-3.893,5.3-6.171l.659-.8c1.143,1.512,2.419,3.11,3.767,4.75C98.879,28.647,97.59,30.159,96.449,31.5Zm11.5,2.985c-.623-.763-1.487-1.776-2.518-2.985-2.426-2.845-5.748-6.741-8.412-10.32-3.82-5.132-4.591-7.359-4.564-8.323a15.933,15.933,0,0,1,2-7.337,16.057,16.057,0,0,0,2.686,6.3c2.592,4.128,7.124,9.677,14.248,17.444Z" transform="translate(-88.891 0.3)" fill="#bb2a22" stroke="#bb2a22" stroke-width="0.6"/>
</svg>
