<svg xmlns="http://www.w3.org/2000/svg" width="45.826" height="37.136" viewBox="0 0 45.826 37.136">
  <g id="Group_153" data-name="Group 153" transform="translate(0.5 0.5)">
    <g id="Group_152" data-name="Group 152" transform="translate(0 0)">
      <path id="Path_504" data-name="Path 504" d="M69.056,77.3,67.48,74.989a12.254,12.254,0,0,0-2.36,2.1l2.118,1.835A9.4,9.4,0,0,1,69.056,77.3Z" transform="translate(-59.419 -72.836)" fill="#bb2a22" stroke="#fff" stroke-width="1"/>
      <path id="Path_505" data-name="Path 505" d="M127.392,53.747l-.247-2.79a12.386,12.386,0,0,0-3.082.677l.944,2.638A9.561,9.561,0,0,1,127.392,53.747Z" transform="translate(-113.202 -50.908)" fill="#bb2a22" stroke="#fff" stroke-width="1"/>
      <path id="Path_506" data-name="Path 506" d="M41.833,65.009a17.474,17.474,0,0,0,.191-2.446A12.069,12.069,0,0,0,30.046,50.4h-.234a11.923,11.923,0,0,0-7.4,2.59,11.943,11.943,0,0,0-5.31-2.407l-.493,2.758a9.285,9.285,0,0,1,4.83,2.513l.981.946.981-.946a9.093,9.093,0,0,1,6.424-2.653,9.3,9.3,0,0,1,9.4,9.193q0,.082,0,.165A14.754,14.754,0,0,1,39,65.009H30.1l-4.448,6.126L21.462,59.265l-4.585,6.113L14.225,61.4l-3.6,3.606H5.83A14.754,14.754,0,0,1,5.6,62.563,9.359,9.359,0,0,1,6.5,58.507L3.964,57.3A12.146,12.146,0,0,0,2.8,62.563a17.472,17.472,0,0,0,.191,2.446H0v2.8H3.631A17.174,17.174,0,0,0,9.4,76.157L22.413,86.4,35.423,76.157a17.174,17.174,0,0,0,5.771-8.347h3.631v-2.8Zm-8.141,8.948-11.279,8.88-11.279-8.88A14.428,14.428,0,0,1,6.6,67.81h5.183l2.006-2,2.953,4.429,3.824-5.086L24.78,77.1l6.745-9.29h6.7A14.428,14.428,0,0,1,33.692,73.957Z" transform="translate(0 -50.403)" fill="#bb2a22" stroke="#fff" stroke-width="1"/>
    </g>
  </g>
</svg>
