<svg xmlns="http://www.w3.org/2000/svg" width="36.001" height="36" viewBox="0 0 36.001 36">
  <g id="justice" transform="translate(0 -0.008)">
    <path id="Path_214" data-name="Path 214" d="M365.073,159.548l1.492-1.492,1.492,1.492,1.492-1.492-1.492-1.492,1.492-1.492-1.492-1.491-1.492,1.492-1.492-1.492-1.491,1.491,1.492,1.492-1.492,1.492Z" transform="translate(-338.018 -142.776)" fill="#bb2a22"/>
    <path id="Path_215" data-name="Path 215" d="M58.221,186.893,56.729,185.4l-3.473,3.473-1.364-1.364L50.4,189l2.855,2.855Z" transform="translate(-46.857 -172.358)" fill="#bb2a22"/>
    <path id="Path_216" data-name="Path 216" d="M29.6,2.935,36,2.18,35.754.086l-16.7,1.97V.008H16.946V2.3L0,4.3.247,6.4,6.4,5.673V8.516H0V27.5H14.836V8.516H8.508V5.424l8.437-1V29.68H15.891a5.279,5.279,0,0,0-5.273,5.273v1.055H25.383V34.953A5.279,5.279,0,0,0,20.11,29.68H19.055V4.18l8.437-1V6.406H21.165V25.391H36V6.406H29.6ZM12.727,25.391H2.11V10.625H12.727ZM23.093,33.9H12.908a3.17,3.17,0,0,1,2.983-2.109H20.11A3.17,3.17,0,0,1,23.093,33.9Zm10.8-10.617H23.274V8.516H33.891Z" fill="#bb2a22"/>
    <path id="Path_217" data-name="Path 217" d="M61.008,301.008h6.328v2.109H61.008Z" transform="translate(-56.718 -279.836)" fill="#bb2a22"/>
    <path id="Path_218" data-name="Path 218" d="M361.008,271.008h6.328v2.109h-6.328Z" transform="translate(-335.625 -251.945)" fill="#bb2a22"/>
  </g>
</svg>
