<svg xmlns="http://www.w3.org/2000/svg" xmlns:xlink="http://www.w3.org/1999/xlink" width="36" height="36" viewBox="0 0 36 36">
  <defs>
    <clipPath id="clip-path">
      <path id="path915" d="M0-682.665H36v36H0Z" transform="translate(0 682.665)"/>
    </clipPath>
  </defs>
  <g id="diabities" transform="translate(0 682.665)">
    <g id="g911" transform="translate(0 -682.665)">
      <g id="g913" clip-path="url(#clip-path)">
        <g id="g919" transform="translate(28.115 10.614)">
          <path id="path921" d="M-25-49.956a1.392,1.392,0,0,0,1.39-1.392A1.391,1.391,0,0,0-25-52.737a1.392,1.392,0,0,0-1.391,1.39A1.394,1.394,0,0,0-25-49.956Z" transform="translate(26.387 52.737)" fill="none" stroke="#bb2a22" stroke-linecap="round" stroke-linejoin="round" stroke-width="1.6"/>
        </g>
        <g id="g923" transform="translate(18.323 21.956)">
          <path id="path925" d="M-184.906,0a1.693,1.693,0,1,1,0,3.38H-195.2" transform="translate(195.2)" fill="none" stroke="#bb2a22" stroke-linecap="round" stroke-linejoin="round" stroke-width="1.6"/>
        </g>
        <g id="g927" transform="translate(16.535 25.336)">
          <path id="path929" d="M-32.116,0a1.692,1.692,0,1,0,0,3.378" transform="translate(33.904)" fill="none" stroke="#bb2a22" stroke-linecap="round" stroke-linejoin="round" stroke-width="1.6"/>
        </g>
        <g id="g931" transform="translate(18.323 25.336)">
          <path id="path933" d="M-110.028,0a1.692,1.692,0,1,1,0,3.378h-6.125" transform="translate(116.153)" fill="none" stroke="#bb2a22" stroke-linecap="round" stroke-linejoin="round" stroke-width="1.6"/>
        </g>
        <g id="g935" transform="translate(18.322 32.094)">
          <path id="path937" d="M-80.17,0a1.692,1.692,0,1,1,0,3.378h-4.463" transform="translate(84.633)" fill="none" stroke="#bb2a22" stroke-linecap="round" stroke-linejoin="round" stroke-width="1.6"/>
        </g>
        <g id="g939" transform="translate(16.535 32.094)">
          <path id="path941" d="M-32.1,0a1.692,1.692,0,1,0,0,3.378" transform="translate(33.89)" fill="none" stroke="#bb2a22" stroke-linecap="round" stroke-linejoin="round" stroke-width="1.6"/>
        </g>
        <g id="g943" transform="translate(6.81 15.922)">
          <path id="path945" d="M-334.592-108.389h-8.7a4.677,4.677,0,0,0-1.186-5.777,1.156,1.156,0,0,0-1.893.924c-.211,2.164-.924,3.287-1.821,3.912a7.386,7.386,0,0,1-3.018.942h-2.011m0,11.431h1.646c2.172,0,2.285,1.8,4.941,2.086h4.925" transform="translate(353.219 114.423)" fill="none" stroke="#bb2a22" stroke-linecap="round" stroke-linejoin="round" stroke-width="1.6"/>
        </g>
        <g id="g947" transform="translate(18.323 28.714)">
          <path id="path949" d="M-95.081,0a1.693,1.693,0,1,1,0,3.38h-5.293" transform="translate(100.374)" fill="none" stroke="#bb2a22" stroke-linecap="round" stroke-linejoin="round" stroke-width="1.6"/>
        </g>
        <g id="g951" transform="translate(16.535 28.714)">
          <path id="path953" d="M-32.116,0a1.693,1.693,0,1,0,0,3.38" transform="translate(33.904)" fill="none" stroke="#bb2a22" stroke-linecap="round" stroke-linejoin="round" stroke-width="1.6"/>
        </g>
        <g id="g955" transform="translate(2.329 20.974)">
          <path id="path957" d="M0-139.568v5.4a.227.227,0,0,0,.227.227H4.256a.226.226,0,0,0,.225-.227v-12.94a.226.226,0,0,0-.225-.227H.227a.227.227,0,0,0-.227.227V-142" transform="translate(0 147.338)" fill="none" stroke="#bb2a22" stroke-linecap="round" stroke-linejoin="round" stroke-width="1.6"/>
        </g>
        <g id="g959" transform="translate(22.786 10.614)">
          <path id="path961" d="M-25-49.956a1.394,1.394,0,0,0,1.39-1.392A1.392,1.392,0,0,0-25-52.737a1.392,1.392,0,0,0-1.391,1.39A1.394,1.394,0,0,0-25-49.956Z" transform="translate(26.387 52.737)" fill="none" stroke="#bb2a22" stroke-linecap="round" stroke-linejoin="round" stroke-width="1.6"/>
        </g>
        <g id="g963" transform="translate(25.381 15.514)">
          <path id="path965" d="M-46.522,0h-2.261a.33.33,0,0,0-.328.33V6.04A1.464,1.464,0,0,0-47.653,7.5,1.464,1.464,0,0,0-46.192,6.04V.33A.332.332,0,0,0-46.522,0Z" transform="translate(49.112)" fill="none" stroke="#bb2a22" stroke-linecap="round" stroke-linejoin="round" stroke-width="1.6"/>
        </g>
        <g id="g967" transform="translate(22.786 3.3)">
          <path id="path969" d="M-98.335-76.418h2.279a.359.359,0,0,0,.356-.358v-3.537a.359.359,0,0,0-.356-.358h-7.4a.359.359,0,0,0-.358.358v3.537a.359.359,0,0,0,.358.358h2.552" transform="translate(103.809 80.672)" fill="none" stroke="#bb2a22" stroke-linecap="round" stroke-linejoin="round" stroke-width="1.6"/>
        </g>
        <g id="g971" transform="translate(20.011 0.527)">
          <path id="path973" d="M-96.477-315.934h-.506a4.88,4.88,0,0,1-4.865-4.865V-330.87a2.66,2.66,0,0,1,2.652-2.652h8.357a2.658,2.658,0,0,1,2.652,2.652V-320.8a4.88,4.88,0,0,1-4.865,4.865h-.5" transform="translate(101.848 333.522)" fill="none" stroke="#bb2a22" stroke-linecap="round" stroke-linejoin="round" stroke-width="1.6"/>
        </g>
      </g>
    </g>
  </g>
</svg>
