<svg xmlns="http://www.w3.org/2000/svg" width="36.454" height="36.5" viewBox="0 0 36.454 36.5">
  <g id="diamond_" data-name="diamond+" transform="translate(-0.703 0.25)">
    <path id="Path_245" data-name="Path 245" d="M36.682,150.906l-5.625-8.437a1.055,1.055,0,0,0-.878-.47H7.68a1.054,1.054,0,0,0-.878.47l-5.625,8.438a1.055,1.055,0,0,0,.165,1.363l16.875,15.469a1.055,1.055,0,0,0,1.425,0l16.875-15.469a1.055,1.055,0,0,0,.165-1.363Zm-21.407-.47,3.654-5.481,3.654,5.481Zm7.774,2.109L18.93,163.874l-4.119-11.328ZM20.9,144.108h7.309l-3.654,5.481Zm-7.6,5.481-3.654-5.481h7.309Zm-1.971.847H4.026l3.654-5.481Zm1.232,2.109,3.9,10.725-11.7-10.725Zm12.727,0h7.8l-11.7,10.725Zm1.232-2.109,3.654-5.481,3.654,5.481Z" transform="translate(0 -132.015)" fill="#bb2a22" stroke="#fff" stroke-width="0.5"/>
    <path id="Path_246" data-name="Path 246" d="M401.841,43.88a1.051,1.051,0,0,0,.746-.309l2.983-2.983a1.055,1.055,0,0,0-1.492-1.492L401.1,42.079a1.055,1.055,0,0,0,.746,1.8Z" transform="translate(-371.676 -36.06)" fill="#bb2a22" stroke="#fff" stroke-width="0.5"/>
    <path id="Path_247" data-name="Path 247" d="M242.055,6.328a1.055,1.055,0,0,0,1.055-1.055V1.055a1.055,1.055,0,1,0-2.109,0V5.273A1.055,1.055,0,0,0,242.055,6.328Z" transform="translate(-223.125)" fill="#bb2a22" stroke="#fff" stroke-width="0.5"/>
    <path id="Path_248" data-name="Path 248" d="M42.079,43.572a1.055,1.055,0,0,0,1.491-1.492L40.588,39.1A1.055,1.055,0,0,0,39.1,40.589Z" transform="translate(-35.13 -36.061)" fill="#bb2a22" stroke="#fff" stroke-width="0.5"/>
  </g>
</svg>
