<svg xmlns="http://www.w3.org/2000/svg" width="48.092" height="37.643" viewBox="0 0 48.092 37.643">
  <g id="dumbbell_1_" data-name="dumbbell (1)" transform="translate(0.301 -3.384)">
    <g id="g1179" transform="translate(0.499 4.184)">
      <g id="g1181">
        <g id="Group_2236" data-name="Group 2236">
          <g id="g1189" transform="translate(6.657)">
            <path id="path1191" d="M-483.329-39.413a10.8,10.8,0,0,0-7.453-2.971,10.813,10.813,0,0,0-8.44,4.062.8.8,0,0,1-1.25,0,10.813,10.813,0,0,0-8.44-4.062A10.867,10.867,0,0,0-519.764-31.57c-.007,4,1.9,7.965,4.542,11.539" transform="translate(519.764 42.384)" fill="none" stroke="#bb2a22" stroke-linecap="round" stroke-linejoin="round" stroke-width="1.6"/>
          </g>
          <g id="g1193" transform="translate(14.89 5.544)">
            <path id="path1195" d="M0-280.544a71.384,71.384,0,0,0,10.781,9.029,1.607,1.607,0,0,0,1.808,0c3.893-2.648,19.034-13.669,19.014-24.907a10.74,10.74,0,0,0-1.389-5.271" transform="translate(0 301.693)" fill="none" stroke="#bb2a22" stroke-linecap="round" stroke-linejoin="round" stroke-width="1.6"/>
          </g>
          <g id="g1197" transform="translate(10.591 7.891)">
            <path id="path1199" d="M0-32.307H6.9l2.281,7.492L12.2-34.743,13.37-30.9h6.684" transform="translate(0 34.743)" fill="none" stroke="#bb2a22" stroke-linecap="round" stroke-linejoin="round" stroke-width="1.6"/>
          </g>
          <g id="g1201" transform="translate(6.844 26.692)">
            <path id="path1203" d="M-225.1,0h-16.969" transform="translate(242.069)" fill="none" stroke="#bb2a22" stroke-linecap="round" stroke-linejoin="round" stroke-width="1.6"/>
          </g>
          <g id="g1205" transform="translate(20.902 22.354)">
            <path id="path1207" d="M0,0H2.911" fill="none" stroke="#bb2a22" stroke-linecap="round" stroke-linejoin="round" stroke-width="1.6"/>
          </g>
          <g id="g1209" transform="translate(6.844 22.354)">
            <path id="path1211" d="M0,0H10.887" fill="none" stroke="#bb2a22" stroke-linecap="round" stroke-linejoin="round" stroke-width="1.6"/>
          </g>
          <g id="g1213" transform="translate(23.813 17.947)">
            <path id="path1215" d="M-32.658-175.395h-1.527a.935.935,0,0,1-.935-.935v-11.353a.935.935,0,0,1,.935-.935h1.527a.935.935,0,0,1,.935.935v11.353A.935.935,0,0,1-32.658-175.395Z" transform="translate(35.12 188.617)" fill="none" stroke="#bb2a22" stroke-linecap="round" stroke-linejoin="round" stroke-width="1.6"/>
          </g>
          <g id="g1217" transform="translate(27.209 19.623)">
            <path id="path1219" d="M0-12.4a.935.935,0,0,1,.935-.935H2.462A.935.935,0,0,1,3.4-12.4v8a.935.935,0,0,1-.935.935H.935A.935.935,0,0,1,0-4.4" transform="translate(0 13.333)" fill="none" stroke="#bb2a22" stroke-linecap="round" stroke-linejoin="round" stroke-width="1.6"/>
          </g>
          <g id="g1221" transform="translate(3.396 17.947)">
            <path id="path1223" d="M0-46.06V-48.6a.935.935,0,0,1,.935-.935H2.462A.935.935,0,0,1,3.4-48.6v11.353a.935.935,0,0,1-.935.935H.935A.935.935,0,0,1,0-37.245v-5.543" transform="translate(0 49.532)" fill="none" stroke="#bb2a22" stroke-linecap="round" stroke-linejoin="round" stroke-width="1.6"/>
          </g>
          <g id="g1225" transform="translate(0 19.623)">
            <path id="path1227" d="M-45.055-118.521a.935.935,0,0,1-.935.935h-1.527a.935.935,0,0,1-.935-.935v-8a.935.935,0,0,1,.935-.935h1.527a.935.935,0,0,1,.935.935" transform="translate(48.452 127.456)" fill="none" stroke="#bb2a22" stroke-linecap="round" stroke-linejoin="round" stroke-width="1.6"/>
          </g>
        </g>
      </g>
    </g>
  </g>
</svg>
