<svg xmlns="http://www.w3.org/2000/svg" width="31.559" height="36.2" viewBox="0 0 31.559 36.2">
  <g id="plans" transform="translate(-17.9 -14.9)">
    <g id="plan" transform="translate(-15 15)">
      <path id="Path_515" data-name="Path 515" d="M342.96,228.07a.708.708,0,0,0-.708.708v0a.708.708,0,1,0,.708-.712Z" transform="translate(-287.508 -212.034)" fill="#bb2a22" stroke="#bb2a22" stroke-width="0.2"/>
      <path id="Path_516" data-name="Path 516" d="M175.554,43.761h5.02a.708.708,0,1,0,0-1.416h-5.02a.708.708,0,1,0,0,1.416Z" transform="translate(-131.872 -39.368)" fill="#bb2a22" stroke="#bb2a22" stroke-width="0.2"/>
      <path id="Path_517" data-name="Path 517" d="M63.037,24.152a3.545,3.545,0,0,0-2.64-1.14h0a4.352,4.352,0,0,0-1.012.126V4.054A1.818,1.818,0,0,0,57.566,2.24H53.8q.019-.233.019-.47A1.918,1.918,0,0,0,51.782,0H40.6a1.919,1.919,0,0,0-2.036,1.77q0,.237.019.47H34.816A1.817,1.817,0,0,0,33,4.054V32.713a1.817,1.817,0,0,0,1.816,1.815h19.6l.418.444c.014.015.028.029.043.042A3.3,3.3,0,0,0,57.051,36a3.235,3.235,0,0,0,2.181-1.018l.033-.033,3.772-4a5.022,5.022,0,0,0,0-6.793ZM53.5,3.656h4.068a.405.405,0,0,1,.4.4V23.7a6.118,6.118,0,0,0-.926.64,6.072,6.072,0,0,0-.881-.619V19.767a.708.708,0,1,0-1.416,0v3.378a4.418,4.418,0,0,0-1.047-.131,3.559,3.559,0,0,0-2.655,1.138,4.755,4.755,0,0,0-.611.808h-3.7a.708.708,0,1,0,0,1.416h3.124a5.093,5.093,0,0,0,.438,3.515H37.639V6.876h3.887a8.724,8.724,0,0,0,4.665,1.276,8.725,8.725,0,0,0,4.666-1.276h3.888v6.846a.708.708,0,0,0,1.416,0V6.168a.708.708,0,0,0-.708-.708H52.476a5.9,5.9,0,0,0,1.022-1.8ZM40.6,1.416H51.782c.371,0,.618.213.618.354a4.343,4.343,0,0,1-.12,1.019c0,.006,0,.011,0,.017A4.723,4.723,0,0,1,50.29,5.559a.709.709,0,0,0-.083.057,7.279,7.279,0,0,1-4.016,1.119,7.286,7.286,0,0,1-4-1.11.708.708,0,0,0-.112-.077A4.722,4.722,0,0,1,40.11,2.823a.7.7,0,0,0-.018-.079,4.344,4.344,0,0,1-.111-.974c0-.141.247-.354.62-.354Zm-5.785,31.7a.4.4,0,0,1-.4-.4V4.054a.4.4,0,0,1,.4-.4h4.068a5.9,5.9,0,0,0,1.022,1.8H36.931a.708.708,0,0,0-.708.708V30.6a.708.708,0,0,0,.708.708H51.385l1.7,1.8H34.816Zm27.19-3.138L58.25,33.961a1.483,1.483,0,0,1-2.406.017s-3.643-3.87-3.664-3.89l-.107-.113a3.6,3.6,0,0,1-.6-3.961.692.692,0,0,0,.039-.081,3.411,3.411,0,0,1,.565-.81A2.147,2.147,0,0,1,53.7,24.43a3.329,3.329,0,0,1,1.3.289.706.706,0,0,0,.319.154,4.711,4.711,0,0,1,1.209.926.708.708,0,0,0,.515.223h0a.708.708,0,0,0,.515-.222A4.2,4.2,0,0,1,60.4,24.428h0a2.133,2.133,0,0,1,1.61.695A3.586,3.586,0,0,1,62.006,29.974Z" fill="#bb2a22" stroke="#bb2a22" stroke-width="0.2"/>
      <path id="Path_518" data-name="Path 518" d="M136.341,139h-3.176a.708.708,0,0,0-.708.708v3.173a.708.708,0,0,0,.708.708h3.176a.708.708,0,0,0,.708-.708v-3.173A.708.708,0,0,0,136.341,139Zm-.708,3.173h-1.76V140.42h1.76Z" transform="translate(-92.464 -129.23)" fill="#bb2a22" stroke="#bb2a22" stroke-width="0.2"/>
      <path id="Path_519" data-name="Path 519" d="M224.587,161.553H219.8a.708.708,0,0,0,0,1.416h4.788a.708.708,0,0,0,0-1.416Z" transform="translate(-173.007 -150.194)" fill="#bb2a22" stroke="#bb2a22" stroke-width="0.2"/>
      <path id="Path_520" data-name="Path 520" d="M135.529,235.721h-3.176a.708.708,0,0,0-.708.708V239.6a.708.708,0,0,0,.708.708h3.176a.708.708,0,0,0,.708-.708v-3.173A.708.708,0,0,0,135.529,235.721Zm-.708,3.173h-1.76v-1.757h1.76Z" transform="translate(-91.709 -219.147)" fill="#bb2a22" stroke="#bb2a22" stroke-width="0.2"/>
      <path id="Path_521" data-name="Path 521" d="M229.357,258.27h-4.364a.708.708,0,1,0,0,1.416h4.364a.708.708,0,1,0,0-1.416Z" transform="translate(-177.835 -240.11)" fill="#bb2a22" stroke="#bb2a22" stroke-width="0.2"/>
      <path id="Path_522" data-name="Path 522" d="M135.529,332.409h-3.176a.708.708,0,0,0-.708.708v3.173a.708.708,0,0,0,.708.708h3.176a.708.708,0,0,0,.708-.708v-3.173A.708.708,0,0,0,135.529,332.409Zm-.708,3.173h-1.76v-1.757h1.76Z" transform="translate(-91.709 -309.036)" fill="#bb2a22" stroke="#bb2a22" stroke-width="0.2"/>
    </g>
  </g>
</svg>
