<svg id="Health" xmlns="http://www.w3.org/2000/svg" width="23.576" height="25.13" viewBox="0 0 23.576 25.13">
  <g id="Group_114" data-name="Group 114" transform="translate(0 0)">
    <path id="Path_197" data-name="Path 197" d="M103.894,141.468h0a.982.982,0,1,0-.44,1.644l.123.123a2.932,2.932,0,0,0-.5,1.215h-.418a.982.982,0,0,0-.851-.491h0a.982.982,0,1,0,.851,1.474h.418a2.932,2.932,0,0,0,.5,1.215l-.123.123a.982.982,0,0,0-.981.288h0a.982.982,0,1,0,1.676.406l.123-.123a2.932,2.932,0,0,0,1.215.5v.418a.982.982,0,0,0-.491.851h0a.982.982,0,1,0,1.474-.851v-.418a2.932,2.932,0,0,0,1.216-.5l.123.123a.981.981,0,0,0,.222.915h0a.982.982,0,1,0,.472-1.61l-.123-.123a2.932,2.932,0,0,0,.5-1.215h.418a.982.982,0,0,0,.851.491h0a.982.982,0,1,0-.851-1.474h-.418a2.932,2.932,0,0,0-.5-1.215l.123-.123a.981.981,0,0,0,.949-.254h0a.982.982,0,1,0-1.644-.44l-.123.123a2.931,2.931,0,0,0-1.216-.5v-.418a.982.982,0,0,0,.491-.851h0a.982.982,0,1,0-1.474.851v.418a2.933,2.933,0,0,0-1.215.5l-.123-.123A.982.982,0,0,0,103.894,141.468Zm2.084,1.508a1.965,1.965,0,1,1-1.965,1.965A1.967,1.967,0,0,1,105.977,142.977Z" transform="translate(-96.645 -132.918)" fill="#fff"/>
    <path id="Path_198" data-name="Path 198" d="M327.349,348.986a1.48,1.48,0,0,0-2.084,0l-1.246,1.246-.047-.047a1.473,1.473,0,1,0-2.084,2.084l1.089,1.089a1.475,1.475,0,0,0,2.084,0l2.288-2.288A1.48,1.48,0,0,0,327.349,348.986Zm-.695,1.389-2.288,2.288a.492.492,0,0,1-.694,0l-1.089-1.089a.491.491,0,0,1,.694-.694l.394.394a.494.494,0,0,0,.695,0l1.593-1.593a.491.491,0,0,1,.694.694Z" transform="translate(-306.446 -331.437)" fill="#fff"/>
    <path id="Path_199" data-name="Path 199" d="M34.481,14.353V3.918a1.475,1.475,0,0,0-1.474-1.474H31.4a.983.983,0,0,0-.85-.491h-3a2.459,2.459,0,0,0-4.813,0h-3a.983.983,0,0,0-.85.491H17.291a1.475,1.475,0,0,0-1.474,1.474V21.7a1.475,1.475,0,0,0,1.474,1.474H29.826a5.4,5.4,0,1,0,4.656-8.819ZM33.5,3.918V14.353a5.369,5.369,0,0,0-.982.182V4.9a.491.491,0,0,0-.491-.491h-.491V3.427h1.473A.492.492,0,0,1,33.5,3.918ZM22.939,4.9H19.746V2.935h3.438a.491.491,0,0,0,.491-.491,1.474,1.474,0,0,1,2.947,0,.491.491,0,0,0,.491.491h3.438V4.9H27.36a.491.491,0,0,0,0,.982h3.192a.983.983,0,0,0,.851-.491h.132v9.53a5.428,5.428,0,0,0-2.743,3.338H20.974a.491.491,0,0,0,0,.982H28.61a5.465,5.465,0,0,0,0,.982H18.764V5.391H18.9a.983.983,0,0,0,.851.491h3.193a.491.491,0,0,0,0-.982ZM17.291,22.189A.492.492,0,0,1,16.8,21.7V3.918a.492.492,0,0,1,.491-.491h1.474v.982h-.491a.491.491,0,0,0-.491.491V20.716a.491.491,0,0,0,.491.491H28.792a5.369,5.369,0,0,0,.387.982Zm16.7,1.965a4.421,4.421,0,1,1,4.421-4.42A4.426,4.426,0,0,1,33.99,24.154Z" transform="translate(-15.817 0.001)" fill="#fff"/>
  </g>
</svg>
