<svg xmlns="http://www.w3.org/2000/svg" width="1200" height="1600" viewBox="0 0 1200 1600">
  <g id="Group_42" data-name="Group 42" transform="translate(86 -3511.09)">
    <g id="Rectangle_4" data-name="Rectangle 4" transform="translate(-16 4461)" fill="#ed1c24" stroke="#707070" stroke-width="1">
      <rect width="981" height="325" stroke="none"/>
      <rect x="0.5" y="0.5" width="980" height="324" fill="none"/>
    </g>
    <g id="logo" transform="translate(-85 3511)">
      <path id="Path_19" data-name="Path 19" d="M1,1283q0-455.544.364-911.688C5.388,348.829,26.4,330.989,47.977,330.99q516.971.021,1033.944.051a41.8,41.8,0,0,1,9.23,1.01c21.63,4.95,37.9,25.1,37.9,46.841q-.105,448.725-.08,897.448c0,11.95-4.84,22.05-12.67,30.88-11.17,12.59-25.89,16.71-41.88,16.71q-451.974.135-903.948.03-62.136-.03-124.269-1.11c-14.635-.27-26.8-7.2-35.087-19.31C6.847,1297.31,4.316,1289.89,1,1283m965.043-47.02c14.28-.03,28.56-.07,43.447-.66a30.872,30.872,0,0,0,.49-3.92q.03-110.85-.02-221.7a24.014,24.014,0,0,0-.94-4.7,4.783,4.783,0,0,1-.59-.6,11.192,11.192,0,0,0-1.94-.36c-19.928-.02-39.853-.05-59.777.01-1.209.01-2.416.73-3.95,1.7q-73.513,97.785-147.287,195.93c-18.326-24.39-36.177-48.14-54.018-71.9-31.186-41.53-62.366-83.07-94.118-125.22a11.423,11.423,0,0,0-2.4-.52q-27.388-.045-54.777.01A11.057,11.057,0,0,0,587,1005a4.528,4.528,0,0,0-.61.57,31.3,31.3,0,0,0-.37,3.45q-.027,111.12.03,222.23a7.823,7.823,0,0,0,1.994,4.73H631v-4.78q0-96.63-.011-193.26c0-1.33-.162-2.65-.092-4.53a1.522,1.522,0,0,1,.225-.44c.1-.11.384-.22.416-.18.835.99,1.7,1.96,2.459,3.02q31.084,43.35,62.166,86.72,38.364,53.2,76.939,106.26c1.538,2.13,3.174,4.18,5.284,6.97,10.719.08,21.439.18,32.159.19.863,0,1.726-.58,3.143-1.27,49.73-67.25,99.461-134.51,149.891-201.91.238.01.475.03.75.52a5.078,5.078,0,0,1-.291,1.41c.052,30.07.1,60.15.018,91.16.026,18.03.051,36.06-.013,55.02-.006,16.78-.04,33.56.031,50.33a7.9,7.9,0,0,0,1.969,4.77m-505-228.91c-.024,63.34-.048,126.67-.764,189.93q-42.506-29.955-85.015-59.9-53-37.26-106.044-74.47c-26.765-18.85-53.431-37.85-80.843-57.25q-28.085-.165-56.167-.28c-.739,0-1.479.6-2.2.87,0,0,.035.03-.562.63a44.259,44.259,0,0,0-.427,4.43q-.031,110.355.028,220.71a12.637,12.637,0,0,0,1.534,5.21,2.946,2.946,0,0,1,1.367-.06c15.341-.04,30.683-.08,46.461.07a1.552,1.552,0,0,0,1-.65c.2-2.14.567-4.27.568-6.41q.047-92.94.08-185.89a16.253,16.253,0,0,1,1.887-6.96q46.551,33.885,93.1,67.76,51.567,37.545,103.127,75.09,37.269,27.135,74.581,54.21c1.894,1.37,4.393,2.65,6.627,2.68,15.478.19,30.96.05,47.2-.36.141-2.15.4-4.29.4-6.44q.035-87.18.012-174.37c0-16.49-.088-32.98-.716-50.04a7.332,7.332,0,0,0-1.883-.51q-20.061-.075-40.123-.01C463.227,1005.06,462.186,1005.78,461.042,1007.07Z" transform="translate(-2 4)" fill="#ed1c24"/>
      <path id="Path_21" data-name="Path 21" d="M1149,9.75c-9.73,5.6-19.52,10.83-29.16,16.324-15.51,8.838-30.91,17.883-46.38,26.78q-43.665,25.092-87.354,50.106c-26.3,15.041-52.673,29.954-78.956,45.026-30.682,17.6-61.268,35.359-91.958,52.942-24.442,14-49.015,27.778-73.459,41.777-28.418,16.275-56.741,32.717-85.141,49.025Q625.5,309.586,594.3,327.277c-1.562.889-3.234,1.587-5.021,2.455-2.559-9.265-1.451-18.1,1.287-26.855,7.276-23.251,19.731-43.8,33.657-63.5a443,443,0,0,1,41.358-49.7c14.383-15.091,29.4-29.423,46.094-41.821,16.289-12.1,32.666-24.255,50.044-34.647,17.106-10.229,35.288-18.774,53.423-27.138,17.805-8.212,35.9-15.947,54.309-22.667Q909.487,48.791,950.2,36.06q34.574-10.8,69.822-19.385c19.19-4.694,38.71-8.093,58.17-11.59,9.35-1.682,18.91-2.267,28.59-3.716,8.24-.368,16.26-.368,24.94-.014C1138.67,2.446,1145.01,3.031,1149,9Z" transform="translate(0 -1)" fill="#a6ce39"/>
      <path id="Path_22" data-name="Path 22" d="M856.463,1490c-6.314-1.26-12.2-2.38-18.009-3.81-16.729-4.12-29.025-14.7-37.182-29.12-12.55-22.19-13.795-45.74-2.185-68.74,10.121-20.04,26.962-31.98,49.376-35.34,17.166-2.57,33.935-1.6,49.553,7.02,8,4.42,15.3,9.74,20.616,17.31.59.84.234,3.29-.567,4.02-7.943,7.25-7.849,7.03-15.514-.21a53.894,53.894,0,0,0-36.476-15.24c-13.887-.46-26.522,2.46-37.643,10.97-12.354,9.46-19.768,21.53-21.592,37.35-1.694,14.7,1.367,27.83,10.138,39.51,10.383,13.83,24.345,21.27,41.727,22.31,14.356.86,27.6-2.02,39.1-11.02a82.375,82.375,0,0,0,8.616-7.92c1.937-2.01,3.4-2.78,5.778-.52,2.241,2.14,4.948,3.78,8.46,6.39-13.182,16.86-30.453,24.82-51.426,26.69C864.975,1490,860.951,1490,856.463,1490Z" fill="#939598"/>
      <path id="Path_24" data-name="Path 24" d="M964.334,1033.77a2.509,2.509,0,0,1,.112-.77,7.344,7.344,0,0,0,.15-.73,1.285,1.285,0,0,0-1.074-.42,3.126,3.126,0,0,0-.643,1.06c-49.73,67.26-99.461,134.52-149.946,201.95-12.192.18-23.629.19-35.066.19-1.591-2.08-3.227-4.13-4.765-6.26q-38.49-53.115-76.939-106.26-31.2-43.275-62.166-86.72c-.755-1.06-1.624-2.03-2.459-3.02-.032-.04-.312.07-.416.18a5.242,5.242,0,0,0-.5,1.08,50.713,50.713,0,0,0-.6,7.11q-.027,93.99.074,187.99c.01,4.58-1.324,6.06-5.936,5.95-12.326-.3-24.662-.15-37.058-.63-.078-76.81-.094-153.15-.11-229.49a1.777,1.777,0,0,0,.471.02c20.458.05,40.454.11,60.451.17q46.774,62.31,93.549,124.61c17.841,23.76,35.692,47.51,54.018,71.9,49.27-65.54,98.278-130.74,147.913-196.27,22.29-.35,43.955-.37,65.621-.39a2.491,2.491,0,0,1,0,.44c-.01,74.64-.01,148.82-.01,222.99a28.189,28.189,0,0,1-.62,6.5c-14.706.01-28.958,0-43.273-.47-.135-18.46-.206-36.46-.2-54.92.034-18.48-.006-36.5.027-54.99.04-28.28.021-56.09-.049-83.9C964.877,1038.37,964.525,1036.07,964.334,1033.77Z" fill="#fffefe"/>
      <path id="Path_25" data-name="Path 25" d="M189.078,1005.84q40.065,28.41,80.141,56.79,52.962,37.32,106.044,74.47c28.359,19.94,56.678,39.93,85.666,59.95a12.787,12.787,0,0,0,1.052-5.35q.044-29.925.021-59.86c.033-41.91.08-83.81.58-125.77,14.737-.02,29.015.02,43.338.51.055,75.88.068,151.31.072,226.73,0,1.16-.113,2.33-.174,3.49-15.481.04-30.963.18-46.441-.01-2.234-.03-4.733-1.31-6.627-2.68q-37.365-27-74.581-54.21-51.562-37.545-103.127-75.09c-31.031-22.59-62.067-45.17-93.6-68.15-4.24-.44-2.33,2.5-2.333,3.78q-.192,88.305-.119,176.59c0,6.32-.1,12.63-.33,19.05a1.65,1.65,0,0,0-.691.69c-15.341.04-30.683.08-46.6-.1a2.42,2.42,0,0,1-1.276-1.16c-.064-76.81-.061-153.16-.058-229.51,0,0-.035-.03.426-.01C150.312,1005.95,169.7,1005.9,189.078,1005.84Z" fill="#fffffe"/>
      <path id="Path_42" data-name="Path 42" d="M178.663,1236.08c.172-.1.288.38.253.62s-.507.26-.726.16C178.09,1236.53,178.263,1236.33,178.663,1236.08Z" fill="#fde3d6"/>
      <path id="Path_43" data-name="Path 43" d="M130.348,1236.92c-.234-.03-.27-.49-.225-.72.286-.11.5.05.79.41C131.02,1236.77,130.581,1236.95,130.348,1236.92Z" fill="#fde3d6"/>
      <path id="Path_45" data-name="Path 45" d="M164.3,1403.68c-1.413-2.76-2.628-5.19-3.844-7.63-.315.07-.631.15-.947.22q-1.75,12.285-3.5,24.56c-1.966,14-3.957,27.98-5.846,41.99-.836,6.2-1.724,12.41-2.058,18.65-.188,3.5-1.376,4.78-4.78,4.57-2.939-.19-5.9-.04-9.773-.04L152.1,1355.68c3.787-1.89,4.291,1.16,5.3,3.19q23.314,47.025,46.589,94.07c1.153,2.33,2.38,4.62,4,7.76,9.073-18.38,17.78-36.05,26.512-53.7,8.667-17.52,16.42-35.53,26.239-52.44l2.272.42c6.236,43.42,12.471,86.85,18.761,130.65h-13.92c-4.065-29.51-8.174-59.34-12.51-90.82-2.373,4.54-4.179,7.85-5.849,11.22q-19.1,38.61-38.241,77.2c-.6,1.21-2.449,2.68-3.53,2.54a5.833,5.833,0,0,1-3.693-2.95C190.779,1456.58,177.651,1430.28,164.3,1403.68Z" fill="#939598"/>
      <path id="Path_46" data-name="Path 46" d="M401.7,1413.32c4.008,8.02,7.862,15.69,11.616,23.41,3.738,7.69,7.375,15.43,11.453,23.98,1.327-2.32,2.348-3.89,3.175-5.57q18.535-37.5,37.011-75.04c3.562-7.25,6.848-14.63,10.5-21.84.673-1.32,2.489-2.07,3.777-3.09a19.354,19.354,0,0,1,1.72,4.24q2.971,19.485,5.727,39.01c1.486,10.41,2.852,20.85,4.333,31.26,1.829,12.85,3.724,25.69,5.587,38.54.823,5.67,1.64,11.34,2.518,17.42H485.154c-4.1-29.66-8.227-59.54-12.5-90.48-1.165,2.17-1.983,3.6-2.71,5.07q-20.062,40.62-40.182,81.21c-.894,1.8-2.88,4.21-4.362,4.22-1.514,0-3.568-2.35-4.47-4.13q-20.586-40.665-40.911-81.46c-.725-1.44-1.526-2.85-3.025-5.65-4.236,31.26-8.281,61.1-12.368,91.26H350.9c6.2-43.6,12.34-86.84,18.739-131.87,2.032,2.09,3.726,3.18,4.514,4.74C383.346,1376.66,392.406,1394.84,401.7,1413.32Z" fill="#939598"/>
      <path id="Path_47" data-name="Path 47" d="M729.712,1442.56c-6.271,22.58-22.685,40.67-47.564,42.21-20.016,1.24-40.169.25-60.707.25V1355c12.453,0,24.9-.36,37.314.12a186.528,186.528,0,0,1,26.463,2.91c25.059,4.65,41.915,25.47,45.76,49.21a87.548,87.548,0,0,1-1.266,35.32m-46.6-70.46c-15.742-3.97-31.718-3.21-47.663-2.93v104.71c16.025-1,31.625-1.25,47.011-3.19,9.752-1.23,18.3-6.7,24.447-14.66,10.142-13.12,13.032-28.09,10.116-44.34C713.522,1392.19,702.819,1378.84,683.112,1372.1Z" fill="#939598"/>
      <path id="Path_48" data-name="Path 48" d="M49.7,1401.36c5.08,6.1,9.909,11.94,14.859,17.68q13.263,15.375,26.656,30.64c.855.98,1.9,1.79,3.584,3.35v-97.65h13.762v131c-2.08-.74-4.476-.85-5.6-2.11-7.827-8.71-15.386-17.66-23.04-26.53q-7.446-8.625-14.915-17.23-16.392-18.885-32.812-37.75c-3.651-4.17-7.49-8.18-12.2-13.31v96.26H5.347V1353.83c2.514,1.57,4.548,2.3,5.821,3.72,7.619,8.47,15.051,17.12,22.571,25.68C38.974,1389.19,44.249,1395.12,49.7,1401.36Z" fill="#939598"/>
      <path id="Path_49" data-name="Path 49" d="M937.325,1478.26c3.7-7.95,7.089-15.63,10.683-23.21,10.449-22.02,21-44,31.466-66.02,4.877-10.26,9.587-20.6,14.555-30.82a5.806,5.806,0,0,1,3.661-2.97c.953-.14,2.66,1.55,3.24,2.79,10.91,23.25,21.65,46.57,32.51,69.83,5.99,12.84,12.17,25.58,18.2,38.4,2.92,6.2,5.71,12.47,9.02,19.72-5.11,0-9.36.22-13.55-.15-1.14-.1-2.49-1.82-3.13-3.1-5.95-11.95-11.87-23.92-17.55-36.01-1.32-2.8-2.82-3.83-5.94-3.8q-22.98.255-45.952,0c-3.538-.05-5.26,1.14-6.706,4.34-5.289,11.7-11.017,23.21-16.345,34.89-1.372,3.01-3.056,4.22-6.366,3.92-3.458-.31-6.967-.07-11.3-.07,1.253-2.82,2.274-5.12,3.507-7.74m60.617-92.21a2.744,2.744,0,0,0-.647-.25c-.08-.01-.214.23-.284.38q-8.01,16.665-16,33.33c-1.578,3.31-3,6.7-4.569,10.22h42.346C1011.79,1415.08,1005,1400.88,997.942,1386.05Z" fill="#939598"/>
      <path id="Path_50" data-name="Path 50" d="M538,1445v27.88h60.625v12.69H524.317V1355.38h75.246v13.5H538.377v39.94h60.306v12.95H538Z" fill="#939598"/>
      <path id="Path_51" data-name="Path 51" d="M1133.96,1473h9.71v12.61h-63.22V1355.33h13.29V1473Z" fill="#939598"/>
      <path id="Path_52" data-name="Path 52" d="M755,1383v-27.67h13.61v130.34H755Z" fill="#939598"/>
      <path id="Path_53" data-name="Path 53" d="M963.959,1031.93c.111-.06.408.06.637.34C964.4,1032.32,964.273,1032.21,963.959,1031.93Z" fill="#f79a7d"/>
    </g>
  </g>
</svg>
