<svg xmlns="http://www.w3.org/2000/svg" width="34.934" height="36.4" viewBox="0 0 34.934 36.4">
  <g id="nutrition" transform="translate(-10.237 0.2)">
    <path id="Path_21839" data-name="Path 21839" d="M168.995,151.209h-8.88a.528.528,0,1,0,0,1.057h8.88a.528.528,0,1,0,0-1.057Z" transform="translate(-138.662 -140.577)" fill="#bb2a22" stroke="#bb2a22" stroke-width="0.4"/>
    <path id="Path_21840" data-name="Path 21840" d="M160.114,179.23h4.991a.528.528,0,0,0,0-1.057h-4.991a.528.528,0,0,0,0,1.057Z" transform="translate(-138.662 -165.645)" fill="#bb2a22" stroke="#bb2a22" stroke-width="0.4"/>
    <path id="Path_21841" data-name="Path 21841" d="M80.584,146.032l-1.945,1.994-.841-.818a.528.528,0,1,0-.737.758l1.22,1.186a.533.533,0,0,0,.747-.01l2.313-2.372a.528.528,0,1,0-.757-.738Z" transform="translate(-61.791 -135.616)" fill="#bb2a22" stroke="#bb2a22" stroke-width="0.4"/>
    <path id="Path_21842" data-name="Path 21842" d="M168.995,227.742h-8.88a.528.528,0,0,0,0,1.057h8.88a.528.528,0,0,0,0-1.057Z" transform="translate(-138.662 -211.729)" fill="#bb2a22" stroke="#bb2a22" stroke-width="0.4"/>
    <path id="Path_21843" data-name="Path 21843" d="M165.105,254.706h-4.991a.528.528,0,0,0,0,1.057h4.991a.528.528,0,0,0,0-1.057Z" transform="translate(-138.662 -236.797)" fill="#bb2a22" stroke="#bb2a22" stroke-width="0.4"/>
    <path id="Path_21844" data-name="Path 21844" d="M80.584,222.566l-1.945,1.994-.841-.818a.528.528,0,1,0-.737.758l1.22,1.186a.533.533,0,0,0,.747-.01L81.34,223.3a.528.528,0,1,0-.757-.738Z" transform="translate(-61.791 -206.769)" fill="#bb2a22" stroke="#bb2a22" stroke-width="0.4"/>
    <path id="Path_21845" data-name="Path 21845" d="M80.584,299.1l-1.945,1.994-.841-.818a.528.528,0,1,0-.737.758l1.22,1.186a.533.533,0,0,0,.747-.01l2.313-2.372a.528.528,0,1,0-.757-.738Z" transform="translate(-61.791 -277.921)" fill="#bb2a22" stroke="#bb2a22" stroke-width="0.4"/>
    <path id="Path_21846" data-name="Path 21846" d="M80.584,375.633l-1.945,1.994-.841-.818a.528.528,0,1,0-.737.758l1.22,1.186a.533.533,0,0,0,.747-.01l2.313-2.372a.528.528,0,0,0-.757-.738Z" transform="translate(-61.791 -349.073)" fill="#bb2a22" stroke="#bb2a22" stroke-width="0.4"/>
    <path id="Path_21847" data-name="Path 21847" d="M40.6,18.419a6.882,6.882,0,0,0,.853-4.1.528.528,0,0,0-.464-.464c-.123-.014-3.03-.33-4.695,1.335a3.7,3.7,0,0,0-.252.282V11.809a.528.528,0,0,0-1.057,0V16.85a6.7,6.7,0,0,0-1.448-1.626V5.982a.528.528,0,0,0-.528-.528H29.324V3.977h4.821a.841.841,0,0,1,.84.84V9.7a.528.528,0,0,0,1.057,0V4.817a1.9,1.9,0,0,0-1.9-1.9H29.221a1.431,1.431,0,0,0-1.327-.9H26.145V1.244A1.245,1.245,0,0,0,24.9,0H21.577a1.245,1.245,0,0,0-1.244,1.244v.777H18.584a1.431,1.431,0,0,0-1.327.9H12.334a1.9,1.9,0,0,0-1.9,1.9V34.089a1.9,1.9,0,0,0,1.9,1.9H33.047a3.382,3.382,0,0,0,2.466-.787,3.39,3.39,0,0,0,2.176.8,3.563,3.563,0,0,0,.466-.031c1.769-.234,3.545-1.745,4.873-4.148a.528.528,0,1,0-.925-.511c-1.147,2.075-2.674,3.425-4.086,3.611a2.41,2.41,0,0,1-2.123-.807.534.534,0,0,0-.76,0,2.417,2.417,0,0,1-2.764.645,7.251,7.251,0,0,1-3.381-3.335,15.494,15.494,0,0,1-1.861-6.558,5.015,5.015,0,0,1,1.3-3.905,9.211,9.211,0,0,1,6.232-2.354c.049.144.1.289.135.439a6.54,6.54,0,0,1,.214,1.641,3.743,3.743,0,0,1-1.625-.626.528.528,0,1,0-.655.829,4.785,4.785,0,0,0,2.781.889h0a4.785,4.785,0,0,0,2.778-.889.532.532,0,0,0,0-.825,4.6,4.6,0,0,0,1.542-.8c3.557,1.253,4.178,3.727,4.061,5.606a16.1,16.1,0,0,1-.952,4.589.528.528,0,0,0,.991.366,17.159,17.159,0,0,0,1.016-4.89c.188-3.021-1.353-5.31-4.355-6.513ZM18.211,3.451a.374.374,0,0,1,.373-.373h2.277a.528.528,0,0,0,.528-.528V1.244a.187.187,0,0,1,.187-.187H24.9a.187.187,0,0,1,.187.187V2.549a.528.528,0,0,0,.528.528h2.277a.373.373,0,0,1,.373.373V5.932a.374.374,0,0,1-.373.373h-9.31a.374.374,0,0,1-.373-.373Zm9.45,16.787a5.89,5.89,0,0,0-.849,1.156h-5.36a.528.528,0,0,0,0,1.057h4.9a6.058,6.058,0,0,0-.2.839h-4.7a.528.528,0,0,0,0,1.057h4.607c0,.192,0,.387.013.586a18.042,18.042,0,0,0,.21,1.843h-4.83a.528.528,0,0,0,0,1.057h5.04q.1.425.216.839H21.453a.528.528,0,0,0,0,1.057h5.6a14.615,14.615,0,0,0,1.016,2.218q.131.23.267.449H14V21.336a.528.528,0,0,0-1.057,0V32.924a.528.528,0,0,0,.528.528H29.076a8.516,8.516,0,0,0,1.473,1.477H12.334a.841.841,0,0,1-.84-.84V4.817a.841.841,0,0,1,.84-.84h4.821V5.454H13.47a.528.528,0,0,0-.528.528v13.24a.528.528,0,1,0,1.057,0V6.511h3.28a1.431,1.431,0,0,0,1.306.851h9.31A1.431,1.431,0,0,0,29.2,6.511h3.28v8.01a.528.528,0,0,0-.428.959c.149.086.29.178.428.272v2.066a8.987,8.987,0,0,0-4.818,2.419Zm5.875-2.59v-.973a5.478,5.478,0,0,1,.659.905q-.334.027-.659.067ZM36.07,20.68c0-.093,0-.194-.007-.3h.055a8.122,8.122,0,0,0,1.125-.078,3.9,3.9,0,0,1-1.174.38Zm-.084-1.362a4.873,4.873,0,0,1,1.055-3.385,4.875,4.875,0,0,1,3.385-1.055,4.872,4.872,0,0,1-1.055,3.385A4.873,4.873,0,0,1,35.986,19.318Z" fill="#bb2a22" stroke="#bb2a22" stroke-width="0.4"/>
  </g>
</svg>
