<svg xmlns="http://www.w3.org/2000/svg" width="33.069" height="36.6" viewBox="0 0 33.069 36.6">
  <g id="obesity" transform="translate(-6.956 -3.7)">
    <path id="Path_21848" data-name="Path 21848" d="M35.7,18.771a9.98,9.98,0,0,0-7.2-3.207,10.618,10.618,0,0,0,1.184-4.98C29.678,6.705,27.142,4,23.509,4,19.849,4,17.3,6.705,17.3,10.584a10.588,10.588,0,0,0,1.189,4.98,9.969,9.969,0,0,0-7.178,3.207C8.28,22.049,6.851,27.727,7.38,34.327c.1,2.067,1.195,3.671,2.8,4.075a2.954,2.954,0,0,0,.715.093,2.888,2.888,0,0,0,2.165-1.02C14.967,39.149,18.464,40,23.487,40s8.525-.851,10.44-2.531a2.888,2.888,0,0,0,2.165,1.02,2.707,2.707,0,0,0,.715-.093A4.109,4.109,0,0,0,39.6,34.338c.529-6.633-.895-12.311-3.9-15.567ZM18.387,10.584c0-3.284,2.056-5.493,5.122-5.493,2.531,0,5.078,1.7,5.078,5.493,0,3.524-1.745,7.1-5.078,7.1-3.365-.005-5.122-3.573-5.122-7.1ZM38.5,34.273c-.087,1.92-1.118,2.853-1.975,3.071a1.776,1.776,0,0,1-1.865-.671,4.022,4.022,0,0,0,.256-.365c1.107-1.805.922-4.195-.551-7.1a15.2,15.2,0,0,1-1.718-6.916.545.545,0,1,0-1.091,0,15.416,15.416,0,0,0,.2,2.455.57.57,0,0,0-.115.115,5.366,5.366,0,0,1-3.109,2.171,4.174,4.174,0,0,1-3.267-1,.545.545,0,1,0-.66.867,5.54,5.54,0,0,0,3.36,1.276,4.464,4.464,0,0,0,.764-.065,5.99,5.99,0,0,0,3.311-1.985A17.275,17.275,0,0,0,33.4,29.713c1.293,2.542,1.489,4.571.595,6.033C32.7,37.84,29.16,38.909,23.476,38.909s-9.229-1.075-10.505-3.191c-.911-1.505-.665-3.616.725-6.262a14.794,14.794,0,0,0,1.244-3.311A5.933,5.933,0,0,0,18.224,28.1a4.56,4.56,0,0,0,.764.065,5.506,5.506,0,0,0,3.36-1.276.545.545,0,1,0-.66-.867,4.16,4.16,0,0,1-3.267,1,5.385,5.385,0,0,1-3.109-2.171.594.594,0,0,0-.1-.1,16.527,16.527,0,0,0,.191-2.444.545.545,0,0,0-1.091,0,14.323,14.323,0,0,1-1.576,6.638c-1.582,3.011-1.816,5.476-.693,7.336.082.136.175.262.267.393a1.779,1.779,0,0,1-1.865.671c-.856-.218-1.887-1.151-1.975-3.087-.5-6.224.862-11.738,3.638-14.749a9.028,9.028,0,0,1,6.916-2.88.64.64,0,0,0,.147-.027,5.393,5.393,0,0,0,8.645.005.56.56,0,0,0,.131.027,9.058,9.058,0,0,1,6.949,2.88C37.7,22.545,39.016,27.918,38.5,34.273Z" transform="translate(0)" fill="#bb2a22" stroke="#bb2a22" stroke-width="0.6"/>
    <path id="Path_21849" data-name="Path 21849" d="M29.142,57.783c-6.84,0-8.056-1.68-8.171-1.876-.36-.595-.06-1.936.807-3.584a.545.545,0,1,0-.965-.507c-.764,1.451-1.511,3.431-.775,4.653.436.72,2.193,2.4,9.1,2.4a.547.547,0,0,0,.545-.545A.539.539,0,0,0,29.142,57.783Z" transform="translate(-5.666 -21.602)" fill="#bb2a22" stroke="#bb2a22" stroke-width="0.6"/>
    <path id="Path_21850" data-name="Path 21850" d="M50.721,58.469a.529.529,0,0,0,.125.016.546.546,0,0,0,.529-.42l.5-2.084a.544.544,0,0,0-1.058-.251l-.5,2.084A.543.543,0,0,0,50.721,58.469Z" transform="translate(-19.559 -23.323)" fill="#bb2a22" stroke="#bb2a22" stroke-width="0.6"/>
    <path id="Path_21851" data-name="Path 21851" d="M45.529,55.16l-1.3,1.26a.538.538,0,0,0-.011.769.553.553,0,0,0,.775.011l1.3-1.26a.538.538,0,0,0,.011-.769A.545.545,0,0,0,45.529,55.16Z" transform="translate(-16.724 -23.183)" fill="#bb2a22" stroke="#bb2a22" stroke-width="0.6"/>
    <path id="Path_21852" data-name="Path 21852" d="M42.975,51.762a.739.739,0,0,0,.109-.011l2.1-.431a.546.546,0,1,0-.218-1.069l-2.1.431a.546.546,0,0,0-.425.644A.552.552,0,0,0,42.975,51.762Z" transform="translate(-15.981 -21.018)" fill="#bb2a22" stroke="#bb2a22" stroke-width="0.6"/>
  </g>
</svg>
