<svg xmlns="http://www.w3.org/2000/svg" width="38.548" height="36.5" viewBox="0 0 38.548 36.5">
  <g id="pre-marital_" data-name="pre-marital " transform="translate(-1.75 -5.33)">
    <path id="Path_7" data-name="Path 7" d="M18.466,53.585A2.666,2.666,0,0,1,15.8,50.919V42.531a.572.572,0,0,1,1.144,0v8.388a1.522,1.522,0,1,0,3.038,0V34.212a.572.572,0,1,1,1.144,0V50.919a2.666,2.666,0,0,1-2.661,2.666Z" transform="translate(-5.904 -12.005)" fill="#b72b25" stroke="#b72b25" stroke-width="0.5"/>
    <path id="Path_8" data-name="Path 8" d="M16.51,39.815a2.432,2.432,0,0,1-2.432-2.426V30.2a.572.572,0,1,1,1.144,0V37.39a1.287,1.287,0,1,0,2.575,0V28.035a2.626,2.626,0,0,0-2.638-2.62H5.765a2.626,2.626,0,0,0-2.62,2.62V37.39a1.287,1.287,0,1,0,2.575,0V30.2a.572.572,0,0,1,1.144,0V37.39A2.432,2.432,0,1,1,2,37.39V28.035A3.771,3.771,0,0,1,5.765,24.27H15.16a3.77,3.77,0,0,1,3.765,3.765V37.39a2.432,2.432,0,0,1-2.414,2.426Z" transform="translate(0 -7.996)" fill="#b72b25" stroke="#b72b25" stroke-width="0.5"/>
    <path id="Path_9" data-name="Path 9" d="M11.161,53.585A2.666,2.666,0,0,1,8.5,50.919V34.212a.572.572,0,1,1,1.144,0V50.919a1.516,1.516,0,0,0,3.032,0V42.531a.572.572,0,1,1,1.144,0v8.388a2.666,2.666,0,0,1-2.661,2.666Z" transform="translate(-2.781 -12.005)" fill="#b72b25" stroke="#b72b25" stroke-width="0.5"/>
    <path id="Path_10" data-name="Path 10" d="M13.377,14.734a4.577,4.577,0,1,1,4.577-4.577A4.577,4.577,0,0,1,13.377,14.734Zm0-8.056a3.433,3.433,0,1,0,3.433,3.433A3.433,3.433,0,0,0,13.377,6.679Z" transform="translate(-2.909)" fill="#b72b25" stroke="#b72b25" stroke-width="0.5"/>
    <path id="Path_11" data-name="Path 11" d="M55.392,32.112a2.174,2.174,0,0,1-.509-.057,2.289,2.289,0,0,1-1.493-1.144l-2-3.73a.572.572,0,1,1,1.007-.544l2.025,3.742a1.133,1.133,0,1,0,1.94-1.167L52.715,23.69a5.544,5.544,0,0,0-9.263,0l-3.61,5.493A1.144,1.144,0,0,0,41.054,30.9a1.11,1.11,0,0,0,.727-.572l1.877-3.433a.572.572,0,0,1,1.007.544L42.805,30.9a2.276,2.276,0,1,1-3.9-2.334l3.61-5.487a6.688,6.688,0,0,1,11.163-.017l3.627,5.55a2.289,2.289,0,0,1-1.911,3.5Z" transform="translate(-17.63 -6.198)" fill="#b72b25" stroke="#b72b25" stroke-width="0.5"/>
    <path id="Path_12" data-name="Path 12" d="M55.672,42.624H40.6a1.945,1.945,0,0,1-1.716-2.861l5.453-10.081a.572.572,0,1,1,1.007.544L39.886,40.3a.8.8,0,0,0,.709,1.179H55.672a.79.79,0,0,0,.692-.389.778.778,0,0,0,0-.79L50.928,30.214a.572.572,0,1,1,1-.544l5.458,10.081a1.945,1.945,0,0,1-1.716,2.861Z" transform="translate(-17.681 -10.158)" fill="#b72b25" stroke="#b72b25" stroke-width="0.5"/>
    <path id="Path_13" data-name="Path 13" d="M56.667,60.543a2.437,2.437,0,0,1-2.437-2.437V51.142a.572.572,0,0,1,.572-.572h3.73a.572.572,0,0,1,.572.572v6.969a2.437,2.437,0,0,1-2.437,2.432Zm-1.293-8.828v6.4a1.293,1.293,0,1,0,2.586,0v-6.4Z" transform="translate(-24.346 -19.249)" fill="#b72b25" stroke="#b72b25" stroke-width="0.5"/>
    <path id="Path_14" data-name="Path 14" d="M50.177,60.543a2.437,2.437,0,0,1-2.437-2.437V51.142a.572.572,0,0,1,.572-.572h3.736a.572.572,0,0,1,.572.572v6.969A2.443,2.443,0,0,1,50.177,60.543Zm-1.316-8.828v6.4a1.3,1.3,0,0,0,2.592,0v-6.4Z" transform="translate(-21.57 -19.249)" fill="#b72b25" stroke="#b72b25" stroke-width="0.5"/>
    <path id="Path_15" data-name="Path 15" d="M51.807,15.154a4.577,4.577,0,1,1,4.577-4.577A4.577,4.577,0,0,1,51.807,15.154Zm0-8.01a3.433,3.433,0,1,0,3.433,3.433,3.433,3.433,0,0,0-3.433-3.433Z" transform="translate(-21.351 -0.18)" fill="#b72b25" stroke="#b72b25" stroke-width="0.5"/>
  </g>
</svg>
