<svg xmlns="http://www.w3.org/2000/svg" width="32.141" height="36.5" viewBox="0 0 32.141 36.5">
  <g id="genome" transform="translate(0.25 0.25)">
    <path id="Path_513" data-name="Path 513" d="M240,34.945V36h2.109V34.945a2.311,2.311,0,0,1,.361-1.055H252.3a2.311,2.311,0,0,1,.361,1.055V36h2.109V34.945c0-2.665-3.664-5.756-5.828-7.727,3.009-2.823,5.828-5.925,5.828-9.218s-2.819-6.465-5.828-9.289c2.188-1.993,5.828-5.015,5.828-7.657V0h-2.109V1.055a2.311,2.311,0,0,1-.361,1.055H242.47a2.311,2.311,0,0,1-.361-1.055V0H240V1.055c0,2.665,3.664,5.685,5.828,7.657C242.819,11.535,240,14.707,240,18s2.819,6.395,5.828,9.218C243.64,29.211,240,32.3,240,34.945Zm4.155-30.727h6.456c-.96,1-2.134,2.063-3.228,3.057C247.3,7.2,245.12,5.22,244.155,4.218Zm3.228,5.926c.881.823,1.73,1.664,2.493,2.512H244.89C245.653,11.808,246.5,10.967,247.383,10.144Zm-4.135,4.622h8.269a7.777,7.777,0,0,1,.987,2.18H242.261a7.777,7.777,0,0,1,.987-2.18Zm0,6.4a7.418,7.418,0,0,1-.987-2.11H252.5a7.418,7.418,0,0,1-.987,2.11Zm1.642,2.109h4.986c-.763.848-1.612,1.69-2.493,2.513C246.5,24.963,245.653,24.121,244.89,23.273Zm2.493,5.382c1.077.978,2.263,2.055,3.228,3.056h-6.456C245.114,30.715,246.289,29.649,247.383,28.655Zm0,0" transform="translate(-223.125)" fill="#bb2a22" stroke="#fff" stroke-width="0.5"/>
    <path id="Path_514" data-name="Path 514" d="M0,34.945V36H2.109V34.945a2.311,2.311,0,0,1,.361-1.055H12.3a2.311,2.311,0,0,1,.361,1.055V36h2.109V34.945c0-2.665-3.664-5.756-5.828-7.727,3.009-2.823,5.828-5.925,5.828-9.218s-2.819-6.465-5.828-9.289c2.188-1.993,5.828-5.015,5.828-7.657V0H12.656V1.055A2.311,2.311,0,0,1,12.3,2.109H2.47a2.311,2.311,0,0,1-.361-1.055V0H0V1.055C0,3.72,3.664,6.74,5.828,8.711,2.819,11.535,0,14.707,0,18s2.819,6.395,5.828,9.218C3.64,29.211,0,32.3,0,34.945ZM4.155,4.218h6.456c-.96,1-2.134,2.063-3.228,3.057C6.306,6.3,5.12,5.22,4.155,4.218Zm3.228,5.926c.881.823,1.73,1.664,2.493,2.512H4.89c.763-.848,1.612-1.689,2.493-2.512ZM3.248,14.766h8.269a7.777,7.777,0,0,1,.987,2.18H2.261a7.777,7.777,0,0,1,.987-2.18Zm0,6.4a7.418,7.418,0,0,1-.987-2.11H12.5a7.418,7.418,0,0,1-.987,2.11ZM4.89,23.273H9.876c-.763.848-1.612,1.69-2.493,2.513-.881-.823-1.73-1.665-2.493-2.513Zm2.493,5.382c1.077.978,2.263,2.055,3.228,3.056H4.155c.96-1,2.134-2.062,3.228-3.056Zm0,0" fill="#bb2a22" stroke="#fff" stroke-width="0.5"/>
  </g>
</svg>
