<svg xmlns="http://www.w3.org/2000/svg" width="31.481" height="36" viewBox="0 0 31.481 36">
  <g id="badge" transform="translate(-0.5 0)">
    <path id="Path_249" data-name="Path 249" d="M31.87,29.955l-4.463-8.927a13.481,13.481,0,1,0-22.332,0L.611,29.955a1.055,1.055,0,0,0,.943,1.527H6.675l3.073,4.1a1.055,1.055,0,0,0,1.787-.161l4.232-8.464c.157.005.315.009.473.009s.316,0,.473-.009l4.232,8.464a1.055,1.055,0,0,0,1.787.161l3.073-4.1h5.121a1.055,1.055,0,0,0,.943-1.527ZM10.412,32.947,8.046,29.794a1.054,1.054,0,0,0-.844-.422H3.261l3.273-6.545a13.476,13.476,0,0,0,7.006,3.864ZM4.868,13.481A11.372,11.372,0,1,1,16.24,24.853,11.385,11.385,0,0,1,4.868,13.481ZM25.278,29.372a1.055,1.055,0,0,0-.844.422l-2.365,3.153-3.128-6.256a13.475,13.475,0,0,0,7.007-3.864l3.272,6.545H25.278Zm0,0" fill="#bb2a22"/>
    <path id="Path_250" data-name="Path 250" d="M116.371,74.977l2.945-3.516a1.055,1.055,0,0,0-.552-1.7l-4.449-1.113-2.434-3.888a1.055,1.055,0,0,0-1.788,0l-2.433,3.888-4.449,1.113a1.054,1.054,0,0,0-.553,1.7l2.945,3.516-.317,4.575a1.055,1.055,0,0,0,1.446,1.051l4.254-1.714,4.254,1.715a1.055,1.055,0,0,0,1.446-1.051Zm-1.89-1.029a1.054,1.054,0,0,0-.244.75l.229,3.319-3.085-1.244a1.054,1.054,0,0,0-.789,0l-3.085,1.244.23-3.318a1.056,1.056,0,0,0-.244-.75l-2.136-2.55,3.227-.807a1.054,1.054,0,0,0,.638-.464l1.765-2.82,1.765,2.82a1.054,1.054,0,0,0,.638.464l3.227.807Zm0,0" transform="translate(-94.747 -59.747)" fill="#bb2a22"/>
  </g>
</svg>
