<svg id="old-man" xmlns="http://www.w3.org/2000/svg" width="36" height="36" viewBox="0 0 36 36">
  <path id="Path_244" data-name="Path 244" d="M35.193,20.181a3.168,3.168,0,0,0-.12-4.348L27.3,8.065a4.292,4.292,0,1,0-5.243-.935A8.11,8.11,0,0,0,17.317,13.1L11.6,11.543,9.719,8.255a4.292,4.292,0,1,0-4.84-1.122A8.1,8.1,0,0,0,0,14.555V24.4a1.055,1.055,0,0,0,1.055,1.055h.813L.109,32.016a3.164,3.164,0,0,0,2.237,3.875A3.179,3.179,0,0,0,3.171,36a3.168,3.168,0,0,0,3.051-2.347l.5-1.854.5,1.856a3.164,3.164,0,1,0,6.112-1.638L11.25,24.261V18.007l5.366,1.464a3.169,3.169,0,0,0,.57.1V24.4a1.055,1.055,0,0,0,1.055,1.055H19.3v9.492A1.055,1.055,0,0,0,20.35,36h4.922a1.055,1.055,0,0,0,1.045-.915l1.4-10.5,1.3-5.855,1.457,1.457a3.151,3.151,0,0,0-.8,2.1v.7a1.055,1.055,0,1,0,2.109,0v-.7a1.055,1.055,0,0,1,2.109,0V34.945a1.055,1.055,0,1,0,2.109,0V22.289a3.151,3.151,0,0,0-.807-2.108ZM23.092,4.289a2.18,2.18,0,1,1,2.18,2.18A2.182,2.182,0,0,1,23.092,4.289Zm-17.186,0a2.18,2.18,0,1,1,2.18,2.18A2.182,2.182,0,0,1,5.906,4.289ZM4.184,33.108a1.055,1.055,0,0,1-2.037-.546l1.9-7.108h.967l.608,2.271Zm7,.255a1.055,1.055,0,0,1-1.932-.254L7.2,25.453H9.386l1.9,7.109A1.048,1.048,0,0,1,11.185,33.363Zm-2.336-18.2a1.762,1.762,0,0,1-1.1-.886l-.839-1.617a1.055,1.055,0,0,0-1.872.971l.839,1.617A3.878,3.878,0,0,0,8.294,17.2l.846.231v5.912H2.109V14.555A5.985,5.985,0,0,1,7.491,8.608l2.492,4.361a1.051,1.051,0,0,0,.638.494L17.726,15.4a1.055,1.055,0,0,1-.555,2.035Zm15.5,18.725H21.4V25.453h4.069Zm1.484-10.547H19.3V18.985a3.164,3.164,0,0,0,.04-5.108A6.005,6.005,0,0,1,24.85,8.593l8.732,8.732a1.055,1.055,0,1,1-1.491,1.491l-7.479-7.479a1.055,1.055,0,0,0-1.492,1.492l4.131,4.131Z" fill="#bb2a22"/>
</svg>
