<svg xmlns="http://www.w3.org/2000/svg" width="41.343" height="36.2" viewBox="0 0 41.343 36.2">
  <g id="Group_155" data-name="Group 155" transform="translate(0.1 0.1)">
    <g id="Group_154" data-name="Group 154" transform="translate(0 0)">
      <path id="Path_507" data-name="Path 507" d="M304.659,34.571V32a19.639,19.639,0,0,0-2.739.193l.364,2.547A16.784,16.784,0,0,1,304.659,34.571Z" transform="translate(-277.659 -32)" fill="#bb2a22" stroke="#fff" stroke-width="0.2"/>
      <path id="Path_508" data-name="Path 508" d="M239.714,44.146l-.726-2.466a19.4,19.4,0,0,0-2.571.964l1.059,2.339A16.77,16.77,0,0,1,239.714,44.146Z" transform="translate(-217.418 -40.902)" fill="#bb2a22" stroke="#fff" stroke-width="0.2"/>
      <path id="Path_509" data-name="Path 509" d="M106.259,72.305l-1.387-2.161A19.223,19.223,0,0,0,96,86.365h2.571A16.664,16.664,0,0,1,106.259,72.305Z" transform="translate(-88.286 -67.079)" fill="#bb2a22" stroke="#fff" stroke-width="0.2"/>
      <path id="Path_510" data-name="Path 510" d="M174.143,96A14.16,14.16,0,0,0,160,110.143h2.571a11.571,11.571,0,1,1,11.571,11.571v2.571a14.143,14.143,0,0,0,0-28.286Z" transform="translate(-147.143 -90.857)" fill="#bb2a22" stroke="#fff" stroke-width="0.2"/>
      <path id="Path_511" data-name="Path 511" d="M197.143,288a5.143,5.143,0,1,0,5.143,5.143A5.143,5.143,0,0,0,197.143,288Zm0,7.714a2.571,2.571,0,1,1,2.571-2.571A2.571,2.571,0,0,1,197.143,295.714Z" transform="translate(-176.571 -267.429)" fill="#bb2a22" stroke="#fff" stroke-width="0.2"/>
      <path id="Path_512" data-name="Path 512" d="M12.857,326.429A6.436,6.436,0,0,0,6.429,320H0v2.571H6.429a3.865,3.865,0,0,1,3.637,2.571H0v2.571H12.857Z" transform="translate(0 -296.857)" fill="#bb2a22" stroke="#fff" stroke-width="0.2"/>
      <rect id="Rectangle_86" data-name="Rectangle 86" width="23.143" height="2.571" transform="translate(0 33.429)" fill="#bb2a22" stroke="#fff" stroke-width="0.2"/>
    </g>
  </g>
</svg>
