<svg xmlns="http://www.w3.org/2000/svg" width="36" height="36" viewBox="0 0 36 36">
  <g id="biopsy" transform="translate(0)">
    <path id="Path_603" data-name="Path 603" d="M34.508,8.949,36,7.458,28.542,0,27.051,1.492l1.492,1.492L26.3,5.22,24.813,3.729,23.322,5.22,21.457,3.356a4.746,4.746,0,0,0-6.712,6.712l1.864,1.864-4.475,4.475L13.627,17.9l-2.983,2.983,1.492,1.492L0,34.508,1.491,36,13.627,23.865l1.492,1.492L18.1,22.373l1.492,1.492,4.475-4.475,1.864,1.864a4.746,4.746,0,1,0,6.712-6.712l-1.864-1.864,1.492-1.492L30.779,9.695l2.237-2.237Zm-5.22,2.237-3.356,3.356L22.576,17.9l-1.492-1.492,3.356-3.356L22.949,11.56l-3.356,3.356L18.1,13.424l3.356-3.356,3.356-3.356ZM16.237,4.848a2.637,2.637,0,1,1,0,3.729,2.64,2.64,0,0,1,0-3.729ZM15.118,22.373l-1.492-1.492,1.492-1.492,1.492,1.492Zm0-5.966,1.492-1.492,4.475,4.475-1.492,1.492Zm16.034,3.356a2.637,2.637,0,1,1,0-3.729A2.64,2.64,0,0,1,31.152,19.763ZM29.288,8.2,27.8,6.712l2.237-2.237,1.492,1.492Z" fill="#bb2a22"/>
  </g>
</svg>
