<svg xmlns="http://www.w3.org/2000/svg" width="25.554" height="25.554" viewBox="0 0 25.554 25.554">
  <g id="biopsy" transform="translate(0.212 0.212)">
    <path id="Path_603" data-name="Path 603" d="M24.089,6.247,25.13,5.206,19.924,0,18.883,1.041l1.041,1.041L18.362,3.644,17.321,2.6,16.28,3.644l-1.3-1.3a3.313,3.313,0,1,0-4.685,4.685l1.3,1.3L8.471,11.453l1.041,1.041L7.43,14.577l1.041,1.041L0,24.089,1.041,25.13l8.471-8.471L10.553,17.7l2.082-2.082,1.041,1.041L16.8,13.535l1.3,1.3a3.313,3.313,0,1,0,4.685-4.685l-1.3-1.3,1.041-1.041L21.486,6.768l1.562-1.562ZM20.445,7.809,18.1,10.152l-2.343,2.343-1.041-1.041L17.061,9.11,16.02,8.069l-2.343,2.343L12.636,9.371l2.343-2.343,2.343-2.343Zm-9.11-4.425a1.841,1.841,0,1,1,0,2.6,1.843,1.843,0,0,1,0-2.6Zm-.781,12.234L9.512,14.577l1.041-1.041,1.041,1.041Zm0-4.165,1.041-1.041,3.124,3.124-1.041,1.041ZM21.746,13.8a1.841,1.841,0,1,1,0-2.6A1.843,1.843,0,0,1,21.746,13.8Zm-1.3-8.069L19.4,4.685l1.562-1.562,1.041,1.041Z" transform="translate(0)" fill="#fff" stroke="#bb2a22" stroke-width="0.3"/>
  </g>
</svg>
