<svg xmlns="http://www.w3.org/2000/svg" width="22.892" height="25.5" viewBox="0 0 22.892 25.5">
  <g id="mammogram" transform="translate(-26.452 0.25)">
    <path id="Path_169" data-name="Path 169" d="M48.606,6.729h-1.3V6.278A3.712,3.712,0,0,0,43.6,2.569H40.89V.488A.488.488,0,0,0,40.4,0H35.394a.488.488,0,0,0-.488.488V2.569H32.194a3.712,3.712,0,0,0-3.707,3.708v.451h-1.3a.488.488,0,0,0-.488.488V19.929a.488.488,0,0,0,.488.488h4.438L31.2,24.46a.488.488,0,0,0,.486.54H44.11a.488.488,0,0,0,.486-.54l-.427-4.044h4.438a.488.488,0,0,0,.488-.488V7.217A.488.488,0,0,0,48.606,6.729ZM29.463,6.278a2.734,2.734,0,0,1,2.73-2.732h3.2a.488.488,0,0,0,.488-.488V.977h4.031V3.058a.488.488,0,0,0,.488.488h3.2a2.734,2.734,0,0,1,2.73,2.732v.451H29.463ZM44.717,9.439a3.738,3.738,0,0,1,0,5.45l-.006.006,0,0a3.721,3.721,0,0,1-2.546,1,3.76,3.76,0,0,1-3.775-3.737.488.488,0,0,0-.977,0A3.76,3.76,0,0,1,33.635,15.9a3.722,3.722,0,0,1-2.536-.993l-.01-.009-.01-.009a3.738,3.738,0,0,1,0-5.45.488.488,0,0,0,.154-.356V7.706H44.563V9.083a.489.489,0,0,0,.154.356Zm-1.476,10H32.556l-.933-3.013a4.7,4.7,0,0,0,2.012.45A4.761,4.761,0,0,0,37.9,14.245a4.761,4.761,0,0,0,4.263,2.633,4.7,4.7,0,0,0,2.012-.45ZM27.679,7.706h2.579V8.879a4.714,4.714,0,0,0,.059,6.631l1.218,3.931H27.679Zm4.551,16.318.381-3.607H43.186l.381,3.607ZM48.118,19.44H44.262l1.218-3.931a4.714,4.714,0,0,0,.059-6.631V7.706h2.579Z" transform="translate(0)" fill="#fff" stroke="#fff" stroke-width="0.5"/>
    <path id="Path_170" data-name="Path 170" d="M312.563,214.005a1.877,1.877,0,1,0,1.877,1.877A1.879,1.879,0,0,0,312.563,214.005Zm0,2.778a.9.9,0,1,1,.9-.9A.9.9,0,0,1,312.563,216.783Z" transform="translate(-270.118 -203.556)" fill="#fff" stroke="#fff" stroke-width="0.5"/>
  </g>
</svg>
