<svg xmlns="http://www.w3.org/2000/svg" width="22.809" height="25.43" viewBox="0 0 22.809 25.43">
  <g id="mammogram" transform="translate(-26.552 0.15)">
    <path id="Path_169" data-name="Path 169" d="M48.72,6.764h-1.3V6.31a3.731,3.731,0,0,0-3.726-3.728H40.964V.491A.491.491,0,0,0,40.473,0H35.439a.491.491,0,0,0-.491.491V2.583H32.222A3.731,3.731,0,0,0,28.5,6.31v.454h-1.3a.491.491,0,0,0-.491.491V20.032a.491.491,0,0,0,.491.491h4.461l-.429,4.065a.491.491,0,0,0,.488.542H44.2a.491.491,0,0,0,.488-.542l-.429-4.065H48.72a.491.491,0,0,0,.491-.491V7.255A.491.491,0,0,0,48.72,6.764ZM29.478,6.31a2.748,2.748,0,0,1,2.745-2.746h3.217a.491.491,0,0,0,.491-.491V.982h4.052V3.074a.491.491,0,0,0,.491.491h3.217A2.748,2.748,0,0,1,46.435,6.31v.454H29.478ZM44.81,9.488a3.757,3.757,0,0,1,0,5.479l-.006.006,0,0a3.74,3.74,0,0,1-2.559,1.008,3.78,3.78,0,0,1-3.794-3.756.491.491,0,0,0-.982,0,3.78,3.78,0,0,1-3.794,3.756,3.741,3.741,0,0,1-2.549-1l-.01-.009-.01-.009a3.757,3.757,0,0,1,0-5.479.491.491,0,0,0,.155-.358V7.746h13.4V9.131a.491.491,0,0,0,.155.358ZM43.326,19.541H32.587l-.938-3.029a4.726,4.726,0,0,0,2.023.453,4.785,4.785,0,0,0,4.285-2.647,4.785,4.785,0,0,0,4.285,2.647,4.725,4.725,0,0,0,2.023-.453ZM27.684,7.746h2.592V8.925a4.739,4.739,0,0,0,.059,6.665l1.224,3.951H27.684Zm4.574,16.4.383-3.625H43.272l.382,3.625Zm15.971-4.607H44.354l1.224-3.951a4.739,4.739,0,0,0,.059-6.665V7.746h2.592Z" fill="#fff" stroke="#fff" stroke-width="0.3"/>
    <path id="Path_170" data-name="Path 170" d="M312.573,214.005a1.887,1.887,0,1,0,1.887,1.887A1.889,1.889,0,0,0,312.573,214.005Zm0,2.792a.905.905,0,1,1,.905-.905A.906.906,0,0,1,312.573,216.8Z" transform="translate(-270.045 -203.501)" fill="#fff" stroke="#fff" stroke-width="0.3"/>
  </g>
</svg>
