<svg xmlns="http://www.w3.org/2000/svg" width="25.132" height="25.13" viewBox="0 0 25.132 25.13">
  <g id="Digital_tomosynthesis" data-name="Digital tomosynthesis" transform="translate(0 -0.018)">
    <path id="Path_614" data-name="Path 614" d="M83.241,192.23a2.209,2.209,0,1,0-2.209-2.209A2.211,2.211,0,0,0,83.241,192.23Zm0-2.945a.736.736,0,1,1-.736.736A.737.737,0,0,1,83.241,189.285Z" transform="translate(-77.054 -178.576)" fill="#fff"/>
    <path id="Path_615" data-name="Path 615" d="M343.24,192.23a2.209,2.209,0,1,0-2.209-2.209A2.211,2.211,0,0,0,343.24,192.23Zm0-2.945a.736.736,0,1,1-.736.736A.737.737,0,0,1,343.24,189.285Z" transform="translate(-324.29 -178.576)" fill="#fff"/>
    <path id="Path_616" data-name="Path 616" d="M24.227,7.1c-1.684-3.167-2.14-4.313-2.14-6.347a.736.736,0,1,0-1.473,0c0,2.458.634,3.882,2.313,7.038a5.611,5.611,0,0,1-.841,6.715,5.646,5.646,0,0,1-.979.7c-2.477,1.317-5.692.135-7.166-2.636a6.273,6.273,0,0,1-.628-1.786,1.243,1.243,0,0,0-.087-.393.753.753,0,0,0-1.14-.208c-.179.147-.213.287-.265.6a6.273,6.273,0,0,1-.628,1.786c-1.474,2.771-4.688,3.954-7.166,2.636a4.8,4.8,0,0,1-2.384-3.127,6,6,0,0,1,.564-4.288C3.888,4.636,4.522,3.212,4.522.754a.736.736,0,1,0-1.473,0c0,2.033-.456,3.18-2.14,6.347a7.471,7.471,0,0,0-.692,5.34A6.4,6.4,0,0,0,2.059,15.6,16.912,16.912,0,0,1,3.51,22.738c0,.539-.022,1.083-.064,1.615a.736.736,0,0,0,.675.793l.059,0a.736.736,0,0,0,.733-.678c.046-.571.069-1.154.069-1.733a19.843,19.843,0,0,0-.848-5.878,6.11,6.11,0,0,0,2.069.358A7.255,7.255,0,0,0,12.5,13.263q.037-.07.073-.141.036.071.073.141a7.254,7.254,0,0,0,6.292,3.955,6.111,6.111,0,0,0,2.076-.36,19.814,19.814,0,0,0-.848,5.88c0,.578.023,1.161.069,1.733a.736.736,0,0,0,.733.678l.059,0a.736.736,0,0,0,.675-.793c-.043-.533-.064-1.076-.064-1.615a16.863,16.863,0,0,1,1.459-7.155A7.085,7.085,0,0,0,24.227,7.1Z" fill="#fff"/>
    <path id="Path_617" data-name="Path 617" d="M291.557,153.666a.736.736,0,0,0,.94-.448,3.419,3.419,0,0,1,1.155-1.583.736.736,0,1,0-.892-1.172,4.888,4.888,0,0,0-1.651,2.264A.736.736,0,0,0,291.557,153.666Z" transform="translate(-276.778 -142.917)" fill="#fff"/>
    <path id="Path_618" data-name="Path 618" d="M382.626,135.16a3.427,3.427,0,0,1,.888.24.736.736,0,1,0,.572-1.357,4.9,4.9,0,0,0-1.27-.343.736.736,0,1,0-.19,1.46Z" transform="translate(-363.234 -127.114)" fill="#fff"/>
  </g>
</svg>
