<svg xmlns="http://www.w3.org/2000/svg" width="36.002" height="36" viewBox="0 0 36.002 36">
  <g id="breast-cancer" transform="translate(0 -0.018)">
    <path id="Path_614" data-name="Path 614" d="M84.2,194.141a3.164,3.164,0,1,0-3.164-3.164A3.168,3.168,0,0,0,84.2,194.141Zm0-4.219a1.055,1.055,0,1,1-1.055,1.055A1.056,1.056,0,0,1,84.2,189.922Z" transform="translate(-75.334 -174.588)" fill="#bb2a22"/>
    <path id="Path_615" data-name="Path 615" d="M344.2,194.141a3.164,3.164,0,1,0-3.165-3.164A3.168,3.168,0,0,0,344.2,194.141Zm0-4.219a1.055,1.055,0,1,1-1.055,1.055A1.056,1.056,0,0,1,344.2,189.922Z" transform="translate(-317.049 -174.588)" fill="#bb2a22"/>
    <path id="Path_616" data-name="Path 616" d="M34.707,10.165C32.294,5.628,31.64,3.986,31.64,1.073a1.055,1.055,0,1,0-2.11,0c0,3.521.909,5.561,3.313,10.083a8.039,8.039,0,0,1-1.2,9.62,8.088,8.088,0,0,1-1.4,1c-3.549,1.887-8.154.194-10.265-3.776a8.986,8.986,0,0,1-.9-2.559,1.781,1.781,0,0,0-.124-.563,1.079,1.079,0,0,0-1.632-.3c-.257.21-.305.411-.38.861a8.987,8.987,0,0,1-.9,2.559c-2.111,3.97-6.716,5.664-10.265,3.776A6.874,6.874,0,0,1,2.357,17.3a8.6,8.6,0,0,1,.808-6.143C5.57,6.634,6.478,4.594,6.478,1.073a1.055,1.055,0,1,0-2.11,0c0,2.913-.653,4.555-3.066,9.092a10.7,10.7,0,0,0-.991,7.65,9.165,9.165,0,0,0,2.638,4.523A24.227,24.227,0,0,1,5.028,32.565c0,.773-.031,1.551-.092,2.314A1.055,1.055,0,0,0,5.9,36.014q.043,0,.085,0a1.055,1.055,0,0,0,1.05-.971c.065-.819.1-1.654.1-2.482a28.426,28.426,0,0,0-1.215-8.42,8.753,8.753,0,0,0,2.965.513A10.393,10.393,0,0,0,17.9,18.992q.053-.1.1-.2.051.1.1.2a10.392,10.392,0,0,0,9.013,5.665,8.754,8.754,0,0,0,2.973-.516,28.385,28.385,0,0,0-1.216,8.424c0,.828.033,1.663.1,2.482a1.055,1.055,0,0,0,1.05.971c.028,0,.057,0,.085,0a1.055,1.055,0,0,0,.967-1.135c-.061-.763-.092-1.542-.092-2.314a24.157,24.157,0,0,1,2.09-10.25,10.15,10.15,0,0,0,1.626-12.151Z" fill="#bb2a22"/>
    <path id="Path_617" data-name="Path 617" d="M291.769,155.117a1.054,1.054,0,0,0,1.346-.642,4.9,4.9,0,0,1,1.655-2.268,1.055,1.055,0,0,0-1.278-1.679,7,7,0,0,0-2.365,3.243A1.055,1.055,0,0,0,291.769,155.117Z" transform="translate(-270.598 -139.726)" fill="#bb2a22"/>
    <path id="Path_618" data-name="Path 618" d="M382.9,135.795a4.911,4.911,0,0,1,1.272.344,1.055,1.055,0,1,0,.819-1.944,7.022,7.022,0,0,0-1.819-.492,1.055,1.055,0,0,0-.272,2.092Z" transform="translate(-355.123 -124.276)" fill="#bb2a22"/>
  </g>
</svg>
