<svg xmlns="http://www.w3.org/2000/svg" width="17.423" height="25.43" viewBox="0 0 17.423 25.43">
  <g id="Genomics" transform="translate(-1.422 0.15)">
    <path id="Path_596" data-name="Path 596" d="M15.946,8.964V8.51a3.485,3.485,0,1,0-1.472,0v.454a.9.9,0,0,1-.9.9H10.067A11.325,11.325,0,0,0,7.378,6.651C9.141,5.163,10.785,3.036,10.785.736a.736.736,0,0,0-1.472,0,3.916,3.916,0,0,1-.225,1.276H3.27A3.918,3.918,0,0,1,3.044.736a.736.736,0,1,0-1.472,0c0,2.3,1.643,4.425,3.408,5.914a10.475,10.475,0,0,0-2.911,3.676,5.3,5.3,0,0,0,0,4.476A10.474,10.474,0,0,0,4.98,18.479C3.209,19.974,1.572,22.1,1.572,24.394a.736.736,0,1,0,1.472,0,3.916,3.916,0,0,1,.225-1.276H9.087a3.918,3.918,0,0,1,.225,1.276.736.736,0,1,0,1.472,0c0-2.3-1.642-4.424-3.408-5.914a11.325,11.325,0,0,0,2.689-3.215h3.506a.9.9,0,0,1,.9.9v.454a3.485,3.485,0,1,0,1.472,0v-.454a2.376,2.376,0,0,0-2.374-2.374H10.633a5.031,5.031,0,0,0,0-2.454h2.939A2.376,2.376,0,0,0,15.946,8.964ZM13.2,5.1A2.012,2.012,0,1,1,15.21,7.117,2.015,2.015,0,0,1,13.2,5.1ZM4.038,3.485H8.319A11.237,11.237,0,0,1,6.179,5.727,11.24,11.24,0,0,1,4.038,3.485ZM6.179,7.574A11.172,11.172,0,0,1,8.353,9.865H4A11.175,11.175,0,0,1,6.179,7.574ZM8.319,21.645H4.038A11.237,11.237,0,0,1,6.179,19.4,11.238,11.238,0,0,1,8.319,21.645ZM6.179,17.556A11.172,11.172,0,0,1,4,15.265H8.353a11.175,11.175,0,0,1-2.175,2.292ZM9.1,13.792H3.253a3.718,3.718,0,0,1,0-2.454H9.1A3.718,3.718,0,0,1,9.1,13.792Zm8.118,6.233a2.012,2.012,0,1,1-2.012-2.012A2.015,2.015,0,0,1,17.222,20.025Z" fill="#fff" stroke="#bb2a22" stroke-width="0.3"/>
  </g>
</svg>
