<svg xmlns="http://www.w3.org/2000/svg" width="35.779" height="36" viewBox="0 0 35.779 36">
  <g id="dna-strand" transform="translate(-1.572)">
    <path id="Path_596" data-name="Path 596" d="M22.163,12.842v-.65a4.992,4.992,0,1,0-2.109,0v.65a1.293,1.293,0,0,1-1.291,1.291H13.741A16.223,16.223,0,0,0,9.889,9.527c2.525-2.131,4.882-5.178,4.882-8.473a1.055,1.055,0,0,0-2.109,0,5.61,5.61,0,0,1-.323,1.828H4a5.612,5.612,0,0,1-.323-1.828,1.055,1.055,0,1,0-2.109,0c0,3.3,2.353,6.339,4.882,8.473a15.006,15.006,0,0,0-4.17,5.267,7.585,7.585,0,0,0,0,6.412,15,15,0,0,0,4.17,5.267c-2.537,2.141-4.882,5.18-4.882,8.473a1.055,1.055,0,0,0,2.109,0A5.61,5.61,0,0,1,4,33.117h8.334a5.612,5.612,0,0,1,.323,1.828,1.055,1.055,0,0,0,2.109,0c0-3.291-2.352-6.337-4.882-8.473a16.223,16.223,0,0,0,3.852-4.605h5.022a1.293,1.293,0,0,1,1.291,1.291v.65a4.992,4.992,0,1,0,2.109,0v-.65a3.4,3.4,0,0,0-3.4-3.4h-4.21a7.207,7.207,0,0,0,0-3.516h4.21A3.4,3.4,0,0,0,22.163,12.842ZM18.226,7.313A2.883,2.883,0,1,1,21.109,10.2a2.886,2.886,0,0,1-2.883-2.883ZM5.1,4.992h6.133A16.1,16.1,0,0,1,8.171,8.2,16.1,16.1,0,0,1,5.1,4.992ZM8.171,10.85a16,16,0,0,1,3.115,3.283H5.056A16.009,16.009,0,0,1,8.171,10.85Zm3.067,20.158H5.1A16.1,16.1,0,0,1,8.171,27.8,16.1,16.1,0,0,1,11.238,31.008ZM8.171,25.15a16,16,0,0,1-3.115-3.283h6.23A16.009,16.009,0,0,1,8.171,25.15Zm4.191-5.392H3.98a5.326,5.326,0,0,1,0-3.516h8.382A5.326,5.326,0,0,1,12.362,19.758Zm11.629,8.93A2.883,2.883,0,1,1,21.109,25.8,2.886,2.886,0,0,1,23.992,28.688Z" fill="#bb2a22"/>
    <path id="Path_597" data-name="Path 597" d="M399.67,305h-6.187a1.055,1.055,0,0,0,0,2.109h6.188a1.055,1.055,0,0,0,0-2.109Z" transform="translate(-363.374 -283.555)" fill="#bb2a22"/>
    <path id="Path_598" data-name="Path 598" d="M399.67,369h-6.187a1.055,1.055,0,0,0,0,2.109h6.188a1.055,1.055,0,0,0,0-2.109Z" transform="translate(-363.374 -343.055)" fill="#bb2a22"/>
    <path id="Path_599" data-name="Path 599" d="M399.67,433h-6.187a1.055,1.055,0,0,0,0,2.109h6.188a1.055,1.055,0,0,0,0-2.109Z" transform="translate(-363.374 -402.555)" fill="#bb2a22"/>
    <path id="Path_600" data-name="Path 600" d="M393.483,51.109h6.188a1.055,1.055,0,0,0,0-2.109h-6.187a1.055,1.055,0,0,0,0,2.109Z" transform="translate(-363.374 -45.555)" fill="#bb2a22"/>
    <path id="Path_601" data-name="Path 601" d="M399.67,113h-6.187a1.055,1.055,0,0,0,0,2.109h6.188a1.055,1.055,0,0,0,0-2.109Z" transform="translate(-363.374 -105.055)" fill="#bb2a22"/>
    <path id="Path_602" data-name="Path 602" d="M399.67,177h-6.187a1.055,1.055,0,0,0,0,2.109h6.188a1.055,1.055,0,0,0,0-2.109Z" transform="translate(-363.374 -164.555)" fill="#bb2a22"/>
  </g>
</svg>
