<svg xmlns="http://www.w3.org/2000/svg" width="25.13" height="25.13" viewBox="0 0 25.13 25.13">
  <path id="mammography" d="M24.394,5.52h-.911A3.43,3.43,0,0,0,21.032,2.9L16.967,1.795A2.685,2.685,0,0,1,15.274.407.736.736,0,0,0,14.615,0h-4.1a.736.736,0,0,0-.658.407A2.685,2.685,0,0,1,8.163,1.795L4.1,2.9A3.43,3.43,0,0,0,1.647,5.52H.736A.736.736,0,0,0,0,6.256V21.239a.736.736,0,0,0,.736.736H2.511a13.206,13.206,0,0,1,.249,2.418.736.736,0,0,0,1.472,0,14.414,14.414,0,0,0-.224-2.418H6.282a13.417,13.417,0,0,1-.345,2.24.736.736,0,0,0,1.429.357,14.791,14.791,0,0,0,.393-2.6h9.615a14.791,14.791,0,0,0,.393,2.6.736.736,0,1,0,1.429-.357,13.416,13.416,0,0,1-.345-2.24h2.273a14.417,14.417,0,0,0-.224,2.418.736.736,0,0,0,1.472,0,13.209,13.209,0,0,1,.249-2.418h1.775a.736.736,0,0,0,.736-.736V6.256a.736.736,0,0,0-.736-.736ZM4.485,4.324,8.55,3.215a4.159,4.159,0,0,0,2.39-1.743h3.25a4.159,4.159,0,0,0,2.389,1.743l4.066,1.109a1.952,1.952,0,0,1,1.311,1.2H3.174a1.952,1.952,0,0,1,1.311-1.2ZM1.472,20.5V6.993H4.919L3.176,13.964a.735.735,0,0,0,.063.522A4.693,4.693,0,0,0,5.52,16.658V20.5H1.472Zm5.52,0V17.044c.128.012.26.021.436.021a4.7,4.7,0,0,0,3.979-2.205l.2-.328a.736.736,0,0,0-1.248-.781l-.205.329a3.219,3.219,0,0,1-5.484-.04L6.436,6.993H18.693l1.762,7.048a3.219,3.219,0,0,1-5.484.04l-.205-.329a.736.736,0,0,0-1.248.781l.2.328A4.7,4.7,0,0,0,17.7,17.065c.176,0,.308-.009.436-.021V20.5Zm16.665,0H19.61V16.658a4.693,4.693,0,0,0,2.281-2.173.735.735,0,0,0,.063-.522L20.211,6.993h3.447Z" transform="translate(0)" fill="#fafafa"/>
</svg>
