<svg xmlns="http://www.w3.org/2000/svg" width="36" height="36" viewBox="0 0 36 36">
  <path id="mammography2" d="M34.945,7.908h-1.3A4.914,4.914,0,0,0,30.13,4.16L24.306,2.571A3.846,3.846,0,0,1,21.88.583,1.055,1.055,0,0,0,20.937,0H15.063a1.055,1.055,0,0,0-.943.583,3.846,3.846,0,0,1-2.426,1.988L5.87,4.16A4.914,4.914,0,0,0,2.359,7.908h-1.3A1.055,1.055,0,0,0,0,8.963V30.427a1.055,1.055,0,0,0,1.055,1.055H3.6a18.918,18.918,0,0,1,.356,3.464,1.055,1.055,0,0,0,2.109,0,20.649,20.649,0,0,0-.32-3.464H9A19.22,19.22,0,0,1,8.5,34.69a1.055,1.055,0,0,0,2.046.511,21.189,21.189,0,0,0,.562-3.72H24.887a21.189,21.189,0,0,0,.562,3.72A1.055,1.055,0,1,0,27.5,34.69,19.219,19.219,0,0,1,27,31.481h3.256a20.653,20.653,0,0,0-.32,3.464,1.055,1.055,0,0,0,2.109,0,18.922,18.922,0,0,1,.356-3.464h2.543A1.055,1.055,0,0,0,36,30.427V8.963a1.055,1.055,0,0,0-1.055-1.055ZM6.425,6.195l5.823-1.588a5.958,5.958,0,0,0,3.423-2.5h4.656a5.959,5.959,0,0,0,3.423,2.5l5.824,1.588a2.8,2.8,0,0,1,1.878,1.713H4.548A2.8,2.8,0,0,1,6.425,6.195ZM2.109,29.372V10.017H7.046L4.55,20a1.053,1.053,0,0,0,.09.747,6.723,6.723,0,0,0,3.267,3.113v5.508h-5.8Zm7.907,0V24.417c.183.017.372.03.625.03a6.73,6.73,0,0,0,5.7-3.159l.293-.469A1.055,1.055,0,0,0,14.846,19.7l-.294.471A4.612,4.612,0,0,1,6.7,20.114l2.524-10.1H26.779l2.524,10.1a4.612,4.612,0,0,1-7.855.057l-.294-.471a1.055,1.055,0,0,0-1.788,1.119l.293.469a6.73,6.73,0,0,0,5.7,3.159c.252,0,.441-.013.625-.03v4.955Zm23.874,0h-5.8V23.864a6.723,6.723,0,0,0,3.267-3.113A1.053,1.053,0,0,0,31.45,20l-2.5-9.986h4.937Z" transform="translate(0)" fill="#bb2a22"/>
</svg>
