<svg xmlns="http://www.w3.org/2000/svg" width="27.083" height="25.33" viewBox="0 0 27.083 25.33">
  <g id="MRI" transform="translate(0.102 -0.232)">
    <path id="Path_604" data-name="Path 604" d="M114.265,122.195a7.6,7.6,0,1,1,7.6-7.6A7.61,7.61,0,0,1,114.265,122.195Zm0-14.026a6.429,6.429,0,1,0,6.429,6.429A6.438,6.438,0,0,0,114.265,108.169Zm0,0" transform="translate(-100.825 -100.824)" fill="#fff" stroke="#fff" stroke-width="0.2"/>
    <path id="Path_605" data-name="Path 605" d="M20.219,25.382l-.592-1.008a12.273,12.273,0,1,0-12.375,0l-.592,1.008a13.442,13.442,0,1,1,13.558,0Zm0,0" transform="translate(0 0)" fill="#fff" stroke="#fff" stroke-width="0.2"/>
    <path id="Path_606" data-name="Path 606" d="M154.592,160.188a5.26,5.26,0,1,1,5.26-5.26A5.266,5.266,0,0,1,154.592,160.188Zm0-9.351a4.091,4.091,0,1,0,4.091,4.091A4.093,4.093,0,0,0,154.592,150.837Zm0,0" transform="translate(-141.152 -141.154)" fill="#fff" stroke="#fff" stroke-width="0.2"/>
    <path id="Path_607" data-name="Path 607" d="M42.668,437.668H64.876v1.169H42.668Zm0,0" transform="translate(-40.332 -413.375)" fill="#fff" stroke="#fff" stroke-width="0.2"/>
    <path id="Path_608" data-name="Path 608" d="M170.668,356.6h1.169v5.026h-1.169Zm0,0" transform="translate(-161.319 -336.75)" fill="#fff" stroke="#fff" stroke-width="0.2"/>
    <path id="Path_609" data-name="Path 609" d="M298.668,356.6h1.169v5.026h-1.169Zm0,0" transform="translate(-282.306 -336.75)" fill="#fff" stroke="#fff" stroke-width="0.2"/>
    <path id="Path_610" data-name="Path 610" d="M171.465,277.668h8.1v1.169h-8.1Zm0,0" transform="translate(-162.072 -262.141)" fill="#fff" stroke="#fff" stroke-width="0.2"/>
  </g>
</svg>
