<svg xmlns="http://www.w3.org/2000/svg" width="39.012" height="36.5" viewBox="0 0 39.012 36.5">
  <g id="mri02" transform="translate(0.252 -0.082)">
    <path id="Path_604" data-name="Path 604" d="M117.551,128.767a10.884,10.884,0,1,1,10.884-10.883A10.9,10.9,0,0,1,117.551,128.767Zm0-20.093a9.209,9.209,0,1,0,9.209,9.209A9.223,9.223,0,0,0,117.551,108.674Zm0,0" transform="translate(-98.297 -98.296)" fill="#bb2a22" stroke="#bb2a22" stroke-width="0.5"/>
    <path id="Path_605" data-name="Path 605" d="M28.966,36.217l-.848-1.444a17.581,17.581,0,1,0-17.728,0l-.847,1.444a19.256,19.256,0,1,1,19.423,0Zm0,0" fill="#bb2a22" stroke="#bb2a22" stroke-width="0.5"/>
    <path id="Path_606" data-name="Path 606" d="M156.867,164.738A7.535,7.535,0,1,1,164.4,157.2,7.544,7.544,0,0,1,156.867,164.738Zm0-13.4a5.86,5.86,0,1,0,5.861,5.861A5.864,5.864,0,0,0,156.867,151.342Zm0,0" transform="translate(-137.613 -137.615)" fill="#bb2a22" stroke="#bb2a22" stroke-width="0.5"/>
    <path id="Path_607" data-name="Path 607" d="M42.668,437.668H74.482v1.674H42.668Zm0,0" transform="translate(-39.321 -403.01)" fill="#bb2a22" stroke="#bb2a22" stroke-width="0.5"/>
    <path id="Path_608" data-name="Path 608" d="M170.668,356.6h1.674v7.2h-1.674Zm0,0" transform="translate(-157.274 -328.307)" fill="#bb2a22" stroke="#bb2a22" stroke-width="0.5"/>
    <path id="Path_609" data-name="Path 609" d="M298.668,356.6h1.674v7.2h-1.674Zm0,0" transform="translate(-275.228 -328.307)" fill="#bb2a22" stroke="#bb2a22" stroke-width="0.5"/>
    <path id="Path_610" data-name="Path 610" d="M171.465,277.668h11.606v1.674H171.465Zm0,0" transform="translate(-158.009 -255.568)" fill="#bb2a22" stroke="#bb2a22" stroke-width="0.5"/>
    <path id="Path_611" data-name="Path 611" d="M236.342,64.332h-1.674v1.675h1.674Zm0,0" transform="translate(-216.251 -58.977)" fill="#bb2a22" stroke="#bb2a22" stroke-width="0.5"/>
    <path id="Path_612" data-name="Path 612" d="M279.007,64.332h-1.675v1.675h1.675Zm0,0" transform="translate(-255.566 -58.977)" fill="#bb2a22" stroke="#bb2a22" stroke-width="0.5"/>
    <path id="Path_613" data-name="Path 613" d="M193.674,64.332H192v1.675h1.674Zm0,0" transform="translate(-176.932 -58.977)" fill="#bb2a22" stroke="#bb2a22" stroke-width="0.5"/>
  </g>
</svg>
