<svg xmlns="http://www.w3.org/2000/svg" width="27.071" height="36" viewBox="0 0 27.071 36">
  <path id="mammography" d="M89.034,28.975a6.457,6.457,0,0,1-2.928.7,7.6,7.6,0,0,1-4.722-2.1,4.109,4.109,0,0,0,.786-6.349c4.422-4.115,8.4-8.1,8.4-13.367a1.055,1.055,0,0,0-2.109,0c0,3.193-1.94,6-4.57,8.753v-1.7a1.055,1.055,0,0,0-1.055-1.055H72.147V7.91h4.478l.026.275a1.055,1.055,0,0,0,1.05.955h4.711a1.055,1.055,0,0,0,1.05-.955s.527-5.566.633-6.679A1.055,1.055,0,0,0,83.046.352H77.069A1.055,1.055,0,0,0,76.019,1.5l.007.077H72.147V1.055A1.055,1.055,0,0,0,71.093,0H64.554A1.055,1.055,0,0,0,63.5,1.055V34.945A1.055,1.055,0,0,0,64.554,36H87.686a1.055,1.055,0,0,0,1.055-1.055V31.369a8.364,8.364,0,0,0,1.254-.516,1.055,1.055,0,1,0-.96-1.878Zm-16.887-8.8H80.2l-.259.24c-.884.819-1.8,1.667-2.687,2.529a1.055,1.055,0,0,0-.316.857,8.714,8.714,0,0,0,3.174,5.453q.247.215.5.414H72.147Zm9.07,3.9a2.009,2.009,0,0,1-1.267,1.863,5.612,5.612,0,0,1-.841-1.86c.5-.48,1.009-.955,1.514-1.425A2.012,2.012,0,0,1,81.218,24.082Zm.563-8.121V18.07H72.147V15.961Zm.106-13.5c-.069.729-.433,4.57-.433,4.57H78.661c-.075-.795-.387-4.08-.427-4.5h0l-.006-.067Zm-5.66,1.23.2,2.109H72.147V3.691ZM65.608,2.109h4.43V33.891h-4.43ZM86.632,33.891H72.147V31.781H86.632Z" transform="translate(-63.499)" fill="#bb2a22"/>
</svg>
