<svg xmlns="http://www.w3.org/2000/svg" width="19.199" height="25.43" viewBox="0 0 19.199 25.43">
  <path id="Sono_mammography" data-name="Sono mammography" d="M81.324,20.226a4.508,4.508,0,0,1-2.044.486,5.306,5.306,0,0,1-3.3-1.465,2.868,2.868,0,0,0,.548-4.432C79.62,11.944,82.4,9.163,82.4,5.485a.736.736,0,1,0-1.472,0c0,2.229-1.354,4.187-3.19,6.11V10.405A.736.736,0,0,0,77,9.669h-7.46V5.522h3.126l.018.192a.736.736,0,0,0,.733.667H76.7a.736.736,0,0,0,.733-.667s.368-3.885.442-4.662a.736.736,0,0,0-.733-.806H72.972a.736.736,0,0,0-.733.805l.005.054H69.536V.736A.736.736,0,0,0,68.8,0H64.235A.736.736,0,0,0,63.5.736V24.394a.736.736,0,0,0,.736.736H80.383a.736.736,0,0,0,.736-.736V21.9a5.839,5.839,0,0,0,.875-.36.736.736,0,1,0-.67-1.311Zm-11.788-6.14h5.618l-.181.168c-.617.572-1.255,1.163-1.876,1.765a.736.736,0,0,0-.22.6,6.083,6.083,0,0,0,2.216,3.806q.172.15.35.289H69.536Zm6.332,2.724a1.4,1.4,0,0,1-.884,1.3,3.918,3.918,0,0,1-.587-1.3c.35-.335.7-.667,1.057-.995A1.4,1.4,0,0,1,75.868,16.811Zm.393-5.669v1.472H69.536V11.142Zm.074-9.424-.3,3.19H74.083c-.052-.555-.27-2.848-.3-3.142h0l0-.047Zm-3.951.859.139,1.472H69.536V2.577Zm-7.412-1.1h3.092V23.658H64.971ZM79.647,23.658H69.536V22.185H79.647Z" transform="translate(-63.349 0.15)" fill="#fff" stroke="#bb2a22" stroke-width="0.3"/>
</svg>
