<svg xmlns="http://www.w3.org/2000/svg" width="25.344" height="25.445" viewBox="0 0 25.344 25.445">
  <g id="Institutional" transform="translate(-0.6 -0.507)">
    <path id="Path_171" data-name="Path 171" d="M12.842.673.75,6.495V9.524H25.794V6.479ZM24.124,7.854H2.42v-.31l10.448-5.03L24.124,7.56Z" transform="translate(0)" fill="#fff" stroke="#bb2a22" stroke-width="0.3"/>
    <path id="Path_172" data-name="Path 172" d="M.75,23.8H25.794V18.375H.75Zm1.67-3.757h21.7v2.087H2.42Z" transform="translate(0 2.001)" fill="#fff" stroke="#bb2a22" stroke-width="0.3"/>
    <path id="Path_173" data-name="Path 173" d="M5.045,9.75H3.375V18.1h1.67Z" transform="translate(0.297 1.026)" fill="#fff" stroke="#bb2a22" stroke-width="0.3"/>
    <path id="Path_174" data-name="Path 174" d="M20.795,9.75h-1.67V18.1h1.67Z" transform="translate(2.077 1.026)" fill="#fff" stroke="#bb2a22" stroke-width="0.3"/>
    <path id="Path_175" data-name="Path 175" d="M10.295,9.75H8.625V18.1h1.67Z" transform="translate(0.89 1.026)" fill="#fff" stroke="#bb2a22" stroke-width="0.3"/>
    <path id="Path_176" data-name="Path 176" d="M15.545,9.75h-1.67V18.1h1.67Z" transform="translate(1.484 1.026)" fill="#fff" stroke="#bb2a22" stroke-width="0.3"/>
  </g>
</svg>
