<svg xmlns="http://www.w3.org/2000/svg" width="25.464" height="25.43" viewBox="0 0 25.464 25.43">
  <g id="justice" transform="translate(0.167 0.142)">
    <path id="Path_214" data-name="Path 214" d="M364.623,157.747l1.041-1.041,1.041,1.041,1.041-1.041-1.041-1.041,1.041-1.041-1.041-1.041-1.041,1.041-1.041-1.041-1.041,1.041,1.041,1.041-1.041,1.041Z" transform="translate(-345.737 -146.036)" fill="#fff" stroke="#bb2a22" stroke-width="0.3"/>
    <path id="Path_215" data-name="Path 215" d="M55.86,186.442,54.818,185.4l-2.424,2.424-.952-.952L50.4,187.915l1.993,1.993Z" transform="translate(-47.927 -176.294)" fill="#fff" stroke="#bb2a22" stroke-width="0.3"/>
    <path id="Path_216" data-name="Path 216" d="M20.664,2.052l4.467-.527L24.958.062,13.3,1.438V.008H11.829v1.6L0,3.007.173,4.469l4.294-.507V5.947H0V19.2H10.357V5.947H5.939V3.789l5.89-.695V20.721h-.736A3.685,3.685,0,0,0,7.412,24.4v.736H17.719V24.4a3.685,3.685,0,0,0-3.681-3.681H13.3V2.92l5.89-.695V4.474H14.774V17.727H25.13V4.474H20.664ZM8.884,17.727H1.473V7.419H8.884Zm7.236,5.939H9.01a2.213,2.213,0,0,1,2.083-1.472h2.945A2.213,2.213,0,0,1,16.12,23.666Zm7.538-7.411H16.247V5.947h7.411Z" fill="#fff" stroke="#bb2a22" stroke-width="0.3"/>
    <path id="Path_217" data-name="Path 217" d="M61.008,301.008h4.417v1.472H61.008Z" transform="translate(-58.014 -286.226)" fill="#fff" stroke="#bb2a22" stroke-width="0.3"/>
    <path id="Path_218" data-name="Path 218" d="M361.008,271.008h4.417v1.472h-4.417Z" transform="translate(-343.289 -257.699)" fill="#fff" stroke="#bb2a22" stroke-width="0.3"/>
  </g>
</svg>
