<svg xmlns="http://www.w3.org/2000/svg" width="25.396" height="25.43" viewBox="0 0 25.396 25.43">
  <g id="diamond_" data-name="diamond+" transform="translate(-0.818 0.15)">
    <path id="Path_245" data-name="Path 245" d="M25.908,148.217l-3.927-5.89a.736.736,0,0,0-.613-.328H5.663a.736.736,0,0,0-.613.328l-3.927,5.89a.736.736,0,0,0,.115.951l11.78,10.8a.736.736,0,0,0,.995,0l11.78-10.8a.736.736,0,0,0,.115-.951Zm-14.943-.328,2.551-3.826,2.551,3.826Zm5.426,1.472-2.875,7.908-2.875-7.908Zm-1.5-5.89h5.1L17.443,147.3ZM9.59,147.3l-2.551-3.826h5.1Zm-1.376.591h-5.1l2.551-3.826Zm.86,1.472,2.722,7.487-8.167-7.487Zm8.884,0H23.4l-8.167,7.487Zm.86-1.472,2.551-3.826,2.551,3.826Z" transform="translate(0 -135.029)" fill="#fff" stroke="#bb2a22" stroke-width="0.3"/>
    <path id="Path_246" data-name="Path 246" d="M401.523,42.342a.734.734,0,0,0,.521-.216l2.082-2.082A.736.736,0,1,0,403.084,39L401,41.085a.736.736,0,0,0,.521,1.257Z" transform="translate(-380.164 -36.883)" fill="#fff" stroke="#bb2a22" stroke-width="0.3"/>
    <path id="Path_247" data-name="Path 247" d="M241.736,4.417a.736.736,0,0,0,.736-.736V.736a.736.736,0,1,0-1.472,0V3.681A.736.736,0,0,0,241.736,4.417Z" transform="translate(-228.22)" fill="#fff" stroke="#bb2a22" stroke-width="0.3"/>
    <path id="Path_248" data-name="Path 248" d="M41.085,42.127a.736.736,0,0,0,1.041-1.041L40.044,39A.736.736,0,0,0,39,40.045Z" transform="translate(-35.933 -36.884)" fill="#fff" stroke="#bb2a22" stroke-width="0.3"/>
  </g>
</svg>
