<svg xmlns="http://www.w3.org/2000/svg" width="20.225" height="25.33" viewBox="0 0 20.225 25.33">
  <g id="Gold" transform="translate(0.1 0.1)">
    <path id="Path_276" data-name="Path 276" d="M19.53,10.648a.5.5,0,0,0,.5-.5V3.815a.5.5,0,0,0-.145-.35L16.56.145A.5.5,0,0,0,16.21,0H1.475A1.477,1.477,0,0,0,0,1.476V23.654A1.478,1.478,0,0,0,1.475,25.13H18.549a1.478,1.478,0,0,0,1.476-1.477v-9.27a.495.495,0,1,0-.99,0v9.269a.487.487,0,0,1-.487.487H1.475a.487.487,0,0,1-.485-.487V1.476A.486.486,0,0,1,1.475.991h14.24V2.835A1.478,1.478,0,0,0,17.192,4.31h1.844v5.843a.5.5,0,0,0,.495.5Z" transform="translate(0)" fill="#fff" stroke="#fff" stroke-width="0.2"/>
    <path id="Path_282" data-name="Path 282" d="M189.059,195.97h-5.627a.495.495,0,1,1,0-.99h5.627a.495.495,0,0,1,0,.99Zm0,0" transform="translate(-173.958 -188.323)" fill="#fff" stroke="#fff" stroke-width="0.2"/>
    <path id="Path_284" data-name="Path 284" d="M78.788,188.93H75.874a.5.5,0,0,1-.5-.5v-2.651a.5.5,0,0,1,.5-.5h2.914a.5.5,0,0,1,.495.5v2.651A.5.5,0,0,1,78.788,188.93Zm-2.419-.99h1.924v-1.661H76.369Zm0,0" transform="translate(-71.68 -179.958)" fill="#fff" stroke="#fff" stroke-width="0.2"/>
    <path id="Path_285" data-name="Path 285" d="M78.788,280.965H75.874a.5.5,0,0,1-.5-.5v-2.651a.5.5,0,0,1,.5-.5h2.914a.5.5,0,0,1,.495.5v2.651A.5.5,0,0,1,78.788,280.965Zm-2.419-.99h1.924v-1.661H76.369Zm0,0" transform="translate(-71.68 -261.709)" fill="#fff" stroke="#fff" stroke-width="0.2"/>
    <path id="Path_288" data-name="Path 288" d="M188.379,323.506h-5.627a.495.495,0,1,1,0-.99h5.627a.495.495,0,0,1,0,.99Zm0,0" transform="translate(-173.312 -305.332)" fill="#fff" stroke="#fff" stroke-width="0.2"/>
    <path id="Path_291" data-name="Path 291" d="M388.327,237.492a.5.5,0,0,1-.495-.495v-.01a.495.495,0,1,1,.99,0V237A.5.5,0,0,1,388.327,237.492Zm0,0" transform="translate(-368.797 -224.884)" fill="#fff" stroke="#fff" stroke-width="0.2"/>
  </g>
</svg>
