<svg xmlns="http://www.w3.org/2000/svg" width="21.891" height="25.13" viewBox="0 0 21.891 25.13">
  <g id="Gold_Plus" data-name="Gold Plus" transform="translate(-18 -15)">
    <g id="plan" transform="translate(18 15)">
      <path id="Path_515" data-name="Path 515" d="M342.746,228.07a.494.494,0,0,0-.494.494v0a.494.494,0,1,0,.494-.5Z" transform="translate(-327.073 -216.876)" fill="#fff"/>
      <path id="Path_516" data-name="Path 516" d="M175.34,43.334h3.5a.494.494,0,1,0,0-.989h-3.5a.494.494,0,0,0,0,.989Z" transform="translate(-167.884 -40.267)" fill="#fff"/>
      <path id="Path_517" data-name="Path 517" d="M53.967,16.859a2.475,2.475,0,0,0-1.843-.8h0a3.038,3.038,0,0,0-.706.088V2.83a1.269,1.269,0,0,0-1.269-1.267H47.518q.013-.163.013-.328A1.339,1.339,0,0,0,46.111,0H38.306a1.34,1.34,0,0,0-1.421,1.235q0,.165.013.328H34.268A1.269,1.269,0,0,0,33,2.83V22.836A1.269,1.269,0,0,0,34.268,24.1H47.95l.292.31.03.03a2.3,2.3,0,0,0,1.516.688,2.258,2.258,0,0,0,1.522-.71l.023-.023,2.633-2.8a3.506,3.506,0,0,0,0-4.742ZM47.309,2.552h2.84a.283.283,0,0,1,.28.278V16.545a4.271,4.271,0,0,0-.647.446,4.238,4.238,0,0,0-.615-.432V13.8a.494.494,0,0,0-.989,0v2.358a3.084,3.084,0,0,0-.731-.091,2.484,2.484,0,0,0-1.853.794,3.319,3.319,0,0,0-.426.564H42.587a.494.494,0,1,0,0,.989h2.181a3.556,3.556,0,0,0,.305,2.454H36.239V4.8h2.713a6.09,6.09,0,0,0,3.256.891A6.091,6.091,0,0,0,45.465,4.8h2.714V9.579a.494.494,0,0,0,.989,0V4.305a.494.494,0,0,0-.494-.494H46.6a4.119,4.119,0,0,0,.714-1.259Zm-9-1.563h7.805c.259,0,.431.149.431.247a3.032,3.032,0,0,1-.084.711l0,.012A3.3,3.3,0,0,1,45.069,3.88a.5.5,0,0,0-.058.04,5.081,5.081,0,0,1-2.8.781,5.086,5.086,0,0,1-2.794-.775.494.494,0,0,0-.078-.054,3.3,3.3,0,0,1-1.372-1.9.488.488,0,0,0-.013-.055,3.032,3.032,0,0,1-.077-.68c0-.1.173-.247.433-.247ZM34.268,23.114a.279.279,0,0,1-.279-.278V2.83a.279.279,0,0,1,.279-.278h2.84a4.119,4.119,0,0,0,.714,1.259H35.744a.494.494,0,0,0-.494.494V21.36a.494.494,0,0,0,.494.494H45.834l1.186,1.259H34.268Zm18.98-2.19-2.621,2.783a1.035,1.035,0,0,1-1.679.012S46.4,21.017,46.389,21l-.075-.079a2.514,2.514,0,0,1-.422-2.765.484.484,0,0,0,.027-.056,2.381,2.381,0,0,1,.394-.566,1.5,1.5,0,0,1,1.133-.483,2.324,2.324,0,0,1,.907.2.493.493,0,0,0,.222.107,3.289,3.289,0,0,1,.844.646.494.494,0,0,0,.36.156h0a.494.494,0,0,0,.36-.155,2.93,2.93,0,0,1,1.983-.957h0a1.489,1.489,0,0,1,1.124.485A2.5,2.5,0,0,1,53.247,20.923Z" transform="translate(-33 0)" fill="#fff"/>
      <path id="Path_518" data-name="Path 518" d="M135.169,139h-2.217a.494.494,0,0,0-.494.494v2.215a.494.494,0,0,0,.494.494h2.217a.494.494,0,0,0,.494-.494V139.5A.494.494,0,0,0,135.169,139Zm-.494,2.215h-1.229v-1.226h1.229Z" transform="translate(-127.575 -132.181)" fill="#fff"/>
      <path id="Path_519" data-name="Path 519" d="M222.928,161.553h-3.342a.494.494,0,0,0,0,.989h3.342a.494.494,0,0,0,0-.989Z" transform="translate(-209.957 -153.624)" fill="#fff"/>
      <path id="Path_520" data-name="Path 520" d="M134.357,235.721h-2.217a.494.494,0,0,0-.494.494v2.215a.494.494,0,0,0,.494.494h2.217a.494.494,0,0,0,.494-.494v-2.215A.494.494,0,0,0,134.357,235.721Zm-.494,2.215h-1.229V236.71h1.229Z" transform="translate(-126.803 -224.151)" fill="#fff"/>
      <path id="Path_521" data-name="Path 521" d="M227.825,258.27h-3.046a.494.494,0,1,0,0,.989h3.046a.494.494,0,1,0,0-.989Z" transform="translate(-214.896 -245.594)" fill="#fff"/>
      <path id="Path_522" data-name="Path 522" d="M134.357,332.409h-2.217a.494.494,0,0,0-.494.494v2.215a.494.494,0,0,0,.494.494h2.217a.494.494,0,0,0,.494-.494V332.9A.494.494,0,0,0,134.357,332.409Zm-.494,2.215h-1.229V333.4h1.229Z" transform="translate(-126.803 -316.094)" fill="#fff"/>
    </g>
  </g>
</svg>
