<svg xmlns="http://www.w3.org/2000/svg" width="22.387" height="25.43" viewBox="0 0 22.387 25.43">
  <g id="Predictive" transform="translate(0.15 0.15)">
    <path id="Path_513" data-name="Path 513" d="M240,24.394v.736h1.472v-.736a1.613,1.613,0,0,1,.252-.736h6.859a1.613,1.613,0,0,1,.252.736v.736h1.472v-.736c0-1.861-2.558-4.018-4.068-5.394,2.1-1.971,4.068-4.136,4.068-6.435s-1.968-4.513-4.068-6.484c1.527-1.391,4.068-3.5,4.068-5.345V0h-1.472V.736a1.613,1.613,0,0,1-.252.736h-6.859a1.613,1.613,0,0,1-.252-.736V0H240V.736c0,1.861,2.558,3.969,4.068,5.345-2.1,1.971-4.068,4.185-4.068,6.484s1.968,4.464,4.068,6.435C242.541,20.391,240,22.549,240,24.394Zm2.9-21.449h4.507c-.67.7-1.49,1.44-2.253,2.134C245.1,5.027,243.574,3.644,242.9,2.944Zm2.253,4.137c.615.575,1.207,1.161,1.74,1.754h-3.481C243.946,8.243,244.539,7.656,245.154,7.081Zm-2.886,3.226h5.773a5.43,5.43,0,0,1,.689,1.522h-7.15A5.427,5.427,0,0,1,242.267,10.307Zm0,4.466a5.177,5.177,0,0,1-.689-1.473h7.15a5.179,5.179,0,0,1-.689,1.473Zm1.146,1.472h3.481c-.533.592-1.125,1.18-1.74,1.754C244.539,17.425,243.946,16.838,243.413,16.246ZM245.154,20c.752.683,1.579,1.434,2.253,2.134H242.9C243.57,21.441,244.39,20.7,245.154,20Zm0,0" transform="translate(-228.22)" fill="#fff" stroke="#bb2a22" stroke-width="0.3"/>
    <path id="Path_514" data-name="Path 514" d="M0,24.394v.736H1.472v-.736a1.613,1.613,0,0,1,.252-.736H8.583a1.613,1.613,0,0,1,.252.736v.736h1.472v-.736c0-1.861-2.558-4.018-4.068-5.394,2.1-1.971,4.068-4.136,4.068-6.435S8.339,8.052,6.239,6.081C7.766,4.69,10.307,2.58,10.307.736V0H8.835V.736a1.613,1.613,0,0,1-.252.736H1.724A1.613,1.613,0,0,1,1.472.736V0H0V.736C0,2.6,2.558,4.7,4.068,6.081,1.968,8.052,0,10.266,0,12.565S1.968,17.029,4.068,19C2.541,20.391,0,22.549,0,24.394ZM2.9,2.944H7.407c-.67.7-1.49,1.44-2.253,2.134C4.4,4.4,3.574,3.644,2.9,2.944ZM5.154,7.081c.615.575,1.207,1.161,1.74,1.754H3.413c.533-.592,1.125-1.179,1.74-1.754ZM2.267,10.307H8.04a5.429,5.429,0,0,1,.689,1.522H1.578a5.429,5.429,0,0,1,.689-1.522Zm0,4.466A5.178,5.178,0,0,1,1.578,13.3h7.15a5.178,5.178,0,0,1-.689,1.473Zm1.146,1.472H6.894c-.533.592-1.125,1.18-1.74,1.754-.615-.575-1.207-1.162-1.74-1.754ZM5.154,20c.752.683,1.579,1.434,2.253,2.134H2.9c.67-.7,1.49-1.44,2.253-2.134Zm0,0" fill="#fff" stroke="#bb2a22" stroke-width="0.3"/>
  </g>
</svg>
