<svg xmlns="http://www.w3.org/2000/svg" width="22.191" height="25.33" viewBox="0 0 22.191 25.33">
  <g id="Primary" transform="translate(-0.392 0.1)">
    <path id="Path_249" data-name="Path 249" d="M22.4,20.91l-3.116-6.232a9.411,9.411,0,1,0-15.589,0L.577,20.91a.736.736,0,0,0,.659,1.066H4.811l2.145,2.86A.736.736,0,0,0,8.2,24.723l2.954-5.908c.11,0,.22.007.33.007s.221,0,.33-.007l2.954,5.908a.736.736,0,0,0,1.247.113l2.145-2.86h3.575A.736.736,0,0,0,22.4,20.91ZM7.419,23,5.768,20.8a.736.736,0,0,0-.589-.294H2.427l2.285-4.569a9.407,9.407,0,0,0,4.891,2.7ZM3.549,9.411a7.938,7.938,0,1,1,7.938,7.938A7.947,7.947,0,0,1,3.549,9.411ZM17.8,20.5a.737.737,0,0,0-.589.294L15.556,23l-2.184-4.367a9.406,9.406,0,0,0,4.891-2.7L20.548,20.5H17.8Zm0,0" transform="translate(0 0)" fill="#fff" stroke="#bb2a22" stroke-width="0.2"/>
    <path id="Path_250" data-name="Path 250" d="M112.156,71.743l2.056-2.454a.736.736,0,0,0-.386-1.187l-3.106-.777-1.7-2.714a.736.736,0,0,0-1.248,0l-1.7,2.714-3.106.777a.736.736,0,0,0-.386,1.187l2.056,2.454-.221,3.194a.736.736,0,0,0,1.01.734l2.969-1.2,2.969,1.2a.736.736,0,0,0,1.01-.734Zm-1.319-.718a.736.736,0,0,0-.17.524l.16,2.317L108.674,73a.736.736,0,0,0-.55,0l-2.154.868.16-2.316a.737.737,0,0,0-.17-.524l-1.491-1.78,2.253-.563a.736.736,0,0,0,.445-.324l1.232-1.968,1.232,1.968a.736.736,0,0,0,.445.324l2.253.563Zm0,0" transform="translate(-96.911 -61.111)" fill="#fff" stroke="#bb2a22" stroke-width="0.2"/>
  </g>
</svg>
