<svg xmlns="http://www.w3.org/2000/svg" width="25.485" height="25.36" viewBox="0 0 25.485 25.36">
  <g id="Senior_Citizens" data-name="Senior Citizens" transform="translate(0.12 0.115)">
    <path id="Path_244" data-name="Path 244" d="M24.567,14.087a2.211,2.211,0,0,0-.083-3.035L19.06,5.63a3,3,0,1,0-3.66-.653,5.661,5.661,0,0,0-3.313,4.17L8.1,8.057l-1.312-2.3a3,3,0,1,0-3.378-.783A5.653,5.653,0,0,0,0,10.16v6.871a.736.736,0,0,0,.736.736H1.3L.076,22.349a2.209,2.209,0,0,0,1.562,2.705,2.219,2.219,0,0,0,.575.076,2.211,2.211,0,0,0,2.13-1.638L4.69,22.2l.347,1.3A2.209,2.209,0,1,0,9.3,22.349L7.853,16.935V12.57L11.6,13.592a2.212,2.212,0,0,0,.4.069v3.37a.736.736,0,0,0,.736.736h.736v6.626a.736.736,0,0,0,.736.736h3.436a.736.736,0,0,0,.73-.639l.977-7.331.908-4.087,1.017,1.017a2.2,2.2,0,0,0-.561,1.469v.491a.736.736,0,0,0,1.472,0v-.491a.736.736,0,1,1,1.472,0v8.835a.736.736,0,1,0,1.472,0V15.559a2.2,2.2,0,0,0-.563-1.472ZM16.12,2.994a1.522,1.522,0,1,1,1.522,1.522A1.523,1.523,0,0,1,16.12,2.994Zm-12,0A1.522,1.522,0,1,1,5.644,4.516,1.523,1.523,0,0,1,4.123,2.994Zm-1.2,20.117A.736.736,0,0,1,1.5,22.73l1.33-4.962H3.5l.425,1.585Zm4.887.178a.736.736,0,0,1-1.349-.178L5.027,17.768H6.552l1.33,4.963A.732.732,0,0,1,7.808,23.289Zm-1.631-12.7a1.23,1.23,0,0,1-.766-.619L4.825,8.839a.736.736,0,0,0-1.307.678L4.1,10.646A2.707,2.707,0,0,0,5.79,12.007l.591.161V16.3H1.472V10.16A4.178,4.178,0,0,1,5.229,6.009l1.74,3.044a.734.734,0,0,0,.445.345l4.96,1.353a.736.736,0,0,1-.387,1.421ZM17,23.658H14.942v-5.89h2.84ZM18.032,16.3H13.469V13.253A2.209,2.209,0,0,0,13.5,9.687,4.192,4.192,0,0,1,17.347,6l6.1,6.1A.736.736,0,1,1,22.4,13.135L17.18,7.914a.736.736,0,0,0-1.041,1.041l2.884,2.884Z" fill="#fff" stroke="#bb2a22" stroke-width="0.23"/>
  </g>
</svg>
