<svg xmlns="http://www.w3.org/2000/svg" width="35.306" height="36.217" viewBox="0 0 35.306 36.217">
  <g id="teenage" transform="translate(-10.1 -8.641)">
    <path id="Path_21751" data-name="Path 21751" d="M10.2,31.426V44.171a.606.606,0,0,0,.587.587h16.3a.606.606,0,0,0,.587-.587V31.426a7.782,7.782,0,0,0-4.661-7.139,6.022,6.022,0,0,0,1.956-4.433v-1.4c.163.033.326.033.456.065a.593.593,0,0,0,.587-.489c0-.065,1.173-7.432-5.607-9.062a7.723,7.723,0,0,0-5.7.848c-2.151,1.336-4.2,4.2-1.923,10.268a.585.585,0,0,0,.163.228,5.8,5.8,0,0,0,1.923,3.977A7.851,7.851,0,0,0,10.2,31.426Zm1.141,3.357h1.467v8.834H11.341Zm12.55,6.258V43.65h-4.4V41.042Zm-5.541,2.575h-4.4V41.009h4.4Zm6.682,0V34.784H26.5v8.834ZM15.318,10.793a6.191,6.191,0,0,1,4.792-.685C24.9,11.249,25,15.747,24.9,17.312a89.141,89.141,0,0,1-9.062-2.966.586.586,0,0,0-.782.456,9.438,9.438,0,0,1-1.565,3.846C12.351,14.965,12.971,12.26,15.318,10.793Zm-1.271,9.062a12.323,12.323,0,0,0,1.988-4.172c1.565.587,5.346,1.956,7.693,2.575V19.92a4.841,4.841,0,1,1-9.681-.065Zm6.1,5.9L18.9,27.417l-1.239-1.662A6.336,6.336,0,0,0,20.142,25.754Zm-4.335-.587,2.64,3.553a.583.583,0,0,0,.913,0L22,25.168a6.716,6.716,0,0,1,4.5,6.291v2.184H25.031V32.111a.587.587,0,1,0-1.173,0V39.9H13.949V32.111a.587.587,0,1,0-1.173,0v1.532H11.308V31.459a6.716,6.716,0,0,1,4.5-6.291Z" fill="#bb2a22" stroke="#bb2a22" stroke-width="0.2"/>
    <path id="Path_21752" data-name="Path 21752" d="M30.187,38.923a.578.578,0,0,0,.587-.554v-.782a.587.587,0,1,0-1.173,0v.782A.6.6,0,0,0,30.187,38.923Z" transform="translate(-13.076 -19.036)" fill="#bb2a22" stroke="#bb2a22" stroke-width="0.2"/>
    <path id="Path_21753" data-name="Path 21753" d="M41.287,38.856a.584.584,0,0,0,.587-.587v-.782a.587.587,0,0,0-1.173,0v.782A.584.584,0,0,0,41.287,38.856Z" transform="translate(-20.558 -18.969)" fill="#bb2a22" stroke="#bb2a22" stroke-width="0.2"/>
    <path id="Path_21754" data-name="Path 21754" d="M32.846,50.493a1.643,1.643,0,0,0,1.173.587,2.124,2.124,0,0,0,1.239-.522.578.578,0,1,0-.75-.88c-.489.424-.652.261-.848.033a.565.565,0,1,0-.815.782Z" transform="translate(-15.149 -27.477)" fill="#bb2a22" stroke="#bb2a22" stroke-width="0.2"/>
    <path id="Path_21755" data-name="Path 21755" d="M66.133,33.648V45.48a.606.606,0,0,0,.587.587H82.4a.606.606,0,0,0,.587-.587V31.888a6.418,6.418,0,0,0-.554-2.575.559.559,0,0,0,.359-.522V19.045c0-.228-.522-7.758-8.182-8.345h-.1c-7.628.587-8.182,8.051-8.182,8.345v9.746a.581.581,0,0,0,.326.522,6.418,6.418,0,0,0-.554,2.575v1.76ZM68.61,44.926l1.01-3.781h9.844l1.043,3.781Zm1.141-6.063H79.3V40H69.751Zm10.333-4.238a.529.529,0,0,0-.228.456v2.64H69.229v-2.64A.57.57,0,0,0,69,34.626l-1.728-1.239V31.92a5.242,5.242,0,0,1,3.749-5.02,4.979,4.979,0,0,0,1.01,2.282,3.183,3.183,0,0,0,5.052,0A4.979,4.979,0,0,0,78.1,26.9,5.073,5.073,0,0,1,81,29.117a5.389,5.389,0,0,1,.815,2.8v1.467Zm-7.758-7.236a6.206,6.206,0,0,0,4.466,0,4.1,4.1,0,0,1-.587,1.043,2.046,2.046,0,0,1-3.292,0A4.1,4.1,0,0,1,72.326,27.389Zm6.552-1.434a6.1,6.1,0,0,0,1.662-4.14V19.631h1.076v8.377A6.171,6.171,0,0,0,78.878,25.955Zm.522-4.14a4.857,4.857,0,0,1-9.714,0V19.534a7.193,7.193,0,0,0,4.857-3.52,7.265,7.265,0,0,0,4.857,3.52ZM68.577,19.631v2.184a6.132,6.132,0,0,0,1.63,4.14,6.481,6.481,0,0,0-2.738,2.021V19.631Zm-1.3,15.157.815.587v2.9a.543.543,0,0,0,.522.554v1.63l-1.173,4.433h-.163ZM81.681,44.926l-1.206-4.433v-1.63A.565.565,0,0,0,81,38.309v-2.9l.815-.587V44.959h-.13ZM74.542,11.841a7.554,7.554,0,0,1,7.008,6.65H80.019A6.034,6.034,0,0,1,75.1,14.416a.569.569,0,0,0-1.108,0,6.054,6.054,0,0,1-4.922,4.075H67.534a7.554,7.554,0,0,1,7.008-6.65Z" transform="translate(-37.679 -1.309)" fill="#bb2a22" stroke="#bb2a22" stroke-width="0.2"/>
    <path id="Path_21756" data-name="Path 21756" d="M85.773,37.487a.587.587,0,0,0-1.173,0v.782a.587.587,0,1,0,1.173,0Z" transform="translate(-50.148 -18.969)" fill="#bb2a22" stroke="#bb2a22" stroke-width="0.2"/>
    <path id="Path_21757" data-name="Path 21757" d="M96.387,38.923a.6.6,0,0,0,.587-.554v-.782a.587.587,0,1,0-1.173,0v.782A.578.578,0,0,0,96.387,38.923Z" transform="translate(-57.698 -19.036)" fill="#bb2a22" stroke="#bb2a22" stroke-width="0.2"/>
    <path id="Path_21758" data-name="Path 21758" d="M89.573,49.678c-.489.424-.652.261-.848.033a.577.577,0,0,0-.848.782,1.643,1.643,0,0,0,1.173.587,2.124,2.124,0,0,0,1.239-.522.569.569,0,0,0,.033-.815A.521.521,0,0,0,89.573,49.678Z" transform="translate(-52.253 -27.477)" fill="#bb2a22" stroke="#bb2a22" stroke-width="0.2"/>
  </g>
</svg>
