<svg xmlns="http://www.w3.org/2000/svg" xmlns:xlink="http://www.w3.org/1999/xlink" width="591.45" height="291.377" viewBox="0 0 591.45 291.377">
  <defs>
    <linearGradient id="linear-gradient" x1="0.661" y1="0.015" x2="0.25" y2="0.824" gradientUnits="objectBoundingBox">
      <stop offset="0" stop-color="#925d7f"/>
      <stop offset="1" stop-color="#6a1b4d"/>
    </linearGradient>
  </defs>
  <g id="eva-health-logo" transform="translate(-1378.37 -287.243)">
    <g id="eva-health-logo-removebg-preview" transform="translate(1378.37 287.243)">
      <path id="Path_3" data-name="Path 3" d="M244.758-110.561a25.376,25.376,0,0,1-16.171,6.16c-22.845,0-31.829,4.62-56.214,29.262-25.669,25.925-49.284,62.632-63.4,98.054C102.04,39.857,100.757,46.788,100.5,64.5c0,18.225.77,22.075,4.877,25.155,2.824,2.053,6.674,3.594,8.471,3.594,11.038,0,69.305-78.033,98.311-131.68,5.9-11.038,11.294-19.508,11.808-18.995s-1.8,11.808-5.134,25.155C208.309,9.055,205.742,32.413,205.742,88.114c0,51.081.257,53.134,6.417,65.455,8.214,16.428,20.278,22.845,42.353,22.588,28.236,0,48-13.6,78.033-52.878,15.658-20.535,33.369-54.418,30.032-57.5-.513-.513-4.364,5.134-8.727,12.578-11.294,20.022-42.1,59.038-55.188,69.819C274.02,168.2,243.731,176.415,229.1,166.917c-12.834-8.471-15.4-19.252-15.145-63.4.257-67.252,5.647-99.081,28.749-174.29,7.187-23.359,12.321-43.123,11.294-44.15C252.715-115.952,248.608-114.155,244.758-110.561Zm-26.7,28.749c4.107,4.62,3.337,7.187-15.658,44.407C182.9,1.354,163.9,32.413,145.934,53.975c-17.2,21.305-29.006,10.267-21.818-21.048,4.62-21.562,9.754-34.653,24.129-63.145,13.6-26.439,26.7-43.637,39.273-51.337C197.784-87.716,212.672-87.973,218.063-81.812Z" transform="translate(146.724 115.212)" fill="#6a1b4d"/>
      <path id="Path_4" data-name="Path 4" d="M251.924-97.632c-5.39,7.444-6.931,11.808-6.674,21.048.513,19.508-49.284,146.568-63.658,162.483-6.16,6.931-13.348,5.647-16.428-2.567-4.107-10.011.77-45.69,11.808-89.327,4.877-19.765,8.984-36.45,8.984-37.733,0-1.027-2.31-1.8-5.134-1.8-3.08,0-6.674,3.08-9.241,8.214-5.134,10.011-9.241,13.6-22.845,20.022-12.064,5.647-78.8,25.925-80.343,24.642-.513-.77,2.824-3.08,7.7-5.647C98.682-9.589,116.65-31.15,116.65-46.808c0-15.145-14.118-29.519-28.749-29.519-8.471,0-34.909,28.492-49.284,52.878C8.328,28.4-4.25,91.033,10.125,118.755c4.62,8.984,16.171,16.685,30.546,20.792,15.4,4.107,28.749-2.31,53.648-25.925,22.588-21.562,26.182-31.059,4.62-12.578s-43.38,30.546-55.188,30.546c-11.551-.257-16.941-3.337-22.075-12.834-8.727-16.428-7.957-41.07,2.567-75.466,5.134-16.171,5.647-16.941,16.171-19.508C75.58,14.54,140.265-5.738,150.789-11.129c6.931-3.337,12.834-6.16,13.348-6.16.257,0-1.54,7.187-4.364,15.915-13.091,41.583-20.792,96.258-14.888,103.445,4.877,5.9,18.225,4.62,28.749-2.567,16.171-11.038,49.027-72.129,73.926-137.584l8.214-22.075,11.294,1.283c12.834,1.283,13.861-.257,5.647-8.984-5.39-5.647-5.39-6.931-2.567-20.535,2.31-11.551,2.31-15.145-.257-16.685C263.988-108.927,259.111-106.873,251.924-97.632ZM103.3-60.413c8.471,8.471-3.85,35.423-24.385,53.134C65.826,4.016,36.307,19.93,35.023,16.08c-1.54-4.107,29.006-52.107,41.84-65.969C89.7-63.493,97.4-66.316,103.3-60.413Z" transform="translate(-4.187 128.208)" fill="#6a1b4d"/>
    </g>
    <text id="health" transform="translate(1480.096 569.606)" fill="#6a1b4d" font-size="36" font-family="Roboto-Regular, Roboto" letter-spacing="0.447em"><tspan x="0" y="0">HEALTH</tspan></text>
    <g id="Group_40" data-name="Group 40" transform="translate(-273.015 -2322.671)">
      <g id="Group_37" data-name="Group 37" transform="translate(2197.04 2726.136) rotate(31)">
        <path id="Path_16" data-name="Path 16" d="M39.779,1.405A25.541,25.541,0,0,1,52.243,9.157s2.662,4.606,0,8.876c-1.859,2.914-2.009,3.466-2.311,7.887-.352,4.772-.352,4.822,1,6.229,1.507,1.557,1.356,2.411-.6,4.521a42.551,42.551,0,0,0-2.612,3.466,22.828,22.828,0,0,1-2.11,2.612,6.129,6.129,0,0,0-.7,1.758,4.314,4.314,0,0,1-1,2.311c-.9.754-3.868.3-6.782-1.055-2.813-1.256-5.777-1.256-7.786-.05-1.959,1.206-4.22,4.069-4.22,5.425,0,1.306,2.311,4.672,4.521,6.53,2.06,1.708,12.006,8.992,13.011,10.7,1.306,2.21,1.306,2.713-.05,4.521C40.991,75.1,37.324,75.7,31.145,74.9c-2.612-.352-5.325-.6-6.028-.6-.7.05-2.562.1-4.119.151-3.717.05-4.672,1-4.32,4.22.251,2.11.653,2.612,5.124,6.932,3.366,3.215,4.822,4.973,4.822,5.777,0,.574.434,2.021-.382,2.925s-2.33.691-2.883.691c-.8,0-3.165-2.311-4.672-4.571a59.024,59.024,0,0,1-4.119-6.782S10.348,76.555,10,75.55a31.3,31.3,0,0,0-1.808-4.119,11.366,11.366,0,0,1-1.155-3.014,6.645,6.645,0,0,0-.8-2.311C4.22,62.188,0,40.789,0,34.258,0,30.39,2.06,22.4,4.119,18.133a30.575,30.575,0,0,1,1.859-3.516,20.257,20.257,0,0,0,1.658-2.361A31.267,31.267,0,0,1,21.249,1.405C25.72-.4,32.031-.533,39.779,1.405Z" transform="translate(0 0)" fill="#6a1b4d"/>
        <path id="Path_17" data-name="Path 17" d="M0,0S8.46,6.913,11.769,11.741s1.465,7.57,1.465,7.57-2.223-3.4-5.1-1.925c-1.676.86-.984,3.584.532,5.337A5.1,5.1,0,0,0,11.958,24.2c2.179.246,5.075-1.444,4.887-5.834S15.6,10.764,11.39,6.172,0,0,0,0Z" transform="translate(22.84 76.31)" fill="url(#linear-gradient)"/>
        <path id="Path_18" data-name="Path 18" d="M.023,11.932S11.944,8.292,16.946,5.474,20.938,0,20.938,0A65.688,65.688,0,0,1,14.63,3c-5,2.2-12.781,4.56-12.781,4.56A15.122,15.122,0,0,0,.331,10.077,3.5,3.5,0,0,0,.023,11.932Z" transform="matrix(-0.995, 0.105, -0.105, -0.995, 54.603, 25.739)" fill="#925d7f"/>
      </g>
      <g id="Group_33" data-name="Group 33" transform="translate(2109.73 2717.466)">
        <path id="Path_16-2" data-name="Path 16" d="M70.292-284.692a25.541,25.541,0,0,0-12.464,7.751s-2.662,4.606,0,8.876c1.859,2.914,2.009,3.466,2.311,7.887.352,4.772.352,4.822-1,6.229-1.507,1.557-1.356,2.411.6,4.521a42.553,42.553,0,0,1,2.612,3.466,22.826,22.826,0,0,0,2.11,2.612,6.13,6.13,0,0,1,.7,1.758,4.314,4.314,0,0,0,1,2.311c.9.753,3.868.3,6.782-1.055,2.813-1.256,5.777-1.256,7.786-.05,1.959,1.206,4.22,4.069,4.22,5.425,0,1.306-2.311,4.672-4.521,6.53-2.06,1.708-12.006,8.992-13.011,10.7-1.306,2.21-1.306,2.713.05,4.521C69.08-211,72.747-210.4,78.926-211.2c2.612-.352,5.325-.6,6.028-.6.7.05,2.562.1,4.119.151,3.717.05,4.672,1,4.32,4.22-.251,2.11-.653,2.612-5.124,6.932-3.366,3.215-4.822,4.973-4.822,5.777,0,.574-.434,2.021.382,2.925s2.33.691,2.883.691c.8,0,3.165-2.311,4.672-4.571a59.022,59.022,0,0,0,4.119-6.782s4.22-7.083,4.571-8.088a31.3,31.3,0,0,1,1.808-4.119,11.366,11.366,0,0,0,1.155-3.014,6.644,6.644,0,0,1,.8-2.311c2.009-3.918,6.229-25.318,6.229-31.848,0-3.868-2.06-11.855-4.119-16.125a30.564,30.564,0,0,0-1.859-3.516,20.258,20.258,0,0,1-1.658-2.361,31.267,31.267,0,0,0-13.613-10.851C84.351-286.5,78.04-286.63,70.292-284.692Z" transform="translate(-55.208 286.097)" fill="#6a1b4d"/>
        <path id="Path_17-2" data-name="Path 17" d="M2698.053,2600.752s-8.46,6.913-11.768,11.741-1.466,7.57-1.466,7.57,2.223-3.4,5.1-1.925c1.676.86.984,3.585-.532,5.337a5.1,5.1,0,0,1-3.294,1.482c-2.179.246-5.075-1.444-4.887-5.834s1.244-7.606,5.456-12.2S2698.053,2600.752,2698.053,2600.752Z" transform="translate(-2666.031 -2524.442)" fill="url(#linear-gradient)"/>
        <path id="Path_18-2" data-name="Path 18" d="M.206,0S9.872,4.828,15.262,7.865a18.188,18.188,0,0,1,7.317,7.1S19.2,13.12,13.808,10.75.935,5.036.935,5.036A14.815,14.815,0,0,1,.093,2.481,5.623,5.623,0,0,1,.206,0Z" transform="matrix(0.995, 0.105, -0.105, 0.995, 1.564, 11.637)" fill="#925d7f"/>
      </g>
    </g>
  </g>
</svg>
