<svg xmlns="http://www.w3.org/2000/svg" width="32.034" height="37.8" viewBox="0 0 32.034 37.8">
  <path id="pregnancy" d="M63.348,12.089a5.28,5.28,0,0,0,.119-8.58L58.995.205A1.056,1.056,0,0,0,58.368,0H42.618A1.055,1.055,0,0,0,41.6,1.342l3.12,10.967a9.172,9.172,0,0,1-1.477,7.969A11.3,11.3,0,0,0,41,27.016v7.928A1.055,1.055,0,0,0,42.056,36H58.829A12.367,12.367,0,0,0,71.235,23.813,12.493,12.493,0,0,0,63.348,12.089Zm-.036,8.356c-.638-.638-.694-.671-.794-.864l-.785-1.517-1.19.238-.01,1.95,1.28,1.28a1.055,1.055,0,1,1-1.491,1.491l-.314-.315a6.757,6.757,0,0,0-2.052,1.806,1.055,1.055,0,0,1-1.485.212,2.883,2.883,0,1,0,.3,4.336,1.057,1.057,0,0,1,.961-.287A5.55,5.55,0,0,0,63.105,27.5a5.183,5.183,0,0,0,.972-5.992A4.07,4.07,0,0,0,63.312,20.445Z" transform="translate(-40.101 0.901)" fill="none" stroke="#bb2a22" stroke-width="1.8"/>
</svg>
