<svg xmlns="http://www.w3.org/2000/svg" width="36.3" height="36.3" viewBox="0 0 36.3 36.3">
  <g id="marital-status" transform="translate(0.149 0.15)">
    <path id="Path_21759" data-name="Path 21759" d="M189.145,3.532a12.076,12.076,0,1,0-13.1,19.72,7.3,7.3,0,0,0-2.112-4.505,9.441,9.441,0,1,1,8.756,2.533,14.341,14.341,0,0,1,.247,2.641,12.075,12.075,0,0,0,6.212-20.388Z" transform="translate(-156.676 0)" fill="#bb2a22" stroke="#fff" stroke-width="0.3"/>
    <path id="Path_21760" data-name="Path 21760" d="M24.148,183.605a12.078,12.078,0,0,0-7.513-11.181,7.3,7.3,0,0,0,2.112,4.506A9.441,9.441,0,1,1,9.991,174.4a14.343,14.343,0,0,1-.247-2.641,12.076,12.076,0,1,0,14.4,11.849Z" transform="translate(0 -159.675)" fill="#bb2a22" stroke="#fff" stroke-width="0.3"/>
  </g>
</svg>
