<svg xmlns="http://www.w3.org/2000/svg" width="37.4" height="37.4" viewBox="0 0 37.4 37.4">
  <g id="infertility" transform="translate(-6.8 -6.8)">
    <path id="Path_21761" data-name="Path 21761" d="M20.179,122.02a7.316,7.316,0,0,0-1.2,1.7,2.374,2.374,0,0,1-2.117,1.277H12.139a4.639,4.639,0,0,0-2.319,8.656l.849.49,1.171-2.028-.849-.49a2.3,2.3,0,0,1,1.149-4.287h3.967a2.391,2.391,0,0,1,2.321,1.807,15.314,15.314,0,0,0,1.874,4.044,8.768,8.768,0,0,1,1.053,2.718l.165.8" transform="translate(0 -106.225)" fill="none" stroke="#bb2a22" stroke-linecap="round" stroke-linejoin="round" stroke-width="1.4"/>
    <path id="Path_21762" data-name="Path 21762" d="M212.526,163.07h1.061a4.639,4.639,0,0,1,2.319,8.656l-.849.49-1.171-2.028.849-.49a2.3,2.3,0,0,0-1.149-4.287H209.62a2.391,2.391,0,0,0-2.321,1.807,15.314,15.314,0,0,1-1.874,4.044,8.768,8.768,0,0,0-1.053,2.718l-1.188,5.772h.024a1.373,1.373,0,0,1,1.373,1.373V182.3a1.372,1.372,0,0,1-.4.969l-.655.656a1.171,1.171,0,0,0-.342.827v1.875a1.171,1.171,0,0,1-1.171,1.171h-3.575a1.171,1.171,0,0,1-1.171-1.171v-1.875a1.171,1.171,0,0,0-.342-.827l-.655-.656a1.372,1.372,0,0,1-.4-.969v-1.177a1.373,1.373,0,0,1,1.373-1.373h.024l-.511-2.487" transform="translate(-174.726 -144.301)" fill="none" stroke="#bb2a22" stroke-linecap="round" stroke-linejoin="round" stroke-width="1.4"/>
    <path id="Path_21763" data-name="Path 21763" d="M329.46,122.02a7.316,7.316,0,0,1,1.2,1.7,2.374,2.374,0,0,0,2.117,1.277H333.9" transform="translate(-298.639 -106.225)" fill="none" stroke="#bb2a22" stroke-linecap="round" stroke-linejoin="round" stroke-width="1.4"/>
    <path id="Path_21764" data-name="Path 21764" d="M381.953,258.194a3.126,3.126,0,0,1-1.576,2.684c-1.295.748-3.584.67-4.332-.625s.33-3.316,1.625-4.064a3.126,3.126,0,0,1,3.113-.023Z" transform="translate(-341.621 -230.28)" fill="none" stroke="#bb2a22" stroke-linecap="round" stroke-linejoin="round" stroke-width="1.4"/>
    <path id="Path_21765" data-name="Path 21765" d="M51.17,258.194a3.126,3.126,0,0,0,1.576,2.684c1.295.748,3.584.67,4.332-.625s-.33-3.316-1.625-4.064a3.126,3.126,0,0,0-3.113-.023Z" transform="translate(-40.502 -230.28)" fill="none" stroke="#bb2a22" stroke-linecap="round" stroke-linejoin="round" stroke-width="1.4"/>
    <path id="Path_21766" data-name="Path 21766" d="M180.535,148.66c.077.1.15.2.219.3a5.41,5.41,0,0,0,1.22,1.3l.519.389a.861.861,0,0,1,.124,1.264l-.4.446a5.325,5.325,0,0,0-1.01,1.668,15.061,15.061,0,0,1-1.014,2.053,13.469,13.469,0,0,0-1.7,5.183L178.069,164a31.249,31.249,0,0,0-.372,4.811v5.629h-2.11v-5.629a31.239,31.239,0,0,0-.372-4.811l-.427-2.739a13.469,13.469,0,0,0-1.7-5.183,15.065,15.065,0,0,1-1.014-2.053,5.325,5.325,0,0,0-1.01-1.668l-.4-.446a.861.861,0,0,1,.124-1.264l.519-.389a5.41,5.41,0,0,0,1.221-1.3c.07-.1.143-.2.219-.3" transform="translate(-151.141 -130.935)" fill="none" stroke="#bb2a22" stroke-linecap="round" stroke-linejoin="round" stroke-width="1.4"/>
    <path id="Path_21767" data-name="Path 21767" d="M353.652,220.331h.68a2.628,2.628,0,0,1,2.553,2l.242.989" transform="translate(-321.079 -197.415)" fill="none" stroke="#bb2a22" stroke-linecap="round" stroke-linejoin="round" stroke-width="1.4"/>
    <path id="Path_21768" data-name="Path 21768" d="M110.375,223.324l.242-.989a2.628,2.628,0,0,1,2.553-2h.68" transform="translate(-95.423 -197.415)" fill="none" stroke="#bb2a22" stroke-linecap="round" stroke-linejoin="round" stroke-width="1.4"/>
    <path id="Path_21769" data-name="Path 21769" d="M177.67,8.569a5.851,5.851,0,1,1-1.7,1.862" transform="translate(-155.543)" fill="none" stroke="#bb2a22" stroke-linecap="round" stroke-linejoin="round" stroke-width="1.4"/>
  </g>
</svg>
