<svg xmlns="http://www.w3.org/2000/svg" width="36.502" height="36.508" viewBox="0 0 36.502 36.508">
  <g id="pediatrics_x2C__baby_care_x2C__baby" transform="translate(-0.75 -0.744)">
    <g id="XMLID_2446_" transform="translate(1 1.001)">
      <g id="XMLID_30_" transform="translate(26.401 11.777)">
        <g id="Group_2215" data-name="Group 2215">
          <path id="Path_21742" data-name="Path 21742" d="M23.6,35.038a.6.6,0,0,0,.6-.6V29.884l4.045-3.171A5.554,5.554,0,0,0,29.7,24.89l2.856-6.64a.6.6,0,0,0,.049-.238V12.23c0-.746-.846-1.3-1.663-1.4-1.013-.131-2.286.42-2.766,2.337a13.871,13.871,0,0,0-.352,2.578.621.621,0,0,0,.558.662.577.577,0,0,0,.636-.534,13.08,13.08,0,0,1,.323-2.417c.151-.6.475-1.343,1.168-1.435a1.045,1.045,0,0,1,.914.3L31.4,17.889l-2.809,6.532a4.43,4.43,0,0,1-1.09,1.351l-4.272,3.348a.6.6,0,0,0-.229.472v4.846A.6.6,0,0,0,23.6,35.038Z" transform="translate(-23 -10.815)" fill="#bb2a22" stroke="#bb2a22" stroke-width="0.5"/>
        </g>
      </g>
      <g id="XMLID_2473_" transform="translate(0 11.777)">
        <g id="Group_2216" data-name="Group 2216">
          <path id="Path_21743" data-name="Path 21743" d="M10,35.038a.6.6,0,0,1-.6-.6V29.884L5.355,26.713a5.554,5.554,0,0,1-1.45-1.823l-2.856-6.64A.6.6,0,0,1,1,18.013V12.23c0-.746.846-1.3,1.663-1.4,1.013-.131,2.286.42,2.766,2.337a13.871,13.871,0,0,1,.352,2.578.621.621,0,0,1-.558.662.577.577,0,0,1-.636-.534,13.08,13.08,0,0,0-.323-2.417c-.151-.6-.475-1.343-1.168-1.435a1.045,1.045,0,0,0-.914.3L2.2,17.889l2.809,6.532A4.43,4.43,0,0,0,6.1,25.772l4.272,3.348a.6.6,0,0,1,.229.472v4.846A.6.6,0,0,1,10,35.038Z" transform="translate(-1 -10.815)" fill="#bb2a22" stroke="#bb2a22" stroke-width="0.5"/>
        </g>
      </g>
      <g id="XMLID_2472_" transform="translate(10.9 22.299)">
        <g id="Group_2217" data-name="Group 2217">
          <path id="Path_21744" data-name="Path 21744" d="M15.384,33.284a.6.6,0,0,1-.6-.6V26.128a5.555,5.555,0,0,0-4.247-5.362.6.6,0,0,1,.293-1.164,6.756,6.756,0,0,1,5.154,6.526v6.556a.6.6,0,0,1-.6.6Z" transform="translate(-10.083 -19.583)" fill="#bb2a22" stroke="#bb2a22" stroke-width="0.5"/>
        </g>
      </g>
      <g id="XMLID_2471_" transform="translate(3.45 18.274)">
        <g id="Group_2218" data-name="Group 2218">
          <path id="Path_21745" data-name="Path 21745" d="M9.74,23.655a.6.6,0,0,1-.425-.175L4.05,18.223a.6.6,0,0,1-.175-.425.606.606,0,0,1,.175-.425c1.65-1.65,3.684-1.511,5.579.384l2.706,2.7a.6.6,0,0,1-.848.85l-2.706-2.7c-1.23-1.23-2.381-1.49-3.421-.773l4.8,4.8a.6.6,0,0,1,0,.85A.593.593,0,0,1,9.74,23.655Z" transform="translate(-3.875 -16.229)" fill="#bb2a22" stroke="#bb2a22" stroke-width="0.5"/>
        </g>
      </g>
      <g id="XMLID_2464_" transform="translate(19.201 18.274)">
        <g id="XMLID_2466_" transform="translate(0 4.025)">
          <g id="Group_2219" data-name="Group 2219">
            <path id="Path_21746" data-name="Path 21746" d="M17.6,33.284a.6.6,0,0,1-.6-.6V26.128A6.756,6.756,0,0,1,22.154,19.6a.6.6,0,1,1,.293,1.164A5.555,5.555,0,0,0,18.2,26.128v6.556A.6.6,0,0,1,17.6,33.284Z" transform="translate(-17 -19.583)" fill="#bb2a22" stroke="#bb2a22" stroke-width="0.5"/>
          </g>
        </g>
        <g id="XMLID_2465_" transform="translate(4.712)">
          <g id="Group_2220" data-name="Group 2220">
            <path id="Path_21747" data-name="Path 21747" d="M23.7,23.655a.6.6,0,0,1-.425-1.025l4.8-4.8c-1.039-.716-2.191-.456-3.421.773l-2.706,2.7a.6.6,0,0,1-.848-.85l2.706-2.7c1.895-1.895,3.929-2.034,5.579-.384a.6.6,0,0,1,0,.85L24.123,23.48a.593.593,0,0,1-.422.175Z" transform="translate(-20.927 -16.229)" fill="#bb2a22" stroke="#bb2a22" stroke-width="0.5"/>
          </g>
        </g>
      </g>
      <g id="XMLID_2463_" transform="translate(23.913 18.274)">
        <g id="Group_2221" data-name="Group 2221">
          <path id="Path_21748" data-name="Path 21748" d="M23.7,23.655a.6.6,0,0,1-.425-1.025l4.8-4.8c-1.039-.716-2.191-.456-3.421.773l-2.706,2.7a.6.6,0,0,1-.848-.85l2.706-2.7c1.895-1.895,3.929-2.034,5.579-.384a.6.6,0,0,1,0,.85L24.123,23.48a.593.593,0,0,1-.422.175Z" transform="translate(-20.927 -16.229)" fill="#bb2a22" stroke="#bb2a22" stroke-width="0.5"/>
        </g>
      </g>
      <g id="XMLID_2475_" transform="translate(6.933)">
        <g id="XMLID_2525_">
          <g id="XMLID_2527_" transform="translate(7.795 5.199)">
            <g id="Group_2222" data-name="Group 2222">
              <path id="Path_21749" data-name="Path 21749" d="M19.184,13.872a5.945,5.945,0,0,1-.976-.08A5.908,5.908,0,0,1,13.353,7a2,2,0,0,1,3.936.655,1.912,1.912,0,0,0,.226,1.258.6.6,0,1,1-1.042.6,3.121,3.121,0,0,1-.37-2.051.8.8,0,1,0-1.57-.263,4.706,4.706,0,0,0,4.889,5.467.6.6,0,0,1,.062,1.2c-.1,0-.2.007-.3.007Z" transform="translate(-13.273 -5.334)" fill="#bb2a22" stroke="#bb2a22" stroke-width="0.5"/>
            </g>
          </g>
          <g id="XMLID_2526_">
            <g id="Group_2223" data-name="Group 2223">
              <path id="Path_21750" data-name="Path 21750" d="M16.988,22.841a9.67,9.67,0,0,1-1.758-.168A5.284,5.284,0,0,1,11.5,20.041a7.293,7.293,0,0,1-.686-4.668,3.315,3.315,0,0,1-.649.22,3.3,3.3,0,0,1-2.718-.8A1.96,1.96,0,0,1,6.8,13a1.918,1.918,0,0,1,.82-1.324,2.528,2.528,0,0,1,1.52-.36c.838-2.213,2.605-3.3,4.617-2.783a3.341,3.341,0,0,1,2.084,1.585,6.735,6.735,0,0,1,.43,4.855.6.6,0,1,1-1.159-.3,5.622,5.622,0,0,0-.3-3.943A2.143,2.143,0,0,0,13.464,9.7c-1.525-.392-2.763.527-3.33,2.447a.6.6,0,0,1-.714.414,1.7,1.7,0,0,0-1.134.124.708.708,0,0,0-.3.521.743.743,0,0,0,.277.716,2.152,2.152,0,0,0,1.619.506c.425-.1.99-.239,1.6-1.752.068-.2.14-.4.22-.6a.6.6,0,0,1,1.13.4c-.073.215-.145.414-.22.6-.908,2.634-.931,4.83-.065,6.378a4.106,4.106,0,0,0,2.9,2.038c5.328.982,7.34-3.175,8.538-5.662a4.321,4.321,0,0,1,1-1.6,6.755,6.755,0,0,1,.6-.342c1.428-.75,4.774-2.508,5.152-5.8a5.361,5.361,0,0,0-4.423-5.815,4.982,4.982,0,0,0-5.731,4.1.71.71,0,0,1-.481.6,1.9,1.9,0,0,0-.532,3.544.6.6,0,0,1-.57,1.057,3.1,3.1,0,0,1,.448-5.664,6.184,6.184,0,0,1,7.062-4.821,6.577,6.577,0,0,1,5.419,7.137c-.452,3.925-4.327,5.961-5.787,6.727-.218.115-.382.2-.464.254a7.4,7.4,0,0,0-.619,1.148c-1.051,2.182-3.13,6.487-8.079,6.487Z" transform="translate(-6.777 -1.001)" fill="#bb2a22" stroke="#bb2a22" stroke-width="0.5"/>
            </g>
          </g>
        </g>
      </g>
    </g>
  </g>
</svg>
