<svg xmlns="http://www.w3.org/2000/svg" width="32.545" height="36.3" viewBox="0 0 32.545 36.3">
  <g id="mammogram" transform="translate(-26.552 0.15)">
    <path id="Path_169" data-name="Path 169" d="M58.244,9.69H56.377V9.04A5.345,5.345,0,0,0,51.039,3.7H47.133V.7a.7.7,0,0,0-.7-.7H39.219a.7.7,0,0,0-.7.7v3H34.61a5.345,5.345,0,0,0-5.338,5.34v.65H27.405a.7.7,0,0,0-.7.7V28.7a.7.7,0,0,0,.7.7H33.8l-.614,5.823a.7.7,0,0,0,.7.777H51.769a.7.7,0,0,0,.7-.777L51.854,29.4h6.39a.7.7,0,0,0,.7-.7v-18.3A.7.7,0,0,0,58.244,9.69ZM30.678,9.04A3.937,3.937,0,0,1,34.61,5.106h4.609a.7.7,0,0,0,.7-.7v-3h5.805v3a.7.7,0,0,0,.7.7h4.609A3.937,3.937,0,0,1,54.971,9.04v.65H30.678Zm21.965,4.553a5.382,5.382,0,0,1,0,7.848l-.009.009,0,0A5.358,5.358,0,0,1,48.963,22.9a5.415,5.415,0,0,1-5.436-5.381.7.7,0,0,0-1.406,0A5.415,5.415,0,0,1,36.686,22.9a5.36,5.36,0,0,1-3.651-1.43l-.014-.013-.014-.013a5.382,5.382,0,0,1,0-7.848.7.7,0,0,0,.222-.513V11.1H52.421V13.08a.7.7,0,0,0,.222.513Zm-2.126,14.4H35.132l-1.344-4.339a6.771,6.771,0,0,0,2.9.649,6.855,6.855,0,0,0,6.139-3.792A6.855,6.855,0,0,0,48.963,24.3a6.769,6.769,0,0,0,2.9-.648ZM28.108,11.1h3.713v1.689a6.788,6.788,0,0,0,.085,9.548l1.754,5.66H28.108Zm6.553,23.5.548-5.193H50.44l.548,5.193Zm22.879-6.6H51.989l1.754-5.66a6.788,6.788,0,0,0,.085-9.548V11.1h3.713Z" fill="#bb2a22" stroke="#bb2a22" stroke-width="0.3"/>
    <path id="Path_170" data-name="Path 170" d="M313.389,214.005a2.7,2.7,0,1,0,2.7,2.7A2.706,2.706,0,0,0,313.389,214.005Zm0,4a1.3,1.3,0,1,1,1.3-1.3A1.3,1.3,0,0,1,313.389,218.005Z" transform="translate(-264.016 -198.958)" fill="#bb2a22" stroke="#bb2a22" stroke-width="0.3"/>
  </g>
</svg>
