<svg xmlns="http://www.w3.org/2000/svg" xmlns:xlink="http://www.w3.org/1999/xlink" width="36" height="36" viewBox="0 0 36 36">
  <defs>
    <clipPath id="clip-path">
      <path id="path5058" d="M0-682.665H36v36H0Z" transform="translate(0 682.665)"/>
    </clipPath>
  </defs>
  <g id="g5052" transform="translate(0 682.665)">
    <g id="g5054" transform="translate(0 -682.665)">
      <g id="g5056" clip-path="url(#clip-path)">
        <g id="g5062" transform="translate(8.174 15.696)">
          <path id="path5064" d="M-44.106-82.633l-.272-.117a2.183,2.183,0,0,1-2.183-2.183,2.176,2.176,0,0,1,.64-1.544,2.176,2.176,0,0,1,1.544-.64l.272-.117" transform="translate(46.561 87.233)" fill="none" stroke="#bb2a22" stroke-linecap="round" stroke-linejoin="round" stroke-width="1.5"/>
        </g>
        <g id="g5066" transform="translate(25.37 15.696)">
          <path id="path5068" d="M0,0,.272.117A2.183,2.183,0,0,1,2.455,2.3a2.176,2.176,0,0,1-.64,1.544,2.176,2.176,0,0,1-1.544.64L0,4.6" fill="none" stroke="#bb2a22" stroke-linecap="round" stroke-linejoin="round" stroke-width="1.5"/>
        </g>
        <g id="g5070" transform="translate(9.266 0.527)">
          <path id="path5072" d="M-175.817,0h3.313V5.832a2.191,2.191,0,0,0,1.466,2.059,4.368,4.368,0,0,1,2.9,4.321,4.38,4.38,0,0,1-4.156,4.156,4.367,4.367,0,0,1-4.573-4.363,4.367,4.367,0,0,1-4.573,4.363,4.38,4.38,0,0,1-4.156-4.156,4.367,4.367,0,0,1,2.9-4.321,2.191,2.191,0,0,0,1.466-2.059V0h3.122" transform="translate(185.604)" fill="none" stroke="#bb2a22" stroke-linecap="round" stroke-linejoin="round" stroke-width="1.5"/>
        </g>
        <g id="g5074" transform="translate(22.472 10.49)">
          <path id="path5076" d="M-11.18,0A2.16,2.16,0,0,1-9.743,2.147,2.177,2.177,0,0,1-11.8,4.207" transform="translate(11.803)" fill="none" stroke="#bb2a22" stroke-linecap="round" stroke-linejoin="round" stroke-width="1.5"/>
        </g>
        <g id="g5078" transform="translate(9.266 19.092)">
          <path id="path5080" d="M-78.449-205.01v-.872a2.191,2.191,0,0,0-1.466-2.059,4.367,4.367,0,0,1-.681-.311c-.088-.049-.173-.1-.257-.158a4.363,4.363,0,0,1-1.958-3.852,4.38,4.38,0,0,1,4.156-4.156,4.367,4.367,0,0,1,4.573,4.363,4.367,4.367,0,0,1,4.573-4.363,4.38,4.38,0,0,1,4.156,4.156,4.362,4.362,0,0,1-1.931,3.834,4.222,4.222,0,0,1-.526.3,4.379,4.379,0,0,1-.439.184,2.191,2.191,0,0,0-1.466,2.059v.872" transform="translate(82.816 216.423)" fill="none" stroke="#bb2a22" stroke-linecap="round" stroke-linejoin="round" stroke-width="1.5"/>
        </g>
        <g id="g5082" transform="translate(13.633 32.802)">
          <path id="path5084" d="M-156.879,0V2.67h-8.734V0" transform="translate(165.613)" fill="none" stroke="#bb2a22" stroke-linecap="round" stroke-linejoin="round" stroke-width="1.5"/>
        </g>
        <g id="g5086" transform="translate(11.466 21.294)">
          <path id="path5088" d="M-25.851-75.565a2.16,2.16,0,0,1-1.437-2.147,2.177,2.177,0,0,1,2.059-2.059" transform="translate(27.29 79.772)" fill="none" stroke="#bb2a22" stroke-linecap="round" stroke-linejoin="round" stroke-width="1.5"/>
        </g>
        <g id="g5090" transform="translate(30.009 17.996)">
          <path id="path5092" d="M0,0H2.184" transform="translate(0 0)" fill="none" stroke="#bb2a22" stroke-linecap="round" stroke-linejoin="round" stroke-width="1.5"/>
        </g>
        <g id="g5094" transform="translate(30.329 13.948)">
          <path id="path5096" d="M0-27.735l1.544-1.544" transform="translate(0 29.279)" fill="none" stroke="#bb2a22" stroke-linecap="round" stroke-linejoin="round" stroke-width="1.5"/>
        </g>
        <g id="g5098" transform="translate(30.329 20.499)">
          <path id="path5100" d="M0,0,1.544,1.544" fill="none" stroke="#bb2a22" stroke-linecap="round" stroke-linejoin="round" stroke-width="1.5"/>
        </g>
        <g id="g5102" transform="translate(3.807 17.996)">
          <path id="path5104" d="M-39.223,0h-2.184" transform="translate(41.407 0)" fill="none" stroke="#bb2a22" stroke-linecap="round" stroke-linejoin="round" stroke-width="1.5"/>
        </g>
        <g id="g5106" transform="translate(4.127 13.948)">
          <path id="path5108" d="M-27.735-27.735l-1.544-1.544" transform="translate(29.279 29.279)" fill="none" stroke="#bb2a22" stroke-linecap="round" stroke-linejoin="round" stroke-width="1.5"/>
        </g>
        <g id="g5110" transform="translate(4.127 20.499)">
          <path id="path5112" d="M-27.735,0l-1.544,1.544" transform="translate(29.279)" fill="none" stroke="#bb2a22" stroke-linecap="round" stroke-linejoin="round" stroke-width="1.5"/>
        </g>
      </g>
    </g>
  </g>
</svg>
