<svg xmlns="http://www.w3.org/2000/svg" width="44" height="38.182" viewBox="0 0 44 38.182">
  <g id="Group_1997" data-name="Group 1997" transform="translate(-282 -186.8)">
    <path id="bangalore_1_" d="M22.2,25.128a.716.716,0,1,0,.716.716A.716.716,0,0,0,22.2,25.128Zm0-22.2a.716.716,0,1,0-.716-.716A.716.716,0,0,0,22.2,2.932ZM42.728,25.325a.517.517,0,0,1-.477.318H39.9V36.067h2.348V37.1H34.175v.4H10.232v-.4H2.156V36.068H4.5V25.643H2.156a.517.517,0,0,1-.365-.882L4.5,22.049V19.4a3.379,3.379,0,1,1,6.759,0v2.348h2.348a.515.515,0,0,1,.365.879l-1.985,1.985H15.96v-5L13.246,16.9a.515.515,0,0,1,.365-.879H15.96V13.672a6.229,6.229,0,0,1,4.3-5.9V6.512a1.947,1.947,0,1,1,3.895,0V7.771a6.231,6.231,0,0,1,4.3,5.9V16.02H30.8a.515.515,0,0,1,.365.879l-2.714,2.714v5h3.968L30.43,22.629a.515.515,0,0,1,.365-.879h2.348V19.4a3.379,3.379,0,0,1,6.759,0V22.05l2.714,2.712A.519.519,0,0,1,42.728,25.325Zm-8.553-3.577h4.7V19.4a2.348,2.348,0,1,0-4.7,0v2.348ZM11.263,28.507v7.559H13.1V28.507Zm2.864,7.561H15.96V28.507H14.127Zm2.864-7.561v7.559h1.833V28.507Zm2.864-1.031h4.7V25.342L22.2,22.993l-2.348,2.348Zm0,1.031v7.559h4.7V28.507Zm5.728,7.561h1.832V28.507H25.583ZM14.127,37.1v.4H15.96v-.4Zm2.864.4h1.833v-.4H16.991Zm2.864,0h4.7v-.4h-4.7Zm5.728,0h1.832v-.4H25.583Zm2.864,0h1.832v-.4H28.447Zm1.833-1.432V28.507H28.447v7.559Zm1.031,0h1.831V28.507H31.311Zm3.968-8.592-1.833-1.832H25.584v1.832ZM21.287,7.521a6.229,6.229,0,0,1,.916-.093,6.041,6.041,0,0,1,.916.093V6.512a.916.916,0,1,0-1.833,0Zm-4.3,6.15V16.02h3.265V12.24a1.947,1.947,0,1,1,3.895,0v3.78h3.263V13.672a5.212,5.212,0,1,0-10.423,0ZM23.12,16.02V12.24a.916.916,0,1,0-1.833,0v3.78Zm-8.264,1.031,1.833,1.833H27.718l1.833-1.833H14.856Zm2.135,7.561h2.135L21.84,21.9a.514.514,0,0,1,.729,0l2.714,2.712h2.134v-4.7H16.991Zm-6.03,1.031L9.128,27.475h9.7V25.643ZM5.535,19.4v2.348h4.7V19.4a2.348,2.348,0,0,0-4.7,0ZM3.4,24.612h7.134l1.833-1.833H5.233Zm6.832,11.456V28.507H7.884a.517.517,0,0,1-.365-.882L9.5,25.642H5.535V36.065h4.7v0ZM11.263,37.5H13.1v-.4H11.263Zm21.881-.4H31.311v.4h1.832v-.4Zm5.728-11.456H34.9l1.985,1.983a.516.516,0,0,1-.365.881H34.175v7.559h4.7V25.643Zm2.135-1.031-1.833-1.833H32.041l1.833,1.833Z" transform="translate(281.64 185.5)" fill="#bb2a22" stroke="#bb2a22" stroke-width="0.4"/>
    <path id="Path_21649" data-name="Path 21649" d="M0,0H3.922V4.156L0,4Z" transform="translate(282 220)" fill="#fff"/>
    <path id="Path_21650" data-name="Path 21650" d="M-.286.179,4,0V4L-.286,3.9Z" transform="translate(322 220)" fill="#fff"/>
    <path id="Path_21651" data-name="Path 21651" d="M8472.4,13437.883h25.271" transform="translate(-8181 -13214)" fill="none" stroke="#fff" stroke-width="2.2"/>
  </g>
</svg>
