<svg xmlns="http://www.w3.org/2000/svg" width="17" height="17" viewBox="0 0 17 17">
  <g id="traffic-sign" transform="translate(0 0)">
    <path id="Path_21676" data-name="Path 21676" d="M16.468,7.218,9.782.532a1.813,1.813,0,0,0-2.565,0L.531,7.218a1.813,1.813,0,0,0,0,2.565l6.686,6.686a1.813,1.813,0,0,0,2.565,0l6.686-6.686a1.813,1.813,0,0,0,0-2.565Zm-.751,1.814L9.031,15.717a.751.751,0,0,1-1.062,0L1.283,9.031a.751.751,0,0,1,0-1.062L7.969,1.283a.751.751,0,0,1,1.062,0l6.686,6.686a.738.738,0,0,1,.22.531.746.746,0,0,1-.22.531Z" transform="translate(0)" fill="#bb2a22"/>
    <path id="Path_21677" data-name="Path 21677" d="M159.361,146.082c-.042-.063.087.074-1.867-1.911a.531.531,0,0,0-.757.745l.941.955h-5.135a.531.531,0,0,0-.531.531v3.453a.531.531,0,1,0,1.062,0v-2.922h4.546l-.941.955a.531.531,0,1,0,.757.745l1.743-1.771A.56.56,0,0,0,159.361,146.082Z" transform="translate(-146.965 -139.231)" fill="#bb2a22"/>
  </g>
</svg>
