<svg xmlns="http://www.w3.org/2000/svg" width="19.396" height="17" viewBox="0 0 19.396 17">
  <g id="gallery" transform="translate(0 -26.576)">
    <g id="Group_2069" data-name="Group 2069" transform="translate(0 26.576)">
      <g id="Group_2068" data-name="Group 2068" transform="translate(0 0)">
        <path id="Path_21678" data-name="Path 21678" d="M175.968,159.668a1.979,1.979,0,1,0,1.979,1.979A1.979,1.979,0,0,0,175.968,159.668Zm0,3.015a1.036,1.036,0,0,1,0-2.073h0a1.036,1.036,0,0,1,0,2.073Z" transform="translate(-166.145 -153.668)" fill="#bb2a22"/>
        <path id="Path_21679" data-name="Path 21679" d="M17.713,28.054l-12.86-1.46a1.766,1.766,0,0,0-1.39.4,1.79,1.79,0,0,0-.683,1.225L2.544,30.15h-.73A1.893,1.893,0,0,0,0,32.1v9.633a1.79,1.79,0,0,0,1.742,1.837h13a1.933,1.933,0,0,0,1.979-1.837v-.377a2.355,2.355,0,0,0,.9-.377,1.955,1.955,0,0,0,.683-1.272l1.083-9.563A1.908,1.908,0,0,0,17.713,28.054ZM15.782,41.738a.992.992,0,0,1-1.036.9H1.814a.848.848,0,0,1-.872-.823q0-.036,0-.072V40L4.594,37.31a1.131,1.131,0,0,1,1.46.071l2.567,2.261a2.214,2.214,0,0,0,1.39.518,2.143,2.143,0,0,0,1.131-.306l4.64-2.685v4.569Zm0-5.676-5.135,2.991a1.2,1.2,0,0,1-1.39-.118L6.666,36.651a2.1,2.1,0,0,0-2.614-.094L.943,38.818V32.1a.951.951,0,0,1,.872-1.013H14.745A1.083,1.083,0,0,1,15.782,32.1v3.957Zm2.662-6.039v.009l-1.107,9.563a.8.8,0,0,1-.306.636c-.094.094-.306.141-.306.188V32.1a2.026,2.026,0,0,0-1.979-1.955H3.487L3.7,28.313a1.084,1.084,0,0,1,.353-.612,1.083,1.083,0,0,1,.707-.188L17.6,29A.942.942,0,0,1,18.444,30.023Z" transform="translate(0 -26.576)" fill="#bb2a22"/>
      </g>
    </g>
  </g>
</svg>
