<svg xmlns="http://www.w3.org/2000/svg" width="17" height="17.63" viewBox="0 0 17 17.63">
  <g id="Group_2212" data-name="Group 2212" transform="translate(-3424 1918)">
    <rect id="Rectangle_145" data-name="Rectangle 145" width="17" height="17.63" transform="translate(3424 -1918)" fill="#fff"/>
    <g id="location_2_" data-name="location (2)" transform="translate(3393.8 -1918)">
      <g id="Group_1980" data-name="Group 1980" transform="translate(31)">
        <g id="Group_1979" data-name="Group 1979">
          <path id="Path_21629" data-name="Path 21629" d="M41.688,11.646c1.876-2.943,1.64-2.576,1.694-2.653a5.638,5.638,0,0,0,1.044-3.278,5.68,5.68,0,1,0-10.287,3.32L35.8,11.646c-1.779.273-4.8,1.088-4.8,2.882,0,.654.427,1.586,2.46,2.312a16.3,16.3,0,0,0,5.286.786c3.719,0,7.746-1.049,7.746-3.1C46.492,12.733,43.471,11.92,41.688,11.646ZM35,8.467l-.018-.026a4.647,4.647,0,1,1,7.561-.052c-.05.066.21-.338-3.8,5.953Zm3.744,8.126c-4.062,0-6.713-1.194-6.713-2.066,0-.586,1.362-1.549,4.381-1.924l1.9,2.977a.516.516,0,0,0,.871,0l1.9-2.977c3.019.375,4.381,1.339,4.381,1.924C45.459,15.392,42.832,16.593,38.746,16.593Z" transform="translate(-31)" fill="#bb2a22"/>
        </g>
      </g>
      <g id="Group_1982" data-name="Group 1982" transform="translate(36.164 3.133)">
        <g id="Group_1981" data-name="Group 1981">
          <path id="Path_21630" data-name="Path 21630" d="M183.582,91a2.582,2.582,0,1,0,2.582,2.582A2.585,2.585,0,0,0,183.582,91Zm0,4.131a1.549,1.549,0,1,1,1.549-1.549A1.551,1.551,0,0,1,183.582,95.131Z" transform="translate(-181 -91)" fill="#bb2a22"/>
        </g>
      </g>
    </g>
  </g>
</svg>
