<svg xmlns="http://www.w3.org/2000/svg" width="21.973" height="25" viewBox="0 0 21.973 25">
  <g id="location_1_" data-name="location (1)" transform="translate(-31)">
    <g id="Group_233" data-name="Group 233" transform="translate(31)">
      <g id="Group_232" data-name="Group 232">
        <path id="Path_663" data-name="Path 663" d="M46.16,16.518c2.66-4.174,2.326-3.654,2.4-3.762a8,8,0,0,0,1.48-4.65,8.057,8.057,0,1,0-14.59,4.709l2.36,3.7C35.289,16.906,31,18.061,31,20.605c0,.927.605,2.249,3.489,3.279A23.118,23.118,0,0,0,41.986,25c5.275,0,10.986-1.488,10.986-4.395C52.973,18.061,48.688,16.906,46.16,16.518Zm-9.484-4.509-.025-.037A6.592,6.592,0,1,1,47.375,11.9c-.071.093.3-.479-5.388,8.443Zm5.31,11.526c-5.761,0-9.521-1.694-9.521-2.93,0-.831,1.932-2.2,6.213-2.73L41.369,22.1a.732.732,0,0,0,1.235,0l2.69-4.222c4.281.533,6.213,1.9,6.213,2.73C51.508,21.831,47.782,23.535,41.986,23.535Z" transform="translate(-31)" fill="#fff"/>
      </g>
    </g>
    <g id="Group_235" data-name="Group 235" transform="translate(38.324 4.443)">
      <g id="Group_234" data-name="Group 234">
        <path id="Path_664" data-name="Path 664" d="M184.662,91a3.662,3.662,0,1,0,3.662,3.662A3.666,3.666,0,0,0,184.662,91Zm0,5.859a2.2,2.2,0,1,1,2.2-2.2A2.2,2.2,0,0,1,184.662,96.859Z" transform="translate(-181 -91)" fill="#fff"/>
      </g>
    </g>
  </g>
</svg>
