<svg xmlns="http://www.w3.org/2000/svg" width="30.764" height="36.4" viewBox="0 0 30.764 36.4">
  <g id="mumbai" transform="translate(-39.8 0.2)">
    <g id="Group_1996" data-name="Group 1996" transform="translate(40 0)">
      <path id="Path_21648" data-name="Path 21648" d="M69.836,13.526h-.6v-2.29a.528.528,0,0,0-.528-.528H66.982V8.419a.528.528,0,0,0-.528-.528H64.728V2.783a.528.528,0,0,0-.528-.528H59.067a4.474,4.474,0,0,0-7.77,0H46.164a.528.528,0,0,0-.528.528V7.89H43.91a.528.528,0,0,0-.528.528v2.29H41.656a.528.528,0,0,0-.528.528v2.29h-.6a.528.528,0,0,0,0,1.057h.6V35.472a.528.528,0,0,0,.528.528h9.018a.528.528,0,0,0,.528-.528V21.382a3.98,3.98,0,0,1,7.961,0v14.09a.528.528,0,0,0,.528.528h9.018a.528.528,0,0,0,.528-.528V14.583h.6a.528.528,0,0,0,0-1.057ZM55.182,1.057a3.405,3.405,0,0,1,2.6,1.2h-5.2A3.411,3.411,0,0,1,55.182,1.057ZM46.693,3.311H63.671V7.89H46.693Zm-4.509,8.454H61.676a.528.528,0,1,0,0-1.057H44.438V8.947H65.926v1.761H64.2a.528.528,0,0,0,0,1.057h3.98v1.761h-26ZM61.417,23.671h-1.2v-2.29c0-.012,0-.023,0-.035h1.2Zm1.057-2.325H68.18v2.325H62.474Zm-2.254,3.382h1.2V31h-1.2Zm2.254,0H68.18V31H62.474ZM68.18,20.29H62.474V14.583H68.18Zm-20.29,0H42.184V14.583H47.89Zm-5.706,4.438H47.89V31H42.184Zm6.763,0h1.2V31h-1.2Zm1.2-3.346v2.29h-1.2V21.346h1.2C50.146,21.358,50.145,21.37,50.145,21.382Zm-2.254,2.29H42.184V21.346H47.89ZM42.184,34.943V32.055H47.89v2.888Zm6.763,0V32.055h1.2v2.888Zm6.235-18.6a5.045,5.045,0,0,0-4.917,3.945H48.947V14.583h12.47V20.29H60.1A5.045,5.045,0,0,0,55.182,16.344Zm5.037,15.71h1.2v2.888h-1.2Zm2.254,2.888V32.055H68.18v2.888Z" transform="translate(-40 0)" fill="#bb2a22" stroke="#bb2a22" stroke-width="0.4"/>
    </g>
  </g>
</svg>
