<svg xmlns="http://www.w3.org/2000/svg" width="19.999" height="20" viewBox="0 0 19.999 20">
  <g id="checked2" transform="translate(-0.004)">
    <path id="Path_576" data-name="Path 576" d="M10,0A10,10,0,1,0,20,10,10,10,0,0,0,10,0Zm0,18.125A8.125,8.125,0,1,1,18.128,10,8.125,8.125,0,0,1,10,18.125Zm3.93-12.379a.871.871,0,0,0-1.212.337L9.368,12.107,7.5,9.834A.94.94,0,0,0,6.289,9.5a.924.924,0,0,0-.326,1.259l2.6,3.163a1.1,1.1,0,0,0,.648.447l0,0h.024a1.134,1.134,0,0,0,1.176-.452L14.26,7.005A.942.942,0,0,0,13.934,5.746Z" transform="translate(0)" fill="#a6ce39"/>
  </g>
</svg>
