<svg xmlns="http://www.w3.org/2000/svg" width="29.883" height="30" viewBox="0 0 29.883 30">
  <g id="file2" transform="translate(-1 0)">
    <path id="Union_4" data-name="Union 4" d="M-2753.091-5317a7.919,7.919,0,0,1-7.909-7.909,7.92,7.92,0,0,1,7.031-7.861v-11.593a2.64,2.64,0,0,1,2.637-2.637h13.477a.88.88,0,0,1,.621.258l5.859,5.859a.88.88,0,0,1,.258.621v20.625a2.64,2.64,0,0,1-2.637,2.637Zm4.967-1.758h14.371a.88.88,0,0,0,.879-.879v-19.745h-4.981a.881.881,0,0,1-.879-.88v-4.98h-12.6a.88.88,0,0,0-.879.879v11.593a7.886,7.886,0,0,1,4.086,1.707h12.026a.879.879,0,0,1,.879.879.88.88,0,0,1-.879.88h-10.418a7.855,7.855,0,0,1,1.288,3.515h9.13a.88.88,0,0,1,.879.88.878.878,0,0,1-.879.877h-9.13A7.909,7.909,0,0,1-2748.125-5318.758Zm-11.118-6.151a6.159,6.159,0,0,0,6.151,6.151,6.159,6.159,0,0,0,6.153-6.151,6.161,6.161,0,0,0-6.153-6.154A6.161,6.161,0,0,0-2759.243-5324.909Zm22.267-16.232h2.858l-1.43-1.428-1.428-1.431ZM-2756-5323.483v-1.085h1.93a1.632,1.632,0,0,0,1.535-1.087H-2756v-1.087h3.465a1.633,1.633,0,0,0-1.535-1.087H-2756v-1.086h5.467v1.086h-1.367a2.716,2.716,0,0,1,.491,1.087h.876v1.087h-.876a2.723,2.723,0,0,1-2.661,2.172h-.393l2.416,2.417-.768.766Zm7.011-11.095a.88.88,0,0,1-.879-.879.88.88,0,0,1,.879-.879h12.89a.879.879,0,0,1,.879.879.879.879,0,0,1-.879.879Z" transform="translate(2762 5347)" fill="#fff"/>
  </g>
</svg>
