<svg xmlns="http://www.w3.org/2000/svg" width="18.17" height="23" viewBox="0 0 18.17 23">
  <g id="file_8_" data-name="file (8)" transform="translate(-38.6)">
    <g id="Group_1917" data-name="Group 1917" transform="translate(38.6 0)">
      <g id="Group_1916" data-name="Group 1916" transform="translate(0 0)">
        <path id="Path_21593" data-name="Path 21593" d="M56.745,5.106c-.025,0-.025-.025-.05-.05s-.025-.05-.05-.075L52.34.15c-.025-.025-.075-.05-.1-.075-.025,0-.025-.025-.05-.025a.471.471,0,0,0-.2-.05H41.428A2.841,2.841,0,0,0,38.6,2.828V20.172A2.841,2.841,0,0,0,41.428,23H53.942a2.841,2.841,0,0,0,2.828-2.828V5.281C56.77,5.231,56.745,5.156,56.745,5.106Zm-4.28-3.4L55.243,4.83H52.465Zm3.354,18.445a1.88,1.88,0,0,1-1.877,1.9H41.428a1.874,1.874,0,0,1-1.877-1.877V2.8A1.874,1.874,0,0,1,41.428.926H51.514V5.281a.475.475,0,0,0,.476.476h3.829V20.147Z" transform="translate(-38.6 0)" fill="#fff"/>
        <path id="Path_21596" data-name="Path 21596" d="M85,127.676a.475.475,0,0,0,.476.476H96.638a.476.476,0,1,0,0-.951H85.476A.475.475,0,0,0,85,127.676Z" transform="translate(-82.097 -119.241)" fill="#fff"/>
        <path id="Path_21597" data-name="Path 21597" d="M96.638,164.8H85.476a.476.476,0,1,0,0,.951H96.638a.475.475,0,0,0,.476-.476A.46.46,0,0,0,96.638,164.8Z" transform="translate(-82.097 -152.489)" fill="#fff"/>
        <path id="Path_21598" data-name="Path 21598" d="M96.638,202H85.476a.476.476,0,1,0,0,.951H96.638a.475.475,0,0,0,.476-.476A.46.46,0,0,0,96.638,202Z" transform="translate(-82.097 -185.361)" fill="#fff"/>
      </g>
    </g>
  </g>
</svg>
