<svg id="download-report" xmlns="http://www.w3.org/2000/svg" width="25" height="25" viewBox="0 0 25 25">
  <path id="Path_139" data-name="Path 139" d="M67.873,81.569h-.833v-.833a.735.735,0,0,0-1.471,0v.833h-.833a.735.735,0,0,0,0,1.471h.833v.833a.735.735,0,1,0,1.471,0v-.833h.833a.735.735,0,0,0,0-1.471Z" transform="translate(-60.863 -76.078)" fill="#fff"/>
  <path id="Path_140" data-name="Path 140" d="M304.735,185.471h5.49a.735.735,0,1,0,0-1.471h-5.49a.735.735,0,0,0,0,1.471Z" transform="translate(-289.098 -174.98)" fill="#fff"/>
  <path id="Path_141" data-name="Path 141" d="M304.735,249.471h5.49a.735.735,0,1,0,0-1.471h-5.49a.735.735,0,0,0,0,1.471Z" transform="translate(-289.098 -235.843)" fill="#fff"/>
  <path id="Path_142" data-name="Path 142" d="M24.265,1.569H10.077L9.177.308A.735.735,0,0,0,8.578,0H.735A.735.735,0,0,0,0,.735V24.265A.735.735,0,0,0,.735,25H24.265A.735.735,0,0,0,25,24.265V2.3A.735.735,0,0,0,24.265,1.569ZM14.192,23.529H4.608V21.986a4.792,4.792,0,1,1,9.584,0v1.543ZM7.372,13.7A2.028,2.028,0,1,1,9.4,15.724,2.031,2.031,0,0,1,7.372,13.7Zm16.158,9.834H15.663V21.986a6.263,6.263,0,0,0-3.834-5.776,3.5,3.5,0,1,0-4.855,0,6.272,6.272,0,0,0-3.836,5.774v1.543H1.471V1.471H8.2l3.7,5.182a.735.735,0,0,0,.6.308H23.529Zm0-18.039H12.878L11.128,3.039h12.4Z" fill="#fff"/>
</svg>
