<svg xmlns="http://www.w3.org/2000/svg" width="14.922" height="15.348" viewBox="0 0 14.922 15.348">
  <g id="noun_Download_1569899" transform="translate(245 -137.652)">
    <g id="Group_61" data-name="Group 61" transform="translate(-273 -839.71)">
      <path id="Path_264" data-name="Path 264" d="M37.443,990a.789.789,0,0,1-.466-.191l-5.765-5.426a.679.679,0,0,1-.026-.959.7.7,0,0,1,.959-.026l4.621,4.356v-9.709a.678.678,0,0,1,1.357,0v9.709l4.621-4.356a.71.71,0,0,1,.959.026.679.679,0,0,1-.026.959l-5.765,5.426a.6.6,0,0,1-.466.191Z" transform="translate(-1.983 0)" fill="#bb2a22"/>
      <path id="Path_265" data-name="Path 265" d="M28.678,1028.362a.678.678,0,0,0,0,1.357H42.243a.678.678,0,0,0,0-1.357Z" transform="translate(0 -37.009)" fill="#bb2a22"/>
    </g>
  </g>
</svg>
