<svg xmlns="http://www.w3.org/2000/svg" width="21.5" height="21.5" viewBox="0 0 21.5 21.5">
  <g id="_34-Add-image" data-name="34-Add-image" transform="translate(-1.75 -1.75)">
    <path id="Path_573" data-name="Path 573" d="M26.75,23H24.5V20.75a.75.75,0,0,0-1.5,0V23H20.75a.75.75,0,0,0,0,1.5H23v2.25a.75.75,0,0,0,1.5,0V24.5h2.25a.75.75,0,0,0,0-1.5Z" transform="translate(-4.5 -4.5)" fill="#bb2a22" stroke="#bb2a22" stroke-width="0.5"/>
    <path id="Path_574" data-name="Path 574" d="M13.25,18.5h-9a.75.75,0,0,1-.75-.75V15.807l3-3,1.717,1.725a.75.75,0,0,0,1.065,0l3.967-3.975,3.218,3.225a.753.753,0,1,0,1.065-1.065l-3.75-3.75a.75.75,0,0,0-1.065,0L8.75,12.943,7.033,11.217a.75.75,0,0,0-1.065,0L3.5,13.693V4.25a.75.75,0,0,1,.75-.75h13.5a.75.75,0,0,1,.75.75v9a.75.75,0,0,0,1.5,0v-9A2.25,2.25,0,0,0,17.75,2H4.25A2.25,2.25,0,0,0,2,4.25v13.5A2.25,2.25,0,0,0,4.25,20h9a.75.75,0,0,0,0-1.5Z" fill="#bb2a22" stroke="#bb2a22" stroke-width="0.5"/>
    <path id="Path_575" data-name="Path 575" d="M8,8.25A2.25,2.25,0,1,0,10.25,6,2.25,2.25,0,0,0,8,8.25Zm3,0a.75.75,0,1,1-.75-.75A.75.75,0,0,1,11,8.25Z" transform="translate(-1.5 -1)" fill="#bb2a22" stroke="#bb2a22" stroke-width="0.5"/>
  </g>
</svg>
