<svg xmlns="http://www.w3.org/2000/svg" width="441.898" height="353.45" viewBox="0 0 441.898 353.45">
  <g id="health-360-logo" transform="translate(-523.286 -500.972)">
    <g id="Group_20" data-name="Group 20" transform="translate(523.286 546.91)">
      <g id="Group_12" data-name="Group 12" transform="translate(0 186.45)">
        <path id="Path_2" data-name="Path 2" d="M921.171,505.125c0-1.378-4.125-42.873-75.561-83.055s-145.387-37.984-145.387-37.984,49.151,27.2,102.034,56.135S921.171,505.125,921.171,505.125Z" transform="translate(-700.222 -384.064)" fill="#85c326"/>
        <path id="Path_7" data-name="Path 7" d="M700.222,505.125c0-1.378,4.125-42.873,75.561-83.055s145.388-37.984,145.388-37.984-49.151,27.2-102.034,56.135S700.222,505.125,700.222,505.125Z" transform="translate(-479.273 -384.064)" fill="#85c326"/>
      </g>
      <g id="Group_13" data-name="Group 13" transform="translate(34.595 144.875)">
        <path id="Path_2-2" data-name="Path 2" d="M886.575,486.17c0-1.162-3.479-36.16-63.73-70.051s-122.623-32.037-122.623-32.037,41.455,22.938,86.058,47.346S886.575,486.17,886.575,486.17Z" transform="translate(-700.222 -384.064)" fill="#85c326"/>
        <path id="Path_7-2" data-name="Path 7" d="M700.222,486.17c0-1.162,3.479-36.16,63.73-70.051s122.623-32.037,122.623-32.037-41.455,22.938-86.058,47.346S700.222,486.17,700.222,486.17Z" transform="translate(-513.868 -384.064)" fill="#85c326"/>
      </g>
      <g id="Group_14" data-name="Group 14" transform="translate(56.946 102.853)">
        <path id="Path_2-3" data-name="Path 2" d="M864.225,473.924c0-1.023-3.062-31.823-56.087-61.649S700.222,384.08,700.222,384.08s36.484,20.187,75.737,41.667S864.225,473.924,864.225,473.924Z" transform="translate(-700.222 -384.064)" fill="#85c326"/>
        <path id="Path_7-3" data-name="Path 7" d="M700.222,473.924c0-1.023,3.062-31.823,56.087-61.649S864.225,384.08,864.225,384.08s-36.483,20.187-75.737,41.667S700.222,473.924,700.222,473.924Z" transform="translate(-536.219 -384.064)" fill="#85c326"/>
      </g>
      <g id="Group_15" data-name="Group 15" transform="translate(91.084 74.897)">
        <path id="Path_2-4" data-name="Path 2" d="M830.086,455.219c0-.81-2.424-25.2-44.412-48.817s-85.453-22.326-85.453-22.326,28.889,15.985,59.972,32.994S830.086,455.219,830.086,455.219Z" transform="translate(-700.222 -384.064)" fill="#85c326"/>
        <path id="Path_7-4" data-name="Path 7" d="M700.222,455.219c0-.81,2.425-25.2,44.412-48.817s85.453-22.326,85.453-22.326S801.2,400.061,770.115,417.07,700.222,455.219,700.222,455.219Z" transform="translate(-570.357 -384.064)" fill="#85c326"/>
      </g>
      <g id="Group_16" data-name="Group 16" transform="translate(128.403 48.985)">
        <path id="Path_2-5" data-name="Path 2" d="M792.767,434.771c0-.577-1.728-17.957-31.649-34.788s-60.9-15.91-60.9-15.91,20.587,11.391,42.737,23.512S792.767,434.771,792.767,434.771Z" transform="translate(-700.222 -384.064)" fill="#85c326"/>
        <path id="Path_7-5" data-name="Path 7" d="M700.222,434.771c0-.577,1.728-17.957,31.649-34.788s60.9-15.91,60.9-15.91-20.587,11.391-42.737,23.512S700.222,434.771,700.222,434.771Z" transform="translate(-607.676 -384.064)" fill="#85c326"/>
      </g>
      <g id="Group_18" data-name="Group 18" transform="translate(152.334 22.583)">
        <path id="Path_2-6" data-name="Path 2" d="M768.837,421.659c0-.428-1.281-13.314-23.465-25.793a96.348,96.348,0,0,0-45.15-11.8s15.264,8.446,31.686,17.433S768.837,421.659,768.837,421.659Z" transform="translate(-700.222 -384.064)" fill="#85c326"/>
        <path id="Path_7-6" data-name="Path 7" d="M700.222,421.659c0-.428,1.281-13.314,23.465-25.793a96.347,96.347,0,0,1,45.15-11.8s-15.264,8.446-31.686,17.433S700.222,421.659,700.222,421.659Z" transform="translate(-631.607 -384.064)" fill="#85c326"/>
      </g>
      <g id="Group_19" data-name="Group 19" transform="translate(179.733)">
        <path id="Path_2-7" data-name="Path 2" d="M741.438,406.647c0-.257-.77-8-14.1-15.493a57.875,57.875,0,0,0-27.121-7.086s9.169,5.073,19.034,10.472S741.438,406.647,741.438,406.647Z" transform="translate(-700.222 -384.064)" fill="#85c326"/>
        <path id="Path_7-7" data-name="Path 7" d="M700.222,406.647c0-.257.77-8,14.1-15.493a57.875,57.875,0,0,1,27.121-7.086s-9.169,5.073-19.034,10.472S700.222,406.647,700.222,406.647Z" transform="translate(-659.006 -384.064)" fill="#85c326"/>
      </g>
    </g>
    <rect id="Rectangle_2" data-name="Rectangle 2" width="28.249" height="24.718" transform="translate(731.647 500.972)" fill="#d9261b"/>
  </g>
</svg>
