<svg xmlns="http://www.w3.org/2000/svg" width="24.375" height="32" viewBox="0 0 24.375 32">
  <g id="medical-report2" transform="translate(-61)">
    <path id="Path_360" data-name="Path 360" d="M84.3,6.642,78.273.94A3.424,3.424,0,0,0,75.911,0H64.438A3.441,3.441,0,0,0,61,3.437V28.563A3.441,3.441,0,0,0,64.438,32h17.5a3.441,3.441,0,0,0,3.438-3.437V9.139a3.452,3.452,0,0,0-1.075-2.5ZM82.479,7.5H77.813a.313.313,0,0,1-.312-.312V2.79Zm-.541,22.625h-17.5a1.564,1.564,0,0,1-1.562-1.562V3.437a1.564,1.564,0,0,1,1.563-1.563H75.625V7.187a2.19,2.19,0,0,0,2.188,2.188H83.5V28.563A1.564,1.564,0,0,1,81.938,30.125Z" transform="translate(0 0)" fill="#bb2a22"/>
    <path id="Path_361" data-name="Path 361" d="M123.813,64.688v1.875a.938.938,0,0,0,1.875,0V64.688h1.875a.937.937,0,1,0,0-1.875h-1.875V60.938a.937.937,0,0,0-1.875,0v1.875h-1.875a.938.938,0,0,0,0,1.875Z" transform="translate(-56.25 -56.25)" fill="#bb2a22"/>
    <path id="Path_362" data-name="Path 362" d="M142.688,230h-13.75a.937.937,0,0,0,0,1.875h13.75a.938.938,0,0,0,0-1.875Z" transform="translate(-62.813 -215.625)" fill="#bb2a22"/>
    <path id="Path_363" data-name="Path 363" d="M142.688,310h-13.75a.938.938,0,0,0,0,1.875h13.75a.938.938,0,0,0,0-1.875Z" transform="translate(-62.813 -290.625)" fill="#bb2a22"/>
    <path id="Path_364" data-name="Path 364" d="M133.482,390h-4.545a.938.938,0,0,0,0,1.875h4.545a.938.938,0,0,0,0-1.875Z" transform="translate(-62.813 -365.625)" fill="#bb2a22"/>
  </g>
</svg>
