<svg xmlns="http://www.w3.org/2000/svg" width="18.07" height="23" viewBox="0 0 18.07 23">
  <g id="clipboard_3_" data-name="clipboard (3)" transform="translate(-47.037 0)">
    <g id="Group_2167" data-name="Group 2167" transform="translate(47.037 0)">
      <g id="Group_2166" data-name="Group 2166" transform="translate(0 0)">
        <path id="Path_21717" data-name="Path 21717" d="M62.807,3.014H60.726V2.083c0-.3-.329-.438-.63-.438H58.481A2.449,2.449,0,0,0,56.045,0a2.491,2.491,0,0,0-2.437,1.643H52.02c-.3,0-.6.137-.6.438v.931H49.337a2.327,2.327,0,0,0-2.3,2.218V20.919A2.2,2.2,0,0,0,49.337,23h13.47a2.2,2.2,0,0,0,2.3-2.081V5.231A2.327,2.327,0,0,0,62.807,3.014ZM52.513,2.74h1.506a.6.6,0,0,0,.52-.493,1.588,1.588,0,0,1,1.506-1.232,1.561,1.561,0,0,1,1.478,1.232.6.6,0,0,0,.548.493h1.561V4.93H52.513Zm11.5,18.18a1.111,1.111,0,0,1-1.2.986H49.337a1.111,1.111,0,0,1-1.2-.986V5.231a1.232,1.232,0,0,1,1.2-1.123h2.081v1.4a.575.575,0,0,0,.6.52H60.1a.6.6,0,0,0,.63-.52v-1.4h2.081a1.232,1.232,0,0,1,1.2,1.123V20.919Z" transform="translate(-47.037 0)" fill="#fff"/>
        <path id="Path_21718" data-name="Path 21718" d="M103.565,230.482a.548.548,0,0,0-.767-.027l-1.752,1.67-.739-.767a.548.548,0,0,0-.767-.027.575.575,0,0,0,0,.794l1.123,1.15a.493.493,0,0,0,.383.164.547.547,0,0,0,.383-.164l2.136-2.026a.52.52,0,0,0,.032-.735C103.586,230.5,103.576,230.492,103.565,230.482Z" transform="translate(-96.638 -218.242)" fill="#fff"/>
        <path id="Path_21719" data-name="Path 21719" d="M205.393,256.034h-6.3a.548.548,0,1,0,0,1.1h6.3a.548.548,0,1,0,0-1.1Z" transform="translate(-190.608 -242.617)" fill="#fff"/>
        <path id="Path_21720" data-name="Path 21720" d="M103.565,146.89a.548.548,0,0,0-.767-.027l-1.752,1.67-.739-.767a.548.548,0,0,0-.767-.027.575.575,0,0,0,0,.794l1.123,1.15a.493.493,0,0,0,.383.164.547.547,0,0,0,.383-.164l2.136-2.026a.52.52,0,0,0,.032-.735C103.586,146.911,103.576,146.9,103.565,146.89Z" transform="translate(-96.638 -139.031)" fill="#fff"/>
        <path id="Path_21721" data-name="Path 21721" d="M205.393,172.442h-6.3a.548.548,0,1,0,0,1.1h6.3a.548.548,0,1,0,0-1.1Z" transform="translate(-190.608 -163.405)" fill="#fff"/>
        <path id="Path_21722" data-name="Path 21722" d="M103.565,314.073a.548.548,0,0,0-.767-.027l-1.752,1.67-.739-.767a.548.548,0,0,0-.767-.027.575.575,0,0,0,0,.794l1.123,1.15a.493.493,0,0,0,.383.164.547.547,0,0,0,.383-.164l2.136-2.026a.52.52,0,0,0,.032-.735C103.586,314.094,103.576,314.084,103.565,314.073Z" transform="translate(-96.638 -297.453)" fill="#fff"/>
        <path id="Path_21723" data-name="Path 21723" d="M205.393,339.626h-6.3a.548.548,0,1,0,0,1.1h6.3a.548.548,0,1,0,0-1.1Z" transform="translate(-190.608 -321.828)" fill="#fff"/>
      </g>
    </g>
  </g>
</svg>
