<svg xmlns="http://www.w3.org/2000/svg" width="27.315" height="25.43" viewBox="0 0 27.315 25.43">
  <g id="packages-details" transform="translate(-1.1 -2.23)">
    <path id="Path_21770" data-name="Path 21770" d="M23.174,22.837H5.583a.942.942,0,0,1-.917-.741L2.781,13.64a2.186,2.186,0,0,1,.867-2.262,2.136,2.136,0,0,1,2.412-.1l2.676,1.608a.339.339,0,0,0,.239,0,.3.3,0,0,0,.2-.138l3.292-5.78a2.2,2.2,0,0,1,3.769,0l3.292,5.78a.3.3,0,0,0,.2.138.339.339,0,0,0,.239,0l2.676-1.608a2.149,2.149,0,0,1,2.412.1,2.186,2.186,0,0,1,.867,2.262L24.041,22.1a.942.942,0,0,1-.867.741ZM6.337,20.953H22.42l1.709-7.727a.3.3,0,0,0-.113-.314.289.289,0,0,0-.352,0l-2.676,1.6a2.2,2.2,0,0,1-1.684.251,2.262,2.262,0,0,1-1.357-1.043l-3.292-5.78c-.163-.276-.39-.276-.553,0L10.81,13.7a2.262,2.262,0,0,1-1.357,1.043,2.2,2.2,0,0,1-1.684-.251L5.093,12.9a.289.289,0,0,0-.352,0,.3.3,0,0,0-.113.314Z" transform="translate(0.379 0.903)" fill="#fff" stroke="#bb2a22" stroke-width="0.3"/>
    <circle id="Ellipse_32" data-name="Ellipse 32" cx="1.571" cy="1.571" r="1.571" transform="translate(13.187 2.38)" fill="#fff" stroke="#bb2a22" stroke-width="0.3"/>
    <circle id="Ellipse_33" data-name="Ellipse 33" cx="1.571" cy="1.571" r="1.571" transform="translate(1.25 8.662)" fill="#fff" stroke="#bb2a22" stroke-width="0.3"/>
    <circle id="Ellipse_34" data-name="Ellipse 34" cx="1.571" cy="1.571" r="1.571" transform="translate(25.123 8.662)" fill="#fff" stroke="#bb2a22" stroke-width="0.3"/>
    <path id="Path_21771" data-name="Path 21771" d="M21.087,23.534H6.889a2.2,2.2,0,0,1-2.174-1.847l-.452-2.714a.942.942,0,0,1,.214-.766.917.917,0,0,1,.716-.327H22.783a.917.917,0,0,1,.716.327.942.942,0,0,1,.214.766l-.452,2.714a2.2,2.2,0,0,1-2.174,1.847ZM6.3,19.765l.276,1.621a.314.314,0,0,0,.314.264h14.2a.314.314,0,0,0,.314-.264l.276-1.621Z" transform="translate(0.769 3.976)" fill="#fff" stroke="#bb2a22" stroke-width="0.3"/>
  </g>
</svg>
