<svg xmlns="http://www.w3.org/2000/svg" width="25" height="25" viewBox="0 0 25 25">
  <g id="payments" transform="translate(0)">
    <path id="Path_136" data-name="Path 136" d="M211.367,12.369a6.184,6.184,0,1,0-6.186-6.184A6.192,6.192,0,0,0,211.367,12.369Zm0-10.9a4.72,4.72,0,1,1-4.721,4.72A4.726,4.726,0,0,1,211.367,1.465Z" transform="translate(-195.162 0)" fill="#fff"/>
    <path id="Path_137" data-name="Path 137" d="M24.5,261.449a2.389,2.389,0,0,0-3.252-.5l-2.787,1.864a2.3,2.3,0,0,0-2.023-1.213H14.447a5.441,5.441,0,0,0-8.511,1.376l-.373.228-.1-.283a.732.732,0,0,0-.93-.456L.5,263.849a.733.733,0,0,0-.456.93l2.445,7.151a.732.732,0,0,0,.93.456l4.041-1.381a.733.733,0,0,0,.448-.954l6.412-.2a8.326,8.326,0,0,0,4.843-1.551l4.836-3.44a2.389,2.389,0,0,0,.5-3.414ZM3.634,270.764,1.662,265l2.655-.907,1.971,5.765Zm19.512-7.094-4.836,3.44a6.87,6.87,0,0,1-4.006,1.28h-.023l-6.874.213-1.359-3.975.826-.505h0a.74.74,0,0,0,.275-.3,3.978,3.978,0,0,1,6.464-.981.745.745,0,0,0,.532.229h2.289a.829.829,0,1,1,0,1.659H12.3a.732.732,0,0,0,0,1.465h4.132a2.3,2.3,0,0,0,2.23-1.752l3.4-2.274.012-.008a.926.926,0,0,1,1.068,1.513Z" transform="translate(0 -247.426)" fill="#fff"/>
    <g id="rupee_7_" data-name="rupee(7)" transform="translate(14.089 3.333)">
      <path id="Path_138" data-name="Path 138" d="M97.756,0H93.525V.841h1.492a1.263,1.263,0,0,1,1.189.841H93.525v.841h2.681a1.263,1.263,0,0,1-1.189.841H93.525V4.2l2.464,2.464.594-.594L94.714,4.2h.3a2.105,2.105,0,0,0,2.059-1.681h.68V1.681h-.68A2.093,2.093,0,0,0,96.7.841h1.059Z" transform="translate(-93.525)" fill="#fff" stroke="#fff" stroke-width="0.5"/>
    </g>
  </g>
</svg>
