<svg xmlns="http://www.w3.org/2000/svg" width="23.548" height="36.3" viewBox="0 0 23.548 36.3">
  <path id="pregnancy" d="M112.946,30.269a6.374,6.374,0,0,0-1.808-2.989,6.99,6.99,0,0,0-1.648-1.129,2.154,2.154,0,0,0-1.441-2.452L108,23.683a7.252,7.252,0,0,0-3.325-5.324,9.428,9.428,0,0,1-3.026-2.882l.7.155a2.243,2.243,0,0,0,2.051-.577,5.176,5.176,0,0,0,1.61-3.5l.431-.167a.989.989,0,0,0,.46-1.476l-.428-.63a2.327,2.327,0,0,1-.383-1.6l.171-1.328a4.748,4.748,0,0,0-1.021-3.594.563.563,0,0,0-.114-.138l-.008-.009A4.751,4.751,0,0,0,101.551,1H98.223A4.718,4.718,0,0,0,93.8,4.023a6.49,6.49,0,0,0-.4,1.644,3.635,3.635,0,1,0,2.076,6.761l-.016.11a45.646,45.646,0,0,0-.426,5.275,2.806,2.806,0,0,0-.373,1.4v5.518a11.579,11.579,0,0,0,1.883,6.349,7.357,7.357,0,0,1-1.632,4.5l-.408.5a.564.564,0,1,0,.877.71l.408-.5A8.463,8.463,0,0,0,97.545,32.4q.161.184.33.362l3.876,4.061a.565.565,0,1,0,.817-.779l-3.876-4.061a10.467,10.467,0,0,1-2.9-7.254V19.211a1.694,1.694,0,0,1,3.388,0v7.238a6.673,6.673,0,0,0,1.476,4.178l4.975,6.162a.565.565,0,1,0,.879-.709l-4.975-6.162a5.538,5.538,0,0,1-1.225-3.469V19.211a2.918,2.918,0,0,0-.032-.426,8.858,8.858,0,0,0,3.188.606q.339,0,.68-.027a6.122,6.122,0,0,1,2.713,4.3,2.153,2.153,0,0,0-1.151.728l-.416.512a2.153,2.153,0,0,0,1.045,3.417l.106.032a2.165,2.165,0,0,0,.633.095,2.14,2.14,0,0,0,1.863-1.089l.1-.167a5.3,5.3,0,0,1,2.825,3.382,5.642,5.642,0,0,1-1.417,5.452.565.565,0,0,0,.768.829A6.725,6.725,0,0,0,112.946,30.269ZM94.853,4.433a3.6,3.6,0,0,1,3.37-2.3h3.327a3.62,3.62,0,0,1,2.55,1.053,2.385,2.385,0,0,1-2.438,1.407,1.135,1.135,0,0,0-1.16.83,5.7,5.7,0,0,1-1.3,2.276,1.6,1.6,0,0,0-1.77-.144A1.964,1.964,0,0,0,96.43,9.465a2.071,2.071,0,0,0,.28.961,1.321,1.321,0,0,1-.485.356l-.943-1.54a5.463,5.463,0,0,1-.428-4.809ZM91.129,9.294A2.509,2.509,0,0,1,93.369,6.8a6.579,6.579,0,0,0,.949,3.03l.872,1.424a2.5,2.5,0,0,1-4.06-1.962ZM96.2,16.7c.065-1.338.19-2.679.375-4l.032-.227a2.441,2.441,0,0,0,.006-.621,2.557,2.557,0,0,0,.865-.588,2.917,2.917,0,0,0,1.506.539l.05,0a.565.565,0,0,0,.049-1.127A1.719,1.719,0,0,1,97.717,9.9c-.018-.027-.036-.052-.056-.078a.923.923,0,0,1-.107-.448.836.836,0,0,1,.414-.821.494.494,0,0,1,.592.073,1.12,1.12,0,0,0,1.492-.176A6.841,6.841,0,0,0,101.6,5.717,3.542,3.542,0,0,0,104.822,4.2a3.614,3.614,0,0,1,.317,2l-.171,1.328a3.451,3.451,0,0,0,.568,2.381l.328.484-.311.121a1.063,1.063,0,0,0-.671.922,4.1,4.1,0,0,1-1.272,2.8,1.117,1.117,0,0,1-1.021.284l-2.727-.6a.564.564,0,0,0-.243,1.1l.559.123a9.016,9.016,0,0,0,2.37,3.046,8.752,8.752,0,0,1-3.1-1.041l-.048-.023a2.823,2.823,0,0,0-3.2-.44Zm12.064,9.554-.31.544a1.019,1.019,0,0,1-1.187.473l-.106-.032a1.023,1.023,0,0,1-.5-1.624l.416-.512a1.029,1.029,0,0,1,.8-.378,1.007,1.007,0,0,1,.318.051,1.024,1.024,0,0,1,.569,1.479Z" transform="translate(-89.85 -0.85)" fill="#fff" stroke="#fff" stroke-width="0.3"/>
</svg>
