<svg xmlns="http://www.w3.org/2000/svg" width="23" height="21" viewBox="0 0 23 21">
  <g id="add-photo" transform="translate(-1 -1)">
    <path id="Path_568" data-name="Path 568" d="M7.207,4.879A3,3,0,0,1,9.328,4H13a1,1,0,0,1,0,2H9.328a1,1,0,0,0-.707.293l-.828.828A3,3,0,0,1,5.672,8H4A1,1,0,0,0,3,9V19a1,1,0,0,0,1,1H18a1,1,0,0,0,1-1V12a1,1,0,0,1,2,0v7a3,3,0,0,1-3,3H4a3,3,0,0,1-3-3V9A3,3,0,0,1,4,6H5.672a1,1,0,0,0,.707-.293Z" fill="#bb2a22" fill-rule="evenodd"/>
    <path id="Path_569" data-name="Path 569" d="M6,14a5,5,0,1,1,5,5A5,5,0,0,1,6,14Zm5-3a3,3,0,1,0,3,3A3,3,0,0,0,11,11Z" fill="#bb2a22" fill-rule="evenodd"/>
    <path id="Path_570" data-name="Path 570" d="M16,5a1,1,0,0,1,1-1h6a1,1,0,0,1,0,2H17A1,1,0,0,1,16,5Z" fill="#bb2a22" fill-rule="evenodd"/>
    <path id="Path_571" data-name="Path 571" d="M20,1a1,1,0,0,1,1,1V8a1,1,0,0,1-2,0V2A1,1,0,0,1,20,1Z" fill="#bb2a22" fill-rule="evenodd"/>
  </g>
</svg>
