<svg xmlns="http://www.w3.org/2000/svg" width="23.999" height="24" viewBox="0 0 23.999 24">
  <g id="checked2" transform="translate(-0.004)">
    <path id="Path_576" data-name="Path 576" d="M12,0A12,12,0,1,0,24,12,12,12,0,0,0,12,0Zm0,21.75A9.75,9.75,0,1,1,21.753,12,9.75,9.75,0,0,1,12,21.75ZM16.72,6.9a1.045,1.045,0,0,0-1.455.4l-4.024,7.228L9,11.8a1.127,1.127,0,0,0-1.454-.4,1.109,1.109,0,0,0-.391,1.511l3.118,3.8a1.315,1.315,0,0,0,.778.536l0,0,.029,0a1.361,1.361,0,0,0,1.411-.542l4.619-8.3A1.13,1.13,0,0,0,16.72,6.9Z" fill="#a6ce39"/>
  </g>
</svg>
