<svg xmlns="http://www.w3.org/2000/svg" width="93.794" height="120" viewBox="0 0 93.794 120">
  <g id="upload-2" transform="translate(-55.907)" opacity="0.2">
    <path id="Path_561" data-name="Path 561" d="M149.186,27.7l-8.977-8.977V5.334A5.34,5.34,0,0,0,134.874,0h-73.7a5.273,5.273,0,0,0-5.267,5.267V93.634A5.273,5.273,0,0,0,61.174,98.9h2.979v2.935a5.273,5.273,0,0,0,5.268,5.267H80.848a1.758,1.758,0,0,0,0-3.516H69.421a1.754,1.754,0,0,1-1.752-1.752V31.162a1.758,1.758,0,1,0-3.516,0V95.386H61.174a1.754,1.754,0,0,1-1.752-1.752V5.267a1.754,1.754,0,0,1,1.752-1.752h73.7a1.82,1.82,0,0,1,1.819,1.818v9.875L130.2,8.718a1.758,1.758,0,0,0-1.243-.515H69.421a5.273,5.273,0,0,0-5.268,5.267V22.98a1.758,1.758,0,1,0,3.516,0V13.47a1.754,1.754,0,0,1,1.752-1.752H127.2V28.941a1.758,1.758,0,0,0,1.758,1.758l17.227,0v71.135a1.754,1.754,0,0,1-1.752,1.752h-11.29a1.758,1.758,0,0,0,0,3.516h11.29a5.273,5.273,0,0,0,5.267-5.267V28.944a1.758,1.758,0,0,0-.515-1.243Zm-18.47-.518V14.2L143.7,27.185Z" transform="translate(0 0)"/>
    <path id="Path_562" data-name="Path 562" d="M220.378,175.456H178.326a1.758,1.758,0,0,0,0,3.516h42.052a1.758,1.758,0,0,0,0-3.516Z" transform="translate(-92.381 -134.333)"/>
    <path id="Path_563" data-name="Path 563" d="M220.378,219.688H178.326a1.758,1.758,0,0,0,0,3.516h42.052a1.758,1.758,0,0,0,0-3.516Z" transform="translate(-92.381 -168.199)"/>
    <path id="Path_564" data-name="Path 564" d="M330.609,264.8H322.3a1.758,1.758,0,0,0,0,3.516h8.308a1.758,1.758,0,1,0,0-3.516Z" transform="translate(-202.612 -202.739)"/>
    <path id="Path_565" data-name="Path 565" d="M203.8,268.318a1.758,1.758,0,1,0,0-3.516H178.326a1.758,1.758,0,0,0,0,3.516Z" transform="translate(-92.381 -202.739)"/>
    <path id="Path_566" data-name="Path 566" d="M249.371,375.687,244.685,371V388a1.758,1.758,0,0,1-3.516,0V371l-4.686,4.686A1.758,1.758,0,0,1,234,373.2l7.687-7.687a1.758,1.758,0,0,1,2.486,0l7.687,7.687a1.758,1.758,0,0,1-2.486,2.486Z" transform="translate(-135.956 -279.453)"/>
    <path id="Path_567" data-name="Path 567" d="M201.658,323.61a22.077,22.077,0,1,0,22.078,22.077A22.1,22.1,0,0,0,201.658,323.61Zm0,40.638a18.561,18.561,0,1,1,18.562-18.561A18.583,18.583,0,0,1,201.658,364.248Z" transform="translate(-94.687 -247.764)"/>
  </g>
</svg>
