<svg xmlns="http://www.w3.org/2000/svg" width="33.181" height="36.3" viewBox="0 0 33.181 36.3">
  <g id="Adolescence" transform="translate(-22.028 0.15)">
    <g id="Group_16" data-name="Group 16" transform="translate(22.178)">
      <g id="Group_15" data-name="Group 15" transform="translate(0)">
        <path id="Path_1" data-name="Path 1" d="M226.658,288.925a2.3,2.3,0,1,0-2.3-2.3A2.3,2.3,0,0,0,226.658,288.925Zm0-3.542a1.244,1.244,0,1,1-1.244,1.244A1.245,1.245,0,0,1,226.658,285.383Z" transform="translate(-210.144 -264.336)" fill="#bb2a22" stroke="#bb2a22" stroke-width="0.3"/>
        <path id="Path_2" data-name="Path 2" d="M351.7,7.618a3.809,3.809,0,1,0-3.809-3.809A3.813,3.813,0,0,0,351.7,7.618Zm0-6.563a2.754,2.754,0,1,1-2.754,2.754A2.757,2.757,0,0,1,351.7,1.055Z" transform="translate(-324.986)" fill="#bb2a22" stroke="#bb2a22" stroke-width="0.3"/>
        <path id="Path_3" data-name="Path 3" d="M326.11,120.036a.527.527,0,0,0-.527.527v7.216a.341.341,0,0,1-.341.341h-1.287v-9.309a.527.527,0,0,0-1.055,0V141.16a.341.341,0,0,1-.341.341h-1.226a.341.341,0,0,1-.341-.341v-8.39a.527.527,0,0,0-1.055,0v8.39a.341.341,0,0,1-.341.341h-1.226a.341.341,0,0,1-.341-.341V118.811a.527.527,0,1,0-1.055,0v9.309h-1.287a.341.341,0,0,1-.341-.34v-8.97a3.145,3.145,0,0,1,3.141-3.141h3.95a3.145,3.145,0,0,1,3.141,3.141.527.527,0,0,0,1.055,0,4.2,4.2,0,0,0-4.2-4.2h-3.95a4.2,4.2,0,0,0-4.2,4.2v8.971a1.4,1.4,0,0,0,1.4,1.395h1.287V141.16a1.4,1.4,0,0,0,1.4,1.4H319.6a1.388,1.388,0,0,1,1.736,0h1.226a1.4,1.4,0,0,0,1.4-1.4V129.175h1.287a1.4,1.4,0,0,0,1.4-1.4v-7.216A.527.527,0,0,0,326.11,120.036Z" transform="translate(-293.756 -106.555)" fill="#bb2a22" stroke="#bb2a22" stroke-width="0.3"/>
        <path id="Path_4" data-name="Path 4" d="M49.79,53.466a3.809,3.809,0,1,0-3.809-3.809A3.813,3.813,0,0,0,49.79,53.466Zm0-6.563a2.754,2.754,0,1,1-2.754,2.754A2.757,2.757,0,0,1,49.79,46.9Z" transform="translate(-44.307 -42.624)" fill="#bb2a22" stroke="#bb2a22" stroke-width="0.3"/>
        <path id="Path_5" data-name="Path 5" d="M29.4,161.237H25.927a3.753,3.753,0,0,0-3.749,3.749v7.877a1.291,1.291,0,0,0,1.289,1.289h.016l-.365,3.323a.527.527,0,0,0,.524.585h.891v6.552a1.291,1.291,0,0,0,1.289,1.289H26.9a1.281,1.281,0,0,0,.762-.252,1.281,1.281,0,0,0,.762.252H29.5a1.291,1.291,0,0,0,1.289-1.289V181.7a.527.527,0,1,0-1.055,0v2.912a.235.235,0,0,1-.235.235H28.423a.235.235,0,0,1-.235-.235v-5.633a.527.527,0,0,0-1.055,0v5.633a.235.235,0,0,1-.235.235H25.822a.235.235,0,0,1-.235-.235v-6.552h4.146v1.952a.527.527,0,0,0,1.055,0v-1.952h.89a.527.527,0,0,0,.524-.585l-.365-3.323h.016a1.291,1.291,0,0,0,1.289-1.289v-7.876A3.753,3.753,0,0,0,29.4,161.237Zm2.694,11.625h0a.235.235,0,0,1-.235.235h-.132l-.965-8.786a.527.527,0,0,0-1.048.115L31.09,177H24.231l1.382-12.578a.527.527,0,0,0-1.048-.115L23.6,173.1h-.132a.235.235,0,0,1-.235-.234v-7.877a2.7,2.7,0,0,1,2.694-2.694H29.4a2.7,2.7,0,0,1,2.694,2.694Z" transform="translate(-22.178 -149.9)" fill="#bb2a22" stroke="#bb2a22" stroke-width="0.3"/>
        <path id="Path_6" data-name="Path 6" d="M189.617,324.752a1.4,1.4,0,0,0-.986.445l-1.967,2.094h-2.036l-1.967-2.095a1.414,1.414,0,0,0-2.061,1.935l2.28,2.428v6.978a1.38,1.38,0,0,0,1.378,1.378h2.775a1.38,1.38,0,0,0,1.378-1.378v-2.894a.527.527,0,1,0-1.055,0v2.894a.324.324,0,0,1-.323.323h-.885v-4.4a.527.527,0,0,0-1.055,0v4.4h-.835a.324.324,0,0,1-.323-.323v-7.187a.528.528,0,0,0-.143-.361l-2.423-2.58a.359.359,0,1,1,.523-.491l2.123,2.261a.527.527,0,0,0,.384.166h2.492a.528.528,0,0,0,.384-.166l2.123-2.261a.359.359,0,1,1,.523.491l-2.423,2.58a.527.527,0,0,0-.143.361v2.535a.527.527,0,0,0,1.055,0V329.56l2.28-2.428a1.414,1.414,0,0,0-1.075-2.38Z" transform="translate(-169.106 -301.917)" fill="#bb2a22" stroke="#bb2a22" stroke-width="0.3"/>
      </g>
    </g>
  </g>
</svg>
