<svg xmlns="http://www.w3.org/2000/svg" width="31.791" height="25.698" viewBox="0 0 31.791 25.698">
  <g id="Cardiac" transform="translate(0.25 -50.153)">
    <g id="Group_153" data-name="Group 153" transform="translate(0 50.403)">
      <g id="Group_152" data-name="Group 152" transform="translate(0 0)">
        <path id="Path_504" data-name="Path 504" d="M67.868,76.605l-1.1-1.616a8.554,8.554,0,0,0-1.648,1.467L66.6,77.737A6.564,6.564,0,0,1,67.868,76.605Z" transform="translate(-61.14 -73.486)" fill="#fff" stroke="#bb2a22" stroke-width="0.5"/>
        <path id="Path_505" data-name="Path 505" d="M126.387,52.9l-.172-1.948a8.646,8.646,0,0,0-2.151.472l.659,1.841A6.674,6.674,0,0,1,126.387,52.9Z" transform="translate(-116.482 -50.923)" fill="#fff" stroke="#bb2a22" stroke-width="0.5"/>
        <path id="Path_506" data-name="Path 506" d="M29.2,60.6a12.2,12.2,0,0,0,.133-1.707A8.425,8.425,0,0,0,20.973,50.4H20.81a8.323,8.323,0,0,0-5.165,1.808,8.337,8.337,0,0,0-3.707-1.68l-.344,1.925a6.481,6.481,0,0,1,3.372,1.754l.684.66.684-.66a6.347,6.347,0,0,1,4.484-1.852,6.489,6.489,0,0,1,6.56,6.417q0,.057,0,.115a10.3,10.3,0,0,1-.158,1.707H21.009l-3.1,4.276-2.923-8.285-3.2,4.267L9.93,58.081,7.416,60.6H4.07a10.3,10.3,0,0,1-.158-1.707,6.533,6.533,0,0,1,.623-2.831l-1.767-.84a8.479,8.479,0,0,0-.812,3.671A12.2,12.2,0,0,0,2.089,60.6H0v1.956H2.535a11.988,11.988,0,0,0,4.029,5.827l9.082,7.152,9.082-7.152a11.988,11.988,0,0,0,4.029-5.827h2.535V60.6Zm-5.683,6.246-7.874,6.2-7.874-6.2A10.072,10.072,0,0,1,4.6,62.554H8.223l1.4-1.4,2.061,3.092L14.354,60.7,17.3,69.039l4.708-6.485h4.68A10.072,10.072,0,0,1,23.519,66.845Z" transform="translate(0 -50.403)" fill="#fff" stroke="#bb2a22" stroke-width="0.5"/>
      </g>
    </g>
  </g>
</svg>
