<svg xmlns="http://www.w3.org/2000/svg" width="39.2" height="36.5" viewBox="0 0 39.2 36.5">
  <g id="Eva_Platinum_Check-up" data-name="Eva Platinum Check-up" transform="translate(-1 -2.13)">
    <path id="Path_21770" data-name="Path 21770" d="M32.018,30.163H6.818A1.35,1.35,0,0,1,5.5,29.1L2.8,16.987a3.132,3.132,0,0,1,1.242-3.24A3.06,3.06,0,0,1,7.5,13.6l3.834,2.3a.486.486,0,0,0,.342,0,.432.432,0,0,0,.288-.2l4.716-8.28a3.15,3.15,0,0,1,5.4,0l4.716,8.28a.432.432,0,0,0,.288.2.486.486,0,0,0,.342,0l3.834-2.3a3.078,3.078,0,0,1,3.456.144,3.132,3.132,0,0,1,1.242,3.24L33.26,29.1a1.35,1.35,0,0,1-1.242,1.062ZM7.9,27.463h23.04l2.448-11.07a.432.432,0,0,0-.162-.45.414.414,0,0,0-.5,0l-3.834,2.286a3.15,3.15,0,0,1-2.412.36,3.24,3.24,0,0,1-1.944-1.494l-4.716-8.28c-.234-.4-.558-.4-.792,0l-4.716,8.262a3.24,3.24,0,0,1-1.944,1.494,3.15,3.15,0,0,1-2.412-.36L6.116,15.925a.414.414,0,0,0-.5,0,.432.432,0,0,0-.162.45Z" transform="translate(1.182 2.817)" fill="#bb2a22" stroke="#fff" stroke-width="0.5"/>
    <circle id="Ellipse_32" data-name="Ellipse 32" cx="2.25" cy="2.25" r="2.25" transform="translate(18.35 2.38)" fill="#bb2a22" stroke="#fff" stroke-width="0.5"/>
    <circle id="Ellipse_33" data-name="Ellipse 33" cx="2.25" cy="2.25" r="2.25" transform="translate(1.25 11.38)" fill="#bb2a22" stroke="#fff" stroke-width="0.5"/>
    <circle id="Ellipse_34" data-name="Ellipse 34" cx="2.25" cy="2.25" r="2.25" transform="translate(35.45 11.38)" fill="#bb2a22" stroke="#fff" stroke-width="0.5"/>
    <path id="Path_21771" data-name="Path 21771" d="M28.37,25.98H8.03a3.15,3.15,0,0,1-3.114-2.646l-.648-3.888a1.35,1.35,0,0,1,.306-1.1A1.314,1.314,0,0,1,5.6,17.88H30.8a1.314,1.314,0,0,1,1.026.468,1.35,1.35,0,0,1,.306,1.1l-.648,3.888A3.15,3.15,0,0,1,28.37,25.98ZM7.184,20.58l.4,2.322a.45.45,0,0,0,.45.378H28.37a.45.45,0,0,0,.45-.378l.4-2.322Z" transform="translate(2.4 12.4)" fill="#bb2a22" stroke="#fff" stroke-width="0.5"/>
  </g>
</svg>
