<svg xmlns="http://www.w3.org/2000/svg" width="36.5" height="36.5" viewBox="0 0 36.5 36.5">
  <g id="badge" transform="translate(-33.25 0.25)">
    <g id="health-insurance" transform="translate(33.5)">
      <path id="Path_347" data-name="Path 347" d="M70.153,387.426a.7.7,0,0,0,0-1.406H61.715a.7.7,0,0,0,0,1.406Zm0,0" transform="translate(-56.723 -358.878)" fill="#bb2a22" stroke="#bb2a22" stroke-width="0.5"/>
      <path id="Path_348" data-name="Path 348" d="M35.506,18.522l-7.858-2.453a.7.7,0,0,0-.226-.038h0a.707.707,0,0,0-.225.037l-1.045.327v-9.5a.7.7,0,0,0-.206-.5L19.756.206a.7.7,0,0,0-.5-.206H2.109A2.112,2.112,0,0,0,0,2.109V13.43a.7.7,0,0,0,1.406,0V2.109a.7.7,0,0,1,.7-.7H18.556V5.581a2.015,2.015,0,0,0,2.012,2.013h4.175v9.24l-5.407,1.688a.7.7,0,0,0-.494.671v.071H4.992a.7.7,0,0,0,0,1.406H18.843V23.2H4.992a.7.7,0,0,0,0,1.406H18.843v1.16a10.375,10.375,0,0,0,1.918,6.012H2.109a.7.7,0,0,1-.7-.7V19.758a.7.7,0,0,0-1.406,0v11.32a2.112,2.112,0,0,0,2.109,2.109H21.957a10.372,10.372,0,0,0,5.331,2.8.7.7,0,0,0,.265,0A10.416,10.416,0,0,0,36,25.77V19.193a.7.7,0,0,0-.494-.671ZM20.568,6.188a.607.607,0,0,1-.606-.606V2.4l3.787,3.787ZM34.593,25.77a9.009,9.009,0,0,1-7.172,8.811,9.009,9.009,0,0,1-7.172-8.811V19.71l7.172-2.239,7.172,2.239Zm0,0" fill="#bb2a22" stroke="#bb2a22" stroke-width="0.5"/>
      <path id="Path_349" data-name="Path 349" d="M313.557,269.937l-5.062,1.581a.7.7,0,0,0-.494.671V276.7a7.609,7.609,0,0,0,5.579,7.32.706.706,0,0,0,.372,0,7.609,7.609,0,0,0,5.579-7.32v-4.508a.7.7,0,0,0-.494-.671l-5.062-1.581a.7.7,0,0,0-.419,0Zm4.569,2.769V276.7a6.2,6.2,0,0,1-4.359,5.91,6.2,6.2,0,0,1-4.359-5.91v-3.991l4.359-1.361Zm0,0" transform="translate(-286.345 -250.927)" fill="#bb2a22" stroke="#bb2a22" stroke-width="0.5"/>
      <path id="Path_350" data-name="Path 350" d="M349.2,338.965a.7.7,0,0,0-.994.994l1.62,1.62a.7.7,0,0,0,.994,0l2.88-2.88a.7.7,0,1,0-.995-.995l-2.383,2.383Zm0,0" transform="translate(-323.532 -313.769)" fill="#bb2a22" stroke="#bb2a22" stroke-width="0.5"/>
      <path id="Path_351" data-name="Path 351" d="M123.9,97.988h-3.375a.7.7,0,0,0-.7.7V100.8h-2.109a.7.7,0,0,0-.7.7v3.375a.7.7,0,0,0,.7.7h2.109v2.109a.7.7,0,0,0,.7.7H123.9a.7.7,0,0,0,.7-.7v-2.109h2.109a.7.7,0,0,0,.7-.7V101.5a.7.7,0,0,0-.7-.7h-2.109V98.691A.7.7,0,0,0,123.9,97.988Zm2.109,4.219v1.969H123.9a.7.7,0,0,0-.7.7v2.109h-1.969v-2.109a.7.7,0,0,0-.7-.7h-2.109v-1.969h2.109a.7.7,0,0,0,.7-.7V99.395H123.2V101.5a.7.7,0,0,0,.7.7Zm0,0" transform="translate(-108.785 -91.098)" fill="#bb2a22" stroke="#bb2a22" stroke-width="0.5"/>
      <path id="Path_352" data-name="Path 352" d="M.7,227.406a.7.7,0,1,0-.5-1.2.7.7,0,0,0,.5,1.2Zm0,0" transform="translate(-0.001 -210.109)" fill="#bb2a22" stroke="#bb2a22" stroke-width="0.5"/>
    </g>
  </g>
</svg>
