<svg xmlns="http://www.w3.org/2000/svg" width="36.5" height="36.5" viewBox="0 0 36.5 36.5">
  <g id="badge" transform="translate(-33.25 0.25)">
    <g id="health-insurance" transform="translate(33.5)">
      <path id="Path_347" data-name="Path 347" d="M70.153,387.426a.7.7,0,0,0,0-1.406H61.715a.7.7,0,0,0,0,1.406Zm0,0" transform="translate(-56.723 -358.878)" fill="#bb2a22" stroke="#bb2a22" stroke-width="0.5"/>
      <path id="Path_348" data-name="Path 348" d="M35.506,18.522l-7.858-2.453a.7.7,0,0,0-.226-.038h0a.707.707,0,0,0-.225.037l-1.045.327v-9.5a.7.7,0,0,0-.206-.5L19.756.206a.7.7,0,0,0-.5-.206H2.109A2.112,2.112,0,0,0,0,2.109V13.43a.7.7,0,0,0,1.406,0V2.109a.7.7,0,0,1,.7-.7H18.556V5.581a2.015,2.015,0,0,0,2.012,2.013h4.175v9.24l-5.407,1.688a.7.7,0,0,0-.494.671v.071H4.992a.7.7,0,0,0,0,1.406H18.843V23.2H4.992a.7.7,0,0,0,0,1.406H18.843v1.16a10.375,10.375,0,0,0,1.918,6.012H2.109a.7.7,0,0,1-.7-.7V19.758a.7.7,0,0,0-1.406,0v11.32a2.112,2.112,0,0,0,2.109,2.109H21.957a10.372,10.372,0,0,0,5.331,2.8.7.7,0,0,0,.265,0A10.416,10.416,0,0,0,36,25.77V19.193a.7.7,0,0,0-.494-.671ZM20.568,6.188a.607.607,0,0,1-.606-.606V2.4l3.787,3.787ZM34.593,25.77a9.009,9.009,0,0,1-7.172,8.811,9.009,9.009,0,0,1-7.172-8.811V19.71l7.172-2.239,7.172,2.239Zm0,0" fill="#bb2a22" stroke="#bb2a22" stroke-width="0.5"/>
      <path id="Path_351" data-name="Path 351" d="M123.9,97.988h-3.375a.7.7,0,0,0-.7.7V100.8h-2.109a.7.7,0,0,0-.7.7v3.375a.7.7,0,0,0,.7.7h2.109v2.109a.7.7,0,0,0,.7.7H123.9a.7.7,0,0,0,.7-.7v-2.109h2.109a.7.7,0,0,0,.7-.7V101.5a.7.7,0,0,0-.7-.7h-2.109V98.691A.7.7,0,0,0,123.9,97.988Zm2.109,4.219v1.969H123.9a.7.7,0,0,0-.7.7v2.109h-1.969v-2.109a.7.7,0,0,0-.7-.7h-2.109v-1.969h2.109a.7.7,0,0,0,.7-.7V99.395H123.2V101.5a.7.7,0,0,0,.7.7Zm0,0" transform="translate(-108.785 -91.098)" fill="#bb2a22" stroke="#bb2a22" stroke-width="0.5"/>
      <path id="Path_352" data-name="Path 352" d="M.7,227.406a.7.7,0,1,0-.5-1.2.7.7,0,0,0,.5,1.2Zm0,0" transform="translate(-0.001 -210.109)" fill="#bb2a22" stroke="#bb2a22" stroke-width="0.5"/>
      <path id="Path_353" data-name="Path 353" d="M121.647,97.988h-2.27a.473.473,0,0,0-.473.473V99.88h-1.419a.473.473,0,0,0-.473.473v2.27a.473.473,0,0,0,.473.473H118.9v1.419a.473.473,0,0,0,.473.473h2.27a.473.473,0,0,0,.473-.473V103.1h1.419a.473.473,0,0,0,.473-.473v-2.27a.473.473,0,0,0-.473-.473H122.12V98.461A.473.473,0,0,0,121.647,97.988Zm1.419,2.838v1.324h-1.419a.473.473,0,0,0-.473.473v1.419H119.85v-1.419a.473.473,0,0,0-.473-.473h-1.419v-1.324h1.419a.473.473,0,0,0,.473-.473V98.934h1.324v1.419a.473.473,0,0,0,.473.473Zm0,0" transform="translate(-92.785 -76.099)" fill="#bb2a22" stroke="#bb2a22" stroke-width="0.5"/>
    </g>
  </g>
</svg>
