<svg xmlns="http://www.w3.org/2000/svg" width="24.758" height="24.758" viewBox="0 0 24.758 24.758">
  <g id="Executive" transform="translate(-33.371 0.129)">
    <g id="health-insurance" transform="translate(33.25 -0.25)">
      <path id="Path_348" data-name="Path 348" d="M24.319,12.686l-5.382-1.68a.48.48,0,0,0-.155-.026h0a.484.484,0,0,0-.154.026l-.716.224V4.72a.48.48,0,0,0-.141-.341L13.531.141A.479.479,0,0,0,13.191,0H1.444A1.446,1.446,0,0,0,0,1.445V9.2a.482.482,0,1,0,.963,0V1.445A.482.482,0,0,1,1.444.963H12.709V3.823A1.38,1.38,0,0,0,14.088,5.2h2.86V11.53l-3.7,1.156a.482.482,0,0,0-.338.46v.049H3.419a.482.482,0,0,0,0,.963h9.487v1.735H3.419a.482.482,0,0,0,0,.963h9.487v.795a7.106,7.106,0,0,0,1.314,4.118H1.444a.482.482,0,0,1-.482-.482V13.533a.482.482,0,0,0-.963,0v7.754a1.446,1.446,0,0,0,1.445,1.445h13.6a7.1,7.1,0,0,0,3.652,1.918.479.479,0,0,0,.181,0,7.135,7.135,0,0,0,5.785-7v-4.5a.482.482,0,0,0-.338-.46ZM14.088,4.238a.416.416,0,0,1-.415-.415V1.644l2.594,2.594ZM23.694,17.65a6.171,6.171,0,0,1-4.912,6.035,6.17,6.17,0,0,1-4.912-6.035V13.5l4.912-1.534L23.694,13.5Zm0,0" transform="translate(0.172 0.171)" fill="#fffbfb" stroke="#fff" stroke-width="0.1"/>
      <path id="Path_350" data-name="Path 350" d="M349.258,339.036a.737.737,0,1,0-1.042,1.042l1.7,1.7a.737.737,0,0,0,1.042,0l3.019-3.019a.737.737,0,0,0-1.042-1.042l-2.5,2.5Zm0,0" transform="translate(-332.043 -322.164)" fill="#fffbfb" stroke="#fff" stroke-width="0.1"/>
      <path id="Path_351" data-name="Path 351" d="M121.732,97.988H119.42a.482.482,0,0,0-.482.482v1.445h-1.445a.482.482,0,0,0-.482.482v2.312a.482.482,0,0,0,.482.482h1.445v1.445a.482.482,0,0,0,.482.482h2.312a.482.482,0,0,0,.482-.482v-1.445h1.445a.482.482,0,0,0,.482-.482V100.4a.482.482,0,0,0-.482-.482h-1.445V98.47A.482.482,0,0,0,121.732,97.988Zm1.445,2.89v1.348h-1.445a.482.482,0,0,0-.482.482v1.445H119.9v-1.445a.482.482,0,0,0-.482-.482h-1.445v-1.348h1.445a.482.482,0,0,0,.482-.482V98.951h1.348V100.4a.482.482,0,0,0,.482.482Zm0,0" transform="translate(-111.206 -93.098)" fill="#fffbfb" stroke="#fff" stroke-width="0.1"/>
      <path id="Path_352" data-name="Path 352" d="M.482,226.963a.482.482,0,1,0-.341-.822.482.482,0,0,0,.341.822Zm0,0" transform="translate(0.171 -214.945)" fill="#fffbfb" stroke="#fff" stroke-width="0.1"/>
    </g>
  </g>
</svg>
