<svg xmlns="http://www.w3.org/2000/svg" width="24.758" height="24.758" viewBox="0 0 24.758 24.758">
  <g id="Group_2225" data-name="Group 2225" transform="translate(-93.871 -477.871)">
    <g id="Group_2224" data-name="Group 2224">
      <path id="Path_348" data-name="Path 348" d="M24.319,12.686l-5.382-1.68a.48.48,0,0,0-.155-.026h0a.484.484,0,0,0-.154.026l-.716.224V4.72a.48.48,0,0,0-.141-.341L13.531.141A.479.479,0,0,0,13.191,0H1.444A1.446,1.446,0,0,0,0,1.445V9.2a.482.482,0,1,0,.963,0V1.445A.482.482,0,0,1,1.444.963H12.709V3.823A1.38,1.38,0,0,0,14.088,5.2h2.86V11.53l-3.7,1.156a.482.482,0,0,0-.338.46v.049H3.419a.482.482,0,0,0,0,.963h9.487v1.735H3.419a.482.482,0,0,0,0,.963h9.487v.795a7.106,7.106,0,0,0,1.314,4.118H1.444a.482.482,0,0,1-.482-.482V13.533a.482.482,0,0,0-.963,0v7.754a1.446,1.446,0,0,0,1.445,1.445h13.6a7.1,7.1,0,0,0,3.652,1.918.479.479,0,0,0,.181,0,7.135,7.135,0,0,0,5.785-7v-4.5a.482.482,0,0,0-.338-.46ZM14.088,4.238a.416.416,0,0,1-.415-.415V1.644l2.594,2.594ZM23.694,17.65a6.171,6.171,0,0,1-4.912,6.035,6.17,6.17,0,0,1-4.912-6.035V13.5l4.912-1.534L23.694,13.5Zm0,0" transform="translate(93.922 477.921)" fill="#fff" stroke="#fff" stroke-width="0.1"/>
      <path id="Path_351" data-name="Path 351" d="M121.732,97.988H119.42a.482.482,0,0,0-.482.482v1.445h-1.445a.482.482,0,0,0-.482.482v2.312a.482.482,0,0,0,.482.482h1.445v1.445a.482.482,0,0,0,.482.482h2.312a.482.482,0,0,0,.482-.482v-1.445h1.445a.482.482,0,0,0,.482-.482V100.4a.482.482,0,0,0-.482-.482h-1.445V98.47A.482.482,0,0,0,121.732,97.988Zm1.445,2.89v1.348h-1.445a.482.482,0,0,0-.482.482v1.445H119.9v-1.445a.482.482,0,0,0-.482-.482h-1.445v-1.348h1.445a.482.482,0,0,0,.482-.482V98.951h1.348V100.4a.482.482,0,0,0,.482.482Zm0,0" transform="translate(-17.456 384.652)" fill="#fff"/>
    </g>
    <path id="Path_352" data-name="Path 352" d="M.482,226.963a.482.482,0,1,0-.341-.822.482.482,0,0,0,.341.822Zm0,0" transform="translate(93.921 262.805)" fill="#fff"/>
    <path id="Path_353" data-name="Path 353" d="M120.187,97.988h-1.555a.324.324,0,0,0-.324.324v.972h-.972a.324.324,0,0,0-.324.324v1.555a.324.324,0,0,0,.324.324h.972v.972a.324.324,0,0,0,.324.324h1.555a.324.324,0,0,0,.324-.324v-.972h.972a.324.324,0,0,0,.324-.324V99.608a.324.324,0,0,0-.324-.324h-.972v-.972A.324.324,0,0,0,120.187,97.988Zm.972,1.944v.907h-.972a.324.324,0,0,0-.324.324v.972h-.907v-.972a.324.324,0,0,0-.324-.324h-.972v-.907h.972a.324.324,0,0,0,.324-.324v-.972h.907v.972a.324.324,0,0,0,.324.324Zm0,0" transform="translate(-6.497 394.926)" fill="#fff"/>
  </g>
</svg>
