<svg xmlns="http://www.w3.org/2000/svg" width="43.539" height="36" viewBox="0 0 43.539 36">
  <g id="Group_139" data-name="Group 139" transform="translate(-228.687 -207)">
    <path id="Union_2" data-name="Union 2" d="M-3294.312-5200.692s16.156.273,21.578,11.446c.114.589,1.329-2.563,4.91-5.716,3.318-2.92,8.666-5.841,17.051-5.785-1.971,1.643-21.961,12.651-21.961,12.651Zm3.009-4.22s13.828.234,18.467,9.8c.1.5,1.138-2.194,4.2-4.892,2.84-2.5,7.417-5,14.594-4.953-1.687,1.407-18.8,10.828-18.8,10.828Zm3.048-3.593s11.494.194,15.35,8.142c.08.419.946-1.823,3.493-4.065,2.359-2.078,6.164-4.156,12.129-4.116-1.4,1.168-15.622,9-15.622,9Zm3.163-3.042s9.218.156,12.312,6.532c.064.335.757-1.463,2.8-3.261a14.013,14.013,0,0,1,9.731-3.3c-1.125.937-12.531,7.218-12.531,7.218Zm3.007-3.015s6.915.118,9.234,4.9c.049.251.569-1.1,2.1-2.447a10.5,10.5,0,0,1,7.3-2.475c-.844.7-9.4,5.415-9.4,5.415Zm2.3-2.413s5.378.093,7.183,3.812c.037.2.441-.854,1.633-1.9a8.178,8.178,0,0,1,5.677-1.925c-.656.546-7.31,4.211-7.31,4.211Zm2.071-2.013s3.84.065,5.129,2.722c.026.14.316-.61,1.167-1.359a5.844,5.844,0,0,1,4.055-1.375c-.469.39-5.222,3.009-5.222,3.009Z" transform="translate(3523 5431.096)" fill="#bb2a22"/>
    <rect id="Rectangle_16" data-name="Rectangle 16" width="3" height="3.03" transform="translate(249.191 207)" fill="#bb2a22"/>
  </g>
</svg>
