<svg xmlns="http://www.w3.org/2000/svg" width="30.235" height="25" viewBox="0 0 30.235 25">
  <g id="Health_360" data-name="Health 360" transform="translate(-228.688 -207)">
    <path id="Union_2" data-name="Union 2" d="M0,11.792s11.219.176,14.984,7.372c.079.379.923-1.651,3.41-3.682,2.3-1.881,6.018-3.762,11.841-3.726C28.866,12.814,14.984,19.9,14.984,19.9ZM2.089,9.074s9.6.151,12.824,6.31c.067.325.791-1.413,2.919-3.151,1.972-1.611,5.151-3.22,10.134-3.19-1.172.906-13.053,6.974-13.053,6.974ZM4.206,6.76S12.187,6.885,14.865,12c.055.27.657-1.174,2.426-2.618a12.708,12.708,0,0,1,8.423-2.651c-.973.753-10.849,5.8-10.849,5.8ZM6.4,4.8s6.4.1,8.55,4.207c.045.216.526-.942,1.945-2.1a10.2,10.2,0,0,1,6.757-2.126c-.782.6-8.7,4.649-8.7,4.649ZM8.491,2.859s4.8.076,6.412,3.155c.034.162.395-.707,1.459-1.576a7.646,7.646,0,0,1,5.067-1.594C20.844,3.3,14.9,6.331,14.9,6.331Zm1.594-1.554s3.735.06,4.988,2.455c.025.126.307-.55,1.134-1.226a5.952,5.952,0,0,1,3.942-1.24c-.456.352-5.076,2.712-5.076,2.712Zm1.438-1.3s2.667.042,3.562,1.753c.018.09.219-.393.811-.876A4.255,4.255,0,0,1,18.712,0c-.326.251-3.627,1.938-3.627,1.938Z" transform="translate(228.688 212.096)" fill="#fff"/>
    <rect id="Rectangle_16" data-name="Rectangle 16" width="2.083" height="2.104" transform="translate(242.926 207)" fill="#fff"/>
  </g>
</svg>
