<svg xmlns="http://www.w3.org/2000/svg" width="40.553" height="36.5" viewBox="0 0 40.553 36.5">
  <g id="healthcare2" transform="translate(0.25 -25.655)">
    <path id="Path_354" data-name="Path 354" d="M.782,299.751H7.51a.782.782,0,0,0,.782-.782V298.2A16.7,16.7,0,0,1,14.26,299.7a17.788,17.788,0,0,0,7.331,1.621,21.685,21.685,0,0,0,6.356-1.44.782.782,0,1,0-.509-1.479,20.353,20.353,0,0,1-5.847,1.355,16.261,16.261,0,0,1-6.75-1.509,18.167,18.167,0,0,0-6.549-1.6V288.69a9.639,9.639,0,0,0,1.531-.6c1.542-.7,3.29-1.5,5.685-.154l3.776,2.125a2.351,2.351,0,0,0,1.151.3H25.5a1.564,1.564,0,0,1,.564,3.023,1.54,1.54,0,0,1-.564.106H17.55a.782.782,0,0,0,0,1.565H25.5a3.1,3.1,0,0,0,1.1-.2l.019-.006,9.734-3.6a1.565,1.565,0,0,1,1.237,2.873l-.527.253-.226-.453a.782.782,0,0,0-1.4.7l.208.416c-.512.235-1.094.5-1.731.778a.782.782,0,0,0,.63,1.432c1.539-.677,2.557-1.158,3.713-1.711a3.13,3.13,0,0,0-1.339-5.958,3.114,3.114,0,0,0-1.126.209l-7.212,2.666a3.079,3.079,0,0,0,.046-.529A3.133,3.133,0,0,0,25.5,288.8H20.436a.783.783,0,0,1-.384-.1l-3.777-2.125c-3.089-1.737-5.408-.679-7.1.094a4.862,4.862,0,0,1-1.664.566H.782a.782.782,0,0,0-.782.782v10.952a.782.782,0,0,0,.782.782ZM1.565,288.8H6.728v9.387H1.565Z" transform="translate(0 -239.411)" fill="#bb2a22" stroke="#bb2a22" stroke-width="0.5"/>
    <path id="Path_355" data-name="Path 355" d="M197.336,46.131a.782.782,0,0,0,.86,0c11.475-7.55,11.853-13.136,11.057-15.794a6.386,6.386,0,0,0-6.013-4.431,7.234,7.234,0,0,0-5.474,2.62,7.233,7.233,0,0,0-5.474-2.62,6.388,6.388,0,0,0-6.01,4.439C185.487,33,185.866,38.583,197.336,46.131Zm-9.555-15.338a4.856,4.856,0,0,1,4.511-3.323,5.908,5.908,0,0,1,4.8,2.759.782.782,0,0,0,1.349,0,5.961,5.961,0,0,1,4.8-2.757,4.854,4.854,0,0,1,4.514,3.315c.533,1.781.6,6.654-9.988,13.753C187.178,37.442,187.249,32.572,187.782,30.793Z" transform="translate(-171.472)" fill="#bb2a22" stroke="#bb2a22" stroke-width="0.5"/>
    <path id="Path_356" data-name="Path 356" d="M286.782,110.789h2.347v2.347a.782.782,0,0,0,1.565,0v-2.347h2.347a.782.782,0,1,0,0-1.565h-2.347v-2.347a.782.782,0,1,0-1.565,0v2.347h-2.347a.782.782,0,0,0,0,1.565Z" transform="translate(-263.627 -73.917)" fill="#bb2a22" stroke="#bb2a22" stroke-width="0.5"/>
    <circle id="Ellipse_22" data-name="Ellipse 22" cx="0.782" cy="0.782" r="0.782" transform="translate(30.196 57.681)" fill="#bb2a22" stroke="#bb2a22" stroke-width="0.5"/>
  </g>
</svg>
