<svg xmlns="http://www.w3.org/2000/svg" width="27.776" height="25" viewBox="0 0 27.776 25">
  <g id="health_360" data-name="health 360" transform="translate(0.25 -25.655)">
    <path id="Path_354" data-name="Path 354" d="M.536,295.3H5.144a.536.536,0,0,0,.536-.536v-.524a11.438,11.438,0,0,1,4.087,1.021,12.183,12.183,0,0,0,5.021,1.11,14.853,14.853,0,0,0,4.353-.986.536.536,0,1,0-.349-1.013,13.94,13.94,0,0,1-4,.928,11.138,11.138,0,0,1-4.623-1.033,12.444,12.444,0,0,0-4.485-1.1v-5.444a6.6,6.6,0,0,0,1.049-.41,3.794,3.794,0,0,1,3.894-.106l2.587,1.455a1.61,1.61,0,0,0,.789.207h3.47a1.071,1.071,0,0,1,.387,2.071,1.055,1.055,0,0,1-.387.072H12.02a.536.536,0,1,0,0,1.072h5.447a2.121,2.121,0,0,0,.755-.138l.013,0,6.667-2.465a1.072,1.072,0,0,1,1.459,1,1.077,1.077,0,0,1-.612.969l-.361.173-.155-.31a.536.536,0,0,0-.959.479l.142.285c-.351.161-.749.341-1.185.533a.536.536,0,0,0,.432.981c1.054-.464,1.752-.793,2.543-1.172a2.144,2.144,0,0,0-1.688-3.938l-4.94,1.826a2.109,2.109,0,0,0,.032-.362,2.146,2.146,0,0,0-2.143-2.143H14a.536.536,0,0,1-.263-.069l-2.587-1.455a4.8,4.8,0,0,0-4.864.065,3.33,3.33,0,0,1-1.14.388H.536a.536.536,0,0,0-.536.536v7.5a.536.536,0,0,0,.536.536Zm.536-7.5H4.608v6.43H1.072Z" transform="translate(-0.079 -245.891)" fill="#fff"/>
    <path id="Path_354_-_Outline" data-name="Path 354 - Outline" d="M14.71,296.467a12.328,12.328,0,0,1-5.085-1.122,11.445,11.445,0,0,0-3.853-1v.343a.708.708,0,0,1-.707.707H.457a.708.708,0,0,1-.707-.707v-7.5a.708.708,0,0,1,.707-.707H5.065a3.282,3.282,0,0,0,1.068-.372,6.256,6.256,0,0,1,2.654-.724,4.746,4.746,0,0,1,2.366.666L13.74,287.5a.365.365,0,0,0,.179.047h3.47a2.317,2.317,0,0,1,2.314,2.314q0,.052,0,.105l4.68-1.73a2.315,2.315,0,0,1,3.145,2.16,2.326,2.326,0,0,1-1.324,2.093c-.75.359-1.46.695-2.548,1.174a.707.707,0,0,1-.57-1.294c.339-.149.682-.3,1.022-.458l-.063-.126a.708.708,0,0,1,.316-.949.707.707,0,0,1,.949.316l.08.16.165-.079.043-.021a.9.9,0,0,0-.711-1.654l-6.67,2.466-.017.006a2.29,2.29,0,0,1-.81.147H11.942a.707.707,0,1,1,0-1.414h5.447a.884.884,0,0,0,.324-.061.9.9,0,0,0-.324-1.74h-3.47a1.782,1.782,0,0,1-.873-.229l-2.586-1.455a3.369,3.369,0,0,0-1.675-.478,4.92,4.92,0,0,0-2.064.59,7.8,7.8,0,0,1-.949.384v5.151a12.7,12.7,0,0,1,4.378,1.1,11,11,0,0,0,4.56,1.021,13.8,13.8,0,0,0,3.949-.919.707.707,0,1,1,.46,1.337A15,15,0,0,1,14.71,296.467Zm-9.28-2.482.179.008a11.568,11.568,0,0,1,4.143,1.033,12.039,12.039,0,0,0,4.958,1.1,14.7,14.7,0,0,0,4.3-.977.365.365,0,1,0-.237-.689,14.084,14.084,0,0,1-4.06.937,11.28,11.28,0,0,1-4.687-1.046,12.3,12.3,0,0,0-4.429-1.086l-.164-.007v-5.741l.128-.033a6.435,6.435,0,0,0,1.02-.4,5.262,5.262,0,0,1,2.207-.621,3.7,3.7,0,0,1,1.843.522l2.587,1.455a1.438,1.438,0,0,0,.7.185h3.47a1.243,1.243,0,0,1,.448,2.4,1.225,1.225,0,0,1-.448.084H11.942a.365.365,0,1,0,0,.729h5.447a1.949,1.949,0,0,0,.694-.127l.006,0,.011,0,6.664-2.464h0a1.243,1.243,0,0,1,.98,2.283l-.042.02-.318.153-.152.072-.23-.46a.365.365,0,0,0-.652.326l.221.443-.161.074c-.394.181-.794.36-1.188.534a.365.365,0,1,0,.294.667c1.083-.477,1.791-.812,2.538-1.169a1.972,1.972,0,0,0-.843-3.755,1.962,1.962,0,0,0-.71.132l-5.221,1.93.051-.293a1.945,1.945,0,0,0,.029-.333,1.974,1.974,0,0,0-1.972-1.972h-3.47a.708.708,0,0,1-.347-.091l-2.587-1.455a4.413,4.413,0,0,0-2.2-.622,5.972,5.972,0,0,0-2.511.693,3.4,3.4,0,0,1-1.211.4H.457a.365.365,0,0,0-.365.365v7.5a.365.365,0,0,0,.365.365H5.065a.365.365,0,0,0,.365-.365Zm-.729.338H.822v-6.772H4.7Zm-3.536-.342H4.358v-6.087H1.164Z" transform="translate(0 -245.812)" fill="#fff"/>
    <path id="Path_355" data-name="Path 355" d="M193.772,39.758a.536.536,0,0,0,.589,0c7.86-5.171,8.119-9,7.573-10.818a4.374,4.374,0,0,0-4.118-3.035,4.955,4.955,0,0,0-3.75,1.794,4.954,4.954,0,0,0-3.749-1.794,4.375,4.375,0,0,0-4.116,3.04C185.657,30.765,185.916,34.589,193.772,39.758Zm-6.544-10.505a3.326,3.326,0,0,1,3.09-2.276,4.047,4.047,0,0,1,3.287,1.889.536.536,0,0,0,.924,0,4.083,4.083,0,0,1,3.287-1.888,3.325,3.325,0,0,1,3.092,2.271c.365,1.22.414,4.558-6.841,9.42C186.814,33.807,186.863,30.471,187.228,29.253Z" transform="translate(-176.136 -0.079)" fill="#fff"/>
    <path id="Path_355_-_Outline" data-name="Path 355 - Outline" d="M193.988,39.939a.706.706,0,0,1-.389-.116c-7.949-5.231-8.2-9.14-7.641-11.005a4.55,4.55,0,0,1,4.28-3.162,5.108,5.108,0,0,1,3.749,1.709,5.109,5.109,0,0,1,3.75-1.709,4.549,4.549,0,0,1,4.282,3.157c.559,1.866.309,5.778-7.643,11.01A.705.705,0,0,1,193.988,39.939ZM190.239,26a4.2,4.2,0,0,0-3.952,2.918c-.531,1.774-.263,5.512,7.5,10.621a.37.37,0,0,0,.4,0c7.767-5.11,8.035-8.851,7.5-10.626A4.2,4.2,0,0,0,197.738,26a4.813,4.813,0,0,0-3.62,1.735l-.13.15-.13-.15A4.813,4.813,0,0,0,190.239,26Zm3.749,12.8-.1-.064c-3.162-2.119-5.293-4.183-6.332-6.135a4.53,4.53,0,0,1-.576-3.471,3.5,3.5,0,0,1,3.254-2.4,4.232,4.232,0,0,1,3.434,1.973.365.365,0,0,0,.629,0,4.261,4.261,0,0,1,3.435-1.973,3.5,3.5,0,0,1,3.256,2.393,4.534,4.534,0,0,1-.576,3.474c-1.04,1.953-3.171,4.018-6.334,6.138Zm-3.749-11.726a3.149,3.149,0,0,0-2.926,2.154,4.231,4.231,0,0,0,.55,3.212c1,1.882,3.063,3.882,6.125,5.947,3.063-2.066,5.125-4.067,6.127-5.95a4.235,4.235,0,0,0,.55-3.214,3.148,3.148,0,0,0-2.928-2.149,3.932,3.932,0,0,0-3.14,1.8.707.707,0,0,1-1.219,0A3.871,3.871,0,0,0,190.239,27.069Z" transform="translate(-176.057 0)" fill="#fff"/>
    <path id="Path_356" data-name="Path 356" d="M286.536,109.31h1.607v1.607a.536.536,0,0,0,1.072,0V109.31h1.607a.536.536,0,0,0,0-1.072h-1.607v-1.607a.536.536,0,1,0-1.072,0v1.607h-1.607a.536.536,0,0,0,0,1.072Z" transform="translate(-270.754 -75.972)" fill="#fff"/>
    <path id="Path_356_-_Outline" data-name="Path 356 - Outline" d="M288.6,111.546a.708.708,0,0,1-.707-.707V109.4h-1.436a.707.707,0,0,1,0-1.414h1.436v-1.436a.707.707,0,1,1,1.414,0v1.436h1.436a.707.707,0,1,1,0,1.414h-1.436v1.436A.708.708,0,0,1,288.6,111.546Zm-2.143-3.215a.365.365,0,0,0,0,.729h1.779v1.779a.365.365,0,0,0,.729,0V109.06h1.779a.365.365,0,1,0,0-.729h-1.779v-1.779a.365.365,0,0,0-.729,0v1.779Z" transform="translate(-270.676 -75.893)" fill="#fff"/>
    <circle id="Ellipse_22" data-name="Ellipse 22" cx="0.536" cy="0.536" r="0.536" transform="translate(20.604 47.59)" fill="#fff"/>
    <path id="Ellipse_22_-_Outline" data-name="Ellipse 22 - Outline" d="M.457-.25A.707.707,0,1,1-.25.457.708.708,0,0,1,.457-.25Zm0,1.072A.365.365,0,1,0,.092.457.365.365,0,0,0,.457.822Z" transform="translate(20.682 47.669)" fill="#fff"/>
  </g>
</svg>
