<svg xmlns="http://www.w3.org/2000/svg" width="42.618" height="37.5" viewBox="0 0 42.618 37.5">
  <g id="pcos_" data-name="pcos " transform="translate(0.831 -30.25)">
    <path id="Path_618" data-name="Path 618" d="M38.316,33.018c-2.352-1.728-5.528-1.608-8.335.216A25.344,25.344,0,0,0,20.477,31a25.35,25.35,0,0,0-9.5,2.232c-2.808-1.8-6.008-1.92-8.335-.192A6.907,6.907,0,0,0,0,38.842a9.788,9.788,0,0,0,.312,2.792C-.386,43.1.118,45.162,1.7,46.746c1.68,1.68,4.448,2.424,6.031.84,1.416-1.416,1.056-4.032-.84-5.928a5.275,5.275,0,0,0-4.472-1.63,7.213,7.213,0,0,1,0-1.184,4.6,4.6,0,0,1,1.63-3.88c1.512-1.1,3.608-.96,5.576.288-.6,6.669,1.869,11.733,6.717,18.236A4.473,4.473,0,0,0,15.1,55.817c-.768,3.456,1.155,8.663,3.336,10.823a1.125,1.125,0,0,0,.84.36h2.4a1.125,1.125,0,0,0,.84-.36c2.184-2.16,4.1-7.367,3.336-10.823A4.472,4.472,0,0,0,24.6,53.489c5.038-6.759,7.343-11.312,6.719-18.239,1.97-1.248,4.064-1.416,5.576-.312a4.665,4.665,0,0,1,1.63,3.984,7.369,7.369,0,0,1,0,1.1,5.126,5.126,0,0,0-4.392,1.63c-1.9,1.9-2.256,4.512-.84,5.928,1.584,1.608,4.272.815,5.952-.84,1.584-1.584,2.088-3.648,1.392-5.112a9.926,9.926,0,0,0,.312-2.712,6.931,6.931,0,0,0-2.639-5.9ZM25.808,40.482l-4.131,2.065V49a1.2,1.2,0,1,1-2.4,0V42.547l-4.128-2.065a1.2,1.2,0,1,1,1.056-2.16l4.272,2.136,4.272-2.136a1.2,1.2,0,1,1,1.06,2.16Z" transform="translate(0 0)" fill="none" stroke="#b72b25" stroke-width="1.5"/>
  </g>
</svg>
