<svg xmlns="http://www.w3.org/2000/svg" width="47.631" height="37.5" viewBox="0 0 47.631 37.5">
  <g id="Post_menopause" data-name="Post  menopause" transform="translate(0.06 678.915)">
    <g id="g1346" transform="translate(0.69 -678.165)">
      <g id="Group_17" data-name="Group 17" transform="translate(0 0)">
        <g id="g1354" transform="translate(13.794 3.98)">
          <path id="path1356" d="M-3.429,0A11.411,11.411,0,0,0,.988,11.623a4.732,4.732,0,0,0,0,6.7A5.909,5.909,0,0,1,2.719,22.5V32.02H8.541V22.5a5.909,5.909,0,0,1,1.731-4.178h0a4.732,4.732,0,0,0,0-6.7h0A11.411,11.411,0,0,0,14.689,0" transform="translate(3.688)" fill="none" stroke="#b72b25" stroke-linecap="round" stroke-linejoin="round" stroke-miterlimit="10" stroke-width="1.5"/>
        </g>
        <g id="g1358" transform="translate(39.854 8.085)">
          <path id="path1360" d="M0-31.818a2.406,2.406,0,0,1,2.406-2.406,2.406,2.406,0,0,1,2.406,2.406,2.406,2.406,0,0,1-2.406,2.406A2.406,2.406,0,0,1,0-31.818Z" transform="translate(0 34.224)" fill="none" stroke="#b72b25" stroke-linecap="round" stroke-linejoin="round" stroke-miterlimit="10" stroke-width="1.5"/>
        </g>
        <g id="g1362" transform="translate(1.483 8.085)">
          <path id="path1364" d="M-63.638-31.818a2.406,2.406,0,0,0-2.406-2.406,2.406,2.406,0,0,0-2.406,2.406,2.406,2.406,0,0,0,2.406,2.406A2.406,2.406,0,0,0-63.638-31.818Z" transform="translate(68.449 34.224)" fill="none" stroke="#b72b25" stroke-linecap="round" stroke-linejoin="round" stroke-miterlimit="10" stroke-width="1.5"/>
        </g>
        <g id="g1366" transform="translate(23.074 15.247)">
          <path id="path1368" d="M0,0V4.6" fill="none" stroke="#b72b25" stroke-linecap="round" stroke-linejoin="round" stroke-miterlimit="10" stroke-width="1.5"/>
        </g>
        <g id="g1370" transform="translate(18.439 4.64)">
          <path id="path1372" d="M-122.58-20.532a7.626,7.626,0,0,0-4.633-1.552,7.626,7.626,0,0,0-4.633,1.552,6.784,6.784,0,0,0,2.77,5.665,4.616,4.616,0,0,1,1.863,3.39,4.615,4.615,0,0,1,1.863-3.39A6.784,6.784,0,0,0-122.58-20.532Z" transform="translate(131.849 22.084)" fill="none" stroke="#b72b25" stroke-linecap="round" stroke-linejoin="round" stroke-miterlimit="10" stroke-width="1.5"/>
        </g>
        <g id="g1374" transform="translate(23.066 0)">
          <path id="path1376" d="M0,0H0" fill="none" stroke="#b72b25" stroke-linecap="round" stroke-linejoin="round" stroke-miterlimit="10" stroke-width="1.5"/>
        </g>
        <g id="g1378" transform="translate(27.223 0.714)">
          <path id="path1380" d="M-217.465-103.306l1.329-1.289A3.744,3.744,0,0,0-215-107.282h0a3.8,3.8,0,0,0-3.808-3.744,5.719,5.719,0,0,0-4.567,2.337,3.952,3.952,0,0,1-3.194,1.62,3.946,3.946,0,0,1-2.81-1.17,12.25,12.25,0,0,0-4.529-2.878" transform="translate(233.907 111.117)" fill="none" stroke="#b72b25" stroke-linecap="round" stroke-linejoin="round" stroke-miterlimit="10" stroke-width="1.5"/>
        </g>
        <g id="g1382" transform="translate(0 0.714)">
          <path id="path1384" d="M-32.613-103.306l-1.329-1.289a3.744,3.744,0,0,1-1.137-2.688h0a3.8,3.8,0,0,1,3.808-3.744,5.719,5.719,0,0,1,4.567,2.337,3.952,3.952,0,0,0,3.194,1.62,3.946,3.946,0,0,0,2.81-1.17,12.251,12.251,0,0,1,4.529-2.878" transform="translate(35.079 111.117)" fill="none" stroke="#b72b25" stroke-linecap="round" stroke-linejoin="round" stroke-miterlimit="10" stroke-width="1.5"/>
        </g>
      </g>
    </g>
  </g>
</svg>
