<svg xmlns="http://www.w3.org/2000/svg" width="26" height="26" viewBox="0 0 26 26">
  <g id="promotion" transform="translate(0 0)">
    <path id="Path_144" data-name="Path 144" d="M175.806,124.907l3.591-10.772a.762.762,0,0,0-1.445-.482l-3.591,10.772a.762.762,0,1,0,1.445.482Z" transform="translate(-165.469 -107.386)" fill="#fff"/>
    <path id="Path_145" data-name="Path 145" d="M266.818,193.773a2.285,2.285,0,1,0-2.285-2.285A2.288,2.288,0,0,0,266.818,193.773Zm0-3.047a.762.762,0,1,1-.762.762A.763.763,0,0,1,266.818,190.726Z" transform="translate(-251.099 -179.595)" fill="#fff"/>
    <path id="Path_146" data-name="Path 146" d="M97.112,189.2a2.285,2.285,0,1,0,2.285,2.285A2.288,2.288,0,0,0,97.112,189.2Zm0,3.047a.762.762,0,1,1,.762-.762A.763.763,0,0,1,97.112,192.25Z" transform="translate(-90.011 -179.595)" fill="#fff"/>
    <path id="Path_147" data-name="Path 147" d="M25.848,9.446,23.192,5.9l.1-.725a.762.762,0,0,0-.215-.646L21.464,2.916,23.08,1.3A.762.762,0,0,0,22,.223L20.387,1.839,18.771.223a.763.763,0,0,0-.646-.215L10.584,1.085a.762.762,0,0,0-.431.215L.817,10.637a2.8,2.8,0,0,0,0,3.95l7.9,7.9a2.786,2.786,0,0,0,.526.412v.309A2.8,2.8,0,0,0,12.035,26H23.207A2.8,2.8,0,0,0,26,23.207V9.9a.762.762,0,0,0-.152-.457ZM1.894,13.509a1.271,1.271,0,0,1,0-1.8l9.156-9.156,6.912-.987,1.347,1.347L18.232,3.994l-.539-.539a.762.762,0,0,0-1.077,1.077l2.154,2.154A.762.762,0,1,0,19.848,5.61l-.539-.539,1.077-1.077L21.733,5.34l-.987,6.912-9.156,9.156a1.27,1.27,0,0,1-1.8,0Zm22.583,9.7a1.271,1.271,0,0,1-1.27,1.27H12.035A1.271,1.271,0,0,1,10.77,23.3a2.782,2.782,0,0,0,1.9-.815L22,13.15a.762.762,0,0,0,.215-.431l.669-4.683,1.59,2.12Z" transform="translate(0)" fill="#fff"/>
  </g>
</svg>
