<svg xmlns="http://www.w3.org/2000/svg" width="12.021" height="13.678" viewBox="0 0 12.021 13.678">
  <g id="location_2_" data-name="location (2)" transform="translate(-31)">
    <g id="Group_1980" data-name="Group 1980" transform="translate(31)">
      <g id="Group_1979" data-name="Group 1979">
        <path id="Path_21629" data-name="Path 21629" d="M39.294,9.037c1.455-2.284,1.273-2,1.314-2.059a4.375,4.375,0,0,0,.81-2.544,4.408,4.408,0,1,0-7.983,2.576l1.291,2.026C33.347,9.249,31,9.881,31,11.273c0,.507.331,1.231,1.909,1.794a12.648,12.648,0,0,0,4.1.61c2.886,0,6.011-.814,6.011-2.4C43.021,9.881,40.677,9.25,39.294,9.037ZM34.106,6.57l-.014-.02a3.606,3.606,0,1,1,5.867-.04c-.039.051.163-.262-2.948,4.619Zm2.905,6.306c-3.152,0-5.209-.927-5.209-1.6,0-.455,1.057-1.2,3.4-1.493l1.472,2.31a.4.4,0,0,0,.676,0l1.472-2.31c2.342.291,3.4,1.039,3.4,1.493C42.22,11.944,40.181,12.876,37.011,12.876Z" transform="translate(-31)"/>
      </g>
    </g>
    <g id="Group_1982" data-name="Group 1982" transform="translate(35.007 2.431)">
      <g id="Group_1981" data-name="Group 1981">
        <path id="Path_21630" data-name="Path 21630" d="M183,91a2,2,0,1,0,2,2A2.006,2.006,0,0,0,183,91Zm0,3.206a1.2,1.2,0,1,1,1.2-1.2A1.2,1.2,0,0,1,183,94.206Z" transform="translate(-181 -91)"/>
      </g>
    </g>
  </g>
</svg>
