<svg xmlns="http://www.w3.org/2000/svg" width="22.116" height="25.132" viewBox="0 0 22.116 25.132">
  <g id="mammogram3" transform="translate(0)">
    <path id="Path_544" data-name="Path 544" d="M22.116,5.28H20.064c-.3-1.477-1.61-3.6-3.175-3.6H14.3V-2H7.818V1.683H4.579c-1.565,0-2.873,2.12-3.175,3.6H0V18.239H4.342a20.4,20.4,0,0,0-.411,4.245v.648H18.186v-.648a20.4,20.4,0,0,0-.411-4.245h4.342ZM4.579,2.979H9.114V-.7H13V2.979H16.89c.845,0,1.565,1.547,1.832,2.3H2.746c.267-.754.988-2.3,1.832-2.3Zm13.607,8.133a3.24,3.24,0,1,1-5.531-2.291L11.739,7.9a4.566,4.566,0,0,0-.681.868,4.565,4.565,0,0,0-.681-.868l-.916.916a3.24,3.24,0,1,1-5.531,2.291,3.368,3.368,0,0,1,1.3-2.59V6.576H16.89V8.522A3.344,3.344,0,0,1,18.186,11.112ZM7.171,15.648a4.537,4.537,0,0,0,3.888-2.2,4.535,4.535,0,0,0,4.656,2.136A9.862,9.862,0,0,0,16,16.943H6.112A9.862,9.862,0,0,0,6.4,15.582a4.548,4.548,0,0,0,.768.065ZM1.3,6.576H3.931V7.958a4.515,4.515,0,0,0,1.218,7.213,8.99,8.99,0,0,1-.391,1.772H1.3Zm15.58,15.26H5.24a19.222,19.222,0,0,1,.456-3.6H16.42A19.231,19.231,0,0,1,16.876,21.836Zm3.944-4.893H17.359a8.986,8.986,0,0,1-.391-1.772,4.515,4.515,0,0,0,1.218-7.213V6.576H20.82Z" transform="translate(0 2)" fill="#bb2a22"/>
    <path id="Path_545" data-name="Path 545" d="M302.944,212a1.944,1.944,0,1,0,1.944,1.944A1.946,1.946,0,0,0,302.944,212Zm0,2.592a.648.648,0,1,1,.648-.648A.649.649,0,0,1,302.944,214.592Z" transform="translate(-287.998 -200.832)" fill="#bb2a22"/>
  </g>
</svg>
