<svg xmlns="http://www.w3.org/2000/svg" width="22.388" height="25.432" viewBox="0 0 22.388 25.432">
  <g id="genome" transform="translate(0.15 0.15)">
    <path id="Path_513" data-name="Path 513" d="M240,24.4v.736h1.473V24.4a1.614,1.614,0,0,1,.252-.736h6.859a1.613,1.613,0,0,1,.252.736v.736h1.473V24.4c0-1.861-2.558-4.018-4.068-5.394,2.1-1.971,4.068-4.136,4.068-6.435s-1.968-4.513-4.068-6.484c1.527-1.391,4.068-3.5,4.068-5.345V0h-1.473V.736a1.613,1.613,0,0,1-.252.736h-6.859a1.614,1.614,0,0,1-.252-.736V0H240V.736c0,1.861,2.558,3.969,4.069,5.345-2.1,1.971-4.069,4.185-4.069,6.484s1.968,4.464,4.069,6.435C242.541,20.392,240,22.551,240,24.4Zm2.9-21.451h4.507c-.67.7-1.49,1.44-2.253,2.134C245.1,5.027,243.574,3.644,242.9,2.945Zm2.253,4.137c.615.575,1.208,1.162,1.74,1.754h-3.481C243.946,8.243,244.539,7.656,245.154,7.081Zm-2.886,3.226h5.773a5.43,5.43,0,0,1,.689,1.522h-7.151a5.43,5.43,0,0,1,.689-1.522Zm0,4.467a5.179,5.179,0,0,1-.689-1.473h7.151a5.18,5.18,0,0,1-.689,1.473Zm1.146,1.472h3.481c-.533.592-1.125,1.18-1.74,1.754C244.539,17.426,243.946,16.839,243.414,16.247ZM245.154,20c.752.683,1.58,1.434,2.253,2.134H242.9C243.57,21.442,244.39,20.7,245.154,20Zm0,0" transform="translate(-228.22 0)" fill="#bb2a22" stroke="#fff" stroke-width="0.3"/>
    <path id="Path_514" data-name="Path 514" d="M0,24.4v.736H1.473V24.4a1.613,1.613,0,0,1,.252-.736H8.584a1.613,1.613,0,0,1,.252.736v.736h1.473V24.4c0-1.861-2.558-4.018-4.068-5.394,2.1-1.971,4.068-4.136,4.068-6.435S8.34,8.052,6.239,6.081c1.527-1.391,4.068-3.5,4.068-5.345V0H8.835V.736a1.613,1.613,0,0,1-.252.736H1.724A1.613,1.613,0,0,1,1.473.736V0H0V.736C0,2.6,2.558,4.705,4.068,6.081,1.968,8.052,0,10.267,0,12.566S1.968,17.03,4.068,19C2.541,20.392,0,22.551,0,24.4ZM2.9,2.945H7.407c-.67.7-1.49,1.44-2.254,2.134C4.4,4.4,3.574,3.644,2.9,2.945ZM5.154,7.081c.615.575,1.208,1.162,1.74,1.754H3.414c.533-.592,1.126-1.179,1.74-1.754ZM2.267,10.308H8.04a5.429,5.429,0,0,1,.689,1.522H1.579a5.429,5.429,0,0,1,.689-1.522Zm0,4.467A5.179,5.179,0,0,1,1.579,13.3H8.729a5.178,5.178,0,0,1-.689,1.473Zm1.146,1.472H6.894c-.533.592-1.126,1.18-1.74,1.754-.615-.575-1.208-1.162-1.74-1.754ZM5.154,20c.752.683,1.58,1.434,2.254,2.134H2.9c.67-.7,1.49-1.44,2.254-2.134Zm0,0" transform="translate(0 0)" fill="#bb2a22" stroke="#fff" stroke-width="0.3"/>
  </g>
</svg>
