<svg xmlns="http://www.w3.org/2000/svg" width="24.06" height="25.631" viewBox="0 0 24.06 25.631">
  <g id="building" transform="translate(0.25 0.25)">
    <path id="Path_203" data-name="Path 203" d="M83.436,126H80.491a.491.491,0,0,0-.491.491v2.945a.491.491,0,0,0,.491.491h2.945a.491.491,0,0,0,.491-.491v-2.945A.491.491,0,0,0,83.436,126Zm-.491,2.945H80.982v-1.963h1.963Zm0,0" transform="translate(-76.073 -119.815)" fill="#bb2a22" stroke="#bb2a22" stroke-width="0.2"/>
    <path id="Path_204" data-name="Path 204" d="M203.436,126h-2.945a.491.491,0,0,0-.491.491v2.945a.491.491,0,0,0,.491.491h2.945a.491.491,0,0,0,.491-.491v-2.945A.491.491,0,0,0,203.436,126Zm-.491,2.945h-1.963v-1.963h1.963Zm0,0" transform="translate(-190.183 -119.815)" fill="#bb2a22" stroke="#bb2a22" stroke-width="0.2"/>
    <path id="Path_205" data-name="Path 205" d="M320,126.491v2.945a.491.491,0,0,0,.491.491h2.945a.491.491,0,0,0,.491-.491v-2.945a.491.491,0,0,0-.491-.491h-2.945A.491.491,0,0,0,320,126.491Zm.982.491h1.963v1.963h-1.963Zm0,0" transform="translate(-304.293 -119.815)" fill="#bb2a22" stroke="#bb2a22" stroke-width="0.2"/>
    <path id="Path_206" data-name="Path 206" d="M83.436,246H80.491a.491.491,0,0,0-.491.491v2.945a.491.491,0,0,0,.491.491h2.945a.491.491,0,0,0,.491-.491v-2.945A.491.491,0,0,0,83.436,246Zm-.491,2.945H80.982v-1.963h1.963Zm0,0" transform="translate(-76.073 -233.925)" fill="#bb2a22" stroke="#bb2a22" stroke-width="0.2"/>
    <path id="Path_207" data-name="Path 207" d="M203.436,246h-2.945a.491.491,0,0,0-.491.491v2.945a.491.491,0,0,0,.491.491h2.945a.491.491,0,0,0,.491-.491v-2.945A.491.491,0,0,0,203.436,246Zm-.491,2.945h-1.963v-1.963h1.963Zm0,0" transform="translate(-190.183 -233.925)" fill="#bb2a22" stroke="#bb2a22" stroke-width="0.2"/>
    <path id="Path_208" data-name="Path 208" d="M323.436,246h-2.945a.491.491,0,0,0-.491.491v2.945a.491.491,0,0,0,.491.491h2.945a.491.491,0,0,0,.491-.491v-2.945A.491.491,0,0,0,323.436,246Zm-.491,2.945h-1.963v-1.963h1.963Zm0,0" transform="translate(-304.293 -233.925)" fill="#bb2a22" stroke="#bb2a22" stroke-width="0.2"/>
    <path id="Path_210" data-name="Path 210" d="M18.161,0H5.4a.491.491,0,0,0-.491.491V3.24H2.454a.491.491,0,0,0-.491.491V24.149H.491a.491.491,0,1,0,0,.982H23.069a.491.491,0,0,0,0-.982H21.6V3.73a.491.491,0,0,0-.491-.491H18.652V.491A.491.491,0,0,0,18.161,0ZM5.89.982H17.67V3.24H5.89ZM15,24.149H12.271V21.126a.491.491,0,0,0-.982,0v3.024H8.56v-5.2H15Zm5.615,0H15.982V18.455a.491.491,0,0,0-.491-.491H8.069a.491.491,0,0,0-.491.491v5.694H2.945V4.221h17.67Zm0,0" fill="#bb2a22" stroke="#bb2a22" stroke-width="0.5"/>
  </g>
</svg>
