<svg xmlns="http://www.w3.org/2000/svg" width="22.362" height="26.132" viewBox="0 0 22.362 26.132">
  <g id="Group_25" data-name="Group 25" transform="translate(0.5 0.5)">
    <g id="file-download-svgrepo-com" transform="translate(0)">
      <g id="Group_84" data-name="Group 84" transform="translate(12.985 15.498)">
        <g id="Group_83" data-name="Group 83">
          <path id="Path_156" data-name="Path 156" d="M307,320.045a.418.418,0,0,0-.592,0l-.96.96v-4.853a.419.419,0,1,0-.838,0v4.853l-.96-.96a.419.419,0,0,0-.592.592l1.675,1.675a.419.419,0,0,0,.592,0L307,320.638A.418.418,0,0,0,307,320.045Z" transform="translate(-302.932 -315.734)" fill="#bb2a22" stroke="#bb2a22" stroke-width="1"/>
        </g>
      </g>
      <g id="Group_86" data-name="Group 86" transform="translate(8.796 12.566)">
        <g id="Group_85" data-name="Group 85">
          <path id="Path_157" data-name="Path 157" d="M223.883,256a6.283,6.283,0,1,0,6.283,6.283A6.29,6.29,0,0,0,223.883,256Zm0,11.728a5.445,5.445,0,1,1,5.445-5.445A5.451,5.451,0,0,1,223.883,267.728Z" transform="translate(-217.6 -256)" fill="#bb2a22" stroke="#bb2a22" stroke-width="1"/>
        </g>
      </g>
      <g id="Group_88" data-name="Group 88" transform="translate(0 19.686)">
        <g id="Group_87" data-name="Group 87">
          <path id="Path_158" data-name="Path 158" d="M47.616,404.418H39.239v-2.932a.419.419,0,1,0-.838,0v3.351a.419.419,0,0,0,.419.419h8.8a.419.419,0,0,0,0-.838Z" transform="translate(-38.401 -401.067)" fill="#bb2a22" stroke="#bb2a22" stroke-width="1"/>
        </g>
      </g>
      <g id="Group_90" data-name="Group 90" transform="translate(0 18.011)">
        <g id="Group_89" data-name="Group 89">
          <path id="Path_159" data-name="Path 159" d="M38.819,366.933a.419.419,0,0,0,0,.838h0a.419.419,0,0,0,0-.838Z" transform="translate(-38.4 -366.933)" fill="#bb2a22" stroke="#bb2a22" stroke-width="1"/>
        </g>
      </g>
      <g id="Group_92" data-name="Group 92">
        <g id="Group_91" data-name="Group 91">
          <path id="Path_160" data-name="Path 160" d="M55.869,6.824l-6.7-6.7a.418.418,0,0,0-.3-.123H38.819A.419.419,0,0,0,38.4.419V16.754a.419.419,0,0,0,.838,0V.838h9.215V7.121a.419.419,0,0,0,.419.419h6.283v3.77a.419.419,0,0,0,.838,0V7.121A.417.417,0,0,0,55.869,6.824ZM49.29,6.7V1.43L54.562,6.7H49.29Z" transform="translate(-38.4)" fill="#bb2a22" stroke="#bb2a22" stroke-width="1"/>
        </g>
      </g>
    </g>
  </g>
</svg>
