<svg xmlns="http://www.w3.org/2000/svg" width="21.987" height="25.132" viewBox="0 0 21.987 25.132">
  <g id="health-report" transform="translate(0)">
    <path id="Path_546" data-name="Path 546" d="M90.778,2.8H86.657V1.963a.736.736,0,0,0-.736-.736H82.73V.736a.736.736,0,0,0-1.473,0v.491H78.066a.736.736,0,0,0-.736.736V2.8H73.209A2.211,2.211,0,0,0,71,5.007V22.923a2.211,2.211,0,0,0,2.209,2.209H90.778a2.211,2.211,0,0,0,2.209-2.209V5.007A2.211,2.211,0,0,0,90.778,2.8ZM78.8,2.7h6.381V4.369H78.8ZM91.514,22.923a.737.737,0,0,1-.736.736H73.209a.737.737,0,0,1-.736-.736V5.007a.737.737,0,0,1,.736-.736H77.33V5.1a.736.736,0,0,0,.736.736H85.92a.736.736,0,0,0,.736-.736V4.271h4.121a.737.737,0,0,1,.736.736Z" transform="translate(-71)" fill="#bb2a22"/>
    <path id="Path_547" data-name="Path 547" d="M149.417,161.9l.7.351a.736.736,0,0,0,.659,0l.7-.351a8.973,8.973,0,0,0,3.988-3.988,4.084,4.084,0,0,0,.429-1.817,3.092,3.092,0,0,0-4.948-2.474l-.5.376-.5-.376A3.092,3.092,0,0,0,145,156.092a4.084,4.084,0,0,0,.429,1.817A8.973,8.973,0,0,0,149.417,161.9Zm-1.324-7.425a1.63,1.63,0,0,1,.972.324l.942.707a.736.736,0,0,0,.884,0l.942-.707a1.62,1.62,0,0,1,2.592,1.3,2.6,2.6,0,0,1-.273,1.159,7.491,7.491,0,0,1-3.329,3.329l-.373.187-.373-.187a7.491,7.491,0,0,1-3.329-3.329,2.6,2.6,0,0,1-.273-1.159A1.622,1.622,0,0,1,148.092,154.473Z" transform="translate(-139.455 -145.49)" fill="#bb2a22"/>
    <path id="Path_548" data-name="Path 548" d="M139.307,369h-1.571a.736.736,0,0,0,0,1.473h1.571a.736.736,0,1,0,0-1.473Z" transform="translate(-131.848 -350.887)" fill="#bb2a22"/>
    <path id="Path_549" data-name="Path 549" d="M239.234,369h-5.5a.736.736,0,1,0,0,1.473h5.5a.736.736,0,1,0,0-1.473Z" transform="translate(-223.136 -350.887)" fill="#bb2a22"/>
    <path id="Path_550" data-name="Path 550" d="M139.307,425h-1.571a.736.736,0,1,0,0,1.473h1.571a.736.736,0,0,0,0-1.473Z" transform="translate(-131.848 -404.138)" fill="#bb2a22"/>
    <path id="Path_551" data-name="Path 551" d="M239.234,425h-5.5a.736.736,0,1,0,0,1.473h5.5a.736.736,0,1,0,0-1.473Z" transform="translate(-223.136 -404.138)" fill="#bb2a22"/>
  </g>
</svg>
