<svg xmlns="http://www.w3.org/2000/svg" width="20.715" height="25.133" viewBox="0 0 20.715 25.133">
  <path id="microscope5" d="M64.146,22.924a2.212,2.212,0,0,0-1.3-2.014A8.817,8.817,0,0,0,61.2,9.719l2.564-2.564L62.725,6.113l2.989-2.989L62.59,0,59.6,2.989,58.56,1.948l-7.29,7.29L50.229,8.2,49.187,9.238,51.27,11.32l-.521.521a2.209,2.209,0,0,0,3.124,3.124l.521-.521,2.083,2.083,1.041-1.041-1.041-1.041,1.595-1.595a4.417,4.417,0,0,1-2.762,7.865H53.837V19.242h1.473V17.769H45v1.473h4.418v1.473h-.736a2.212,2.212,0,0,0-2.209,2.209v.736H45v1.473H65.619V23.66H64.146Zm-11.314-9a.736.736,0,0,1-1.041-1.041l.521-.521L53.353,13.4ZM62.59,2.083l1.041,1.041L61.684,5.072,60.643,4.031ZM58.56,4.031l3.124,3.124L55.436,13.4l-3.124-3.124ZM61.2,16.3A5.884,5.884,0,0,0,59.117,11.8l1.043-1.043A7.35,7.35,0,0,1,61.2,20.715H59.2A5.878,5.878,0,0,0,61.2,16.3ZM50.891,19.242h1.473v1.473H50.891ZM62.673,23.66H47.945v-.736a.737.737,0,0,1,.736-.736H61.937a.737.737,0,0,1,.736.736Z" transform="translate(-45 0)" fill="#bb2a22"/>
</svg>
