<svg xmlns="http://www.w3.org/2000/svg" width="23.622" height="24.711" viewBox="0 0 23.622 24.711">
  <g id="Group_150" data-name="Group 150" transform="translate(0.25 0.334)">
    <path id="home" d="M24.787,12.753,22.5,10.468,14.369,2.335a1.142,1.142,0,0,0-1.615,0L4.619,10.468,2.335,12.753A1.142,1.142,0,1,0,3.95,14.369l.335-.335V24.985a1.142,1.142,0,0,0,1.142,1.142H21.695a1.142,1.142,0,0,0,1.142-1.142V14.034l.335.335a1.142,1.142,0,1,0,1.615-1.615ZM20.552,23.842H6.57V11.749l6.991-6.991,6.991,6.991Z" transform="translate(-2 -2)" fill="#bb2a22" stroke="#fff" stroke-width="0.5"/>
    <path id="walking-men" d="M6.954,6.691,9.261,5.016a1.436,1.436,0,0,1,.895-.276A1.883,1.883,0,0,1,11.9,6.049a3.176,3.176,0,0,0,.367.851,3.594,3.594,0,0,0,2.878,1.438v1.44a5.028,5.028,0,0,1-3.889-1.833l-.5,2.847,1.484,1.245,1.6,4.4-1.353.492-1.468-4.034-2.44-2.048a1.44,1.44,0,0,1-.513-1.371L8.432,7.4l-.487.354L6.414,9.859,5.249,9.012,6.941,6.683Zm4.235-2.312a1.44,1.44,0,1,1,1.018-.422A1.44,1.44,0,0,1,11.188,4.379ZM9.049,13.867,6.735,16.624l-1.1-.925,2.142-2.553.537-1.569L9.6,12.657Z" transform="translate(1.381 4.89)" fill="#bb2a22"/>
  </g>
</svg>
