<svg xmlns="http://www.w3.org/2000/svg" width="22.549" height="25.132" viewBox="0 0 22.549 25.132">
  <g id="institution_1_" data-name="institution (1)" transform="translate(0)">
    <path id="Path_171" data-name="Path 171" d="M11.637.673.75,5.915V8.642H23.3V5.9ZM21.8,7.139H2.253V6.859L11.66,2.33,21.8,6.874Z" transform="translate(-0.75 -0.673)" fill="#bb2a22"/>
    <path id="Path_172" data-name="Path 172" d="M.75,23.261H23.3V18.375H.75Zm1.5-3.382H21.8v1.879H2.253Z" transform="translate(-0.75 1.872)" fill="#bb2a22"/>
    <path id="Path_173" data-name="Path 173" d="M4.575,9.75h-1.2v7.8h1.2Z" transform="translate(-1.275 0.656)" fill="#bb2a22" stroke="#bb2a22" stroke-width="0.5"/>
    <path id="Path_174" data-name="Path 174" d="M20.325,9.75h-1.2v7.8h1.2Z" transform="translate(0.125 0.656)" fill="#bb2a22" stroke="#bb2a22" stroke-width="0.5"/>
    <path id="Path_175" data-name="Path 175" d="M9.825,9.75h-1.2v7.8h1.2Z" transform="translate(-0.619 0.656)" fill="#bb2a22" stroke="#bb2a22" stroke-width="0.5"/>
    <path id="Path_176" data-name="Path 176" d="M15.075,9.75h-1.2v7.8h1.2Z" transform="translate(-0.532 0.656)" fill="#bb2a22" stroke="#bb2a22" stroke-width="0.5"/>
  </g>
</svg>
