<svg xmlns="http://www.w3.org/2000/svg" width="22.04" height="26.5" viewBox="0 0 22.04 26.5">
  <path id="pregnancy" d="M56.183,8.395a3.714,3.714,0,0,0,.081-5.959L53.225.142A.707.707,0,0,0,52.8,0H42.1a.73.73,0,0,0-.689.933L43.53,8.548a6.483,6.483,0,0,1-1,5.534A7.962,7.962,0,0,0,41,18.761v5.506a.725.725,0,0,0,.717.732h11.4a8.492,8.492,0,0,0,8.428-8.462A8.676,8.676,0,0,0,56.183,8.395Zm-.024,5.8c-.434-.443-.471-.466-.539-.6l-.533-1.053-.808.166-.007,1.354.869.889a.744.744,0,0,1,0,1.036.706.706,0,0,1-1.014,0l-.214-.219a4.624,4.624,0,0,0-1.394,1.254.707.707,0,0,1-1.009.147,1.92,1.92,0,0,0-2.627.244,2.046,2.046,0,0,0,0,2.7,1.928,1.928,0,0,0,2.835.069.708.708,0,0,1,.653-.2,3.713,3.713,0,0,0,3.652-.886,3.659,3.659,0,0,0,.661-4.161A2.825,2.825,0,0,0,56.158,14.2Z" transform="translate(-40.251 0.751)" fill="none" stroke="#bb2a22" stroke-width="1.5"/>
</svg>
