<svg xmlns="http://www.w3.org/2000/svg" width="22.116" height="25.132" viewBox="0 0 22.116 25.132">
  <g id="Group_107" data-name="Group 107" transform="translate(0 0)">
    <path id="Path_166" data-name="Path 166" d="M21.256,0H.86A.924.924,0,0,0,0,.979V24.156a.924.924,0,0,0,.86.977h20.4a.924.924,0,0,0,.86-.977V.979A.924.924,0,0,0,21.256,0ZM20.4,23.179H1.72V1.956H20.4Z" transform="translate(0 -0.002)" fill="#bb2a22"/>
    <path id="Path_167" data-name="Path 167" d="M111.674,104.039a.81.81,0,0,0-1.216,0l-3.289,3.737a1.073,1.073,0,0,0,0,1.382.789.789,0,0,0,1.216,0l1.821-2.07v8.172a.867.867,0,1,0,1.72,0v-8.172l1.821,2.07a.789.789,0,0,0,1.216,0,1.073,1.073,0,0,0,0-1.382Z" transform="translate(-100.008 -96.144)" fill="#bb2a22"/>
    <path id="Path_168" data-name="Path 168" d="M53.184,56.539H66.817a.985.985,0,0,0,0-1.954H53.184a.985.985,0,0,0,0,1.954Z" transform="translate(-48.943 -50.577)" fill="#bb2a22"/>
  </g>
</svg>
