<svg xmlns="http://www.w3.org/2000/svg" width="19.536" height="25.53" viewBox="0 0 19.536 25.53">
  <g id="pregnant" transform="translate(-61.084 0.2)">
    <path id="Path_592" data-name="Path 592" d="M157.021,16.59l0-6.236a3.925,3.925,0,0,0-3.7-3.917,3.679,3.679,0,1,0-2.729.913,3.992,3.992,0,0,0-1.423,3.053v1.34a6.31,6.31,0,0,0-4.638,2.489,5.721,5.721,0,0,0,3.433,8.857l-.376,1.06a.737.737,0,0,0,.694.983h9.556a.736.736,0,0,0,.736-.736V20.667A6.08,6.08,0,0,0,157.021,16.59ZM148.678,3.681a2.209,2.209,0,1,1,2.209,2.209A2.211,2.211,0,0,1,148.678,3.681Zm-2.941,11.4a4.164,4.164,0,0,1,2.7-1.711l1.6-.284a.736.736,0,0,0,.608-.725V10.4A2.486,2.486,0,0,1,153.1,7.9a2.454,2.454,0,0,1,2.452,2.452l0,6.255-4.313,3.243-.884-1.136,3.517-2.614a.736.736,0,0,0,.3-.591l0-5.154a.736.736,0,0,0-.736-.736h0a.736.736,0,0,0-.736.736l0,4.784-6.78,5.039a4.255,4.255,0,0,1-.176-5.1Zm1.318,6.087,2.114-1.571.889,1.143-1.312.987A4.155,4.155,0,0,1,147.055,21.166ZM157.1,23.658h-7.777l.256-.721,6.641-4.993a4.616,4.616,0,0,1,.88,2.723v2.991Z" transform="translate(-78.157)" fill="#fff" stroke="#bb2a22" stroke-width="0.4"/>
    <path id="Path_593" data-name="Path 593" d="M63.525,276.269l-1.259-.4a.736.736,0,0,0-.443,1.4l1.259.4a.736.736,0,0,0,.443-1.4Z" transform="translate(0 -262.299)" fill="#fff" stroke="#bb2a22" stroke-width="0.4"/>
    <path id="Path_594" data-name="Path 594" d="M172.942,166.851a.736.736,0,1,0,1.4-.443l-.4-1.259a.736.736,0,0,0-1.4.443Z" transform="translate(-105.745 -156.554)" fill="#fff" stroke="#bb2a22" stroke-width="0.4"/>
    <path id="Path_595" data-name="Path 595" d="M105.5,207.784l-.934-.934a.736.736,0,1,0-1.041,1.041l.934.934a.736.736,0,1,0,1.041-1.041Z" transform="translate(-39.938 -196.493)" fill="#fff" stroke="#bb2a22" stroke-width="0.4"/>
  </g>
</svg>
