<svg xmlns="http://www.w3.org/2000/svg" width="27.379" height="36" viewBox="0 0 27.379 36">
  <g id="pregnant" transform="translate(-61.308)">
    <path id="Path_592" data-name="Path 592" d="M162.87,23.766l0-8.934a5.623,5.623,0,0,0-5.295-5.611,5.271,5.271,0,1,0-3.91,1.308,5.718,5.718,0,0,0-2.038,4.373v1.919c-.658.22-4.223.13-6.644,3.565A8.2,8.2,0,0,0,149.9,33.074l-.539,1.518A1.055,1.055,0,0,0,150.354,36h13.689a1.055,1.055,0,0,0,1.055-1.055V29.606A8.71,8.71,0,0,0,162.87,23.766ZM150.918,5.273a3.164,3.164,0,1,1,3.164,3.164A3.168,3.168,0,0,1,150.918,5.273ZM146.705,21.6a5.965,5.965,0,0,1,3.861-2.451l2.3-.406a1.055,1.055,0,0,0,.871-1.039V14.9a3.561,3.561,0,0,1,3.512-3.581,3.515,3.515,0,0,1,3.512,3.512l0,8.96-6.179,4.646-1.267-1.628,5.039-3.745a1.055,1.055,0,0,0,.426-.846l0-7.384a1.055,1.055,0,0,0-1.054-1.055h0a1.055,1.055,0,0,0-1.055,1.054l0,6.854-9.713,7.219a6.1,6.1,0,0,1-.252-7.307Zm1.888,8.719,3.029-2.251,1.274,1.637-1.88,1.414A5.952,5.952,0,0,1,148.593,30.321Zm14.4,3.57H151.848l.367-1.032,9.513-7.153a6.612,6.612,0,0,1,1.261,3.9v4.284Z" transform="translate(-76.412)" fill="#bb2a22"/>
    <path id="Path_593" data-name="Path 593" d="M64.484,276.455l-1.8-.569a1.055,1.055,0,1,0-.634,2.012l1.8.569a1.055,1.055,0,0,0,.634-2.012Z" transform="translate(0 -256.442)" fill="#bb2a22"/>
    <path id="Path_594" data-name="Path 594" d="M173.129,167.81a1.055,1.055,0,1,0,2.012-.634l-.569-1.8a1.055,1.055,0,0,0-2.012.634Z" transform="translate(-103.384 -153.058)" fill="#bb2a22"/>
    <path id="Path_595" data-name="Path 595" d="M106.446,208.281l-1.338-1.338a1.055,1.055,0,0,0-1.492,1.492l1.338,1.338a1.055,1.055,0,0,0,1.492-1.492Z" transform="translate(-39.047 -192.106)" fill="#bb2a22"/>
  </g>
</svg>
