<svg xmlns="http://www.w3.org/2000/svg" width="21.252" height="25.057" viewBox="0 0 21.252 25.057">
  <path id="pregnancy" d="M55.748,7.977a3.484,3.484,0,0,0,.078-5.662L52.875.135A.7.7,0,0,0,52.462,0H42.068a.7.7,0,0,0-.67.886l2.059,7.237a6.053,6.053,0,0,1-.974,5.258A7.456,7.456,0,0,0,41,17.828V23.06a.7.7,0,0,0,.7.7H52.766a8.161,8.161,0,0,0,8.186-8.042A8.244,8.244,0,0,0,55.748,7.977Zm-.024,5.514c-.421-.421-.458-.443-.524-.57l-.518-1-.785.157-.007,1.287.844.845a.7.7,0,1,1-.984.984l-.207-.208a4.459,4.459,0,0,0-1.354,1.192.7.7,0,0,1-.98.14,1.9,1.9,0,1,0,.2,2.861.7.7,0,0,1,.634-.189,3.663,3.663,0,0,0,3.547-.842,3.421,3.421,0,0,0,.642-3.954A2.686,2.686,0,0,0,55.724,13.491Z" transform="translate(-40.351 0.651)" fill="none" stroke="#fff" stroke-width="1.3"/>
</svg>
