<svg xmlns="http://www.w3.org/2000/svg" width="25.63" height="25.631" viewBox="0 0 25.63 25.631">
  <g id="sonography" transform="translate(0.249 0.25)">
    <path id="Path_587" data-name="Path 587" d="M18.456,14.774a2.211,2.211,0,0,0,2.209-2.209V2.209A2.211,2.211,0,0,0,18.456,0H3.731A2.211,2.211,0,0,0,1.523,2.209V12.565a2.211,2.211,0,0,0,2.209,2.209H8.885V16.3H2.946a2.945,2.945,0,0,0,0,5.89H7.539a2.212,2.212,0,0,0,2.082,1.472H14.9a2.212,2.212,0,0,0,2.082,1.472h1.472a.736.736,0,0,0,.736-.736V18.5a.736.736,0,0,0-.736-.736H16.983A2.212,2.212,0,0,0,14.9,19.24H9.621a2.212,2.212,0,0,0-2.082,1.472H2.946a1.472,1.472,0,0,1,0-2.945H14.038a.736.736,0,0,0,0-1.472H13.3V14.774ZM16.983,19.24h.736v4.417h-.736a.737.737,0,0,1-.736-.736V19.976A.737.737,0,0,1,16.983,19.24ZM9.621,20.713h5.154v1.472H9.621a.736.736,0,0,1,0-1.472ZM3,12.565V2.209a.737.737,0,0,1,.736-.736H18.456a.737.737,0,0,1,.736.736V12.565a.737.737,0,0,1-.736.736H3.731A.737.737,0,0,1,3,12.565ZM11.83,16.3H10.357V14.774H11.83Z" fill="#fff" stroke="#bb2a22" stroke-width="0.5"/>
    <path id="Path_588" data-name="Path 588" d="M464.461,362.313a.736.736,0,1,0-1.207.843,4.407,4.407,0,0,1,0,5.046.736.736,0,0,0,1.207.843,5.879,5.879,0,0,0,0-6.733Z" transform="translate(-440.39 -344.231)" fill="#fff" stroke="#bb2a22" stroke-width="0.5"/>
    <path id="Path_589" data-name="Path 589" d="M410.787,392.188a.736.736,0,0,0-.058,1.04,1.472,1.472,0,0,1,0,1.963.736.736,0,1,0,1.1.982,2.945,2.945,0,0,0,0-3.927A.736.736,0,0,0,410.787,392.188Z" transform="translate(-390.391 -372.76)" fill="#fff" stroke="#bb2a22" stroke-width="0.5"/>
    <path id="Path_590" data-name="Path 590" d="M117.038,114.2a.736.736,0,0,0,.307-1.04l-2.286-3.81a.736.736,0,0,0-.921-.3,6.625,6.625,0,0,1-5.193,0,.736.736,0,0,0-.921.3l-2.286,3.81a.736.736,0,0,0,.307,1.04,12.506,12.506,0,0,0,10.992,0Zm-8.067-3.563a8.114,8.114,0,0,0,5.143,0l1.542,2.569a11.053,11.053,0,0,1-8.226,0Z" transform="translate(-100.449 -103.642)" fill="#fff" stroke="#bb2a22" stroke-width="0.5"/>
    <path id="Path_591" data-name="Path 591" d="M301.737,61.472h1.472a.736.736,0,1,0,0-1.472h-1.472a.736.736,0,1,0,0,1.472Z" transform="translate(-286.226 -57.055)" fill="#fff" stroke="#bb2a22" stroke-width="0.5"/>
    <circle id="Ellipse_23" data-name="Ellipse 23" cx="0.736" cy="0.736" r="0.736" transform="translate(4.467 2.945)" fill="#fff" stroke="#bb2a22" stroke-width="0.5"/>
  </g>
</svg>
