<svg xmlns="http://www.w3.org/2000/svg" width="36" height="36" viewBox="0 0 36 36">
  <g id="sonography" transform="translate(-0.001)">
    <path id="Path_587" data-name="Path 587" d="M26.438,21.164A3.168,3.168,0,0,0,29.6,18V3.164A3.168,3.168,0,0,0,26.438,0H5.345A3.168,3.168,0,0,0,2.181,3.164V18a3.168,3.168,0,0,0,3.164,3.164h7.383v2.18H4.22a4.219,4.219,0,0,0,0,8.437H10.8a3.169,3.169,0,0,0,2.983,2.109h7.564A3.169,3.169,0,0,0,24.329,36h2.109a1.055,1.055,0,0,0,1.055-1.055V26.508a1.055,1.055,0,0,0-1.055-1.055H24.329a3.169,3.169,0,0,0-2.983,2.109H13.782A3.169,3.169,0,0,0,10.8,29.672H4.22a2.109,2.109,0,1,1,0-4.219H20.11a1.055,1.055,0,0,0,0-2.109H19.056v-2.18Zm-2.109,6.4h1.055v6.328H24.329a1.056,1.056,0,0,1-1.055-1.055V28.617A1.056,1.056,0,0,1,24.329,27.562ZM13.782,29.672h7.383v2.109H13.782a1.055,1.055,0,0,1,0-2.109ZM4.29,18V3.164A1.056,1.056,0,0,1,5.345,2.109H26.438a1.056,1.056,0,0,1,1.055,1.055V18a1.056,1.056,0,0,1-1.055,1.055H5.345A1.056,1.056,0,0,1,4.29,18Zm12.656,5.344H14.837v-2.18h2.109Z" fill="#bb2a22"/>
    <path id="Path_588" data-name="Path 588" d="M465.041,362.449a1.055,1.055,0,0,0-1.729,1.208,6.313,6.313,0,0,1,0,7.229,1.055,1.055,0,0,0,1.729,1.208,8.423,8.423,0,0,0,0-9.646Z" transform="translate(-430.557 -336.545)" fill="#bb2a22"/>
    <path id="Path_589" data-name="Path 589" d="M410.893,392.269a1.055,1.055,0,0,0-.083,1.489,2.11,2.11,0,0,1,0,2.812,1.055,1.055,0,1,0,1.572,1.407,4.219,4.219,0,0,0,0-5.625A1.055,1.055,0,0,0,410.893,392.269Z" transform="translate(-381.675 -364.438)" fill="#bb2a22"/>
    <path id="Path_590" data-name="Path 590" d="M121.971,116.451a1.055,1.055,0,0,0,.44-1.49l-3.274-5.457a1.055,1.055,0,0,0-1.319-.427,9.49,9.49,0,0,1-7.439,0,1.055,1.055,0,0,0-1.319.427l-3.274,5.457a1.055,1.055,0,0,0,.44,1.489,17.915,17.915,0,0,0,15.746,0Zm-11.557-5.1a11.624,11.624,0,0,0,7.368,0l2.208,3.681a15.835,15.835,0,0,1-11.785,0Z" transform="translate(-98.206 -101.328)" fill="#bb2a22"/>
    <path id="Path_591" data-name="Path 591" d="M302.056,62.109h2.109a1.055,1.055,0,1,0,0-2.109h-2.109a1.055,1.055,0,1,0,0,2.109Z" transform="translate(-279.836 -55.781)" fill="#bb2a22"/>
    <circle id="Ellipse_23" data-name="Ellipse 23" cx="1.055" cy="1.055" r="1.055" transform="translate(6.399 4.219)" fill="#bb2a22"/>
  </g>
</svg>
