<svg xmlns="http://www.w3.org/2000/svg" width="23.859" height="25.43" viewBox="0 0 23.859 25.43">
  <g id="Corporate" transform="translate(0.15 0.15)">
    <path id="Path_203" data-name="Path 203" d="M83.436,126H80.491a.491.491,0,0,0-.491.491v2.945a.491.491,0,0,0,.491.491h2.945a.491.491,0,0,0,.491-.491v-2.945A.491.491,0,0,0,83.436,126Zm-.491,2.945H80.982v-1.963h1.963Zm0,0" transform="translate(-76.073 -119.816)" fill="#fff" stroke="#fff" stroke-width="0.3"/>
    <path id="Path_204" data-name="Path 204" d="M203.436,126h-2.945a.491.491,0,0,0-.491.491v2.945a.491.491,0,0,0,.491.491h2.945a.491.491,0,0,0,.491-.491v-2.945A.491.491,0,0,0,203.436,126Zm-.491,2.945h-1.963v-1.963h1.963Zm0,0" transform="translate(-190.184 -119.816)" fill="#fff" stroke="#fff" stroke-width="0.3"/>
    <path id="Path_205" data-name="Path 205" d="M320,126.491v2.945a.491.491,0,0,0,.491.491h2.945a.491.491,0,0,0,.491-.491v-2.945a.491.491,0,0,0-.491-.491h-2.945A.491.491,0,0,0,320,126.491Zm.982.491h1.963v1.963h-1.963Zm0,0" transform="translate(-304.294 -119.816)" fill="#fff" stroke="#fff" stroke-width="0.3"/>
    <path id="Path_210" data-name="Path 210" d="M18.16,0H5.4a.491.491,0,0,0-.491.491V3.239H2.454a.491.491,0,0,0-.491.491V24.148H.491a.491.491,0,0,0,0,.982H23.069a.491.491,0,0,0,0-.982H21.6V3.73a.491.491,0,0,0-.491-.491H18.651V.491A.491.491,0,0,0,18.16,0ZM5.89.982H17.67V3.239H5.89Zm7.853,23.167H12.271V22.381a.491.491,0,1,0-.982,0v1.767H9.816v-5.2h3.927Zm6.871,0h-5.89V18.455a.491.491,0,0,0-.491-.491H9.326a.491.491,0,0,0-.491.491v5.694H2.945V4.221h17.67Zm0,0" fill="#fff" stroke="#fff" stroke-width="0.3"/>
  </g>
</svg>
