<svg xmlns="http://www.w3.org/2000/svg" width="14.544" height="15.3" viewBox="0 0 14.544 15.3">
  <path id="Path_693" data-name="Path 693" d="M26.153,1.642H25.88V.8a.8.8,0,1,0-1.591,0v.846h-.981V.8a.8.8,0,1,0-1.591,0v.846h-.981V.8a.8.8,0,1,0-1.591,0v.846h-.981V.8a.8.8,0,1,0-1.591,0v.846h-.981V.8A.8.8,0,1,0,14,.8v.846h-.273a.911.911,0,0,0-.91.91V14.09a.911.911,0,0,0,.91.91H22.2a.221.221,0,1,0,0-.442H13.729a.469.469,0,0,1-.468-.468V4.629h2.823a.221.221,0,0,0,0-.442H13.261V2.552a.469.469,0,0,1,.468-.468H14V2.41a.8.8,0,0,0,1.591,0V2.084h.981V2.41a.8.8,0,0,0,1.591,0V2.084h.981V2.41a.8.8,0,0,0,1.591,0V2.084h.981V2.41a.8.8,0,1,0,1.591,0V2.084h.981V2.41a.8.8,0,1,0,1.591,0V2.084h.273a.469.469,0,0,1,.468.468V4.186H16.97a.221.221,0,0,0,0,.442h9.651V14.09a.469.469,0,0,1-.468.468H23.087a.221.221,0,0,0,0,.442h3.066a.911.911,0,0,0,.91-.91V2.552a.911.911,0,0,0-.91-.91Zm-11,.769a.353.353,0,1,1-.706,0V.8a.353.353,0,0,1,.706,0V2.41Zm2.572,0a.353.353,0,0,1-.706,0V.8a.353.353,0,0,1,.706,0Zm2.572,0a.353.353,0,1,1-.706,0V.8a.353.353,0,1,1,.706,0Zm2.572,0a.353.353,0,0,1-.706,0V.8a.353.353,0,0,1,.706,0Zm2.572,0a.353.353,0,1,1-.706,0V.8a.353.353,0,1,1,.706,0Z" transform="translate(-12.669 0.15)" fill="#bb2a22" stroke="#bb2a22" stroke-width="0.3"/>
</svg>
