<svg xmlns="http://www.w3.org/2000/svg" width="66.129" height="89.508" viewBox="0 0 66.129 89.508">
  <g id="pin" transform="translate(-48.08)">
    <g id="Group_290" data-name="Group 290" transform="translate(48.08)">
      <g id="Group_289" data-name="Group 289" transform="translate(0)">
        <path id="Path_694" data-name="Path 694" d="M81.145,0A33.1,33.1,0,0,0,48.08,33.065c0,6,2.692,12.458,2.8,12.73a53.321,53.321,0,0,0,3.822,7.148l22.671,34.35a4.312,4.312,0,0,0,7.535,0l22.673-34.352a53.1,53.1,0,0,0,3.822-7.148c.113-.27,2.8-6.726,2.8-12.73A33.1,33.1,0,0,0,81.145,0ZM107.82,44.285a48.858,48.858,0,0,1-3.483,6.516L81.664,85.153c-.447.679-.589.679-1.037,0L57.955,50.8a48.88,48.88,0,0,1-3.483-6.518c-.033-.08-2.5-6.022-2.5-11.219a29.175,29.175,0,0,1,58.349,0C110.319,38.269,107.845,44.227,107.82,44.285Z" transform="translate(-48.08 0)" fill="#bb2a22"/>
        <path id="Path_695" data-name="Path 695" d="M129.585,64.008a17.5,17.5,0,1,0,17.5,17.5A17.525,17.525,0,0,0,129.585,64.008Zm0,31.12A13.615,13.615,0,1,1,143.2,81.513,13.631,13.631,0,0,1,129.585,95.128Z" transform="translate(-96.52 -48.446)" fill="#bb2a22"/>
      </g>
    </g>
  </g>
</svg>
