<svg xmlns="http://www.w3.org/2000/svg" width="26" height="26.099" viewBox="0 0 26 26.099">
  <g id="Group_115" data-name="Group 115" transform="translate(-61 -258.401)">
    <path id="home" d="M25.667,12.7l-2.273-2.273L14.3,1.333a1.136,1.136,0,0,0-1.607,0L3.606,10.424,1.333,12.7A1.136,1.136,0,1,0,2.94,14.3l.333-.333V24.864A1.136,1.136,0,0,0,4.409,26H22.591a1.136,1.136,0,0,0,1.136-1.136V13.971l.333.333A1.136,1.136,0,1,0,25.667,12.7ZM21.455,23.727H5.545V11.7L13.5,3.743,21.455,11.7Z" transform="translate(60.5 258)" fill="#fff" stroke="#b72921" stroke-width="1"/>
    <path id="walk" d="M16.408,14.521a1.083,1.083,0,0,1-1.082-1.082V10.676a.142.142,0,0,0-.045-.1l-.823-.766-.512,1.087a.632.632,0,0,1-.065.108l-1.922,2.571a1.09,1.09,0,0,1-.721.492A1.1,1.1,0,0,1,10.1,12.386l1.774-2.533a.138.138,0,0,0,.02-.043L13.055,5.7a.139.139,0,0,0-.032-.134A.154.154,0,0,0,13,5.542l-.84,1.883a.953.953,0,1,1-1.747-.761l1.11-2.471a1,1,0,0,1,.408-.421l.031-.014,2.3-.865a.622.622,0,0,1,.474.013l1.421.629a.627.627,0,0,1,.3.279l.4.761a.144.144,0,0,0,.06.059l2.2,1.157a.992.992,0,1,1-.92,1.758l-2.066-1.1a.142.142,0,0,0-.2.085l-.272.93a.142.142,0,0,0,.022.123l1.679,2.3a.733.733,0,0,1,.142.435v3.119a1.083,1.083,0,0,1-1.082,1.082ZM14.38,9.161a.242.242,0,0,1,.165.065l1.066.992a.628.628,0,0,1,.2.458v2.763a.6.6,0,1,0,1.2,0V10.32a.253.253,0,0,0-.049-.149l-1.679-2.3a.629.629,0,0,1-.1-.545l.272-.93a.625.625,0,0,1,.895-.376c.706.377,2.064,1.1,2.064,1.1a.508.508,0,0,0,.47-.9h0l-2.2-1.157a.624.624,0,0,1-.262-.261l-.4-.761a.141.141,0,0,0-.068-.063l-1.421-.629a.141.141,0,0,0-.107,0L12.147,4.2a.506.506,0,0,0-.192.2l-1.1,2.455a.469.469,0,0,0,.861.37l.912-2.046a.242.242,0,0,1,.176-.139.626.626,0,0,1,.719.785L12.357,9.942a.623.623,0,0,1-.089.188L10.5,12.655a.62.62,0,1,0,1.059.647l1.935-2.59a.138.138,0,0,0,.015-.024L14.161,9.3a.241.241,0,0,1,.173-.134.232.232,0,0,1,.046,0Zm1.614-6.217a1.472,1.472,0,1,1,1.472-1.472,1.472,1.472,0,0,1-1.472,1.472Zm0-2.46a.988.988,0,1,0,.988.988.988.988,0,0,0-.988-.988Z" transform="translate(59.215 266.644)" fill="#fff" stroke="#fff" stroke-width="0.3"/>
  </g>
</svg>
