<svg xmlns="http://www.w3.org/2000/svg" width="36.611" height="36.697" viewBox="0 0 36.611 36.697">
  <g id="FormoreInformation_" data-name="FormoreInformation+" transform="translate(0.345 0.3)">
    <path id="Path_488" data-name="Path 488" d="M30.651,5.228a17.992,17.992,0,0,0-25.356,0A17.661,17.661,0,0,0,0,17.833v.009a17.752,17.752,0,0,0,2.19,8.425L.049,36l9.845-2.239a18.019,18.019,0,0,0,8.081,1.92h.007A17.934,17.934,0,0,0,30.67,30.457a17.65,17.65,0,0,0-.019-25.229ZM17.982,32.871h-.006a15.187,15.187,0,0,1-7.219-1.83l-.466-.253L3.745,32.278l1.422-6.462-.274-.473a15.019,15.019,0,0,1-2.083-7.5A15.168,15.168,0,0,1,28.668,7.218a14.936,14.936,0,0,1,4.488,10.628A15.121,15.121,0,0,1,17.982,32.871Zm0,0" fill="#bb2a22" stroke="#fff" stroke-width="0.6"/>
    <path id="Path_489" data-name="Path 489" d="M142.192,141.863H141.4a1.513,1.513,0,0,0-1.1.513,4.59,4.59,0,0,0-1.44,3.419,7.962,7.962,0,0,0,1.68,4.24c.206.274,2.845,4.545,7.026,6.188,3.475,1.366,4.182,1.094,4.936,1.026a4.154,4.154,0,0,0,2.777-1.949,3.417,3.417,0,0,0,.24-1.949c-.1-.171-.377-.273-.789-.478s-2.427-1.214-2.8-1.351-.651-.2-.926.206-1.082,1.358-1.322,1.631-.48.308-.891.1a11.372,11.372,0,0,1-3.294-2.043,12.6,12.6,0,0,1-2.312-2.883c-.24-.41-.026-.632.181-.837.185-.183.435-.435.64-.674a2.772,2.772,0,0,0,.4-.684.753.753,0,0,0-.034-.718c-.1-.205-.892-2.232-1.258-3.043h0C142.809,141.9,142.485,141.875,142.192,141.863Zm0,0" transform="translate(-129.103 -131.888)" fill="#bb2a22" stroke="#fff" stroke-width="0.6"/>
  </g>
</svg>
