<svg xmlns="http://www.w3.org/2000/svg" width="36.5" height="36.5" viewBox="0 0 36.5 36.5">
  <g id="dna_1_" data-name="dna (1)" transform="translate(0.25 0.25)">
    <path id="Path_211" data-name="Path 211" d="M14.875,5.555A9.555,9.555,0,0,0,16.112.527.527.527,0,0,0,15.585,0H12.744a.527.527,0,0,0-.527.527,7.987,7.987,0,0,1-.122,1.532H4.017A8.009,8.009,0,0,1,3.9.527.527.527,0,0,0,3.368,0H.527A.527.527,0,0,0,0,.527a9.989,9.989,0,0,0,.884,4.36A10.939,10.939,0,0,0,4.446,8.968,12.36,12.36,0,0,0,1.088,13.3,11.532,11.532,0,0,0,0,18a11.5,11.5,0,0,0,.978,4.456.527.527,0,1,0,.967-.422A10.409,10.409,0,0,1,1.055,18a10.438,10.438,0,0,1,.99-4.256,12.085,12.085,0,0,1,5.6-5.628,11.54,11.54,0,0,0,4.728-3.895,6.306,6.306,0,0,0,.89-3.167h1.786C14.943,3.771,13.919,6.862,8.469,9.7a10.342,10.342,0,0,0-4.8,4.8A8.587,8.587,0,0,0,2.841,18a8.587,8.587,0,0,0,.824,3.5,9.821,9.821,0,0,0,3.384,3.937l-1.68.98A11.8,11.8,0,0,1,3.12,24.091a.527.527,0,1,0-.855.618,12.758,12.758,0,0,0,2.181,2.322A10.941,10.941,0,0,0,.884,31.113,9.99,9.99,0,0,0,0,35.473.527.527,0,0,0,.527,36H3.368a.527.527,0,0,0,.527-.527,7.987,7.987,0,0,1,.122-1.532H12.1a8.009,8.009,0,0,1,.121,1.532.527.527,0,0,0,.527.527h2.841a.527.527,0,0,0,.527-.527,9.989,9.989,0,0,0-.884-4.36,10.939,10.939,0,0,0-3.562-4.081A12.36,12.36,0,0,0,15.025,22.7,11.532,11.532,0,0,0,16.112,18a11.486,11.486,0,0,0-.914-4.306.527.527,0,0,0-.972.409,10.39,10.39,0,0,1,.831,3.9,10.438,10.438,0,0,1-.99,4.256,12.085,12.085,0,0,1-5.6,5.628A11.54,11.54,0,0,0,3.74,31.779a6.307,6.307,0,0,0-.89,3.167H1.064c.086-2.3.82-4.929,4.544-7.443a20.911,20.911,0,0,0,5.3-3.679A9.361,9.361,0,0,0,12.447,21.5a8.587,8.587,0,0,0,.824-3.5,8.587,8.587,0,0,0-.824-3.5,9.815,9.815,0,0,0-3.368-3.925q.9-.476,1.682-.978a11.751,11.751,0,0,1,2.312,2.429.527.527,0,0,0,.862-.607,12.723,12.723,0,0,0-2.268-2.444,11.5,11.5,0,0,0,3.207-3.415ZM1.064,1.055H2.851c.074,1.885.657,4.016,4.138,6.215A15.74,15.74,0,0,0,5.319,8.3c-3.473-2.453-4.171-5-4.255-7.244ZM8.057,6.685A8.254,8.254,0,0,1,4.344,3.114h7.423A8.231,8.231,0,0,1,8.057,6.685Zm6.991,28.26H13.262c-.074-1.885-.657-4.016-4.138-6.215A15.739,15.739,0,0,0,10.793,27.7c3.473,2.453,4.171,5,4.255,7.244ZM8.056,29.315a8.254,8.254,0,0,1,3.713,3.571H4.345A8.231,8.231,0,0,1,8.056,29.315Zm0-4.471a9.417,9.417,0,0,1-2.725-2.552H8.838a.527.527,0,1,0,0-1.055H4.708a7.806,7.806,0,0,1-.786-2.71H12.19a7.815,7.815,0,0,1-.7,2.533,8.945,8.945,0,0,1-3.434,3.784Zm2.725-11.136H7.275a.527.527,0,0,0,0,1.055H11.4a7.806,7.806,0,0,1,.786,2.71H3.922a7.815,7.815,0,0,1,.7-2.533,8.94,8.94,0,0,1,3.434-3.784A9.417,9.417,0,0,1,10.781,13.708Z" fill="#bb2a22" stroke="#bb2a22" stroke-width="0.5"/>
    <path id="Path_212" data-name="Path 212" d="M256.808,137.382a8.267,8.267,0,0,0-5.026,1.684.527.527,0,0,0,.636.841,7.221,7.221,0,0,1,4.39-1.471,7.286,7.286,0,1,1-7.228,8.2.527.527,0,0,0-.3-.41l-1.06-.509,1.06-.509a.527.527,0,0,0,.3-.41A7.282,7.282,0,0,1,250.8,141.6a.527.527,0,0,0-.869-.6,8.347,8.347,0,0,0-1.358,3.385l-1.8.862a.527.527,0,0,0,0,.951l1.8.862a8.341,8.341,0,1,0,8.233-9.678Z" transform="translate(-229.148 -127.722)" fill="#bb2a22" stroke="#bb2a22" stroke-width="0.5"/>
    <path id="Path_213" data-name="Path 213" d="M330.456,182.525a.527.527,0,1,0-.491-.933l-.779.41-1.88-1.109a.527.527,0,0,0-.536,0l-2.133,1.258a.527.527,0,0,0-.259.454v2.106l-1.874,1.105a.527.527,0,0,0-.259.454v2.407a.527.527,0,0,0,.259.454l1.874,1.105v.629a.527.527,0,1,0,1.055,0v-.629l1.606-.947,1.865,1.1a.527.527,0,0,0,.536,0l2.133-1.258a.527.527,0,0,0,.259-.454V186.27a.527.527,0,0,0-.259-.454L329.7,184.71v-1.787Zm-5.024.382,1.606-.947,1.606.947v1.8l-1.606.947-1.606-.947Zm-2.133,3.665,1.606-.947,1.606.947v1.8l-1.606.947-1.606-.947Zm7.478,1.8-1.606.947-1.606-.947v-1.8l1.606-.947,1.606.947Z" transform="translate(-299.586 -168.106)" fill="#bb2a22" stroke="#bb2a22" stroke-width="0.5"/>
  </g>
</svg>
