<svg xmlns="http://www.w3.org/2000/svg" width="33.95" height="36.2" viewBox="0 0 33.95 36.2">
  <g id="building" transform="translate(0.1 0.1)">
    <path id="Path_202" data-name="Path 202" d="M324.922,366H320.7a.7.7,0,0,0-.7.7v4.219a.7.7,0,0,0,.7.7h4.219a.7.7,0,0,0,.7-.7V366.7A.7.7,0,0,0,324.922,366Zm-.7,4.219h-2.812v-2.812h2.813Zm0,0" transform="translate(-297.5 -340.266)" fill="#bb2a22" stroke="#bb2a22" stroke-width="0.2"/>
    <path id="Path_203" data-name="Path 203" d="M84.922,126H80.7a.7.7,0,0,0-.7.7v4.219a.7.7,0,0,0,.7.7h4.219a.7.7,0,0,0,.7-.7V126.7A.7.7,0,0,0,84.922,126Zm-.7,4.219H81.406v-2.812h2.813Zm0,0" transform="translate(-74.375 -117.141)" fill="#bb2a22" stroke="#bb2a22" stroke-width="0.2"/>
    <path id="Path_204" data-name="Path 204" d="M204.922,126H200.7a.7.7,0,0,0-.7.7v4.219a.7.7,0,0,0,.7.7h4.219a.7.7,0,0,0,.7-.7V126.7A.7.7,0,0,0,204.922,126Zm-.7,4.219h-2.812v-2.812h2.813Zm0,0" transform="translate(-185.938 -117.141)" fill="#bb2a22" stroke="#bb2a22" stroke-width="0.2"/>
    <path id="Path_205" data-name="Path 205" d="M320,126.7v4.219a.7.7,0,0,0,.7.7h4.219a.7.7,0,0,0,.7-.7V126.7a.7.7,0,0,0-.7-.7H320.7A.7.7,0,0,0,320,126.7Zm1.406.7h2.813v2.813h-2.812Zm0,0" transform="translate(-297.5 -117.141)" fill="#bb2a22" stroke="#bb2a22" stroke-width="0.2"/>
    <path id="Path_206" data-name="Path 206" d="M84.922,246H80.7a.7.7,0,0,0-.7.7v4.219a.7.7,0,0,0,.7.7h4.219a.7.7,0,0,0,.7-.7V246.7A.7.7,0,0,0,84.922,246Zm-.7,4.219H81.406v-2.812h2.813Zm0,0" transform="translate(-74.375 -228.703)" fill="#bb2a22" stroke="#bb2a22" stroke-width="0.2"/>
    <path id="Path_207" data-name="Path 207" d="M204.922,246H200.7a.7.7,0,0,0-.7.7v4.219a.7.7,0,0,0,.7.7h4.219a.7.7,0,0,0,.7-.7V246.7A.7.7,0,0,0,204.922,246Zm-.7,4.219h-2.812v-2.812h2.813Zm0,0" transform="translate(-185.938 -228.703)" fill="#bb2a22" stroke="#bb2a22" stroke-width="0.2"/>
    <path id="Path_208" data-name="Path 208" d="M324.922,246H320.7a.7.7,0,0,0-.7.7v4.219a.7.7,0,0,0,.7.7h4.219a.7.7,0,0,0,.7-.7V246.7A.7.7,0,0,0,324.922,246Zm-.7,4.219h-2.812v-2.812h2.813Zm0,0" transform="translate(-297.5 -228.703)" fill="#bb2a22" stroke="#bb2a22" stroke-width="0.2"/>
    <path id="Path_209" data-name="Path 209" d="M84.922,366H80.7a.7.7,0,0,0-.7.7v4.219a.7.7,0,0,0,.7.7h4.219a.7.7,0,0,0,.7-.7V366.7A.7.7,0,0,0,84.922,366Zm-.7,4.219H81.406v-2.812h2.813Zm0,0" transform="translate(-74.375 -340.266)" fill="#bb2a22" stroke="#bb2a22" stroke-width="0.2"/>
    <path id="Path_210" data-name="Path 210" d="M26.016,0H7.734a.7.7,0,0,0-.7.7V4.641H3.516a.7.7,0,0,0-.7.7v29.25H.7A.7.7,0,0,0,.7,36H33.047a.7.7,0,0,0,0-1.406H30.938V5.344a.7.7,0,0,0-.7-.7H26.719V.7A.7.7,0,0,0,26.016,0ZM8.438,1.406H25.313V4.641H8.438Zm11.25,33.188H17.578V32.063a.7.7,0,0,0-1.406,0v2.531H14.063V27.141h5.625Zm9.844,0H21.094V26.438a.7.7,0,0,0-.7-.7H13.359a.7.7,0,0,0-.7.7v8.156H4.219V6.047H29.531Zm0,0" fill="#bb2a22" stroke="#bb2a22" stroke-width="0.2"/>
  </g>
</svg>
