<svg xmlns="http://www.w3.org/2000/svg" width="31.1" height="36.5" viewBox="0 0 31.1 36.5">
  <g id="file-download-svgrepo-com" transform="translate(-38.15 0.25)">
    <g id="Group_84" data-name="Group 84" transform="translate(57 22.2)">
      <g id="Group_83" data-name="Group 83">
        <path id="Path_156" data-name="Path 156" d="M308.756,321.91a.6.6,0,0,0-.848,0l-1.376,1.376v-6.952a.6.6,0,0,0-1.2,0v6.952l-1.376-1.376a.6.6,0,0,0-.848.848l2.4,2.4a.6.6,0,0,0,.848,0l2.4-2.4A.6.6,0,0,0,308.756,321.91Z" transform="translate(-302.932 -315.734)" fill="#bb2a22" stroke="#bb2a22" stroke-width="0.5"/>
      </g>
    </g>
    <g id="Group_86" data-name="Group 86" transform="translate(51 18)">
      <g id="Group_85" data-name="Group 85">
        <path id="Path_157" data-name="Path 157" d="M226.6,256a9,9,0,1,0,9,9A9.01,9.01,0,0,0,226.6,256Zm0,16.8a7.8,7.8,0,1,1,7.8-7.8A7.809,7.809,0,0,1,226.6,272.8Z" transform="translate(-217.6 -256)" fill="#bb2a22" stroke="#bb2a22" stroke-width="0.5"/>
      </g>
    </g>
    <g id="Group_88" data-name="Group 88" transform="translate(38.4 28.2)">
      <g id="Group_87" data-name="Group 87">
        <path id="Path_158" data-name="Path 158" d="M51.6,405.867h-12v-4.2a.6.6,0,0,0-1.2,0v4.8a.6.6,0,0,0,.6.6H51.6a.6.6,0,0,0,0-1.2Z" transform="translate(-38.401 -401.067)" fill="#bb2a22" stroke="#bb2a22" stroke-width="0.5"/>
      </g>
    </g>
    <g id="Group_90" data-name="Group 90" transform="translate(38.4 25.8)">
      <g id="Group_89" data-name="Group 89">
        <path id="Path_159" data-name="Path 159" d="M39,366.933a.6.6,0,0,0,0,1.2h.006a.6.6,0,0,0-.006-1.2Z" transform="translate(-38.4 -366.933)" fill="#bb2a22" stroke="#bb2a22" stroke-width="0.5"/>
      </g>
    </g>
    <g id="Group_92" data-name="Group 92" transform="translate(38.4)">
      <g id="Group_91" data-name="Group 91">
        <path id="Path_160" data-name="Path 160" d="M63.424,9.776l-9.6-9.6A.6.6,0,0,0,53.4,0H39a.6.6,0,0,0-.6.6V24a.6.6,0,0,0,1.2,0V1.2H52.8v9a.6.6,0,0,0,.6.6h9v5.4a.6.6,0,1,0,1.2,0v-6A.6.6,0,0,0,63.424,9.776ZM54,9.6V2.048L61.552,9.6H54Z" transform="translate(-38.4)" fill="#bb2a22" stroke="#bb2a22" stroke-width="0.5"/>
      </g>
    </g>
  </g>
</svg>
