<svg xmlns="http://www.w3.org/2000/svg" width="30.476" height="36.1" viewBox="0 0 30.476 36.1">
  <g id="health" transform="translate(-39.941 0.05)">
    <g id="Group_111" data-name="Group 111" transform="translate(39.991 0)">
      <path id="Path_177" data-name="Path 177" d="M67.043,24.949V18.575a.7.7,0,0,0-1.406,0v5.916a5.778,5.778,0,0,0-1.924-.043V4.729h1.81a.113.113,0,0,1,.114.11v7.422a.7.7,0,1,0,1.406,0V4.839a1.52,1.52,0,0,0-1.52-1.516h-1.81V1.516A1.52,1.52,0,0,0,62.193,0H41.509a1.519,1.519,0,0,0-1.518,1.516V29.485A1.519,1.519,0,0,0,41.509,31h1.812v1.8a1.52,1.52,0,0,0,1.518,1.518H60.465a5.81,5.81,0,1,0,6.578-9.375ZM41.4,29.485V1.516a.114.114,0,0,1,.112-.11H62.193a.115.115,0,0,1,.114.11v23.32A5.821,5.821,0,0,0,58.762,29.6H41.509A.114.114,0,0,1,41.4,29.485Zm3.33,3.32V31H58.789a5.756,5.756,0,0,0,.624,1.916H44.839a.113.113,0,0,1-.112-.112Zm19.821,1.788a4.4,4.4,0,1,1,4.413-4.4A4.411,4.411,0,0,1,64.548,34.594Z" transform="translate(-39.991 0)" fill="#bb2a22" stroke="#fff" stroke-width="0.1"/>
      <path id="Path_178" data-name="Path 178" d="M361.047,402.052a.7.7,0,0,0-.991.086l-1.615,1.924-.56-.474a.7.7,0,0,0-.909,1.073l1.1.931a.7.7,0,0,0,.454.167l.06,0a.7.7,0,0,0,.479-.249l2.069-2.465A.7.7,0,0,0,361.047,402.052Z" transform="translate(-334.453 -373.63)" fill="#bb2a22" stroke="#fff" stroke-width="0.1"/>
      <path id="Path_179" data-name="Path 179" d="M86.307,229.488H82.8a.7.7,0,0,0-.7.7v3.5a.7.7,0,0,0,.7.7h3.51a.7.7,0,0,0,.7-.7v-3.5A.7.7,0,0,0,86.307,229.488Zm-.7,3.5H83.5v-2.1h2.1Z" transform="translate(-79.134 -213.352)" fill="#bb2a22" stroke="#fff" stroke-width="0.1"/>
      <path id="Path_180" data-name="Path 180" d="M101.291,48.17h1.053a3.961,3.961,0,0,0,.45.538l5.07,5.058a.7.7,0,0,0,.993,0l5.07-5.058a3.961,3.961,0,0,0,.45-.538h.709a.7.7,0,1,0,0-1.406h-.1a3.99,3.99,0,0,0,.091-.844,3.91,3.91,0,0,0-1.153-2.788,3.959,3.959,0,0,0-5.566-.017,3.959,3.959,0,0,0-5.566.017h0a3.91,3.91,0,0,0-1.153,2.788,3.994,3.994,0,0,0,.091.844h-.44a.7.7,0,0,0,0,1.406Zm7.069,4.105-4.115-4.105h.857a.7.7,0,0,0,.527-.237l.759-.858,1.219,1.792a.7.7,0,0,0,.581.308h0a.7.7,0,0,0,.581-.308l1.218-1.792.761.858a.7.7,0,0,0,.526.237h1.2Zm-5.313-6.355a2.513,2.513,0,0,1,.74-1.792,2.551,2.551,0,0,1,3.6,0l.479.476a.7.7,0,0,0,.991,0l.48-.477a2.551,2.551,0,0,1,3.6,0,2.513,2.513,0,0,1,.74,1.792,2.55,2.55,0,0,1-.142.844h-1.94l-1.15-1.3a.7.7,0,0,0-1.108.071l-1.145,1.684-1.146-1.684a.7.7,0,0,0-1.108-.07l-1.148,1.3h-1.6A2.551,2.551,0,0,1,103.047,45.92Z" transform="translate(-96.327 -39.028)" fill="#bb2a22" stroke="#fff" stroke-width="0.1"/>
      <path id="Path_181" data-name="Path 181" d="M86.307,329.1H82.8a.7.7,0,0,0-.7.7v3.5a.7.7,0,0,0,.7.7h3.51a.7.7,0,0,0,.7-.7v-3.5A.7.7,0,0,0,86.307,329.1Zm-.7,3.5H83.5v-2.1h2.1Z" transform="translate(-79.134 -305.956)" fill="#bb2a22" stroke="#fff" stroke-width="0.1"/>
      <path id="Path_182" data-name="Path 182" d="M175.893,234.393a.7.7,0,0,0,0,1.406h8.879a.7.7,0,0,0,0-1.406Z" transform="translate(-165.684 -217.912)" fill="#bb2a22" stroke="#fff" stroke-width="0.1"/>
      <path id="Path_183" data-name="Path 183" d="M184.772,274.389h-8.879a.7.7,0,0,0,0,1.406h8.879a.7.7,0,0,0,0-1.406Z" transform="translate(-165.684 -255.096)" fill="#bb2a22" stroke="#fff" stroke-width="0.1"/>
      <path id="Path_184" data-name="Path 184" d="M184.772,334h-8.879a.7.7,0,0,0,0,1.406h8.879a.7.7,0,0,0,0-1.406Z" transform="translate(-165.684 -310.516)" fill="#bb2a22" stroke="#fff" stroke-width="0.1"/>
      <path id="Path_185" data-name="Path 185" d="M182.051,374h-6.158a.7.7,0,0,0,0,1.406h6.158a.7.7,0,0,0,0-1.406Z" transform="translate(-165.684 -347.699)" fill="#bb2a22" stroke="#fff" stroke-width="0.1"/>
      <path id="Path_186" data-name="Path 186" d="M405.438,209.278a.7.7,0,0,0-.7.7v0a.7.7,0,1,0,.7-.707Z" transform="translate(-379.089 -194.563)" fill="#bb2a22" stroke="#fff" stroke-width="0.1"/>
    </g>
  </g>
</svg>
