<svg xmlns="http://www.w3.org/2000/svg" width="36.553" height="37.3" viewBox="0 0 36.553 37.3">
  <g id="microscope_9_" data-name="microscope(9)" transform="translate(-2.962 -2.297)">
    <path id="Path_78" data-name="Path 78" d="M32.993,46.676a5.861,5.861,0,0,1,1.718,3.65h7.227a2.566,2.566,0,0,0,2.566-2.566V45.99a.213.213,0,0,0-.213-.213H31.842a5.684,5.684,0,0,1,1.151.9Z" transform="translate(-12.377 -18.778)" fill="none" stroke="#bb2a22" stroke-width="1.3"/>
    <path id="Path_79" data-name="Path 79" d="M33.611,20.238a1.167,1.167,0,0,0,1.168,1.168H42.9a1.167,1.167,0,0,0,1.168-1.168V7.17A1.167,1.167,0,0,0,42.9,6H41.833V3.492a.54.54,0,0,0-.539-.545H36.385a.54.54,0,0,0-.539.545V6H34.779A1.167,1.167,0,0,0,33.611,7.17v3.4A12.057,12.057,0,0,0,28.361,9.31v2.825a5.49,5.49,0,0,1-.079.972A8.306,8.306,0,0,1,33.611,15.1Z" transform="translate(-10.816 0)" fill="none" stroke="#bb2a22" stroke-width="1.3"/>
    <path id="Path_80" data-name="Path 80" d="M39.779,49.767H37.732V48.385a1.6,1.6,0,0,0-1.6-1.6H22.855V43.772a5.114,5.114,0,0,0-8.586-3.751,8.272,8.272,0,0,1-3.723-8.109L7.176,29.547A12.1,12.1,0,0,0,12.64,43.491c-.006.1-.006.185-.006.281v3.013H10.5a1.6,1.6,0,0,0-1.6,1.6v1.381H7.16a.421.421,0,1,0,0,.842H39.779a.421.421,0,1,0,0-.842ZM17.745,41.638a1.426,1.426,0,1,1-1.432,1.426A1.425,1.425,0,0,1,17.745,41.638Z" transform="translate(-1.335 -11.662)" fill="none" stroke="#bb2a22" stroke-width="1.3"/>
    <path id="Path_81" data-name="Path 81" d="M47.048,39.327a.647.647,0,0,0,.646-.651V37.317H42.112v1.359a.647.647,0,0,0,.646.651Z" transform="translate(-16.88 -15.069)" fill="none" stroke="#bb2a22" stroke-width="1.3"/>
    <path id="Path_82" data-name="Path 82" d="M6.122,17.8a.953.953,0,0,0,.079.056l3.184,2.229.449.314a.548.548,0,0,0,.646,0l3.639-2.544a6.076,6.076,0,0,0,2.493-3.965,5.5,5.5,0,0,0,.09-1.011V6.686a.56.56,0,0,0-.668-.55c-2.224.489-4.745-.887-5.588-1.4a.548.548,0,0,0-.584,0C9.02,5.248,6.5,6.624,4.28,6.135a.562.562,0,0,0-.668.55V12.88A6.074,6.074,0,0,0,6.122,17.8ZM10.16,8.522a3.746,3.746,0,1,1-3.746,3.746A3.748,3.748,0,0,1,10.16,8.522Z" transform="translate(0 -0.745)" fill="none" stroke="#bb2a22" stroke-width="1.3"/>
    <path id="Path_83" data-name="Path 83" d="M11.51,17.558a.423.423,0,0,0,.578.157l1.089-.629v1.235a.421.421,0,0,0,.842,0V17.086l1.089.629a.421.421,0,0,0,.421-.73l-1.089-.629,1.073-.618a.422.422,0,0,0,.152-.578.416.416,0,0,0-.573-.152l-1.073.618V14.368a.421.421,0,0,0-.842,0v1.258l-1.073-.618a.422.422,0,0,0-.578.152.429.429,0,0,0,.157.578l1.073.618-1.089.629A.422.422,0,0,0,11.51,17.558Z" transform="translate(-3.439 -4.823)" fill="none" stroke="#bb2a22" stroke-width="0.6"/>
  </g>
</svg>
