<svg xmlns="http://www.w3.org/2000/svg" width="37.3" height="37.439" viewBox="0 0 37.3 37.439">
  <g id="Group_115" data-name="Group 115" transform="translate(-60.85 -258.212)">
    <path id="home" d="M36.521,17.843,33.248,14.57,20.157,1.479a1.636,1.636,0,0,0-2.314,0L4.752,14.57,1.479,17.843a1.636,1.636,0,1,0,2.314,2.314l.479-.48V35.364A1.636,1.636,0,0,0,5.909,37H32.091a1.636,1.636,0,0,0,1.636-1.636V19.677l.479.479a1.636,1.636,0,1,0,2.314-2.314ZM30.455,33.727H7.546V16.4L19,4.95,30.455,16.4Z" transform="translate(60.5 258)" fill="#bb2a22" stroke="#fff" stroke-width="1.3"/>
    <path id="walk" d="M19.261,20.911A1.56,1.56,0,0,1,17.7,19.353V15.374a.2.2,0,0,0-.065-.149l-1.186-1.1-.737,1.565a.91.91,0,0,1-.093.155l-2.768,3.7a1.57,1.57,0,0,1-1.038.708,1.59,1.59,0,0,1-1.643-2.417l2.555-3.647a.2.2,0,0,0,.029-.061l1.675-5.921a.2.2,0,0,0-.046-.193.221.221,0,0,0-.038-.033l-1.209,2.711a1.372,1.372,0,1,1-2.516-1.1l1.6-3.559a1.438,1.438,0,0,1,.588-.607.4.4,0,0,1,.044-.02l3.3-1.245a.9.9,0,0,1,.682.019l2.046.906a.9.9,0,0,1,.431.4l.58,1.1a.208.208,0,0,0,.086.085L23.15,8.339a1.429,1.429,0,1,1-1.325,2.532S19.867,9.828,18.85,9.285a.2.2,0,0,0-.291.123l-.392,1.34a.2.2,0,0,0,.031.177l2.417,3.311a1.056,1.056,0,0,1,.2.626v4.491a1.56,1.56,0,0,1-1.558,1.558ZM16.34,13.192a.348.348,0,0,1,.237.093l1.535,1.429a.9.9,0,0,1,.287.66v3.979a.861.861,0,1,0,1.722,0V14.861a.364.364,0,0,0-.07-.215l-2.417-3.31a.906.906,0,0,1-.137-.784l.392-1.34a.9.9,0,0,1,1.289-.541c1.017.544,2.972,1.584,2.972,1.584a.732.732,0,0,0,.676-1.3h0L19.659,7.289a.9.9,0,0,1-.377-.375l-.58-1.1a.2.2,0,0,0-.1-.091l-2.046-.906a.2.2,0,0,0-.154,0l-3.28,1.236a.728.728,0,0,0-.277.29L11.261,9.879a.675.675,0,0,0,1.24.533l1.313-2.946a.349.349,0,0,1,.254-.2A.9.9,0,0,1,15.1,8.4l-1.675,5.921a.9.9,0,0,1-.129.271l-2.547,3.636a.893.893,0,1,0,1.525.932l2.786-3.73a.2.2,0,0,0,.021-.035l.94-2a.348.348,0,0,1,.249-.194.334.334,0,0,1,.066-.006Zm2.324-8.953a2.12,2.12,0,1,1,2.12-2.12,2.12,2.12,0,0,1-2.12,2.12Zm0-3.542A1.423,1.423,0,1,0,20.086,2.12,1.423,1.423,0,0,0,18.664.7Z" transform="translate(62.576 270.008)" fill="#bb2a22" stroke="#bb2a22" stroke-width="1"/>
  </g>
</svg>
