<svg xmlns="http://www.w3.org/2000/svg" width="36.377" height="36.526" viewBox="0 0 36.377 36.526">
  <g id="institution_1_" data-name="institution (1)" transform="translate(-0.5 -0.397)">
    <path id="Path_171" data-name="Path 171" d="M18.072.673.75,9.013v4.339H36.627V8.99ZM34.235,10.96H3.142v-.444L18.108,3.31l16.126,7.229Z" transform="translate(0)" fill="#bb2a22" stroke="#fff" stroke-width="0.5"/>
    <path id="Path_172" data-name="Path 172" d="M.75,26.148H36.627V18.375H.75Zm2.392-5.382H34.235v2.99H3.142Z" transform="translate(0 10.524)" fill="#bb2a22" stroke="#fff" stroke-width="0.5"/>
    <path id="Path_173" data-name="Path 173" d="M5.767,9.75H3.375V21.709H5.767Z" transform="translate(1.561 5.397)" fill="#bb2a22" stroke="#fff" stroke-width="0.5"/>
    <path id="Path_174" data-name="Path 174" d="M21.517,9.75H19.125V21.709h2.392Z" transform="translate(10.924 5.397)" fill="#bb2a22" stroke="#fff" stroke-width="0.5"/>
    <path id="Path_175" data-name="Path 175" d="M11.017,9.75H8.625V21.709h2.392Z" transform="translate(4.682 5.397)" fill="#bb2a22" stroke="#fff" stroke-width="0.5"/>
    <path id="Path_176" data-name="Path 176" d="M16.267,9.75H13.875V21.709h2.392Z" transform="translate(7.803 5.397)" fill="#bb2a22" stroke="#fff" stroke-width="0.5"/>
  </g>
</svg>
