<svg xmlns="http://www.w3.org/2000/svg" width="36.8" height="36.8" viewBox="0 0 36.8 36.8">
  <g id="upload-button-svgrepo-com" transform="translate(0.4 0.398)">
    <g id="Group_107" data-name="Group 107" transform="translate(0 0.002)">
      <path id="Path_166" data-name="Path 166" d="M34.6,0H1.4A1.4,1.4,0,0,0,0,1.4V34.6A1.4,1.4,0,0,0,1.4,36H34.6A1.4,1.4,0,0,0,36,34.6V1.4A1.4,1.4,0,0,0,34.6,0ZM33.2,33.2H2.8V2.8H33.2Z" transform="translate(0 -0.002)" fill="#bb2a22" stroke="#fff" stroke-width="0.8"/>
      <path id="Path_167" data-name="Path 167" d="M114.66,104.158a1.44,1.44,0,0,0-1.979,0l-5.354,5.354a1.4,1.4,0,0,0,1.979,1.979l2.964-2.965v11.706a1.4,1.4,0,0,0,2.8,0V108.527l2.965,2.965a1.4,1.4,0,1,0,1.979-1.979Z" transform="translate(-95.67 -92.849)" fill="#bb2a22" stroke="#fff" stroke-width="0.8"/>
      <path id="Path_168" data-name="Path 168" d="M53.724,57.384H75.916a1.4,1.4,0,0,0,0-2.8H53.724a1.4,1.4,0,0,0,0,2.8Z" transform="translate(-46.82 -48.843)" fill="#bb2a22" stroke="#fff" stroke-width="0.8"/>
    </g>
  </g>
</svg>
