<svg xmlns="http://www.w3.org/2000/svg" width="25.994" height="26" viewBox="0 0 25.994 26">
  <g id="gift_1_" data-name="gift(1)" transform="translate(-0.064 -0.001)">
    <g id="Group_54" data-name="Group 54" transform="translate(0.064 0.001)">
      <path id="Path_143" data-name="Path 143" d="M23.011,13.949V10.72h.762a.762.762,0,0,0,.762-.762v-3A2.287,2.287,0,0,0,22.25,4.678H19.478a3.092,3.092,0,1,0-5.373-3.061L12.983,3.694,11.86,1.616A3.092,3.092,0,1,0,6.488,4.678H3.872A2.287,2.287,0,0,0,1.587,6.963v3a.762.762,0,0,0,.762.762H3.11v4.62H.826a.762.762,0,0,0-.762.762V25.24A.762.762,0,0,0,.826,26H3.872a.761.761,0,0,0,.749-.625A17.971,17.971,0,0,0,9.307,26h6.8a5.356,5.356,0,0,0,4.255-2.119c.015-.019,5.225-6.391,5.24-6.411a2.284,2.284,0,0,0-2.59-3.522Zm-19.9,5.2v5.331H1.587V16.863H3.11ZM22.25,6.2a.762.762,0,0,1,.762.762V9.2H15.345v-3Zm-.762,4.518v4.461L18.3,18.5a2.288,2.288,0,0,0-2.19-1.636h-.762V10.72h6.143ZM15.444,2.343a1.555,1.555,0,0,1,1.3-.817A1.571,1.571,0,0,1,18.2,3.846a1.543,1.543,0,0,1-1.379.833H14.183ZM12.3,6.2h1.523V16.863H12.589a2.029,2.029,0,0,1-.29-.021V6.2ZM9.143,1.525l.075,0a1.554,1.554,0,0,1,1.3.815l1.263,2.337H9.146a1.543,1.543,0,0,1-1.379-.833A1.571,1.571,0,0,1,9.143,1.525ZM3.11,9.2V6.963A.762.762,0,0,1,3.872,6.2h6.9v3H3.11Zm7.666,1.523v5.268a5.4,5.4,0,0,0-6.143,0V10.72Zm13.615,5.827L19.173,22.93l-.02.025a3.826,3.826,0,0,1-3.046,1.523h-6.8a16.487,16.487,0,0,1-4.674-.68v-5.83l.531-.467a3.854,3.854,0,0,1,5.082,0,3.557,3.557,0,0,0,2.343.884h3.518a.762.762,0,0,1,0,1.523H10.695a.762.762,0,0,0,0,1.523h5.923a2.292,2.292,0,0,0,1.667-.722l4.923-5.118,0,0,0,0a.763.763,0,0,1,1.319.519A.754.754,0,0,1,24.391,16.547Z" transform="translate(-0.064 -0.001)" fill="#fff"/>
    </g>
  </g>
</svg>
