<svg xmlns="http://www.w3.org/2000/svg" width="21.973" height="25" viewBox="0 0 21.973 25">
  <g id="like" transform="translate(-31)">
    <g id="Group_279" data-name="Group 279" transform="translate(31 4.443)">
      <g id="Group_278" data-name="Group 278">
        <path id="Path_677" data-name="Path 677" d="M52.412,102.035a2.2,2.2,0,0,0-1.636-3.662H46.511a14.2,14.2,0,0,0,.6-3.711V93.93A2.933,2.933,0,0,0,44.184,91h-.732a.732.732,0,0,0-.71.555l-.4,1.6c-.559,2.235-2.334,4.7-4.171,5.15a2.2,2.2,0,0,0-2.044-1.393H31.732a.733.733,0,0,0-.732.732v13.184a.733.733,0,0,0,.732.732h4.395A2.2,2.2,0,0,0,38.11,110.3l2.517.839a8.039,8.039,0,0,0,2.548.414h6.136a2.2,2.2,0,0,0,2.043-3.007,2.2,2.2,0,0,0,1.058-3.585,2.193,2.193,0,0,0,0-2.93Zm-15.552,7.324a.733.733,0,0,1-.732.732H32.465V98.373h3.662a.733.733,0,0,1,.732.732Zm12.451-6.592h1.465a.732.732,0,0,1,0,1.465H49.311a.732.732,0,1,0,0,1.465h1.465a.732.732,0,0,1,0,1.465H49.311a.732.732,0,1,0,0,1.465.732.732,0,0,1,0,1.465H43.175a6.578,6.578,0,0,1-2.085-.338l-2.766-.922V99.769a5.9,5.9,0,0,0,3.289-2.137,10.687,10.687,0,0,0,2.15-4.125l.26-1.042h.161a1.467,1.467,0,0,1,1.465,1.465v.732a11.59,11.59,0,0,1-.7,3.711h-1.5a.732.732,0,0,0,0,1.465h7.324a.732.732,0,0,1,0,1.465H49.311a.732.732,0,1,0,0,1.465Z" transform="translate(-31 -91)" fill="#fff"/>
      </g>
    </g>
    <g id="Group_281" data-name="Group 281" transform="translate(33.864 20.448)">
      <g id="Group_280" data-name="Group 280" transform="translate(0 0)">
        <circle id="Ellipse_28" data-name="Ellipse 28" cx="0.856" cy="0.856" r="0.856" fill="#fff"/>
      </g>
    </g>
    <g id="Group_283" data-name="Group 283" transform="translate(44.184)">
      <g id="Group_282" data-name="Group 282">
        <path id="Path_678" data-name="Path 678" d="M301.732,0A.732.732,0,0,0,301,.732V2.246a.732.732,0,0,0,1.465,0V.732A.732.732,0,0,0,301.732,0Z" transform="translate(-301)" fill="#fff"/>
      </g>
    </g>
    <g id="Group_285" data-name="Group 285" transform="translate(39.522 1.98)">
      <g id="Group_284" data-name="Group 284">
        <path id="Path_679" data-name="Path 679" d="M207.827,41.792l-1.036-1.036a.732.732,0,1,0-1.036,1.036l1.036,1.036a.732.732,0,0,0,1.036-1.036Z" transform="translate(-205.54 -40.542)" fill="#fff"/>
      </g>
    </g>
    <g id="Group_287" data-name="Group 287" transform="translate(47.809 1.98)">
      <g id="Group_286" data-name="Group 286">
        <path id="Path_680" data-name="Path 680" d="M377.533,40.756a.732.732,0,0,0-1.036,0l-1.036,1.036a.732.732,0,0,0,1.036,1.036l1.036-1.036A.732.732,0,0,0,377.533,40.756Z" transform="translate(-375.247 -40.542)" fill="#fff"/>
      </g>
    </g>
  </g>
</svg>
