<svg xmlns="http://www.w3.org/2000/svg" width="119.372" height="135.296" viewBox="0 0 119.372 135.296">
  <g id="like" transform="translate(-29.1 1.9)">
    <g id="Group_279" data-name="Group 279" transform="translate(31 23.371)">
      <g id="Group_278" data-name="Group 278">
        <path id="Path_677" data-name="Path 677" d="M143.621,149.043a11.551,11.551,0,0,0-8.606-19.262H112.584a74.7,74.7,0,0,0,3.169-19.521v-3.85A15.428,15.428,0,0,0,100.343,91H96.491a3.851,3.851,0,0,0-3.737,2.918l-2.1,8.4c-2.941,11.758-12.276,24.73-21.938,27.088a11.573,11.573,0,0,0-10.751-7.325H34.852A3.854,3.854,0,0,0,31,125.929v69.343a3.854,3.854,0,0,0,3.852,3.852H57.967A11.569,11.569,0,0,0,68.4,192.537l13.237,4.412a42.283,42.283,0,0,0,13.4,2.175H127.31a11.56,11.56,0,0,0,10.746-15.815,11.551,11.551,0,0,0,5.565-18.856,11.534,11.534,0,0,0,0-15.41Zm-81.8,38.524a3.857,3.857,0,0,1-3.852,3.852H38.7V129.781H57.967a3.857,3.857,0,0,1,3.852,3.852ZM127.31,152.9h7.7a3.852,3.852,0,0,1,0,7.7h-7.7a3.852,3.852,0,1,0,0,7.7h7.7a3.852,3.852,0,0,1,0,7.7h-7.7a3.852,3.852,0,1,0,0,7.7,3.852,3.852,0,0,1,0,7.7H95.037a34.6,34.6,0,0,1-10.967-1.78l-14.547-4.849v-47.67c6.043-1.148,11.958-4.975,17.3-11.239a56.212,56.212,0,0,0,11.308-21.7L99.5,98.7h.845a7.714,7.714,0,0,1,7.7,7.7v3.85c0,5.172-1.618,15.094-3.688,19.521H96.491a3.852,3.852,0,1,0,0,7.7h38.524a3.852,3.852,0,0,1,0,7.7h-7.7a3.852,3.852,0,1,0,0,7.7Z" transform="translate(-31 -91)" fill="#bb2a22" stroke="#fff" stroke-width="3.8"/>
      </g>
    </g>
    <g id="Group_281" data-name="Group 281" transform="translate(46.408 107.856)">
      <g id="Group_280" data-name="Group 280" transform="translate(0 0)">
        <circle id="Ellipse_28" data-name="Ellipse 28" cx="4.5" cy="4.5" r="4.5" transform="translate(-0.346 -0.305)" fill="#bb2a22" stroke="#fff" stroke-width="3.8"/>
      </g>
    </g>
    <g id="Group_283" data-name="Group 283" transform="translate(100.343)">
      <g id="Group_282" data-name="Group 282">
        <path id="Path_678" data-name="Path 678" d="M304.852,0A3.853,3.853,0,0,0,301,3.852v7.962a3.852,3.852,0,0,0,7.7,0V3.852A3.852,3.852,0,0,0,304.852,0Z" transform="translate(-301)" fill="#bb2a22" stroke="#fff" stroke-width="3.8"/>
      </g>
    </g>
    <g id="Group_285" data-name="Group 285" transform="translate(75.827 10.412)">
      <g id="Group_284" data-name="Group 284">
        <path id="Path_679" data-name="Path 679" d="M217.565,47.118l-5.448-5.448a3.852,3.852,0,0,0-5.448,5.448l5.448,5.448a3.852,3.852,0,0,0,5.448-5.448Z" transform="translate(-205.54 -40.542)" fill="#bb2a22" stroke="#fff" stroke-width="3.8"/>
      </g>
    </g>
    <g id="Group_287" data-name="Group 287" transform="translate(119.412 10.412)">
      <g id="Group_286" data-name="Group 286">
        <path id="Path_680" data-name="Path 680" d="M387.271,41.67a3.852,3.852,0,0,0-5.448,0l-5.448,5.448a3.852,3.852,0,0,0,5.448,5.448l5.448-5.448A3.852,3.852,0,0,0,387.271,41.67Z" transform="translate(-375.247 -40.542)" fill="#bb2a22" stroke="#fff" stroke-width="3.8"/>
      </g>
    </g>
  </g>
</svg>
