<svg xmlns="http://www.w3.org/2000/svg" width="21.796" height="25.33" viewBox="0 0 21.796 25.33">
  <g id="document3" transform="translate(-35.9 0.1)">
    <path id="Path_640" data-name="Path 640" d="M55.682,8.933V4.407L51.275,0H37.914V6.577H36V25.13H57.6V8.933ZM51.706,2.514l1.462,1.462H51.706ZM39.387,1.472H50.234V5.448h3.976V8.933H44.035L42.6,6.577H39.387ZM56.124,23.658H37.472V8.049h4.3l1.437,2.356H56.124Z" fill="#fff" stroke="#bb2a22" stroke-width="0.2"/>
    <path id="Path_641" data-name="Path 641" d="M151,247.154A5.154,5.154,0,1,0,156.154,242,5.159,5.159,0,0,0,151,247.154Zm5.154-3.681a3.681,3.681,0,1,1-3.681,3.681A3.685,3.685,0,0,1,156.154,243.472Z" transform="translate(-109.356 -230.122)" fill="#fff" stroke="#bb2a22" stroke-width="0.2"/>
    <path id="Path_642" data-name="Path 642" d="M212.472,306.417h1.472v-1.472h1.472v-1.472h-1.472V302h-1.472v1.472H211v1.472h1.472Z" transform="translate(-166.411 -287.177)" fill="#fff" stroke="#bb2a22" stroke-width="0.2"/>
    <path id="Path_643" data-name="Path 643" d="M138,60h7.755v1.472H138Z" transform="translate(-96.994 -57.055)" fill="#fff" stroke="#bb2a22" stroke-width="0.2"/>
  </g>
</svg>
