<svg xmlns="http://www.w3.org/2000/svg" width="31.438" height="36.5" viewBox="0 0 31.438 36.5">
  <g id="document3" transform="translate(-35.75 0.25)">
    <path id="Path_640" data-name="Path 640" d="M64.2,12.8V6.313L57.882,0H38.742V9.422H36V36H66.938V12.8ZM58.5,3.6,60.594,5.7H58.5ZM40.852,2.109H56.391V7.8h5.7V12.8H47.51L45.451,9.422h-4.6ZM64.828,33.891H38.109V11.531h6.158l2.059,3.375h18.5Z" fill="#bb2a22" stroke="#fff" stroke-width="0.5"/>
    <path id="Path_641" data-name="Path 641" d="M151,249.383A7.383,7.383,0,1,0,158.383,242,7.391,7.391,0,0,0,151,249.383Zm7.383-5.273a5.273,5.273,0,1,1-5.273,5.273A5.279,5.279,0,0,1,158.383,244.109Z" transform="translate(-106.914 -224.984)" fill="#bb2a22" stroke="#fff" stroke-width="0.5"/>
    <path id="Path_642" data-name="Path 642" d="M213.109,308.328h2.109v-2.109h2.109v-2.109h-2.109V302h-2.109v2.109H211v2.109h2.109Z" transform="translate(-162.695 -280.766)" fill="#bb2a22" stroke="#fff" stroke-width="0.5"/>
    <path id="Path_643" data-name="Path 643" d="M138,60h11.109v2.109H138Z" transform="translate(-94.828 -55.781)" fill="#bb2a22" stroke="#fff" stroke-width="0.5"/>
    <path id="Path_644" data-name="Path 644" d="M218,120h5.484v2.109H218Z" transform="translate(-169.203 -111.563)" fill="#bb2a22" stroke="#fff" stroke-width="0.5"/>
  </g>
</svg>
