<svg xmlns="http://www.w3.org/2000/svg" width="25.007" height="25" viewBox="0 0 25.007 25">
  <g id="frozean" transform="translate(-23.974 -16)">
    <g id="XMLID_9004_" transform="translate(23.974 16)">
      <g id="XMLID_9012_" transform="translate(0 0)">
        <path id="XMLID_9020_" d="M48.116,268.227a2.039,2.039,0,0,0-2.443.047l-5.052,3.885a2.084,2.084,0,0,0-2.062-1.807H30.225V269.31a.522.522,0,0,0-.521-.521H27.1a.528.528,0,0,0-.505.391l-2.6,9.9a.524.524,0,0,0,.505.651H29.7a.522.522,0,0,0,.521-.521V278.2l8.8.49h.031a.509.509,0,0,0,.323-.115L48.21,271.5a2.05,2.05,0,0,0-.094-3.276ZM29.179,278.685h-4.01l2.328-8.854h1.682v8.854Zm18.38-7.995-8.677,6.943-8.656-.484v-5.755h8.333a1.042,1.042,0,0,1,0,2.083H32.83a.521.521,0,1,0,0,1.042h5.729a2.074,2.074,0,0,0,1.224-.4c.01-.005.021-.016.031-.021l6.495-5a1.013,1.013,0,0,1,1.25,1.594Z" transform="translate(-23.974 -254.727)" fill="#fff"/>
        <path id="XMLID_9017_" d="M214.421,81.208h1.563v1.563a.522.522,0,0,0,.521.521h2.083a.522.522,0,0,0,.521-.521V81.208h1.563a.522.522,0,0,0,.521-.521V78.6a.522.522,0,0,0-.521-.521h-1.562V76.521a.522.522,0,0,0-.521-.521H216.5a.522.522,0,0,0-.521.521v1.563h-1.562a.522.522,0,0,0-.521.521v2.083A.522.522,0,0,0,214.421,81.208Zm.521-2.083H216.5a.522.522,0,0,0,.521-.521V77.042h1.042V78.6a.522.522,0,0,0,.521.521h1.563v1.042h-1.562a.522.522,0,0,0-.521.521V82.25h-1.042V80.688a.522.522,0,0,0-.521-.521h-1.562Z" transform="translate(-204.008 -72.875)" fill="#fff"/>
        <path id="XMLID_9014_" d="M94.421,26.938a.522.522,0,0,0,.521-.521V23.292h2.1a6.77,6.77,0,0,0,13.5,0h2.1v3.125a.521.521,0,0,0,1.042,0V22.771a.522.522,0,0,0-.521-.521h-2.625a6.77,6.77,0,0,0-13.5,0H94.421a.522.522,0,0,0-.521.521v3.646A.522.522,0,0,0,94.421,26.938Zm9.375-9.9a5.729,5.729,0,1,1-5.729,5.729A5.733,5.733,0,0,1,103.8,17.042Z" transform="translate(-90.258 -16)" fill="#fff"/>
        <path id="XMLID_9013_" d="M84.958,436.34a.522.522,0,1,0-.917.49.5.5,0,0,0,.333.219A.522.522,0,0,0,84.958,436.34Z" transform="translate(-80.832 -414.142)" fill="#fff"/>
      </g>
    </g>
  </g>
</svg>
