<svg xmlns="http://www.w3.org/2000/svg" width="36.01" height="36" viewBox="0 0 36.01 36">
  <g id="frozean" transform="translate(-23.974 -16)">
    <g id="XMLID_9004_" transform="translate(23.974 16)">
      <g id="XMLID_9012_" transform="translate(0 0)">
        <path id="XMLID_9020_" d="M58.739,268.4a2.937,2.937,0,0,0-3.517.068l-7.275,5.6a3,3,0,0,0-2.97-2.6h-12v-1.5a.752.752,0,0,0-.75-.75h-3.75a.761.761,0,0,0-.727.563L24,284.018a.754.754,0,0,0,.728.938h7.5a.752.752,0,0,0,.75-.75V282.75l12.667.7h.045a.733.733,0,0,0,.465-.165l12.72-10.177a2.952,2.952,0,0,0-.135-4.717Zm-27.27,15.06H25.694l3.352-12.75h2.423v12.75Zm26.468-11.512-12.5,10-12.465-.7v-8.288h12a1.5,1.5,0,0,1,0,3h-8.25a.75.75,0,1,0,0,1.5h8.25a2.987,2.987,0,0,0,1.762-.577c.015-.008.03-.023.045-.03l9.352-7.2a1.458,1.458,0,0,1,1.8,2.3Z" transform="translate(-23.974 -248.955)" fill="#bb2a22"/>
        <path id="XMLID_9017_" d="M214.65,83.5h2.25v2.25a.752.752,0,0,0,.75.75h3a.752.752,0,0,0,.75-.75V83.5h2.25a.752.752,0,0,0,.75-.75v-3a.752.752,0,0,0-.75-.75H221.4V76.75a.752.752,0,0,0-.75-.75h-3a.752.752,0,0,0-.75.75V79h-2.25a.752.752,0,0,0-.75.75v3A.752.752,0,0,0,214.65,83.5Zm.75-3h2.25a.752.752,0,0,0,.75-.75V77.5h1.5v2.25a.752.752,0,0,0,.75.75h2.25V82h-2.25a.752.752,0,0,0-.75.75V85h-1.5V82.75a.752.752,0,0,0-.75-.75H215.4Z" transform="translate(-199.656 -71.5)" fill="#bb2a22"/>
        <path id="XMLID_9014_" d="M94.65,31.75A.752.752,0,0,0,95.4,31V26.5h3.03a9.749,9.749,0,0,0,19.44,0h3.03V31a.75.75,0,0,0,1.5,0V25.75a.752.752,0,0,0-.75-.75h-3.78a9.749,9.749,0,0,0-19.44,0H94.65a.752.752,0,0,0-.75.75V31A.752.752,0,0,0,94.65,31.75Zm13.5-14.25a8.25,8.25,0,1,1-8.25,8.25A8.255,8.255,0,0,1,108.15,17.5Z" transform="translate(-88.656 -16)" fill="#bb2a22"/>
        <path id="XMLID_9013_" d="M85.4,436.481a.752.752,0,1,0-1.32.7.715.715,0,0,0,.48.315A.752.752,0,0,0,85.4,436.481Z" transform="translate(-79.457 -404.516)" fill="#bb2a22"/>
      </g>
    </g>
  </g>
</svg>
