<svg xmlns="http://www.w3.org/2000/svg" width="25.224" height="25.738" viewBox="0 0 25.224 25.738">
  <g id="Histopathology" transform="translate(-3.112 -2.447)">
    <path id="Path_78" data-name="Path 78" d="M32.633,46.394A4.027,4.027,0,0,1,33.814,48.9H38.78a1.763,1.763,0,0,0,1.764-1.764V45.924a.147.147,0,0,0-.147-.147H31.842A3.906,3.906,0,0,1,32.633,46.394Z" transform="translate(-17.336 -26.302)" fill="none" stroke="#fff" stroke-width="1"/>
    <path id="Path_79" data-name="Path 79" d="M31.944,14.828a.8.8,0,0,0,.8.8h5.58a.8.8,0,0,0,.8-.8V5.849a.8.8,0,0,0-.8-.8h-.733V3.321a.371.371,0,0,0-.37-.374H33.85a.371.371,0,0,0-.37.374V5.046h-.733a.8.8,0,0,0-.8.8V8.183a8.285,8.285,0,0,0-3.608-.864V9.26a3.772,3.772,0,0,1-.054.668,5.707,5.707,0,0,1,3.662,1.37Z" transform="translate(-15.15 0)" fill="none" stroke="#fff" stroke-width="1"/>
    <path id="Path_80" data-name="Path 80" d="M29.417,43.441H28.01v-.949a1.1,1.1,0,0,0-1.1-1.1H17.787v-2.07a3.514,3.514,0,0,0-5.9-2.578,5.684,5.684,0,0,1-2.558-5.572L7.013,29.547a8.313,8.313,0,0,0,3.755,9.582c0,.066,0,.127,0,.193v2.07H9.3a1.1,1.1,0,0,0-1.1,1.1v.949H7a.289.289,0,1,0,0,.579H29.417a.289.289,0,1,0,0-.579ZM14.276,37.855a.98.98,0,1,1-.984.98A.979.979,0,0,1,14.276,37.855Z" transform="translate(-1.87 -16.335)" fill="none" stroke="#fff" stroke-width="1"/>
    <path id="Path_81" data-name="Path 81" d="M45.5,38.7a.445.445,0,0,0,.444-.448v-.934H42.112v.934a.445.445,0,0,0,.444.448Z" transform="translate(-23.643 -21.107)" fill="none" stroke="#fff" stroke-width="1"/>
    <path id="Path_82" data-name="Path 82" d="M5.337,13.684a.655.655,0,0,0,.054.039l2.188,1.532.309.216a.376.376,0,0,0,.444,0l2.5-1.748A4.175,4.175,0,0,0,12.545,11a3.781,3.781,0,0,0,.062-.695V6.048a.385.385,0,0,0-.459-.378A5.855,5.855,0,0,1,8.308,4.7a.377.377,0,0,0-.4,0,5.843,5.843,0,0,1-3.836.965.386.386,0,0,0-.459.378V10.3a4.174,4.174,0,0,0,1.725,3.38ZM8.111,7.31A2.574,2.574,0,1,1,5.538,9.883,2.576,2.576,0,0,1,8.111,7.31Z" transform="translate(0 -1.044)" fill="none" stroke="#fff" stroke-width="1"/>
  </g>
</svg>
