<svg xmlns="http://www.w3.org/2000/svg" width="37.922" height="36.535" viewBox="0 0 37.922 36.535">
  <g id="planning" transform="translate(0.25 -9.442)">
    <g id="Group_194" data-name="Group 194" transform="translate(0 9.727)">
      <path id="Path_621" data-name="Path 621" d="M154.583,182.17H144.474a3.316,3.316,0,0,0-3.312,3.312v4.2a3.316,3.316,0,0,0,3.312,3.312h10.109a3.316,3.316,0,0,0,3.312-3.312v-4.2A3.316,3.316,0,0,0,154.583,182.17Zm1.851,7.508a1.853,1.853,0,0,1-1.851,1.851H144.474a1.853,1.853,0,0,1-1.851-1.851v-4.2a1.853,1.853,0,0,1,1.851-1.851h10.109a1.853,1.853,0,0,1,1.851,1.851Z" transform="translate(-130.844 -169.566)" fill="#bb2a22" stroke="#bb2a22" stroke-width="0.5"/>
      <path id="Path_622" data-name="Path 622" d="M154.583,354.234H144.474a3.316,3.316,0,0,0-3.312,3.312v4.2a3.316,3.316,0,0,0,3.312,3.312h10.109a3.316,3.316,0,0,0,3.312-3.312v-4.2A3.316,3.316,0,0,0,154.583,354.234Zm1.851,7.508a1.853,1.853,0,0,1-1.851,1.851H144.474a1.853,1.853,0,0,1-1.851-1.851v-4.2a1.853,1.853,0,0,1,1.851-1.851h10.109a1.853,1.853,0,0,1,1.851,1.851Z" transform="translate(-130.844 -329.054)" fill="#bb2a22" stroke="#bb2a22" stroke-width="0.5"/>
      <path id="Path_623" data-name="Path 623" d="M154.583,9.727h-1.739a.731.731,0,0,0,0,1.462h1.739a1.853,1.853,0,0,1,1.851,1.851v4.2a1.853,1.853,0,0,1-1.851,1.851H144.474a1.853,1.853,0,0,1-1.851-1.851v-4.2a1.853,1.853,0,0,1,1.851-1.851h1.93a.731.731,0,1,0,0-1.462h-1.93a3.316,3.316,0,0,0-3.312,3.312v4.2a3.316,3.316,0,0,0,3.312,3.312h10.109a3.316,3.316,0,0,0,3.312-3.312v-4.2A3.316,3.316,0,0,0,154.583,9.727Z" transform="translate(-130.844 -9.727)" fill="#bb2a22" stroke="#bb2a22" stroke-width="0.5"/>
      <path id="Path_624" data-name="Path 624" d="M394.811,246.188h-2.278a.731.731,0,0,0,0,1.462h2.278a4.319,4.319,0,0,1,4.315,4.315v2.485a4.319,4.319,0,0,1-4.315,4.315H394.3l.763-.763a.731.731,0,0,0-1.034-1.034l-2.01,2.01a.739.739,0,0,0,0,1.034l2.01,2.01a.731.731,0,1,0,1.034-1.034l-.763-.763h.513a5.783,5.783,0,0,0,5.776-5.776v-2.485A5.783,5.783,0,0,0,394.811,246.188Z" transform="translate(-363.165 -228.905)" fill="#bb2a22" stroke="#bb2a22" stroke-width="0.5"/>
      <path id="Path_625" data-name="Path 625" d="M5.776,89.412H6.29l-.763.763a.731.731,0,0,0,0,1.034.742.742,0,0,0,1.034,0l2.01-2.01a.741.741,0,0,0,0-1.034l-2.01-2.01a.731.731,0,1,0-1.034,1.034l.763.763H5.776a4.32,4.32,0,0,1-4.315-4.315V81.15a4.319,4.319,0,0,1,4.315-4.315H8.054a.731.731,0,1,0,0-1.462H5.776A5.783,5.783,0,0,0,0,81.15v2.485A5.783,5.783,0,0,0,5.776,89.412Z" transform="translate(0 -70.576)" fill="#bb2a22" stroke="#bb2a22" stroke-width="0.5"/>
      <path id="Path_626" data-name="Path 626" d="M26.5,392.757H22.38l.763-.763a.731.731,0,0,0-1.034-1.034l-2.01,2.01a.741.741,0,0,0,0,1.034l2.01,2.01a.742.742,0,0,0,1.034,0,.731.731,0,0,0,0-1.034l-.763-.763H26.5a.731.731,0,1,0,0-1.462Z" transform="translate(-18.435 -362.898)" fill="#bb2a22" stroke="#bb2a22" stroke-width="0.5"/>
      <path id="Path_627" data-name="Path 627" d="M391.792,43.32a.738.738,0,0,0,.063.961l2.01,2.01a.731.731,0,1,0,1.034-1.034l-.763-.763h4.124a.731.731,0,1,0,0-1.462h-4.124l.763-.763a.731.731,0,1,0-1.034-1.034l-2.01,2.01A.759.759,0,0,0,391.792,43.32Z" transform="translate(-363.018 -38.735)" fill="#bb2a22" stroke="#bb2a22" stroke-width="0.5"/>
      <path id="Path_628" data-name="Path 628" d="M190.722,74.477a.731.731,0,0,0,.731.731h8.112a.731.731,0,1,0,0-1.462h-8.112A.731.731,0,0,0,190.722,74.477Z" transform="translate(-176.782 -69.067)" fill="#bb2a22" stroke="#bb2a22" stroke-width="0.5"/>
      <path id="Path_629" data-name="Path 629" d="M196.362,246.188h-4.909a.731.731,0,0,0,0,1.462h4.909a.731.731,0,0,0,0-1.462Z" transform="translate(-176.782 -228.905)" fill="#bb2a22" stroke="#bb2a22" stroke-width="0.5"/>
      <path id="Path_630" data-name="Path 630" d="M199.565,418.632h-8.112a.731.731,0,0,0,0,1.462h8.112a.731.731,0,0,0,0-1.462Z" transform="translate(-176.782 -388.745)" fill="#bb2a22" stroke="#bb2a22" stroke-width="0.5"/>
      <path id="Path_631" data-name="Path 631" d="M303.127,246.7a.73.73,0,1,0-.3.9A.736.736,0,0,0,303.127,246.7Z" transform="translate(-279.67 -228.971)" fill="#bb2a22" stroke="#bb2a22" stroke-width="0.5"/>
      <path id="Path_632" data-name="Path 632" d="M247.588,10.758a.73.73,0,1,0,.4-.955A.737.737,0,0,0,247.588,10.758Z" transform="translate(-229.442 -9.747)" fill="#bb2a22" stroke="#bb2a22" stroke-width="0.5"/>
    </g>
  </g>
</svg>
