<svg xmlns="http://www.w3.org/2000/svg" width="26.423" height="25.453" viewBox="0 0 26.423 25.453">
  <g id="Ordering_Digital_Slides" data-name="Ordering Digital Slides" transform="translate(0.15 -9.554)">
    <g id="Group_194" data-name="Group 194" transform="translate(0 9.727)">
      <path id="Path_621" data-name="Path 621" d="M150.531,182.17h-7.057a2.315,2.315,0,0,0-2.312,2.312v2.929a2.315,2.315,0,0,0,2.312,2.312h7.057a2.315,2.315,0,0,0,2.312-2.312v-2.929A2.315,2.315,0,0,0,150.531,182.17Zm1.292,5.241a1.293,1.293,0,0,1-1.292,1.292h-7.057a1.293,1.293,0,0,1-1.292-1.292v-2.929a1.293,1.293,0,0,1,1.292-1.292h7.057a1.293,1.293,0,0,1,1.292,1.292Z" transform="translate(-133.96 -173.372)" fill="#fff" stroke="#fff" stroke-width="0.3"/>
      <path id="Path_622" data-name="Path 622" d="M150.531,354.234h-7.057a2.315,2.315,0,0,0-2.312,2.312v2.928a2.315,2.315,0,0,0,2.312,2.312h7.057a2.315,2.315,0,0,0,2.312-2.312v-2.928A2.315,2.315,0,0,0,150.531,354.234Zm1.292,5.241a1.293,1.293,0,0,1-1.292,1.292h-7.057a1.293,1.293,0,0,1-1.292-1.292v-2.928a1.293,1.293,0,0,1,1.292-1.292h7.057a1.293,1.293,0,0,1,1.292,1.292Z" transform="translate(-133.96 -336.657)" fill="#fff" stroke="#fff" stroke-width="0.3"/>
      <path id="Path_623" data-name="Path 623" d="M150.531,9.727h-1.214a.51.51,0,1,0,0,1.02h1.214a1.293,1.293,0,0,1,1.292,1.292v2.928a1.293,1.293,0,0,1-1.292,1.292h-7.057a1.293,1.293,0,0,1-1.292-1.292V12.039a1.293,1.293,0,0,1,1.292-1.292h1.347a.51.51,0,1,0,0-1.02h-1.347a2.315,2.315,0,0,0-2.312,2.312v2.928a2.315,2.315,0,0,0,2.312,2.312h7.057a2.315,2.315,0,0,0,2.312-2.312V12.039A2.315,2.315,0,0,0,150.531,9.727Z" transform="translate(-133.96 -9.727)" fill="#fff" stroke="#fff" stroke-width="0.3"/>
      <path id="Path_624" data-name="Path 624" d="M393.9,246.188h-1.59a.51.51,0,1,0,0,1.02h1.59a3.015,3.015,0,0,1,3.012,3.012v1.735a3.015,3.015,0,0,1-3.012,3.012h-.358l.532-.532a.51.51,0,0,0-.722-.722l-1.4,1.4a.516.516,0,0,0,0,.722l1.4,1.4a.51.51,0,1,0,.722-.722l-.532-.532h.358a4.037,4.037,0,0,0,4.032-4.032V250.22A4.037,4.037,0,0,0,393.9,246.188Z" transform="translate(-371.812 -234.124)" fill="#fff" stroke="#fff" stroke-width="0.3"/>
      <path id="Path_625" data-name="Path 625" d="M4.032,85.173h.358l-.532.532a.51.51,0,0,0,0,.722.518.518,0,0,0,.722,0l1.4-1.4a.517.517,0,0,0,0-.722l-1.4-1.4a.51.51,0,0,0-.722.722l.532.532H4.032A3.015,3.015,0,0,1,1.02,81.141V79.406a3.015,3.015,0,0,1,3.012-3.012h1.59a.51.51,0,0,0,0-1.02H4.032A4.037,4.037,0,0,0,0,79.406v1.735A4.037,4.037,0,0,0,4.032,85.173Z" transform="translate(0 -72.025)" fill="#fff" stroke="#fff" stroke-width="0.3"/>
      <path id="Path_626" data-name="Path 626" d="M24.506,392.15H21.627l.532-.532a.51.51,0,0,0-.722-.722l-1.4,1.4a.517.517,0,0,0,0,.722l1.4,1.4a.518.518,0,0,0,.722,0,.51.51,0,0,0,0-.722l-.532-.532h2.879a.51.51,0,1,0,0-1.02Z" transform="translate(-18.874 -371.307)" fill="#fff" stroke="#fff" stroke-width="0.3"/>
      <path id="Path_627" data-name="Path 627" d="M391.747,42.626a.515.515,0,0,0,.044.671l1.4,1.4a.51.51,0,0,0,.722-.722l-.532-.532h2.878a.51.51,0,1,0,0-1.02h-2.878l.532-.532a.51.51,0,0,0-.722-.722l-1.4,1.4A.532.532,0,0,0,391.747,42.626Z" transform="translate(-371.661 -39.426)" fill="#fff" stroke="#fff" stroke-width="0.3"/>
      <path id="Path_628" data-name="Path 628" d="M190.722,74.256a.51.51,0,0,0,.51.51h5.663a.51.51,0,1,0,0-1.02h-5.663A.51.51,0,0,0,190.722,74.256Z" transform="translate(-180.991 -70.48)" fill="#fff" stroke="#fff" stroke-width="0.3"/>
      <path id="Path_629" data-name="Path 629" d="M196.659,246.188h-5.427a.51.51,0,1,0,0,1.02h5.427a.51.51,0,1,0,0-1.02Z" transform="translate(-180.991 -234.124)" fill="#fff" stroke="#fff" stroke-width="0.3"/>
      <path id="Path_630" data-name="Path 630" d="M196.895,418.632h-5.663a.51.51,0,0,0,0,1.02h5.663a.51.51,0,0,0,0-1.02Z" transform="translate(-180.991 -397.769)" fill="#fff" stroke="#fff" stroke-width="0.3"/>
      <path id="Path_632" data-name="Path 632" d="M247.572,10.453a.51.51,0,1,0,.276-.666A.515.515,0,0,0,247.572,10.453Z" transform="translate(-234.904 -9.748)" fill="#fff" stroke="#fff" stroke-width="0.3"/>
    </g>
  </g>
</svg>
