<svg xmlns="http://www.w3.org/2000/svg" width="36.5" height="36.5" viewBox="0 0 36.5 36.5">
  <g id="test" transform="translate(-75.75 0.25)">
    <path id="Path_633" data-name="Path 633" d="M76,36H97V0H76ZM79,2.109H94V33.891H79Z" fill="#bb2a22" stroke="#fff" stroke-width="0.5"/>
    <path id="Path_634" data-name="Path 634" d="M355,7.383V3.164C355,1.419,352.981,0,350.5,0S346,1.419,346,3.164V7.383c0,1.375,1.254,2.547,3,2.983V25.453h-3v7.383c0,1.745,2.019,3.164,4.5,3.164s4.5-1.419,4.5-3.164V25.453h-3V10.365C353.746,9.93,355,8.758,355,7.383Zm-3,25.453c0,.582-.673,1.055-1.5,1.055s-1.5-.473-1.5-1.055V27.563h3ZM349,3.164c0-.582.673-1.055,1.5-1.055s1.5.473,1.5,1.055V7.383c0,.582-.673,1.055-1.5,1.055S349,7.964,349,7.383Z" transform="translate(-243 0)" fill="#bb2a22" stroke="#fff" stroke-width="0.5"/>
    <path id="Path_635" data-name="Path 635" d="M140.5,60c-2.481,0-4.5,1.419-4.5,3.164v4.219c0,1.745,2.019,3.164,4.5,3.164s4.5-1.419,4.5-3.164V63.164C145,61.419,142.981,60,140.5,60Zm1.5,7.383c0,.582-.673,1.055-1.5,1.055s-1.5-.473-1.5-1.055V63.164c0-.582.673-1.055,1.5-1.055s1.5.473,1.5,1.055Z" transform="translate(-54 -55.781)" fill="#bb2a22" stroke="#fff" stroke-width="0.5"/>
    <path id="Path_636" data-name="Path 636" d="M136,256.766h9V242h-9Zm3-2.109v-2.109h3v2.109Zm3-10.547v6.328h-3v-6.328Z" transform="translate(-54 -224.984)" fill="#bb2a22" stroke="#fff" stroke-width="0.5"/>
  </g>
</svg>
