<svg xmlns="http://www.w3.org/2000/svg" width="25.63" height="25.63" viewBox="0 0 25.63 25.63">
  <g id="Primary" transform="translate(-75.75 0.25)">
    <path id="Path_633" data-name="Path 633" d="M76,25.13H90.659V0H76ZM78.094,1.472H88.565V23.658H78.094Z" fill="#fff" stroke="#bb2a22" stroke-width="0.5"/>
    <path id="Path_634" data-name="Path 634" d="M352.283,5.154V2.209C352.283.991,350.873,0,349.141,0S346,.991,346,2.209V5.154c0,.96.875,1.778,2.094,2.082V17.768H346v5.154c0,1.218,1.409,2.209,3.141,2.209s3.141-.991,3.141-2.209V17.768h-2.094V7.236C351.407,6.932,352.283,6.113,352.283,5.154Zm-2.094,17.768c0,.406-.47.736-1.047.736s-1.047-.33-1.047-.736V19.24h2.094ZM348.094,2.209c0-.406.47-.736,1.047-.736s1.047.33,1.047.736V5.154c0,.406-.47.736-1.047.736s-1.047-.33-1.047-.736Z" transform="translate(-251.153 0)" fill="#fff" stroke="#bb2a22" stroke-width="0.5"/>
    <path id="Path_635" data-name="Path 635" d="M139.141,60c-1.732,0-3.141.991-3.141,2.209v2.945c0,1.218,1.409,2.209,3.141,2.209s3.141-.991,3.141-2.209V62.209C142.283,60.991,140.873,60,139.141,60Zm1.047,5.154c0,.406-.47.736-1.047.736s-1.047-.33-1.047-.736V62.209c0-.406.47-.736,1.047-.736s1.047.33,1.047.736Z" transform="translate(-55.812 -57.055)" fill="#fff" stroke="#bb2a22" stroke-width="0.5"/>
    <path id="Path_636" data-name="Path 636" d="M136,252.307h6.283V242H136Zm2.094-1.472v-1.472h2.094v1.472Zm2.094-7.362v4.417h-2.094v-4.417Z" transform="translate(-55.812 -230.122)" fill="#fff" stroke="#bb2a22" stroke-width="0.5"/>
  </g>
</svg>
