<svg xmlns="http://www.w3.org/2000/svg" width="31.641" height="36" viewBox="0 0 31.641 36">
  <g id="urine-test" transform="translate(-31)">
    <path id="Path_637" data-name="Path 637" d="M391,0V36h6.328V0Zm4.219,33.891h-2.109v-12.8h2.109Zm0-14.906h-2.109V14.766h2.109Zm0-6.328h-2.109V8.438h2.109Zm0-6.328h-2.109V2.109h2.109Z" transform="translate(-334.688)" fill="#bb2a22"/>
    <path id="Path_638" data-name="Path 638" d="M51.039,62H34.164A3.168,3.168,0,0,0,31,65.164v5.273h2.109v23.2H52.094v-23.2H54.2V65.164A3.168,3.168,0,0,0,51.039,62ZM49.984,91.531H35.219V76.766H49.984Zm0-16.875H35.219V70.438H49.984Zm2.109-6.328H49.984V66.219H47.875v2.109H45.766V66.219H43.656v2.109H41.547V66.219H39.438v2.109H37.328V66.219H35.219v2.109H33.109V65.164a1.056,1.056,0,0,1,1.055-1.055H51.039a1.056,1.056,0,0,1,1.055,1.055Z" transform="translate(0 -57.641)" fill="#bb2a22"/>
    <path id="Path_639" data-name="Path 639" d="M154.164,329.846a3.168,3.168,0,0,0,3.164-3.164c0-.434-.124-1.226-1.2-3.075-.542-.934-1.077-1.71-1.1-1.743l-.868-1.256-.868,1.256c-.023.033-.557.808-1.1,1.743-1.073,1.85-1.2,2.641-1.2,3.076A3.168,3.168,0,0,0,154.164,329.846Zm0-5.428a7.875,7.875,0,0,1,1.054,2.265,1.055,1.055,0,0,1-2.109,0A7.883,7.883,0,0,1,154.164,324.417Z" transform="translate(-111.563 -298.064)" fill="#bb2a22"/>
  </g>
</svg>
