<svg xmlns="http://www.w3.org/2000/svg" width="28.524" height="25" viewBox="0 0 28.524 25">
  <g id="gallery" transform="translate(0 -26.576)">
    <g id="Group_2069" data-name="Group 2069" transform="translate(0 26.576)">
      <g id="Group_2068" data-name="Group 2068" transform="translate(0 0)">
        <path id="Path_21678" data-name="Path 21678" d="M176.9,159.668a2.91,2.91,0,1,0,2.91,2.91A2.91,2.91,0,0,0,176.9,159.668Zm0,4.434a1.524,1.524,0,0,1,0-3.048h0a1.524,1.524,0,0,1,0,3.048Z" transform="translate(-162.454 -150.844)" fill="#fff"/>
        <path id="Path_21679" data-name="Path 21679" d="M26.049,28.749,7.136,26.6a2.6,2.6,0,0,0-2.044.589,2.632,2.632,0,0,0-1,1.8l-.346,2.84H2.668A2.783,2.783,0,0,0,0,34.707V48.874a2.632,2.632,0,0,0,2.562,2.7H21.684a2.843,2.843,0,0,0,2.91-2.7V48.32a3.464,3.464,0,0,0,1.316-.554,2.875,2.875,0,0,0,1-1.87l1.593-14.063A2.806,2.806,0,0,0,26.049,28.749Zm-2.84,20.125a1.458,1.458,0,0,1-1.524,1.316H2.668a1.247,1.247,0,0,1-1.283-1.21q0-.053,0-.106V46.311l5.369-3.949a1.663,1.663,0,0,1,2.148.1l3.776,3.325a3.256,3.256,0,0,0,2.044.762,3.152,3.152,0,0,0,1.663-.45l6.824-3.949v6.72Zm0-8.348-7.551,4.4a1.767,1.767,0,0,1-2.044-.173L9.8,41.392a3.083,3.083,0,0,0-3.845-.139L1.386,44.579V34.707a1.4,1.4,0,0,1,1.282-1.489H21.684a1.593,1.593,0,0,1,1.524,1.489v5.819Zm3.915-8.881v.014L25.494,45.722a1.178,1.178,0,0,1-.45.935c-.139.139-.45.208-.45.277V34.707a2.979,2.979,0,0,0-2.91-2.875H5.127l.312-2.7a1.593,1.593,0,0,1,.52-.9A1.593,1.593,0,0,1,7,27.952l18.878,2.182A1.386,1.386,0,0,1,27.124,31.645Z" transform="translate(0 -26.576)" fill="#fff"/>
      </g>
    </g>
  </g>
</svg>
