<svg id="location2" xmlns="http://www.w3.org/2000/svg" width="36" height="36" viewBox="0 0 36 36">
  <path id="Path_646" data-name="Path 646" d="M90.558,30.736a34.268,34.268,0,0,0,15.925,0c2.619-.74,3.947-1.811,3.947-3.183s-1.328-2.443-3.947-3.183a24.833,24.833,0,0,0-4.145-.748c3.007-5.132,5.986-10.943,5.986-13.816a9.8,9.8,0,0,0-19.609,0c0,2.874,2.979,8.684,5.986,13.816a24.824,24.824,0,0,0-4.144.749c-2.619.74-3.947,1.811-3.947,3.183S87.939,30,90.558,30.736ZM98.521,2.109A7.7,7.7,0,0,1,106.216,9.8c0,2.179-2.7,7.892-7.213,15.282a.564.564,0,0,1-.963,0c-4.517-7.39-7.213-13.1-7.213-15.282A7.7,7.7,0,0,1,98.521,2.109ZM91.515,26.3a25.638,25.638,0,0,1,4.388-.662l.336.553a2.674,2.674,0,0,0,4.563,0l.336-.553a25.639,25.639,0,0,1,4.388.662c1.928.491,2.632,1.044,2.777,1.256-.145.213-.849.765-2.777,1.256a29.6,29.6,0,0,1-7.006.756,29.6,29.6,0,0,1-7.006-.756c-1.928-.491-2.632-1.044-2.777-1.256C88.883,27.34,89.587,26.787,91.515,26.3Z" transform="translate(-80.521)" fill="#bb2a22"/>
  <path id="Path_647" data-name="Path 647" d="M32.929,357.246a1.055,1.055,0,0,0-1.016,1.849c1.256.69,1.977,1.455,1.977,2.1,0,.788-1.116,2.008-4.248,3.072A37.661,37.661,0,0,1,18,365.9a37.661,37.661,0,0,1-11.643-1.63c-3.132-1.064-4.248-2.285-4.248-3.072,0-.644.721-1.409,1.977-2.1a1.055,1.055,0,0,0-1.016-1.849c-1.4.77-3.071,2.079-3.071,3.948,0,1.433.985,3.475,5.679,5.07A39.79,39.79,0,0,0,18,368.005a39.79,39.79,0,0,0,12.321-1.742c4.693-1.595,5.679-3.637,5.679-5.07C36,359.325,34.33,358.015,32.929,357.246Z" transform="translate(0 -332.005)" fill="#bb2a22"/>
  <path id="Path_648" data-name="Path 648" d="M207.835,77.761a3.941,3.941,0,1,0-3.941,3.941A3.945,3.945,0,0,0,207.835,77.761Zm-5.772,0a1.831,1.831,0,1,1,1.831,1.831A1.833,1.833,0,0,1,202.062,77.761Z" transform="translate(-185.894 -68.63)" fill="#bb2a22"/>
</svg>
