<svg id="Domestic" xmlns="http://www.w3.org/2000/svg" width="25.13" height="25.13" viewBox="0 0 25.13 25.13">
  <path id="Path_646" data-name="Path 646" d="M89.367,21.455a23.921,23.921,0,0,0,11.117,0c1.828-.516,2.756-1.264,2.756-2.222s-.927-1.706-2.756-2.222a17.335,17.335,0,0,0-2.893-.522c2.1-3.582,4.179-7.638,4.179-9.645a6.844,6.844,0,0,0-13.688,0c0,2.006,2.08,6.062,4.179,9.644a17.329,17.329,0,0,0-2.893.523c-1.828.516-2.756,1.264-2.756,2.222S87.538,20.939,89.367,21.455ZM94.925,1.472A5.378,5.378,0,0,1,100.3,6.844c0,1.521-1.882,5.509-5.035,10.668a.394.394,0,0,1-.673,0c-3.153-5.159-5.035-9.147-5.035-10.668A5.378,5.378,0,0,1,94.925,1.472ZM90.034,18.356a17.9,17.9,0,0,1,3.063-.462l.235.386a1.866,1.866,0,0,0,3.185,0l.235-.386a17.9,17.9,0,0,1,3.063.462,3.76,3.76,0,0,1,1.938.877,3.759,3.759,0,0,1-1.938.877,20.66,20.66,0,0,1-4.891.528,20.66,20.66,0,0,1-4.891-.528,3.759,3.759,0,0,1-1.938-.877A3.76,3.76,0,0,1,90.034,18.356Z" transform="translate(-82.36 0)" fill="#fff"/>
  <path id="Path_647" data-name="Path 647" d="M22.987,357.206a.736.736,0,1,0-.709,1.291c.877.482,1.38,1.016,1.38,1.465,0,.55-.779,1.4-2.965,2.145a26.292,26.292,0,0,1-8.127,1.138,26.292,26.292,0,0,1-8.127-1.138c-2.186-.743-2.965-1.595-2.965-2.145,0-.449.5-.984,1.38-1.465a.736.736,0,1,0-.709-1.29C1.166,357.743,0,358.658,0,359.962c0,1,.688,2.426,3.964,3.539a27.776,27.776,0,0,0,8.6,1.216,27.776,27.776,0,0,0,8.6-1.216c3.276-1.113,3.964-2.539,3.964-3.539C25.13,358.658,23.964,357.743,22.987,357.206Z" transform="translate(0 -339.587)" fill="#fff"/>
  <path id="Path_648" data-name="Path 648" d="M205.455,76.571a2.751,2.751,0,1,0-2.751,2.751A2.754,2.754,0,0,0,205.455,76.571Zm-4.029,0a1.278,1.278,0,1,1,1.278,1.278A1.28,1.28,0,0,1,201.425,76.571Z" transform="translate(-190.139 -70.197)" fill="#fff"/>
</svg>
