<svg xmlns="http://www.w3.org/2000/svg" width="23.587" height="25.23" viewBox="0 0 23.587 25.23">
  <g id="International" transform="translate(-15.93 0.05)">
    <g id="Group_197" data-name="Group 197" transform="translate(29.745 1.038)">
      <g id="Group_196" data-name="Group 196" transform="translate(0)">
        <path id="Path_649" data-name="Path 649" d="M278.686,19.832l-.154.823a10.936,10.936,0,0,1,6.1,3.443l.624-.559A11.778,11.778,0,0,0,278.686,19.832Z" transform="translate(-278.532 -19.832)" fill="#fff" stroke="#fff" stroke-width="0.1"/>
      </g>
    </g>
    <g id="Group_199" data-name="Group 199" transform="translate(19.041 1.038)">
      <g id="Group_198" data-name="Group 198" transform="translate(0)">
        <path id="Path_650" data-name="Path 650" d="M80.594,19.832a11.78,11.78,0,0,0-6.516,3.648l.62.563a10.94,10.94,0,0,1,6.049-3.388Z" transform="translate(-74.078 -19.832)" fill="#fff" stroke="#fff" stroke-width="0.1"/>
      </g>
    </g>
    <g id="Group_201" data-name="Group 201" transform="translate(16 8.656)">
      <g id="Group_200" data-name="Group 200" transform="translate(0)">
        <path id="Path_651" data-name="Path 651" d="M17.457,165.611l-.789-.279a11.78,11.78,0,0,0,0,7.818l.789-.279A10.948,10.948,0,0,1,17.457,165.611Z" transform="translate(-16 -165.332)" fill="#fff" stroke="#fff" stroke-width="0.1"/>
      </g>
    </g>
    <g id="Group_203" data-name="Group 203" transform="translate(19.475 20.302)">
      <g id="Group_202" data-name="Group 202" transform="translate(0 0)">
        <path id="Path_652" data-name="Path 652" d="M82.957,387.781l-.59.6a11.667,11.667,0,0,0,6.082,3.195l.154-.823A10.828,10.828,0,0,1,82.957,387.781Z" transform="translate(-82.367 -387.781)" fill="#fff" stroke="#fff" stroke-width="0.1"/>
      </g>
    </g>
    <g id="Group_205" data-name="Group 205" transform="translate(30.147 20.228)">
      <g id="Group_204" data-name="Group 204">
        <path id="Path_653" data-name="Path 653" d="M291.543,386.371a10.861,10.861,0,0,1-5.317,2.957l.186.817a11.693,11.693,0,0,0,5.726-3.184Z" transform="translate(-286.226 -386.371)" fill="#fff" stroke="#fff" stroke-width="0.1"/>
      </g>
    </g>
    <g id="Group_207" data-name="Group 207" transform="translate(37.998 9.525)">
      <g id="Group_206" data-name="Group 206" transform="translate(0)">
        <path id="Path_654" data-name="Path 654" d="M437.231,181.93l-.809.217a10.96,10.96,0,0,1-.25,6.453l.789.279A11.794,11.794,0,0,0,437.231,181.93Z" transform="translate(-436.172 -181.93)" fill="#fff" stroke="#fff" stroke-width="0.1"/>
      </g>
    </g>
    <g id="Group_209" data-name="Group 209" transform="translate(36.523 5.864)">
      <g id="Group_208" data-name="Group 208">
        <path id="Path_655" data-name="Path 655" d="M410.094,112h-1.676a.419.419,0,0,0-.419.419h0v1.675a.419.419,0,0,0,.419.419h1.676a.419.419,0,0,0,.419-.419h0v-1.675A.419.419,0,0,0,410.094,112Zm-.419,1.675h-.838v-.838h.838Z" transform="translate(-408 -112)" fill="#fff" stroke="#fff" stroke-width="0.1"/>
      </g>
    </g>
    <g id="Group_211" data-name="Group 211" transform="translate(26.471 0)">
      <g id="Group_210" data-name="Group 210">
        <path id="Path_656" data-name="Path 656" d="M218.094,0h-1.676A.419.419,0,0,0,216,.419h0V2.094a.419.419,0,0,0,.419.419h1.676a.419.419,0,0,0,.419-.419h0V.419A.419.419,0,0,0,218.094,0Zm-.419,1.675h-.838V.838h.838Z" transform="translate(-216 0)" fill="#fff" stroke="#fff" stroke-width="0.1"/>
      </g>
    </g>
    <g id="Group_213" data-name="Group 213" transform="translate(16.838 5.445)">
      <g id="Group_212" data-name="Group 212" transform="translate(0)">
        <path id="Path_657" data-name="Path 657" d="M34.094,104H32.419a.419.419,0,0,0-.419.419h0v1.675a.419.419,0,0,0,.419.419h1.676a.419.419,0,0,0,.419-.419h0v-1.675A.419.419,0,0,0,34.094,104Zm-.419,1.675h-.838v-.838h.838Z" transform="translate(-32 -104)" fill="#fff" stroke="#fff" stroke-width="0.1"/>
      </g>
    </g>
    <g id="Group_215" data-name="Group 215" transform="translate(16.838 17.172)">
      <g id="Group_214" data-name="Group 214" transform="translate(0 0)">
        <path id="Path_658" data-name="Path 658" d="M34.094,328H32.419a.419.419,0,0,0-.419.419h0v1.675a.419.419,0,0,0,.419.419h1.676a.419.419,0,0,0,.419-.419h0v-1.675A.419.419,0,0,0,34.094,328Zm-.419,1.675h-.838v-.838h.838Z" transform="translate(-32 -328)" fill="#fff" stroke="#fff" stroke-width="0.1"/>
      </g>
    </g>
    <g id="Group_217" data-name="Group 217" transform="translate(26.471 22.617)">
      <g id="Group_216" data-name="Group 216">
        <path id="Path_659" data-name="Path 659" d="M218.094,432h-1.676a.419.419,0,0,0-.419.419h0v1.675a.419.419,0,0,0,.419.419h1.676a.419.419,0,0,0,.419-.419h0v-1.675A.419.419,0,0,0,218.094,432Zm-.419,1.675h-.838v-.838h.838Z" transform="translate(-216 -432)" fill="#fff" stroke="#fff" stroke-width="0.1"/>
      </g>
    </g>
    <g id="Group_219" data-name="Group 219" transform="translate(36.104 17.172)">
      <g id="Group_218" data-name="Group 218" transform="translate(0 0)">
        <path id="Path_660" data-name="Path 660" d="M402.094,328h-1.676a.419.419,0,0,0-.419.419h0v1.675a.419.419,0,0,0,.419.419h1.676a.419.419,0,0,0,.419-.419h0v-1.675A.419.419,0,0,0,402.094,328Zm-.419,1.675h-.838v-.838h.838Z" transform="translate(-400 -328)" fill="#fff" stroke="#fff" stroke-width="0.1"/>
      </g>
    </g>
    <g id="Group_221" data-name="Group 221" transform="translate(19.351 4.188)">
      <g id="Group_220" data-name="Group 220">
        <path id="Path_661" data-name="Path 661" d="M88.377,80a8.377,8.377,0,1,0,8.377,8.377A8.377,8.377,0,0,0,88.377,80Zm-2.448,1.254a7.086,7.086,0,0,0-1.174,1.9c-.543-.061-1.07-.135-1.575-.224A7.541,7.541,0,0,1,85.928,81.254Zm-3.419,2.4c.615.123,1.263.227,1.938.308a13.78,13.78,0,0,0-.666,4H80.859A7.5,7.5,0,0,1,82.509,83.654ZM80.859,88.8h2.922a13.781,13.781,0,0,0,.666,4c-.675.081-1.323.185-1.938.308A7.5,7.5,0,0,1,80.859,88.8Zm2.321,5.029c.5-.089,1.032-.163,1.575-.224a7.086,7.086,0,0,0,1.174,1.9A7.543,7.543,0,0,1,83.18,93.824Zm4.778,2.039a3.908,3.908,0,0,1-2.307-2.349c.748-.061,1.52-.1,2.307-.107Zm0-3.294c-.9.011-1.789.054-2.643.132a12.829,12.829,0,0,1-.7-3.906h3.34Zm0-4.612h-3.34a12.829,12.829,0,0,1,.7-3.906c.853.077,1.739.121,2.643.132Zm0-4.612c-.787-.009-1.559-.045-2.307-.107a3.908,3.908,0,0,1,2.307-2.349Zm7.937,4.612H92.973a13.781,13.781,0,0,0-.666-4c.675-.081,1.323-.185,1.938-.308A7.5,7.5,0,0,1,95.894,87.958Zm-2.321-5.029c-.5.089-1.032.163-1.575.224a7.086,7.086,0,0,0-1.174-1.9A7.543,7.543,0,0,1,93.574,82.929ZM88.8,80.89A3.908,3.908,0,0,1,91.1,83.239c-.748.061-1.52.1-2.307.107Zm0,3.294c.9-.011,1.789-.054,2.643-.132a12.829,12.829,0,0,1,.7,3.906H88.8Zm0,4.612h3.34a12.829,12.829,0,0,1-.7,3.906c-.853-.077-1.739-.121-2.643-.132Zm0,7.068V93.407c.787.009,1.559.045,2.307.107A3.908,3.908,0,0,1,88.8,95.863Zm2.03-.364A7.085,7.085,0,0,0,92,93.6c.543.061,1.07.135,1.575.224A7.541,7.541,0,0,1,90.825,95.5Zm3.419-2.4c-.615-.123-1.263-.227-1.938-.308a13.779,13.779,0,0,0,.666-4h2.922A7.5,7.5,0,0,1,94.244,93.1Z" transform="translate(-80 -80)" fill="#fff" stroke="#fff" stroke-width="0.1"/>
      </g>
    </g>
  </g>
</svg>
