<svg xmlns="http://www.w3.org/2000/svg" width="34.146" height="36.5" viewBox="0 0 34.146 36.5">
  <g id="expand2" transform="translate(-15.721 0.25)">
    <g id="Group_197" data-name="Group 197" transform="translate(35.69 1.487)">
      <g id="Group_196" data-name="Group 196" transform="translate(0)">
        <path id="Path_649" data-name="Path 649" d="M278.752,19.832l-.22,1.18a15.666,15.666,0,0,1,8.738,4.933l.894-.8A16.873,16.873,0,0,0,278.752,19.832Z" transform="translate(-278.532 -19.832)" fill="#bb2a22" stroke="#bb2a22" stroke-width="0.5"/>
      </g>
    </g>
    <g id="Group_199" data-name="Group 199" transform="translate(20.356 1.487)">
      <g id="Group_198" data-name="Group 198" transform="translate(0)">
        <path id="Path_650" data-name="Path 650" d="M83.412,19.832a16.875,16.875,0,0,0-9.334,5.227l.888.806a15.672,15.672,0,0,1,8.666-4.853Z" transform="translate(-74.078 -19.832)" fill="#bb2a22" stroke="#bb2a22" stroke-width="0.5"/>
      </g>
    </g>
    <g id="Group_201" data-name="Group 201" transform="translate(16 12.4)">
      <g id="Group_200" data-name="Group 200" transform="translate(0)">
        <path id="Path_651" data-name="Path 651" d="M18.087,165.732l-1.131-.4a16.876,16.876,0,0,0,0,11.2l1.131-.4A15.683,15.683,0,0,1,18.087,165.732Z" transform="translate(-16 -165.332)" fill="#bb2a22" stroke="#bb2a22" stroke-width="0.5"/>
      </g>
    </g>
    <g id="Group_203" data-name="Group 203" transform="translate(20.978 29.084)">
      <g id="Group_202" data-name="Group 202" transform="translate(0 0)">
        <path id="Path_652" data-name="Path 652" d="M83.212,387.781l-.845.853a16.712,16.712,0,0,0,8.712,4.577l.22-1.18A15.512,15.512,0,0,1,83.212,387.781Z" transform="translate(-82.367 -387.781)" fill="#bb2a22" stroke="#bb2a22" stroke-width="0.5"/>
      </g>
    </g>
    <g id="Group_205" data-name="Group 205" transform="translate(36.267 28.978)">
      <g id="Group_204" data-name="Group 204">
        <path id="Path_653" data-name="Path 653" d="M293.843,386.371a15.558,15.558,0,0,1-7.617,4.236l.266,1.17a16.751,16.751,0,0,0,8.2-4.562Z" transform="translate(-286.226 -386.371)" fill="#bb2a22" stroke="#bb2a22" stroke-width="0.5"/>
      </g>
    </g>
    <g id="Group_207" data-name="Group 207" transform="translate(47.513 13.645)">
      <g id="Group_206" data-name="Group 206" transform="translate(0)">
        <path id="Path_654" data-name="Path 654" d="M437.689,181.93l-1.159.311a15.7,15.7,0,0,1-.358,9.245l1.131.4A16.9,16.9,0,0,0,437.689,181.93Z" transform="translate(-436.172 -181.93)" fill="#bb2a22" stroke="#bb2a22" stroke-width="0.5"/>
      </g>
    </g>
    <g id="Group_209" data-name="Group 209" transform="translate(45.4 8.4)">
      <g id="Group_208" data-name="Group 208">
        <path id="Path_655" data-name="Path 655" d="M411,112h-2.4a.6.6,0,0,0-.6.6h0V115a.6.6,0,0,0,.6.6H411a.6.6,0,0,0,.6-.6h0v-2.4A.6.6,0,0,0,411,112Zm-.6,2.4h-1.2v-1.2h1.2Z" transform="translate(-408 -112)" fill="#bb2a22" stroke="#bb2a22" stroke-width="0.5"/>
      </g>
    </g>
    <g id="Group_211" data-name="Group 211" transform="translate(31 0)">
      <g id="Group_210" data-name="Group 210">
        <path id="Path_656" data-name="Path 656" d="M219,0h-2.4a.6.6,0,0,0-.6.6h0V3a.6.6,0,0,0,.6.6H219a.6.6,0,0,0,.6-.6h0V.6A.6.6,0,0,0,219,0Zm-.6,2.4h-1.2V1.2h1.2Z" transform="translate(-216 0)" fill="#bb2a22" stroke="#bb2a22" stroke-width="0.5"/>
      </g>
    </g>
    <g id="Group_213" data-name="Group 213" transform="translate(17.2 7.8)">
      <g id="Group_212" data-name="Group 212" transform="translate(0)">
        <path id="Path_657" data-name="Path 657" d="M35,104H32.6a.6.6,0,0,0-.6.6h0V107a.6.6,0,0,0,.6.6H35a.6.6,0,0,0,.6-.6h0v-2.4A.6.6,0,0,0,35,104Zm-.6,2.4H33.2v-1.2h1.2Z" transform="translate(-32 -104)" fill="#bb2a22" stroke="#bb2a22" stroke-width="0.5"/>
      </g>
    </g>
    <g id="Group_215" data-name="Group 215" transform="translate(17.2 24.6)">
      <g id="Group_214" data-name="Group 214" transform="translate(0 0)">
        <path id="Path_658" data-name="Path 658" d="M35,328H32.6a.6.6,0,0,0-.6.6h0V331a.6.6,0,0,0,.6.6H35a.6.6,0,0,0,.6-.6h0v-2.4A.6.6,0,0,0,35,328Zm-.6,2.4H33.2v-1.2h1.2Z" transform="translate(-32 -328)" fill="#bb2a22" stroke="#bb2a22" stroke-width="0.5"/>
      </g>
    </g>
    <g id="Group_217" data-name="Group 217" transform="translate(31 32.4)">
      <g id="Group_216" data-name="Group 216">
        <path id="Path_659" data-name="Path 659" d="M219,432h-2.4a.6.6,0,0,0-.6.6h0V435a.6.6,0,0,0,.6.6H219a.6.6,0,0,0,.6-.6h0v-2.4A.6.6,0,0,0,219,432Zm-.6,2.4h-1.2v-1.2h1.2Z" transform="translate(-216 -432)" fill="#bb2a22" stroke="#bb2a22" stroke-width="0.5"/>
      </g>
    </g>
    <g id="Group_219" data-name="Group 219" transform="translate(44.8 24.6)">
      <g id="Group_218" data-name="Group 218" transform="translate(0 0)">
        <path id="Path_660" data-name="Path 660" d="M403,328h-2.4a.6.6,0,0,0-.6.6h0V331a.6.6,0,0,0,.6.6H403a.6.6,0,0,0,.6-.6h0v-2.4A.6.6,0,0,0,403,328Zm-.6,2.4h-1.2v-1.2h1.2Z" transform="translate(-400 -328)" fill="#bb2a22" stroke="#bb2a22" stroke-width="0.5"/>
      </g>
    </g>
    <g id="Group_221" data-name="Group 221" transform="translate(20.8 6)">
      <g id="Group_220" data-name="Group 220">
        <path id="Path_661" data-name="Path 661" d="M92,80a12,12,0,1,0,12,12A12,12,0,0,0,92,80Zm-3.507,1.8a10.15,10.15,0,0,0-1.682,2.72c-.778-.088-1.532-.194-2.256-.321A10.8,10.8,0,0,1,88.493,81.8Zm-4.9,3.438c.882.176,1.809.325,2.776.441a19.74,19.74,0,0,0-.954,5.725H81.23A10.738,10.738,0,0,1,83.594,85.235ZM81.23,92.6h4.186a19.742,19.742,0,0,0,.954,5.725c-.968.116-1.895.265-2.776.441A10.739,10.739,0,0,1,81.23,92.6Zm3.325,7.2c.723-.127,1.478-.233,2.256-.321a10.151,10.151,0,0,0,1.682,2.72A10.805,10.805,0,0,1,84.555,99.8Zm6.845,2.921c-1.284-.3-2.445-1.545-3.305-3.366,1.071-.088,2.178-.139,3.305-.153Zm0-4.718c-1.294.015-2.563.078-3.786.188a18.379,18.379,0,0,1-1-5.6H91.4Zm0-6.607H86.616a18.379,18.379,0,0,1,1-5.6c1.222.111,2.492.173,3.786.188Zm0-6.607c-1.128-.013-2.234-.065-3.305-.153.86-1.821,2.021-3.066,3.305-3.366ZM102.77,91.4H98.584a19.742,19.742,0,0,0-.954-5.725c.968-.116,1.895-.265,2.776-.441A10.739,10.739,0,0,1,102.77,91.4Zm-3.325-7.2c-.723.127-1.478.233-2.256.321a10.151,10.151,0,0,0-1.682-2.72A10.806,10.806,0,0,1,99.445,84.2ZM92.6,81.275c1.284.3,2.445,1.545,3.305,3.366-1.071.088-2.178.139-3.305.153Zm0,4.718c1.294-.015,2.563-.078,3.786-.188a18.379,18.379,0,0,1,1,5.6H92.6Zm0,6.607h4.784a18.379,18.379,0,0,1-1,5.6c-1.222-.111-2.492-.173-3.786-.188Zm0,10.125V99.207c1.128.013,2.234.065,3.305.153C95.045,101.18,93.884,102.426,92.6,102.725Zm2.907-.521a10.15,10.15,0,0,0,1.682-2.72c.778.088,1.532.194,2.256.321A10.8,10.8,0,0,1,95.507,102.2Zm4.9-3.438c-.882-.176-1.809-.325-2.776-.441a19.74,19.74,0,0,0,.954-5.725h4.186A10.738,10.738,0,0,1,100.406,98.765Z" transform="translate(-80 -80)" fill="#bb2a22" stroke="#bb2a22" stroke-width="0.5"/>
      </g>
    </g>
  </g>
</svg>
