<svg xmlns="http://www.w3.org/2000/svg" width="32.898" height="36.504" viewBox="0 0 32.898 36.504">
  <g id="_022---India-Location-Pin" data-name="022---India-Location-Pin" transform="translate(0.244 0.25)">
    <path id="Shape" d="M15,15.4A2.4,2.4,0,1,0,17.4,13,2.4,2.4,0,0,0,15,15.4Zm3.6,0a1.2,1.2,0,1,1-1.2-1.2A1.2,1.2,0,0,1,18.6,15.4Z" transform="translate(-5.999 -5.202)" fill="#bb2a22" stroke="#bb2a22" stroke-width="0.5"/>
    <path id="Shape-2" data-name="Shape" d="M.771,15.35l-.414.414a1.2,1.2,0,0,0,.2,1.854l1.116.768A1.2,1.2,0,0,0,1,20.113a3.671,3.671,0,0,0,2.04,1.35A1.728,1.728,0,0,0,5.4,20.4l.222.222c0,1.134.174,5,1.26,7.2,1.2,2.351,2.939,4.727,2.939,6.316a1.692,1.692,0,0,0,1.776,1.86,1.26,1.26,0,0,0,1.272-.684c.426-.93,1.152-.282,1.758-1.092a1.116,1.116,0,0,0,.2-.864,3.911,3.911,0,0,1,.414-1.7,5.6,5.6,0,0,0,0-5.009c2.016-1.344,3.7-3.161,6.862-6.316.558-.552.174-1.2.744-1.752a1.38,1.38,0,0,1,.6,0,1.338,1.338,0,0,0,1.326-1.71,8.188,8.188,0,0,0-1.6-2.471L23,14.259l.552-.474v-.06l.78.486a1.2,1.2,0,0,0,.954.054L25.809,14l-.33.942a1.2,1.2,0,0,0,.6,1.344l1.362.888a1.2,1.2,0,0,0,1.728-.63,17.084,17.084,0,0,0,1.08-4.595c0-.768.786-1.074,1.254-1.2A1.2,1.2,0,0,0,32.4,9.6V8.518a1.68,1.68,0,0,0-.6-1.446,3.145,3.145,0,0,0-3.725.2c-1.9,1.266-1.8,2.969-3.3,3.467a.336.336,0,0,1-.2,0c-.27-.138-.492-1.128-.7-1.632a1.2,1.2,0,0,0-1.926-.432l-.864.744a1.2,1.2,0,0,0-.228,1.386c.036.066.054.084.33.468l-.732.72-.948-.282a1.2,1.2,0,0,0-1.422.6.156.156,0,0,1-.2.066l-1.422-.774A4.847,4.847,0,0,0,16.8,9.994a5.249,5.249,0,0,0-4.307-5.087,5.483,5.483,0,0,1,.96-1.146,1.2,1.2,0,0,0,.18-1.542l-.6-.912A1.2,1.2,0,0,0,11.5.9l-1.548.762L8.629.348A1.2,1.2,0,0,0,7.8,0H5.725a1.2,1.2,0,0,0-1,.534L4.04,1.56a1.2,1.2,0,0,0-.18.906c.12.6.432.7,1.374,1.35l-.072.138a1.2,1.2,0,0,0,.36,1.5l1.722,1.26A5.117,5.117,0,0,0,6.283,8.4L4.232,11.175l-.354-.228a1.2,1.2,0,0,0-1.6.372c-.036.048-.048.084-.666,1.3a1.2,1.2,0,0,0,0,1.3l1.02,1.332-.75-.222a1.2,1.2,0,0,0-1.116.33ZM15.6,9.994c0,1.2-1.458,3.923-3.893,7.258a.372.372,0,0,1-.6,0C8.683,13.917,7.2,11.2,7.2,9.994a4.1,4.1,0,0,1,4.2-4,4.1,4.1,0,0,1,4.2,4ZM11.4,20.4a2.4,2.4,0,0,1-2.07-3.6c.276.4.552.78.822,1.146a1.572,1.572,0,0,0,2.525,0c.258-.36.534-.738.8-1.128A2.4,2.4,0,0,1,11.4,20.4ZM5.905,2.819l-.87-.6.69-1.02H7.8l1.32,1.314a1.2,1.2,0,0,0,1.386.222l1.542-.762.6.9A6,6,0,0,0,11.2,4.8,5.4,5.4,0,0,0,8.137,5.867l-1.9-1.38.066-.138a1.2,1.2,0,0,0-.4-1.53ZM3.6,15.962a1.2,1.2,0,0,0,.03-1.38c-1.116-1.476-1-1.3-.96-1.386l.6-1.2.348.228A1.2,1.2,0,0,0,5.2,11.877l.894-1.2A17.278,17.278,0,0,0,8.6,15.746a3.6,3.6,0,1,0,5.6,0A27.852,27.852,0,0,0,16,12.657l1.314.714a1.38,1.38,0,0,0,1.854-.552l.96.288a1.2,1.2,0,0,0,1.152-.282l.8-.7a1.2,1.2,0,0,0,.174-1.47l-.276-.384L22.8,9.6c.264.66.426,1.83,1.26,2.255a1.416,1.416,0,0,0,1.14.024c2.076-.684,1.92-2.489,3.6-3.6A2.014,2.014,0,0,1,31.093,8c.162.132.126.156.144,1.614a2.47,2.47,0,0,0-2.171,2.351,16.627,16.627,0,0,1-1.014,4.2L26.726,15.3c-.06-.048-.2.372.252-.918a1.2,1.2,0,0,0-1.572-1.416l-.516.2-.732-.462a1.2,1.2,0,0,0-1.35.192l-.6.51A1.2,1.2,0,0,0,22.1,15a8.4,8.4,0,0,1,1.53,2.219.24.24,0,0,1-.078.162,1.848,1.848,0,0,0-1.554.33,2.777,2.777,0,0,0-.756,1.77c-2.963,2.951-4.8,4.913-6.682,6.167A1.2,1.2,0,0,0,14.1,27.03a6.191,6.191,0,0,1,.534,2.279c0,1.344-1.2,2.819-.99,4.2A2.135,2.135,0,0,0,11.8,34.792c-.6.078-.768-.126-.768-.678,0-2-1.848-4.421-3.065-6.85-1-1.992-1.122-5.9-1.134-6.658a1.2,1.2,0,0,0-.354-.81l-.222-.222a1.2,1.2,0,0,0-1.974.438c-.138.36-.312.522-.864.336a2.735,2.735,0,0,1-1.374-.8,1.2,1.2,0,0,0,.27-2.153L1.2,16.61l.39-.42.756.222a1.2,1.2,0,0,0,1.254-.45Z" transform="translate(0)" fill="#bb2a22" stroke="#bb2a22" stroke-width="0.5"/>
  </g>
</svg>
