<svg xmlns="http://www.w3.org/2000/svg" width="22.916" height="25.433" viewBox="0 0 22.916 25.433">
  <g id="National" transform="translate(0.144 0.15)">
    <path id="Shape" d="M15,14.675A1.675,1.675,0,1,0,16.675,13,1.675,1.675,0,0,0,15,14.675Zm2.512,0a.837.837,0,1,1-.837-.837A.837.837,0,0,1,17.512,14.675Z" transform="translate(-8.715 -7.556)" fill="#fff" stroke="#fff" stroke-width="0.3"/>
    <path id="Shape-2" data-name="Shape" d="M.54,10.715.251,11A.837.837,0,0,0,.389,12.3l.779.536A.837.837,0,0,0,.7,14.04a2.563,2.563,0,0,0,1.424.942,1.206,1.206,0,0,0,1.646-.745l.155.155a13.913,13.913,0,0,0,.879,5.025c.837,1.641,2.052,3.3,2.052,4.409a1.181,1.181,0,0,0,1.239,1.3.879.879,0,0,0,.888-.477c.3-.649.8-.2,1.227-.762a.779.779,0,0,0,.142-.6,2.73,2.73,0,0,1,.289-1.185,3.906,3.906,0,0,0,0-3.5,35.413,35.413,0,0,0,4.79-4.409c.389-.385.121-.837.519-1.223a.963.963,0,0,1,.419,0,.934.934,0,0,0,.925-1.193,5.716,5.716,0,0,0-1.114-1.725l-.13-.1.385-.331V9.581l.544.339a.837.837,0,0,0,.666.038l.368-.184-.23.657a.837.837,0,0,0,.419.938l.951.62a.837.837,0,0,0,1.206-.44,11.926,11.926,0,0,0,.754-3.207c0-.536.549-.75.875-.837a.837.837,0,0,0,.624-.8V5.946A1.172,1.172,0,0,0,22.2,4.937a2.2,2.2,0,0,0-2.6.142c-1.323.884-1.256,2.073-2.3,2.42a.235.235,0,0,1-.138,0c-.188-.1-.343-.787-.486-1.139a.837.837,0,0,0-1.344-.3l-.6.519a.837.837,0,0,0-.159.967c.025.046.038.059.23.327l-.511.5-.662-.2a.837.837,0,0,0-.992.419.109.109,0,0,1-.142.046l-.992-.54a3.383,3.383,0,0,0,.234-1.126A3.664,3.664,0,0,0,8.722,3.425a3.827,3.827,0,0,1,.67-.8.837.837,0,0,0,.126-1.076L9.1.913A.837.837,0,0,0,8.027.628l-1.08.532L6.026.243A.837.837,0,0,0,5.448,0H4a.837.837,0,0,0-.7.373l-.482.716a.837.837,0,0,0-.126.632c.084.419.3.49.959.942l-.05.1a.837.837,0,0,0,.251,1.047l1.2.879a3.572,3.572,0,0,0-.67,1.177L2.956,7.8l-.247-.159A.837.837,0,0,0,1.6,7.9c-.025.033-.033.059-.465.9a.837.837,0,0,0,0,.9l.712.93-.523-.155a.837.837,0,0,0-.779.23ZM10.891,6.976c0,.837-1.018,2.739-2.718,5.067a.26.26,0,0,1-.419,0C6.063,9.715,5.029,7.818,5.029,6.976A2.86,2.86,0,0,1,7.96,4.187a2.86,2.86,0,0,1,2.931,2.789ZM7.96,14.237a1.675,1.675,0,0,1-1.445-2.512c.193.276.385.544.574.8a1.1,1.1,0,0,0,1.763,0c.18-.251.373-.515.561-.787a1.675,1.675,0,0,1-1.453,2.5ZM4.124,1.968l-.607-.419L4,.837H5.448l.921.917a.837.837,0,0,0,.967.155l1.076-.532.419.628A4.187,4.187,0,0,0,7.818,3.35,3.769,3.769,0,0,0,5.682,4.1L4.359,3.132l.046-.1a.837.837,0,0,0-.281-1.068ZM2.517,11.142a.837.837,0,0,0,.021-.963c-.779-1.03-.7-.909-.67-.967l.419-.837.243.159a.837.837,0,0,0,1.1-.243l.624-.837A12.061,12.061,0,0,0,6,10.992a2.512,2.512,0,1,0,3.907,0,19.442,19.442,0,0,0,1.256-2.156l.917.5a.963.963,0,0,0,1.294-.385l.67.2a.837.837,0,0,0,.8-.2l.557-.486a.837.837,0,0,0,.121-1.026l-.193-.268.578-.473c.184.461.3,1.277.879,1.574a.988.988,0,0,0,.8.017c1.449-.477,1.34-1.738,2.512-2.512a1.406,1.406,0,0,1,1.6-.193c.113.092.088.109.1,1.126a1.724,1.724,0,0,0-1.516,1.641,11.606,11.606,0,0,1-.708,2.931l-.925-.6c-.042-.033-.138.26.176-.641a.837.837,0,0,0-1.1-.988l-.36.142-.511-.322a.837.837,0,0,0-.942.134l-.419.356a.837.837,0,0,0-.075,1.105A5.862,5.862,0,0,1,16.5,12.018a.167.167,0,0,1-.054.113,1.29,1.29,0,0,0-1.085.23,1.939,1.939,0,0,0-.528,1.235,36.444,36.444,0,0,1-4.665,4.3.837.837,0,0,0-.322.967,4.321,4.321,0,0,1,.373,1.591c0,.938-.837,1.968-.691,2.931a1.491,1.491,0,0,0-1.286.9c-.419.054-.536-.088-.536-.473,0-1.4-1.29-3.086-2.14-4.782a13.684,13.684,0,0,1-.791-4.648.837.837,0,0,0-.247-.565l-.155-.155a.837.837,0,0,0-1.378.306c-.1.251-.218.364-.6.234a1.909,1.909,0,0,1-.959-.557.837.837,0,0,0,.188-1.5l-.779-.549.272-.293.528.155a.837.837,0,0,0,.875-.314Z" transform="translate(0)" fill="#fff" stroke="#fff" stroke-width="0.3"/>
  </g>
</svg>
