<svg xmlns="http://www.w3.org/2000/svg" width="22.087" height="25.13" viewBox="0 0 22.087 25.13">
  <g id="Secondary" transform="translate(-31)">
    <path id="Path_637" data-name="Path 637" d="M391,0V25.13h4.417V0Zm2.945,23.658h-1.472V14.725h1.472Zm0-10.405h-1.472V10.307h1.472Zm0-4.417h-1.472V5.89h1.472Zm0-4.417h-1.472V1.472h1.472Z" transform="translate(-342.33)" fill="#fff"/>
    <path id="Path_638" data-name="Path 638" d="M44.988,62H33.209A2.211,2.211,0,0,0,31,64.209V67.89h1.472v16.2H45.725V67.89H47.2V64.209A2.211,2.211,0,0,0,44.988,62Zm-.736,20.614H33.945V72.307H44.252Zm0-11.78H33.945V67.89H44.252Zm1.472-4.417H44.252V64.945H42.78v1.472H41.307V64.945H39.835v1.472H38.362V64.945H36.89v1.472H35.417V64.945H33.945v1.472H32.472V64.209a.737.737,0,0,1,.736-.736h11.78a.737.737,0,0,1,.736.736Z" transform="translate(0 -58.957)" fill="#fff"/>
    <path id="Path_639" data-name="Path 639" d="M153.209,327.056a2.211,2.211,0,0,0,2.209-2.209,4.51,4.51,0,0,0-.836-2.147c-.378-.652-.752-1.194-.767-1.217l-.606-.877-.606.877c-.016.023-.389.564-.767,1.217a4.51,4.51,0,0,0-.836,2.147A2.211,2.211,0,0,0,153.209,327.056Zm0-3.789a5.5,5.5,0,0,1,.736,1.581.736.736,0,0,1-1.472,0A5.5,5.5,0,0,1,153.209,323.267Z" transform="translate(-114.11 -304.871)" fill="#fff"/>
  </g>
</svg>
