<svg xmlns="http://www.w3.org/2000/svg" width="25.43" height="25.43" viewBox="0 0 25.43 25.43">
  <g id="Cancer_" data-name="Cancer &amp;" transform="translate(0.15 0.15)">
    <path id="Path_211" data-name="Path 211" d="M10.383,3.878a6.67,6.67,0,0,0,.864-3.51A.368.368,0,0,0,10.879,0H8.9a.368.368,0,0,0-.368.368,5.576,5.576,0,0,1-.085,1.07H2.8A5.591,5.591,0,0,1,2.719.368.368.368,0,0,0,2.351,0H.368A.368.368,0,0,0,0,.368,6.973,6.973,0,0,0,.617,3.412,7.636,7.636,0,0,0,3.1,6.26,8.628,8.628,0,0,0,.759,9.285,8.05,8.05,0,0,0,0,12.565a8.03,8.03,0,0,0,.683,3.111.368.368,0,1,0,.675-.295,7.266,7.266,0,0,1-.621-2.816,7.286,7.286,0,0,1,.691-2.971A8.436,8.436,0,0,1,5.336,5.666a8.056,8.056,0,0,0,3.3-2.719A4.4,4.4,0,0,0,9.258.736H10.5c-.073,1.9-.788,4.054-4.593,6.035a7.219,7.219,0,0,0-3.353,3.347,5.994,5.994,0,0,0-.575,2.446,5.994,5.994,0,0,0,.575,2.446,6.855,6.855,0,0,0,2.362,2.748l-1.173.684a8.236,8.236,0,0,1-1.57-1.626.368.368,0,1,0-.6.432A8.906,8.906,0,0,0,3.1,18.869,7.637,7.637,0,0,0,.617,21.718,6.973,6.973,0,0,0,0,24.762a.368.368,0,0,0,.368.368H2.351a.368.368,0,0,0,.368-.368,5.576,5.576,0,0,1,.085-1.07H8.443a5.591,5.591,0,0,1,.085,1.07.368.368,0,0,0,.368.368h1.983a.368.368,0,0,0,.368-.368,6.973,6.973,0,0,0-.617-3.044A7.636,7.636,0,0,0,8.144,18.87a8.628,8.628,0,0,0,2.345-3.024,8.05,8.05,0,0,0,.759-3.28,8.018,8.018,0,0,0-.638-3.006.368.368,0,0,0-.679.285,7.253,7.253,0,0,1,.58,2.721,7.286,7.286,0,0,1-.691,2.971,8.436,8.436,0,0,1-3.909,3.929,8.056,8.056,0,0,0-3.3,2.719,4.4,4.4,0,0,0-.621,2.211H.743c.06-1.606.572-3.441,3.172-5.2a14.6,14.6,0,0,0,3.7-2.568,6.535,6.535,0,0,0,1.072-1.618,5.994,5.994,0,0,0,.575-2.446,5.994,5.994,0,0,0-.575-2.446,6.852,6.852,0,0,0-2.351-2.74q.63-.332,1.174-.683a8.2,8.2,0,0,1,1.614,1.7.368.368,0,0,0,.6-.424A8.881,8.881,0,0,0,8.145,6.262a8.027,8.027,0,0,0,2.239-2.384ZM.743.736H1.99c.052,1.315.458,2.8,2.889,4.339a10.987,10.987,0,0,0-1.165.718A6.055,6.055,0,0,1,.743.736Zm4.881,3.93A5.762,5.762,0,0,1,3.032,2.174H8.214A5.746,5.746,0,0,1,5.624,4.667ZM10.5,24.394H9.258c-.052-1.315-.458-2.8-2.889-4.339a10.988,10.988,0,0,0,1.165-.718,6.055,6.055,0,0,1,2.97,5.057Zm-4.881-3.93a5.761,5.761,0,0,1,2.592,2.493H3.033A5.746,5.746,0,0,1,5.623,20.463Zm0-3.121a6.573,6.573,0,0,1-1.9-1.781H6.169a.368.368,0,1,0,0-.736H3.287a5.449,5.449,0,0,1-.548-1.892H8.509A5.455,5.455,0,0,1,8.021,14.7a6.244,6.244,0,0,1-2.4,2.641Zm1.9-7.773H5.078a.368.368,0,1,0,0,.736H7.961A5.449,5.449,0,0,1,8.509,12.2H2.738a5.455,5.455,0,0,1,.488-1.768,6.241,6.241,0,0,1,2.4-2.641A6.574,6.574,0,0,1,7.526,9.569Z" fill="#fff" stroke="#fff" stroke-width="0.3"/>
    <path id="Path_212" data-name="Path 212" d="M253.689,137.382a5.771,5.771,0,0,0-3.509,1.176.368.368,0,0,0,.444.587,5.04,5.04,0,0,1,3.065-1.027,5.086,5.086,0,1,1-5.046,5.727.368.368,0,0,0-.206-.286l-.74-.355.74-.355a.368.368,0,0,0,.206-.286,5.083,5.083,0,0,1,.853-2.238.368.368,0,0,0-.607-.417,5.827,5.827,0,0,0-.948,2.363l-1.254.6a.368.368,0,0,0,0,.664l1.254.6a5.822,5.822,0,1,0,5.747-6.756Z" transform="translate(-234.381 -130.639)" fill="#fff" stroke="#fff" stroke-width="0.3"/>
  </g>
</svg>
